<svg width="124" height="142" viewBox="0 0 124 142" fill="none" xmlns="http://www.w3.org/2000/svg">
<rect width="124" height="142" rx="8" fill="#D09999"/>
<path d="M15.784 39L23.272 22.2H27.112L34.624 39H30.544L24.4 24.168H25.936L19.768 39H15.784ZM19.528 35.4L20.56 32.448H29.2L30.256 35.4H19.528ZM35.0605 33.744V30.744H41.8525V33.744H35.0605Z" fill="white"/>
<path d="M81.424 36.596C80.432 36.596 79.5947 36.3773 78.912 35.94C78.2293 35.492 77.712 34.852 77.36 34.02C77.008 33.1773 76.832 32.1693 76.832 30.996C76.832 29.7267 77.0453 28.6653 77.472 27.812C77.9093 26.948 78.512 26.2973 79.28 25.86C80.048 25.4227 80.9387 25.204 81.952 25.204C82.4533 25.204 82.9333 25.252 83.392 25.348C83.8507 25.444 84.256 25.5987 84.608 25.812L84.144 26.74C83.856 26.548 83.5253 26.4147 83.152 26.34C82.7787 26.2547 82.384 26.212 81.968 26.212C80.7627 26.212 79.7973 26.596 79.072 27.364C78.3573 28.132 78 29.2787 78 30.804C78 31.0387 78.0107 31.332 78.032 31.684C78.064 32.0253 78.128 32.3667 78.224 32.708L77.824 32.404C77.9413 31.8493 78.1707 31.38 78.512 30.996C78.8533 30.6013 79.28 30.3027 79.792 30.1C80.304 29.8973 80.864 29.796 81.472 29.796C82.2187 29.796 82.8747 29.9347 83.44 30.212C84.0053 30.4893 84.448 30.8787 84.768 31.38C85.088 31.8813 85.248 32.4733 85.248 33.156C85.248 33.8493 85.0827 34.4573 84.752 34.98C84.4213 35.492 83.9627 35.892 83.376 36.18C82.8 36.4573 82.1493 36.596 81.424 36.596ZM81.376 35.62C81.9093 35.62 82.3787 35.524 82.784 35.332C83.2 35.1293 83.5253 34.8467 83.76 34.484C83.9947 34.1107 84.112 33.6787 84.112 33.188C84.112 32.452 83.856 31.8653 83.344 31.428C82.8427 30.9907 82.16 30.772 81.296 30.772C80.72 30.772 80.2187 30.8787 79.792 31.092C79.3653 31.3053 79.0293 31.5987 78.784 31.972C78.5387 32.3347 78.416 32.7507 78.416 33.22C78.416 33.6253 78.528 34.0147 78.752 34.388C78.976 34.7507 79.3067 35.0493 79.744 35.284C80.192 35.508 80.736 35.62 81.376 35.62ZM90.118 36.596C89.318 36.596 88.5553 36.468 87.83 36.212C87.1047 35.9453 86.5287 35.5933 86.102 35.156L86.662 34.244C87.014 34.6173 87.494 34.9267 88.102 35.172C88.7207 35.4173 89.3873 35.54 90.102 35.54C91.0513 35.54 91.7713 35.332 92.262 34.916C92.7633 34.4893 93.014 33.9347 93.014 33.252C93.014 32.772 92.8967 32.3613 92.662 32.02C92.438 31.668 92.054 31.396 91.51 31.204C90.966 31.012 90.2193 30.916 89.27 30.916H86.886L87.462 25.3H93.59V26.324H87.926L88.518 25.764L88.022 30.468L87.43 29.892H89.526C90.6567 29.892 91.5633 30.0307 92.246 30.308C92.9287 30.5853 93.4193 30.9747 93.718 31.476C94.0273 31.9667 94.182 32.5427 94.182 33.204C94.182 33.8333 94.0327 34.4093 93.734 34.932C93.4353 35.444 92.9873 35.8493 92.39 36.148C91.7927 36.4467 91.0353 36.596 90.118 36.596ZM96.9923 36.5L104.64 25.3H105.584L97.9363 36.5H96.9923ZM97.8563 31.3C97.3549 31.3 96.9123 31.1773 96.5283 30.932C96.1443 30.676 95.8456 30.3187 95.6323 29.86C95.4296 29.4013 95.3283 28.868 95.3283 28.26C95.3283 27.652 95.4296 27.1187 95.6323 26.66C95.8456 26.2013 96.1443 25.8493 96.5283 25.604C96.9123 25.348 97.3549 25.22 97.8563 25.22C98.3576 25.22 98.7949 25.348 99.1683 25.604C99.5523 25.8493 99.8509 26.2013 100.064 26.66C100.278 27.1187 100.384 27.652 100.384 28.26C100.384 28.868 100.278 29.4013 100.064 29.86C99.8509 30.3187 99.5523 30.676 99.1683 30.932C98.7949 31.1773 98.3576 31.3 97.8563 31.3ZM97.8563 30.58C98.3789 30.58 98.7949 30.3773 99.1043 29.972C99.4243 29.556 99.5843 28.9853 99.5843 28.26C99.5843 27.5347 99.4243 26.9693 99.1043 26.564C98.7949 26.148 98.3789 25.94 97.8563 25.94C97.3229 25.94 96.9016 26.148 96.5923 26.564C96.2829 26.9693 96.1283 27.5347 96.1283 28.26C96.1283 28.9853 96.2829 29.556 96.5923 29.972C96.9016 30.3773 97.3229 30.58 97.8563 30.58ZM104.72 36.58C104.23 36.58 103.792 36.4573 103.408 36.212C103.024 35.956 102.726 35.5987 102.512 35.14C102.299 34.6813 102.192 34.148 102.192 33.54C102.192 32.932 102.299 32.3987 102.512 31.94C102.726 31.4813 103.024 31.1293 103.408 30.884C103.792 30.628 104.23 30.5 104.72 30.5C105.232 30.5 105.675 30.628 106.048 30.884C106.432 31.1293 106.726 31.4813 106.928 31.94C107.142 32.3987 107.248 32.932 107.248 33.54C107.248 34.148 107.142 34.6813 106.928 35.14C106.726 35.5987 106.432 35.956 106.048 36.212C105.675 36.4573 105.232 36.58 104.72 36.58ZM104.72 35.86C105.243 35.86 105.659 35.6573 105.968 35.252C106.288 34.836 106.448 34.2653 106.448 33.54C106.448 32.8147 106.288 32.2493 105.968 31.844C105.659 31.428 105.243 31.22 104.72 31.22C104.198 31.22 103.776 31.428 103.456 31.844C103.147 32.2493 102.992 32.8147 102.992 33.54C102.992 34.2653 103.147 34.836 103.456 35.252C103.776 35.6573 104.198 35.86 104.72 35.86Z" fill="white"/>
<circle cx="62" cy="93.5" r="32.5" fill="#8B0000"/>
<path d="M42.2488 119.31C46.3568 122.453 51.156 124.571 56.2473 125.487C61.3385 126.402 66.5748 126.09 71.5208 124.574C76.4668 123.059 80.9797 120.385 84.6841 116.774C88.3886 113.163 91.1777 108.721 92.8196 103.815C94.4614 98.9098 94.9086 93.6832 94.1239 88.5702C93.3393 83.4571 91.3454 78.6051 88.3081 74.4177C85.2708 70.2303 81.2779 66.8284 76.6612 64.4948C72.0445 62.1612 66.9375 60.9634 61.7646 61.0009L62 93.5L42.2488 119.31Z" fill="white"/>
<circle cx="62" cy="93.5" r="27.5" fill="#D09999"/>
</svg>
