<svg width="150" height="150" viewBox="0 0 150 150" fill="none" xmlns="http://www.w3.org/2000/svg">
<g clip-path="url(#clip0_128_323)">
<rect width="150" height="150" rx="75" fill="url(#paint0_linear_128_323)"/>
<path d="M47.4999 104.892C56.6664 111.558 65.8334 116.892 74.9999 116.892C84.1664 116.892 93.3334 111.558 102.5 104.892C94.9443 102.592 91.1109 99.1586 90.9999 94.5919C90.9999 93.7779 91.0059 92.6219 91.0114 90.4514C91.0114 90.1068 91.0123 89.7537 91.0139 89.3924C91.0289 83.5724 91.0534 75.8924 91.0879 68.0924C98.2539 58.8039 95.6214 47.9144 93.3759 48.1859C90.6229 48.5209 66.7714 25.8869 62.1964 24.7264C57.6214 23.5659 45.9999 27.3124 43.9999 37.7499C41.9999 48.1874 41.1639 74.4964 48.7499 84.9999C50.9086 87.9889 54.3086 89.1581 58.9499 88.5074C58.9564 90.6919 58.9694 91.9179 58.9999 94.3919C58.9404 99.1664 55.1074 102.594 47.4999 104.892Z" fill="url(#paint1_linear_128_323)"/>
<path d="M59 88.5C70 87.25 77 82.5 77 82.5C77 82.5 69 92.5 59 94.5V88.5Z" fill="#FC9F6A"/>
<path d="M94.7501 68.2499C98.1951 59.9649 112 43.0914 100.1 32.5914C96.1001 13.0914 74.0001 15.2499 59.2501 19.7499C49.3366 22.7744 41.8501 28.7499 40.2501 24.2499C30.2501 32.5914 35.2581 40.7499 41.8501 43.0914C47.8331 45.2164 57.9501 47.3414 75.1531 45.3414C78.2261 44.9839 77.5826 54.3954 79.2246 55.4129C81.6881 56.9394 83.6001 47.3414 90.3541 50.2234C97.1081 53.1054 93.1001 66.4684 85.8501 66.4684C83.3501 66.4684 82.1001 73.3419 88.8501 76.5919C93.7501 78.9999 92.5116 73.6334 94.7501 68.2499Z" fill="url(#paint2_linear_128_323)"/>
<path d="M127.5 120.154C132.26 129.832 135 152.154 135 152.154H15C15 152.154 17.741 129.83 22.5 120.154C27.259 110.478 55.05 101.503 55.05 101.503C70.4065 107.5 79.804 107.5 94.9355 101.5C94.9355 101.5 122.74 110.475 127.5 120.154Z" fill="url(#paint3_linear_128_323)"/>
<path d="M78.5 105L81 151H69L71.5 105C71.5 105 73.8335 102.5 75 102.5C76.1665 102.5 78.5 105 78.5 105Z" fill="url(#paint4_linear_128_323)"/>
<path d="M79.0695 114.346L71.207 109.803L71.5 105C73.0557 103.333 74.2224 102.5 75 102.5C75.7777 102.5 76.9444 103.333 78.5 105L79.07 114.346H79.0695Z" fill="#645050"/>
<path d="M75 102.496L70 111.5L54.5 102L59 95.5L75 101.411L91 95.5L95.5 102L80 111.5L75 102.496Z" fill="white"/>
</g>
<defs>
<linearGradient id="paint0_linear_128_323" x1="75" y1="0" x2="75" y2="150" gradientUnits="userSpaceOnUse">
<stop stop-color="#806A6A"/>
<stop offset="1" stop-color="#665654"/>
</linearGradient>
<linearGradient id="paint1_linear_128_323" x1="72.5608" y1="24.5234" x2="72.5608" y2="116.892" gradientUnits="userSpaceOnUse">
<stop stop-color="#F7B186"/>
<stop offset="1" stop-color="#FFC299"/>
</linearGradient>
<linearGradient id="paint2_linear_128_323" x1="69.7203" y1="16.6938" x2="69.7203" y2="77.1841" gradientUnits="userSpaceOnUse">
<stop stop-color="#1D0024"/>
<stop offset="1" stop-color="#100014"/>
</linearGradient>
<linearGradient id="paint3_linear_128_323" x1="75" y1="101.5" x2="75" y2="152.154" gradientUnits="userSpaceOnUse">
<stop stop-color="#1D0024"/>
<stop offset="1" stop-color="#100014"/>
</linearGradient>
<linearGradient id="paint4_linear_128_323" x1="75" y1="102.5" x2="75" y2="151" gradientUnits="userSpaceOnUse">
<stop stop-color="#806A6A"/>
<stop offset="1" stop-color="#665654"/>
</linearGradient>
<clipPath id="clip0_128_323">
<rect width="150" height="150" rx="75" fill="white"/>
</clipPath>
</defs>
</svg>
