<svg width="50" height="50" viewBox="0 0 50 50" fill="none" xmlns="http://www.w3.org/2000/svg">
<mask id="mask0_120_815" style="mask-type:luminance" maskUnits="userSpaceOnUse" x="0" y="0" width="50" height="50">
<path d="M0 0.000152588H49.9998V50H0V0.000152588Z" fill="white"/>
</mask>
<g mask="url(#mask0_120_815)">
<path d="M41.9374 27.8321C41.9374 38.6728 33.1492 47.4609 22.3085 47.4609C11.4677 47.4609 2.67969 38.6728 2.67969 27.8321C2.67969 16.9914 11.4677 8.20324 22.3085 8.20324C33.1492 8.20324 41.9374 16.9914 41.9374 27.8321Z" fill="#D8ECFE"/>
<path d="M6.64071 27.8321C6.64071 17.6599 14.3784 9.29523 24.2891 8.30227C23.631 8.23626 22.97 8.20322 22.3085 8.20324C11.4678 8.20324 2.67969 16.9914 2.67969 27.8321C2.67969 38.6728 11.4678 47.4609 22.3085 47.4609C22.9771 47.4609 23.6377 47.4271 24.2891 47.3619C14.3784 46.3689 6.64071 38.0043 6.64071 27.8321Z" fill="#C4E2FF"/>
<path d="M29.1396 44.2075L16.6763 31.7442L25.4847 22.9356L37.9481 35.3991L29.1396 44.2075Z" fill="#FFE5C2"/>
<path d="M20.7203 29.7071L26.4882 23.9391L25.4847 22.9356L16.6763 31.7441L29.1396 44.2075L32.1801 41.167L20.7203 29.7071Z" fill="#FED2A4"/>
<path d="M30.3252 49.0613L26.465 45.2012C26.3997 45.1358 26.3478 45.0582 26.3124 44.9727C26.277 44.8873 26.2588 44.7958 26.2588 44.7033C26.2588 44.6108 26.277 44.5192 26.3124 44.4338C26.3478 44.3484 26.3997 44.2708 26.465 44.2054L37.419 33.2514C37.5511 33.1194 37.7302 33.0452 37.9169 33.0452C38.1036 33.0452 38.2827 33.1194 38.4148 33.2514L42.2749 37.1116C42.3403 37.1769 42.3921 37.2546 42.4275 37.34C42.4629 37.4254 42.4812 37.517 42.4812 37.6095C42.4812 37.702 42.4629 37.7936 42.4275 37.879C42.3921 37.9644 42.3403 38.0421 42.2749 38.1075L31.321 49.0613C31.2556 49.1267 31.178 49.1786 31.0925 49.214C31.0071 49.2494 30.9156 49.2676 30.8231 49.2676C30.7306 49.2676 30.6391 49.2494 30.5536 49.214C30.4682 49.1786 30.3906 49.1267 30.3252 49.0613Z" fill="#FE646F"/>
<path d="M30.5658 45.2012C30.4338 45.0691 30.3596 44.89 30.3596 44.7033C30.3596 44.5165 30.4338 44.3375 30.5658 44.2054L39.9672 34.8039L38.4148 33.2514C38.3494 33.186 38.2718 33.1342 38.1864 33.0988C38.1009 33.0634 38.0094 33.0452 37.9169 33.0452C37.8244 33.0452 37.7329 33.0634 37.6474 33.0988C37.562 33.1342 37.4844 33.186 37.419 33.2514L26.465 44.2054C26.3997 44.2708 26.3478 44.3484 26.3124 44.4338C26.277 44.5192 26.2588 44.6108 26.2588 44.7033C26.2588 44.7958 26.277 44.8873 26.3124 44.9727C26.3478 45.0582 26.3997 45.1358 26.465 45.2012L30.3252 49.0613C30.3906 49.1267 30.4682 49.1786 30.5536 49.214C30.6391 49.2494 30.7306 49.2676 30.8231 49.2676C30.9156 49.2676 31.0071 49.2494 31.0925 49.214C31.178 49.1786 31.2556 49.1267 31.321 49.0613L32.8735 47.5088L30.5658 45.2012Z" fill="#FD4755"/>
<path d="M37.8308 28.3707C38.6414 27.56 38.7032 26.2376 37.92 25.4004C37.1013 24.5252 35.7276 24.5078 34.8868 25.3485C35.7106 24.5248 35.7106 23.1891 34.8868 22.3655C34.0631 21.5417 32.7275 21.5417 31.9038 22.3654C32.7275 21.5417 32.7275 20.2061 31.9037 19.3824C31.08 18.5587 29.7445 18.5587 28.9208 19.3823C29.7444 18.5585 29.7444 17.223 28.9207 16.3994C28.0969 15.5757 26.7614 15.5757 25.9376 16.3994L7.27783 35.0592L15.845 43.6265L21.1506 38.3207C21.7194 37.752 22.3994 37.3067 23.148 37.0127C23.8967 36.7187 24.6979 36.5823 25.5017 36.612L26.8955 36.6635C27.6993 36.6933 28.5006 36.5569 29.2492 36.2629C29.9979 35.9689 30.6778 35.5236 31.2465 34.9548L37.8308 28.3707Z" fill="#D88A55"/>
<path d="M14.76 32.6429L29.5373 17.8656C29.531 17.3343 29.3261 16.8048 28.9207 16.3994C28.0969 15.5757 26.7615 15.5757 25.9376 16.3994L7.27783 35.0593L15.845 43.6265L19.4131 40.0583L14.76 35.405C13.9972 34.6423 13.9972 33.4057 14.76 32.6429Z" fill="#C57A44"/>
<path d="M16.7985 18.9381L21.64 23.7797C22.4458 24.5855 23.7605 24.662 24.6009 23.8925C25.4931 23.0758 25.5161 21.6897 24.6699 20.8435L19.7816 15.9551C18.9577 15.1314 17.6223 15.1314 16.7985 15.9551C15.9747 16.7788 15.9747 18.1144 16.7985 18.9381Z" fill="#FFE5C2"/>
<path d="M23.6233 22.7981L18.7818 17.9564C18.0732 17.2478 17.9759 16.1611 18.4864 15.3467C17.8832 15.2905 17.2605 15.4931 16.7985 15.9551C15.9747 16.7788 15.9747 18.1143 16.7985 18.9381L21.64 23.7797C22.4458 24.5855 23.7604 24.662 24.601 23.8925C24.7469 23.7583 24.8732 23.6042 24.9763 23.4348C24.4812 23.3868 23.9974 23.1721 23.6233 22.7981Z" fill="#FED2A4"/>
<path d="M16.7985 18.9381C15.9748 18.1143 14.6393 18.1143 13.8155 18.9381C12.9918 19.7618 12.9918 21.0973 13.8155 21.9211L19.2565 27.3621C20.0712 28.1767 21.3887 28.187 22.216 27.3853C23.0618 26.5655 23.0725 25.212 22.2395 24.3791L16.7985 18.9381Z" fill="#FFE5C2"/>
<path d="M21.3015 26.3354L15.8605 20.8944C15.1659 20.1998 15.0595 19.1424 15.5361 18.3337C14.9228 18.2671 14.2859 18.4678 13.8156 18.938C12.9919 19.7619 12.9918 21.0973 13.8155 21.921L19.2566 27.362C20.0712 28.1767 21.3888 28.187 22.216 27.3853C22.3515 27.2533 22.4685 27.1036 22.5639 26.9402C22.0863 26.8889 21.6407 26.6754 21.3015 26.3354Z" fill="#FED2A4"/>
<path d="M13.8157 21.9211C12.9919 21.0974 11.6565 21.0974 10.8326 21.9211C10.0089 22.7448 10.0089 24.0804 10.8326 24.9041L15.2997 29.3713C16.1144 30.1858 17.4319 30.1962 18.2592 29.3944C19.1051 28.5747 19.1156 27.2211 18.2828 26.3882L13.8157 21.9211Z" fill="#FFE5C2"/>
<path d="M17.2972 28.3861L12.8302 23.919C12.1228 23.2117 12.0248 22.1278 12.5321 21.3139C11.9251 21.2539 11.2972 21.4562 10.8322 21.9211C10.0084 22.7448 10.0084 24.0804 10.8322 24.9041L15.2993 29.3712C16.1139 30.1858 17.4315 30.1962 18.2588 29.3944C18.3818 29.2743 18.4897 29.1396 18.58 28.9932C18.0949 28.9458 17.6414 28.7312 17.2972 28.3861Z" fill="#FED2A4"/>
<path d="M11.7454 25.8171C10.9215 24.9934 9.58608 24.9934 8.76225 25.8171C7.93862 26.6408 7.93862 27.9764 8.76225 28.8001L11.1413 31.1791C11.9559 31.9937 13.2734 32.004 14.1007 31.2023C14.9465 30.3825 14.9573 29.029 14.1242 28.1961L11.7454 25.8171Z" fill="#FFE5C2"/>
<path d="M13.153 30.1987L10.774 27.8197C10.066 27.1117 9.96838 26.0263 10.4775 25.2121C9.86574 25.1472 9.23117 25.3483 8.76233 25.8171C7.9386 26.6409 7.9386 27.9764 8.76233 28.8001L11.1413 31.1791C11.956 31.9937 13.2734 32.004 14.1008 31.2023C14.2229 31.083 14.3302 30.9493 14.4201 30.8042C13.9408 30.7537 13.4934 30.5399 13.153 30.1987Z" fill="#FED2A4"/>
<path d="M23.6768 15.0459H19.9105C19.273 15.0459 18.7563 15.5627 18.7563 16.2001V16.6791C18.7563 18.107 19.914 19.2645 21.3418 19.2645H23.0722L25.7168 16.62C25.48 15.7156 24.6581 15.0459 23.6768 15.0459Z" fill="#FFE5C2"/>
<path d="M18.1518 45.2013L14.2918 49.0614C14.2264 49.1268 14.1488 49.1787 14.0633 49.2141C13.9779 49.2495 13.8863 49.2677 13.7938 49.2677C13.7014 49.2677 13.6098 49.2495 13.5243 49.2141C13.4389 49.1787 13.3613 49.1268 13.2959 49.0614L2.34191 38.1075C2.2099 37.9754 2.13574 37.7963 2.13574 37.6096C2.13574 37.4228 2.2099 37.2437 2.34191 37.1117L6.20215 33.2515C6.26753 33.1861 6.34514 33.1343 6.43056 33.0989C6.51599 33.0635 6.60754 33.0453 6.7 33.0453C6.79247 33.0453 6.88402 33.0635 6.96944 33.0989C7.05487 33.1343 7.13248 33.1861 7.19785 33.2515L18.1518 44.2055C18.2172 44.2709 18.2691 44.3485 18.3045 44.4339C18.3399 44.5194 18.3581 44.6109 18.3581 44.7034C18.3581 44.7959 18.3399 44.8874 18.3045 44.9729C18.2691 45.0583 18.2172 45.1359 18.1518 45.2013Z" fill="#97D729"/>
<path d="M6.3584 38.1075C6.22639 37.9754 6.15223 37.7963 6.15223 37.6096C6.15223 37.4228 6.22639 37.2438 6.3584 37.1117L8.7082 34.7619L7.19786 33.2515C7.13247 33.1861 7.05485 33.1343 6.96942 33.0989C6.88399 33.0635 6.79243 33.0453 6.69996 33.0453C6.60749 33.0453 6.51592 33.0635 6.43049 33.0989C6.34506 33.1343 6.26744 33.1861 6.20206 33.2515L2.34191 37.1117C2.2099 37.2438 2.13574 37.4228 2.13574 37.6096C2.13574 37.7963 2.2099 37.9754 2.34191 38.1075L13.2959 49.0614C13.3613 49.1268 13.4389 49.1787 13.5243 49.2141C13.6097 49.2495 13.7013 49.2677 13.7938 49.2677C13.8863 49.2677 13.9778 49.2495 14.0632 49.2141C14.1487 49.1787 14.2263 49.1268 14.2917 49.0614L15.802 47.5511L6.3584 38.1075Z" fill="#8BC727"/>
<path d="M39.2688 0.732582C36.7199 0.732582 34.3153 3.2773 32.1927 2.58502C31.9444 2.50416 31.6761 2.64264 31.5878 2.88834C30.9971 4.53101 30.6738 6.30102 30.6738 8.14711C30.6738 14.1461 34.0709 18.4918 39.0459 21.0609C39.1148 21.0965 39.1912 21.115 39.2688 21.115C39.3463 21.115 39.4227 21.0965 39.4917 21.0609C44.4668 18.4918 47.8637 14.1461 47.8637 8.14711C47.8637 6.30102 47.5405 4.53101 46.9499 2.88834C46.8615 2.64264 46.5931 2.50416 46.3449 2.58502C44.2222 3.2773 41.8176 0.732582 39.2688 0.732582Z" fill="#FED402"/>
<path d="M34.8609 6.7311C34.8609 5.04048 35.1327 3.41372 35.632 1.8901C34.425 2.45191 33.2726 2.93707 32.1932 2.58502C31.9449 2.50406 31.6766 2.64264 31.5882 2.88834C30.9975 4.53091 30.6743 6.30102 30.6743 8.14711C30.6743 14.1462 34.0714 18.4918 39.0463 21.0609C39.1152 21.0965 39.1917 21.115 39.2693 21.115C39.3468 21.115 39.4233 21.0965 39.4923 21.0609C40.5425 20.5186 41.5215 19.896 42.4141 19.1964C37.8894 16.5837 34.8609 12.3947 34.8609 6.7311Z" fill="#FAC600"/>
<path d="M44.3351 9.91366C44.3351 12.7117 42.0669 14.9799 39.2689 14.9799C36.471 14.9799 34.2026 12.7117 34.2026 9.91366C34.2026 7.11572 36.471 4.84747 39.2689 4.84747C42.0669 4.84747 44.3351 7.11572 44.3351 9.91366Z" fill="#97D729"/>
<path d="M37.7927 9.91366C37.7927 7.74795 39.1521 5.90049 41.0639 5.17579C40.4905 4.95833 39.8822 4.84708 39.2689 4.84747C36.4709 4.84747 34.2026 7.11572 34.2026 9.91366C34.2026 12.7117 36.4709 14.9799 39.2689 14.9799C39.8822 14.9803 40.4905 14.869 41.0639 14.6515C39.1521 13.9268 37.7927 12.0795 37.7927 9.91366Z" fill="#8BC727"/>
</g>
</svg>
