<svg width="41" height="40" viewBox="0 0 41 40" fill="none" xmlns="http://www.w3.org/2000/svg">
<path d="M7.40773 33.5638L14.1855 24.965C14.1855 24.965 14.2404 24.8881 14.3105 24.7577L11.3727 25.5858C10.9071 25.7442 10.4794 25.9975 10.1166 26.3297C9.75382 26.6618 9.46387 27.0656 9.26507 27.5155L7.2782 33.7473C7.31851 33.6848 7.36085 33.6234 7.40773 33.5638ZM32.8255 27.7598C32.7981 27.2676 32.6141 26.797 32.3003 26.4167C31.9865 26.0365 31.5594 25.7665 31.0813 25.6461L27.7177 24.7995C27.3402 24.7038 26.9678 24.589 26.6019 24.4553L24.0877 27.3561C23.9761 27.4848 23.818 27.564 23.648 27.5761C23.4781 27.5882 23.3102 27.5324 23.1815 27.4208L22.0607 26.4494C21.932 26.3378 21.8528 26.1796 21.8407 26.0096C21.8286 25.8397 21.8844 25.6719 21.996 25.5431L24.1588 23.0478C23.9216 22.7092 23.7941 22.3059 23.7937 21.8925V20.9389C22.961 21.3759 22.0347 21.6041 21.0943 21.6038C20.9602 21.6034 20.8261 21.5984 20.6923 21.5889C20.6963 21.8286 20.6435 22.0661 20.5105 22.2936C20.0807 23.0298 19.8882 23.6994 19.3257 24.5736L20.1662 25.5433C20.2778 25.672 20.3336 25.8399 20.3215 26.0098C20.3094 26.1798 20.2302 26.3379 20.1015 26.4495L18.9807 27.4211C18.8519 27.5327 18.6841 27.5885 18.5142 27.5764C18.3442 27.5643 18.1861 27.4851 18.0744 27.3564L17.5068 26.7014C17.0491 27.1569 16.6488 27.6677 16.3248 28.2263L12.6527 34.0739V38.8475C12.6527 39.0496 12.733 39.2434 12.8759 39.3863C13.0188 39.5292 13.2127 39.6095 13.4148 39.6095H32.8318C32.9192 39.6095 33.0057 39.5917 33.086 39.5571C33.1664 39.5226 33.2388 39.472 33.2988 39.4084C33.3589 39.3449 33.4054 39.2698 33.4355 39.1877C33.4655 39.1056 33.4785 39.0182 33.4737 38.9309L32.8255 27.7598Z" fill="#3CAADC"/>
<path d="M14.8589 11.2786C14.9868 11.2786 15.1122 11.2894 15.2348 11.3084V11.0269C15.235 10.8298 15.4201 10.6844 15.6129 10.7248C16.6743 10.947 19.8315 11.3267 21.9715 8.63547C21.999 8.60064 22.0334 8.57199 22.0727 8.5514C22.112 8.5308 22.1551 8.51871 22.1994 8.51592C22.2436 8.51313 22.288 8.51971 22.3295 8.53522C22.371 8.55073 22.4088 8.57483 22.4404 8.60594C22.9332 9.08906 24.2157 10.0538 26.65 10.1252C26.7302 10.1281 26.8063 10.1617 26.8625 10.2189C26.9188 10.2762 26.951 10.3529 26.9525 10.4331C26.9531 10.4636 26.9534 10.4942 26.9534 10.5247V11.3084C27.0778 11.2888 27.2034 11.2788 27.3293 11.2786C27.9889 11.2786 28.5861 11.5408 29.0261 11.965V7.56484C29.0261 5.72406 27.52 4.21781 25.679 4.21781C25.0547 4.21781 24.4709 4.39422 23.9693 4.695C23.3834 3.71703 22.3159 3.05688 21.099 3.05688H19.3803C16.0539 3.05688 13.3322 5.77844 13.3322 9.105V11.815C13.7651 11.4674 14.3037 11.2782 14.8589 11.2786Z" fill="#754E34"/>
<path d="M27.3295 11.2786C27.2015 11.2786 27.076 11.2894 26.9535 11.3084V15.7442C26.9535 15.8764 26.9474 16.0072 26.9388 16.1372C27.0663 16.1577 27.1963 16.1712 27.3296 16.1712C28.6807 16.1712 29.7759 15.0759 29.7759 13.725C29.7759 12.3741 28.6806 11.2786 27.3295 11.2786ZM15.2348 15.7442V11.3084C15.1104 11.2888 14.9847 11.2788 14.8588 11.2786C13.5078 11.2786 12.4126 12.3739 12.4126 13.725C12.4126 15.0761 13.5079 16.1712 14.8588 16.1712C14.9921 16.1712 15.1221 16.1577 15.2496 16.1372C15.2403 16.0065 15.2353 15.8753 15.2348 15.7442Z" fill="#F9D0B4"/>
<path d="M26.9527 10.4331C26.9512 10.3529 26.919 10.2762 26.8627 10.2189C26.8065 10.1617 26.7304 10.1281 26.6502 10.1252C24.216 10.0537 22.9335 9.08906 22.4406 8.60594C22.4091 8.57483 22.3713 8.55073 22.3297 8.53522C22.2882 8.51971 22.2438 8.51313 22.1996 8.51592C22.1553 8.51871 22.1122 8.53079 22.0729 8.55139C22.0337 8.57199 21.9992 8.60064 21.9717 8.63547C19.8316 11.3269 16.6746 10.947 15.613 10.7248C15.42 10.6845 15.235 10.8298 15.2349 11.0269V15.7442C15.2349 17.0389 15.6611 18.2384 16.3792 19.2109C16.56 19.2202 16.7359 19.2727 16.8922 19.3641L17.2006 19.5442C17.2006 19.5442 18.0939 18.2705 18.8097 18.838C19.2622 19.1967 20.6719 20.4177 20.6921 21.588C20.825 21.597 20.9588 21.6034 21.0941 21.6034C24.3167 21.6034 26.9535 18.9667 26.9535 15.7441V10.5247C26.9536 10.4941 26.9533 10.4636 26.9527 10.4331Z" fill="#F9D0B4"/>
<path d="M23.5554 15.7894H18.6315C18.2593 15.7894 17.9446 16.0853 17.9438 16.4575V16.4645C17.9438 16.6698 17.9646 16.8702 18.0021 17.0644C18.2754 16.9628 18.5646 16.9106 18.8562 16.91C20.2246 16.91 21.334 18.0194 21.334 19.3878C21.334 19.4609 21.3293 19.533 21.3231 19.6044C22.6821 19.5 23.8529 18.4934 24.1662 17.1452C24.2196 16.915 24.244 16.6895 24.2445 16.47C24.2451 16.093 23.9326 15.7894 23.5554 15.7894Z" fill="#FC657E"/>
<path d="M16.8922 19.3641L17.2006 19.5442C17.2006 19.5442 18.0939 18.2705 18.8097 18.838C19.203 19.1497 20.32 20.1128 20.6191 21.1278C21.0777 20.6648 21.3346 20.0393 21.3339 19.3877C21.3339 18.0192 20.2246 16.9098 18.8561 16.9098C17.5472 16.9098 16.4778 17.9256 16.3872 19.2116C16.5652 19.222 16.7382 19.2742 16.8922 19.3641Z" fill="#FCDD86"/>
<path d="M18.8098 18.838C18.0939 18.2705 17.2008 19.5442 17.2008 19.5442L16.8923 19.3641C16.7653 19.2892 16.6246 19.2402 16.4785 19.22C16.3324 19.1998 16.1837 19.2087 16.0411 19.2463C15.7005 19.3375 15.2751 19.5113 15.0881 19.8317C14.7516 20.4081 13.9975 21.6197 14.4934 22.9005C14.9076 23.9698 14.1858 24.9648 14.1858 24.9648L7.40781 33.5638C6.56187 34.6369 6.79984 36.2017 7.92656 36.975C9.03374 37.7348 10.5508 37.4205 11.2648 36.2833L16.3245 28.2259C16.6693 27.6335 17.0946 27.0918 17.5884 26.6164C19.7398 24.5411 19.8006 23.5089 20.5103 22.2931C21.2922 20.9545 19.355 19.2702 18.8098 18.838Z" fill="#F9D0B4"/>
<path d="M23.7935 21.8923V20.9387C22.9609 21.3757 22.0345 21.6039 21.0942 21.6036C20.96 21.6032 20.8259 21.5983 20.6921 21.5887C20.6962 21.8284 20.6434 22.0659 20.5104 22.2934C20.0806 23.0297 19.8881 23.6992 19.3256 24.5734L20.166 25.5431C20.2592 25.6505 20.3084 25.7802 20.319 25.9117H21.8429C21.8531 25.7756 21.9067 25.6464 21.9959 25.5431L24.1587 23.0478C23.9215 22.7091 23.7941 22.3058 23.7935 21.8923Z" fill="#F9D0B4"/>
<path d="M23.1816 27.4208C23.3103 27.5324 23.4781 27.5882 23.6481 27.5761C23.818 27.564 23.9762 27.4848 24.0878 27.3561L26.602 24.4553C26.1869 24.3052 25.7808 24.1312 25.3856 23.9344C25.058 23.7706 24.7744 23.6266 24.7219 23.5928C24.5004 23.4496 24.3091 23.2644 24.1587 23.0477L21.9959 25.543C21.9407 25.6067 21.8985 25.6807 21.8718 25.7608C21.8452 25.8408 21.8345 25.9253 21.8405 26.0095C21.8466 26.0937 21.8691 26.1758 21.9068 26.2512C21.9446 26.3267 21.9969 26.394 22.0606 26.4492L23.1816 27.4208ZM19.3258 24.5733C18.9595 25.1425 18.437 25.7983 17.5886 26.6166C17.5603 26.6439 17.5345 26.6734 17.5067 26.7011L18.0744 27.3559C18.186 27.4847 18.3441 27.5638 18.5141 27.576C18.684 27.5881 18.8519 27.5322 18.9806 27.4206L20.1014 26.4491C20.2301 26.3375 20.3093 26.1793 20.3214 26.0093C20.3335 25.8394 20.2777 25.6716 20.1661 25.5428L19.3258 24.5733Z" fill="#70D6F9"/>
<path d="M33.1745 33.7747H29.2523V39.6094H32.8317C32.9191 39.6094 33.0056 39.5916 33.086 39.557C33.1663 39.5224 33.2387 39.4718 33.2987 39.4083C33.3588 39.3448 33.4053 39.2697 33.4354 39.1876C33.4654 39.1055 33.4784 39.0181 33.4736 38.9308L33.1745 33.7747Z" fill="#F9D0B4"/>
<path d="M26.691 38.0267H15.3905C15.1806 38.0267 14.9793 38.1101 14.8309 38.2585C14.6825 38.4069 14.5991 38.6082 14.5991 38.8181C14.5991 39.028 14.6825 39.2293 14.8309 39.3777C14.9793 39.5262 15.1806 39.6095 15.3905 39.6095H26.691C26.9009 39.6095 27.1022 39.5262 27.2506 39.3777C27.399 39.2293 27.4824 39.028 27.4824 38.8181C27.4824 38.6082 27.399 38.4069 27.2506 38.2585C27.1022 38.1101 26.9009 38.0267 26.691 38.0267Z" fill="#EDF4FC"/>
<path d="M20.1382 36.497H15.1378C14.9167 36.497 14.7047 36.4092 14.5484 36.2529C14.3921 36.0966 14.3043 35.8846 14.3043 35.6636C14.3043 35.4426 14.3921 35.2306 14.5484 35.0743C14.7047 34.918 14.9167 34.8302 15.1378 34.8302H20.1382C20.3593 34.8302 20.5713 34.918 20.7276 35.0743C20.8839 35.2306 20.9717 35.4426 20.9717 35.6636C20.9717 35.8846 20.8839 36.0966 20.7276 36.2529C20.5713 36.4092 20.3593 36.497 20.1382 36.497Z" fill="#FC657E"/>
<path d="M15.0692 34.8372C15.0922 34.8353 15.1142 34.8303 15.1378 34.8303H20.1383C20.1617 34.8303 20.1839 34.8353 20.2069 34.8372C20.2738 34.7911 20.3286 34.7294 20.3664 34.6574C20.4043 34.5855 20.4241 34.5054 20.424 34.4241C20.424 33.5733 19.7344 32.8836 18.8836 32.8836H16.3926C15.5419 32.8836 14.8522 33.5733 14.8522 34.4241C14.8522 34.5054 14.8719 34.5854 14.9097 34.6574C14.9475 34.7294 15.0023 34.7911 15.0692 34.8372ZM20.2075 36.4902C20.1844 36.492 20.162 36.4972 20.1383 36.4972H15.1378C15.114 36.4972 15.0919 36.4922 15.0686 36.4902C14.94 36.5781 14.8536 36.723 14.852 36.8891C14.8497 37.1138 14.8968 37.3363 14.99 37.5408C15.1214 37.8288 15.4181 38.0056 15.7347 38.0056H19.5411C19.8576 38.0056 20.1542 37.8286 20.2858 37.5408C20.379 37.3363 20.4262 37.1138 20.4237 36.8891C20.4225 36.723 20.3361 36.5781 20.2075 36.4902Z" fill="#FCDD86"/>
<path d="M26.9439 36.497H21.9434C21.7224 36.497 21.5104 36.4092 21.3541 36.2529C21.1978 36.0966 21.11 35.8846 21.11 35.6636C21.11 35.4426 21.1978 35.2306 21.3541 35.0743C21.5104 34.918 21.7224 34.8302 21.9434 34.8302H26.9439C27.1649 34.8302 27.3769 34.918 27.5332 35.0743C27.6895 35.2306 27.7773 35.4426 27.7773 35.6636C27.7773 35.8846 27.6895 36.0966 27.5332 36.2529C27.3769 36.4092 27.1649 36.497 26.9439 36.497Z" fill="#FC657E"/>
<path d="M21.8748 34.8372C21.8977 34.8353 21.9198 34.8303 21.9434 34.8303H26.9438C26.9673 34.8303 26.9895 34.8353 27.0124 34.8372C27.0794 34.7911 27.1342 34.7294 27.172 34.6574C27.2099 34.5855 27.2296 34.5054 27.2296 34.4241C27.2296 33.5733 26.5399 32.8836 25.6891 32.8836H23.1982C22.3474 32.8836 21.6577 33.5733 21.6577 34.4241C21.6577 34.5054 21.6775 34.5854 21.7153 34.6574C21.7531 34.7294 21.8078 34.7911 21.8748 34.8372ZM27.0129 36.4902C26.9898 36.492 26.9674 36.4972 26.9437 36.4972H21.9432C21.9195 36.4972 21.8973 36.4922 21.874 36.4902C21.7454 36.5781 21.659 36.723 21.6574 36.8891C21.6551 37.1138 21.7022 37.3363 21.7954 37.5408C21.9268 37.8288 22.2235 38.0056 22.5401 38.0056H26.3465C26.6631 38.0056 26.9596 37.8286 27.0912 37.5408C27.1845 37.3363 27.2316 37.1138 27.2291 36.8891C27.2281 36.723 27.1416 36.5781 27.0129 36.4902Z" fill="#FCDD86"/>
<path d="M23.5411 31.375H18.5406C18.3195 31.375 18.1076 31.2872 17.9513 31.1309C17.795 30.9746 17.7072 30.7626 17.7072 30.5416C17.7072 30.3205 17.795 30.1085 17.9513 29.9522C18.1076 29.7959 18.3195 29.7081 18.5406 29.7081H23.5411C23.7621 29.7081 23.9741 29.7959 24.1304 29.9522C24.2867 30.1085 24.3745 30.3205 24.3745 30.5416C24.3745 30.7626 24.2867 30.9746 24.1304 31.1309C23.9741 31.2872 23.7621 31.375 23.5411 31.375Z" fill="#FC657E"/>
<path d="M18.472 29.7152C18.495 29.7133 18.517 29.7083 18.5406 29.7083H23.5411C23.5645 29.7083 23.5867 29.7133 23.6097 29.7152C23.6767 29.6691 23.7314 29.6074 23.7693 29.5354C23.8071 29.4634 23.8269 29.3833 23.8269 29.302C23.8269 28.4513 23.1372 27.7616 22.2864 27.7616H19.7953C18.9445 27.7616 18.2548 28.4513 18.2548 29.302C18.2548 29.4734 18.3411 29.6244 18.472 29.7152ZM23.6103 31.3681C23.5872 31.37 23.5648 31.3752 23.5411 31.3752H18.5406C18.5169 31.3752 18.4947 31.3702 18.4714 31.3681C18.3428 31.4561 18.2564 31.6009 18.2548 31.767C18.2525 31.9918 18.2996 32.2142 18.3928 32.4187C18.5242 32.7067 18.8209 32.8836 19.1375 32.8836H22.9439C23.2605 32.8836 23.557 32.7066 23.6886 32.4187C23.7819 32.2143 23.829 31.9918 23.8266 31.767C23.8253 31.6009 23.7389 31.4561 23.6103 31.3681Z" fill="#FCDD86"/>
<path d="M23.5585 14.303C23.9498 14.303 24.267 13.9858 24.267 13.5945C24.267 13.2033 23.9498 12.8861 23.5585 12.8861C23.1673 12.8861 22.8501 13.2033 22.8501 13.5945C22.8501 13.9858 23.1673 14.303 23.5585 14.303Z" fill="black"/>
<path d="M18.8002 14.303C19.1915 14.303 19.5087 13.9858 19.5087 13.5945C19.5087 13.2033 19.1915 12.8861 18.8002 12.8861C18.409 12.8861 18.0918 13.2033 18.0918 13.5945C18.0918 13.9858 18.409 14.303 18.8002 14.303Z" fill="black"/>
<path d="M29.2523 39.8425C29.1487 39.8425 29.0494 39.8013 28.9761 39.7281C28.9029 39.6548 28.8617 39.5555 28.8617 39.4519V29.8939C28.8617 29.7903 28.9029 29.691 28.9761 29.6177C29.0494 29.5444 29.1487 29.5033 29.2523 29.5033C29.3559 29.5033 29.4553 29.5444 29.5286 29.6177C29.6018 29.691 29.643 29.7903 29.643 29.8939V39.4519C29.643 39.5555 29.6018 39.6548 29.5286 39.7281C29.4553 39.8013 29.3559 39.8425 29.2523 39.8425ZM16.0886 21.455C16.0165 21.4549 15.9458 21.4349 15.8843 21.3972C15.8229 21.3594 15.7731 21.3054 15.7405 21.241C15.7079 21.1767 15.6937 21.1046 15.6995 21.0327C15.7054 20.9608 15.731 20.892 15.7736 20.8338L16.8855 19.3136C16.9466 19.23 17.0385 19.1741 17.1409 19.1582C17.2433 19.1423 17.3478 19.1677 17.4314 19.2289C17.515 19.2901 17.5709 19.382 17.5868 19.4843C17.6027 19.5867 17.5773 19.6912 17.5161 19.7748L16.4042 21.295C16.3679 21.3446 16.3204 21.385 16.2656 21.4128C16.2107 21.4406 16.1501 21.4551 16.0886 21.455ZM7.28329 34.1228C7.2218 34.1228 7.16117 34.1084 7.10634 34.0805C7.0515 34.0527 7.00401 34.0123 6.96773 33.9627C6.93144 33.9131 6.90739 33.8556 6.89752 33.7949C6.88765 33.7342 6.89225 33.672 6.91094 33.6134L8.89297 27.3967C8.89719 27.3834 8.90219 27.3703 8.90782 27.3575C9.12898 26.8585 9.45095 26.4107 9.85352 26.0421C10.2561 25.6735 10.7305 25.3922 11.247 25.2158L11.2669 25.2095L14.0709 24.4192C14.1706 24.3911 14.2774 24.4038 14.3678 24.4544C14.4582 24.5051 14.5247 24.5895 14.5528 24.6892C14.5809 24.7889 14.5683 24.8957 14.5176 24.9861C14.467 25.0764 14.3825 25.143 14.2828 25.1711L11.4891 25.9586C11.0801 26.0997 10.7043 26.323 10.3847 26.6146C10.0651 26.9063 9.80851 27.2601 9.63063 27.6545L7.65516 33.8506C7.63009 33.9296 7.58054 33.9985 7.51368 34.0475C7.44683 34.0964 7.36614 34.1228 7.28329 34.1228Z" fill="black"/>
<path d="M32.8316 40H13.4146C12.779 40 12.262 39.4828 12.262 38.8473V34.2481C12.262 34.1445 12.3031 34.0452 12.3764 33.9719C12.4496 33.8987 12.549 33.8575 12.6526 33.8575C12.7562 33.8575 12.8555 33.8987 12.9288 33.9719C13.0021 34.0452 13.0432 34.1445 13.0432 34.2481V38.8473C13.0433 38.9458 13.0825 39.0402 13.1521 39.1098C13.2218 39.1795 13.3162 39.2186 13.4146 39.2188H32.8316C32.9016 39.2188 32.9667 39.1908 33.0148 39.1398C33.0629 39.0889 33.0873 39.0225 33.0834 38.9527L32.4356 27.7823C32.4142 27.3727 32.2618 26.9808 32.0008 26.6643C31.7397 26.3479 31.384 26.1237 30.9859 26.0248L27.6224 25.1783C27.3192 25.1016 27.0192 25.0127 26.7231 24.9119L24.3827 27.6119C24.2941 27.7147 24.186 27.7989 24.0647 27.8596C23.9433 27.9204 23.8111 27.9565 23.6757 27.9658C23.5403 27.9758 23.4043 27.9588 23.2755 27.9159C23.1467 27.873 23.0277 27.805 22.9254 27.7158L21.8046 26.7444C21.5979 26.5647 21.4708 26.3104 21.4513 26.0372C21.4318 25.764 21.5214 25.4942 21.7006 25.287L23.6773 23.0064C23.4967 22.6628 23.4025 22.2804 23.4027 21.8922V21.0613C23.4027 20.9577 23.4439 20.8583 23.5172 20.785C23.5904 20.7118 23.6898 20.6706 23.7934 20.6706C23.897 20.6706 23.9963 20.7118 24.0696 20.785C24.1428 20.8583 24.184 20.9577 24.184 21.0613V21.8922C24.184 22.2253 24.286 22.5475 24.479 22.8241C24.5288 22.8954 24.5533 22.9812 24.5487 23.0681C24.5442 23.1549 24.5108 23.2377 24.4538 23.3034L22.291 25.7987C22.2474 25.8493 22.2255 25.9151 22.2303 25.9817C22.2351 26.0483 22.2661 26.1103 22.3165 26.1541L23.4373 27.1255C23.4882 27.1695 23.5532 27.1905 23.6201 27.1864C23.6873 27.1816 23.7484 27.1509 23.7926 27.1002L26.3068 24.1994C26.3586 24.1396 26.4273 24.097 26.5038 24.0771C26.5803 24.0572 26.6611 24.0611 26.7354 24.0881C27.0888 24.2172 27.4485 24.3281 27.8132 24.4206L31.1766 25.2672C31.7364 25.4062 32.2367 25.7213 32.6038 26.1662C32.9708 26.611 33.1853 27.162 33.2156 27.738L33.8634 38.9083C33.8711 39.0487 33.8501 39.1892 33.8018 39.3213C33.7535 39.4534 33.6789 39.5742 33.5824 39.6766C33.4857 39.7785 33.3693 39.8598 33.2403 39.9154C33.1112 39.971 32.9722 39.9998 32.8316 40ZM29.0262 12.2413C28.9226 12.2413 28.8232 12.2001 28.75 12.1268C28.6767 12.0536 28.6356 11.9542 28.6356 11.8506V7.56484C28.6356 5.93469 27.3093 4.60859 25.6793 4.60859C25.1521 4.60859 24.6304 4.75438 24.1704 5.03016C24.1264 5.05664 24.0776 5.07417 24.0269 5.08174C23.9761 5.08932 23.9243 5.08679 23.8745 5.07431C23.8247 5.06182 23.7779 5.03962 23.7367 5.00899C23.6955 4.97835 23.6608 4.93988 23.6345 4.89578C23.0992 4.0025 22.1277 3.4475 21.0993 3.4475H19.3806C16.261 3.4475 13.7231 5.98547 13.7231 9.105V11.7188C13.7231 11.8224 13.6819 11.9217 13.6086 11.995C13.5354 12.0682 13.436 12.1094 13.3324 12.1094C13.2288 12.1094 13.1295 12.0682 13.0562 11.995C12.983 11.9217 12.9418 11.8224 12.9418 11.7188V9.105C12.9418 5.55469 15.8302 2.66625 19.3806 2.66625H21.0993C22.2771 2.66625 23.3948 3.23969 24.0973 4.18438C24.5918 3.94991 25.1321 3.82793 25.6793 3.82719C27.7402 3.82719 29.4168 5.50375 29.4168 7.56469V11.8505C29.4168 11.9018 29.4067 11.9526 29.3871 12C29.3675 12.0474 29.3387 12.0905 29.3025 12.1268C29.2662 12.1631 29.2231 12.1919 29.1757 12.2115C29.1283 12.2311 29.0775 12.2413 29.0262 12.2413Z" fill="black"/>
<path d="M27.3295 16.5619C27.2356 16.5619 27.1409 16.5564 27.0403 16.5453C26.9889 16.5402 26.939 16.5249 26.8935 16.5004C26.848 16.4758 26.8079 16.4425 26.7754 16.4023C26.7429 16.3621 26.7187 16.3159 26.7042 16.2663C26.6897 16.2167 26.6851 16.1648 26.6909 16.1134C26.6966 16.0621 26.7124 16.0123 26.7375 15.9672C26.7625 15.922 26.7963 15.8822 26.8368 15.8502C26.8774 15.8181 26.9239 15.7944 26.9736 15.7805C27.0234 15.7665 27.0754 15.7626 27.1267 15.7689C27.1984 15.7769 27.2648 15.7808 27.3295 15.7808C28.4629 15.7808 29.3851 14.8586 29.3851 13.7252C29.3851 12.5916 28.4629 11.6694 27.3295 11.6694C27.2675 11.6694 27.2059 11.6725 27.1453 11.6781C27.0427 11.6867 26.9409 11.6545 26.8619 11.5884C26.783 11.5223 26.7333 11.4278 26.7237 11.3253C26.7141 11.2228 26.7454 11.1206 26.8107 11.0411C26.876 10.9615 26.9701 10.9109 27.0725 10.9003C27.1579 10.8923 27.2437 10.8883 27.3295 10.8881C28.8937 10.8881 30.1664 12.1608 30.1664 13.7252C30.1665 15.2892 28.8939 16.5619 27.3295 16.5619ZM14.8589 16.5619C13.2945 16.5619 12.0219 15.2892 12.0219 13.725C12.0219 12.1606 13.2945 10.888 14.8589 10.888C14.9564 10.888 15.0567 10.8934 15.1569 10.9042C15.3714 10.9273 15.5265 11.12 15.5033 11.3344C15.48 11.5487 15.2881 11.7042 15.0731 11.6808C15.0006 11.673 14.9286 11.6691 14.8589 11.6691C13.7253 11.6691 12.8031 12.5912 12.8031 13.7248C12.8031 14.8583 13.7253 15.7805 14.8589 15.7805C14.9214 15.7805 14.9854 15.7769 15.0548 15.7694C15.2686 15.7442 15.4619 15.9011 15.4851 16.1156C15.4963 16.2186 15.466 16.3218 15.4011 16.4025C15.3362 16.4832 15.2419 16.5348 15.1389 16.5459C15.0412 16.5567 14.9498 16.5619 14.8589 16.5619Z" fill="black"/>
<path d="M21.0942 21.9942C20.9943 21.9942 20.8954 21.9911 20.7968 21.9859C20.5813 21.9747 20.4159 21.7908 20.4271 21.5755C20.4384 21.3602 20.6221 21.1933 20.8376 21.2058C20.9226 21.2102 21.0079 21.213 21.094 21.213C24.1095 21.213 26.5628 18.7597 26.5628 15.7442V10.513C24.1728 10.4248 22.8384 9.51813 22.2263 8.94172C19.9912 11.6855 16.7221 11.3383 15.6253 11.1258V15.7442C15.6253 16.873 15.971 17.9591 16.6254 18.8852C16.6837 18.9698 16.7063 19.0741 16.6882 19.1753C16.6702 19.2765 16.613 19.3665 16.529 19.4258C16.445 19.4851 16.3411 19.5089 16.2397 19.492C16.1383 19.4752 16.0476 19.419 15.9873 19.3358C15.2393 18.2772 14.844 17.0352 14.844 15.7442V11.0308C14.8435 10.9263 14.8665 10.8231 14.9112 10.7287C14.956 10.6343 15.0214 10.5512 15.1026 10.4855C15.184 10.419 15.2793 10.3717 15.3814 10.3469C15.4836 10.3221 15.5899 10.3206 15.6928 10.3423C16.8326 10.5805 19.6965 10.8684 21.6657 8.39219C21.7274 8.31463 21.8047 8.25087 21.8926 8.20501C21.9805 8.15915 22.077 8.13222 22.1759 8.12594C22.2746 8.12028 22.3734 8.13523 22.466 8.16985C22.5587 8.20447 22.643 8.258 22.7138 8.32703C23.1223 8.7275 24.3246 9.66609 26.6613 9.73469C26.842 9.74016 27.0135 9.81498 27.1404 9.94361C27.2674 10.0722 27.3399 10.2448 27.3429 10.4255C27.3435 10.4584 27.344 10.4916 27.344 10.5248V15.7444C27.3442 19.1905 24.5404 21.9942 21.0942 21.9942Z" fill="black"/>
<path d="M21.4121 19.9869C21.3121 19.9868 21.216 19.9484 21.1435 19.8795C21.071 19.8106 21.0276 19.7166 21.0224 19.6167C21.0171 19.5169 21.0504 19.4188 21.1153 19.3428C21.1802 19.2667 21.2718 19.2184 21.3712 19.2078C22.5271 19.0845 23.5201 18.2002 23.7857 17.0569C23.8306 16.8639 23.8535 16.6663 23.8538 16.4694C23.8538 16.4321 23.8464 16.3952 23.832 16.3608C23.8176 16.3264 23.7965 16.2952 23.7699 16.2691C23.7419 16.2408 23.7084 16.2183 23.6716 16.2031C23.6348 16.1878 23.5953 16.18 23.5554 16.1802H18.6315C18.4709 16.1802 18.3348 16.3077 18.3345 16.4586C18.3345 16.6148 18.3474 16.768 18.3729 16.92C18.3814 16.9706 18.3799 17.0224 18.3684 17.0724C18.3568 17.1224 18.3356 17.1696 18.3058 17.2114C18.276 17.2531 18.2383 17.2886 18.1948 17.3158C18.1513 17.343 18.1029 17.3614 18.0523 17.3698C18.0017 17.3785 17.9499 17.377 17.8998 17.3655C17.8498 17.354 17.8025 17.3328 17.7607 17.303C17.7189 17.2732 17.6834 17.2355 17.6563 17.1919C17.6291 17.1484 17.6108 17.0999 17.6024 17.0492C17.5699 16.856 17.5534 16.6605 17.5532 16.4645C17.5545 15.8734 18.0382 15.3989 18.6315 15.3989H23.5554C23.8454 15.3989 24.1179 15.5119 24.3229 15.7172C24.4223 15.8159 24.501 15.9334 24.5546 16.0628C24.6082 16.1921 24.6355 16.3309 24.6351 16.4709C24.6345 16.7277 24.6048 16.9836 24.5467 17.2337C24.2017 18.7189 22.9588 19.8244 21.4542 19.9847C21.4399 19.9861 21.426 19.9869 21.4121 19.9869Z" fill="black"/>
<path d="M20.6575 21.4786C20.5812 21.4786 20.5065 21.4562 20.4428 21.4143C20.379 21.3724 20.329 21.3127 20.2988 21.2426C20.2686 21.1726 20.2595 21.0952 20.2728 21.0201C20.286 20.9449 20.321 20.8753 20.3734 20.8198C20.7399 20.4332 20.9439 19.9206 20.9432 19.3878C20.9432 18.2369 20.007 17.3006 18.8561 17.3006C18.3403 17.2995 17.8426 17.4901 17.4596 17.8354C17.0765 18.1806 16.8353 18.6559 16.7829 19.1689C16.7776 19.2199 16.7623 19.2694 16.7378 19.3145C16.7134 19.3596 16.6803 19.3994 16.6405 19.4318C16.6006 19.4641 16.5548 19.4882 16.5056 19.5028C16.4565 19.5174 16.4049 19.5222 16.3539 19.5169C16.3028 19.5115 16.2534 19.4962 16.2083 19.4718C16.1632 19.4473 16.1233 19.4143 16.091 19.3744C16.0587 19.3346 16.0346 19.2888 16.02 19.2396C16.0053 19.1904 16.0006 19.1388 16.0059 19.0878C16.0779 18.3825 16.4094 17.7291 16.936 17.2545C17.4627 16.7798 18.1469 16.5178 18.8559 16.5194C20.4376 16.5194 21.7243 17.8061 21.7243 19.3878C21.7243 20.1225 21.4462 20.8214 20.9414 21.3562C20.9049 21.395 20.8609 21.4258 20.8121 21.4469C20.7633 21.4679 20.7106 21.4787 20.6575 21.4786Z" fill="black"/>
<path d="M9.25606 37.7816C8.70637 37.7816 8.17059 37.6163 7.70559 37.297C7.07981 36.8677 6.65543 36.1909 6.54137 35.4406C6.42731 34.6903 6.63121 33.918 7.10121 33.3219L13.8722 24.7319C13.9201 24.6612 14.4456 23.8587 14.1293 23.0416C13.582 21.6281 14.3478 20.3223 14.7157 19.6947L14.7509 19.6348C14.9564 19.283 15.3565 19.0252 15.9403 18.8689C16.3232 18.7666 16.7423 18.8239 17.0893 19.0269L17.1082 19.038C17.355 18.7631 17.774 18.3827 18.2514 18.3133C18.5414 18.2708 18.8187 18.3466 19.0526 18.532C19.7112 19.0539 21.787 20.8822 20.8481 22.4905C20.6731 22.7902 20.5382 23.0811 20.3956 23.3892C19.9782 24.29 19.5053 25.3108 17.8601 26.8978C17.3923 27.348 16.9893 27.861 16.6628 28.4222L11.5961 36.4913C11.1936 37.1322 10.5637 37.5697 9.82262 37.7233C9.63356 37.7622 9.44403 37.7816 9.25606 37.7816ZM16.3226 19.6002C16.2617 19.6002 16.2009 19.608 16.1422 19.6236C15.7804 19.7205 15.5192 19.8681 15.4254 20.0287L15.3897 20.09C15.0601 20.652 14.4467 21.698 14.8578 22.7595C15.3431 24.0128 14.5367 25.1467 14.5022 25.1944L7.71481 33.8056C7.54663 34.0171 7.42417 34.2611 7.35515 34.5223C7.28614 34.7835 7.27208 35.0562 7.31387 35.3231C7.35331 35.5904 7.44779 35.8466 7.59133 36.0755C7.73487 36.3043 7.92435 36.5009 8.14778 36.6528C8.36643 36.8042 8.6137 36.9093 8.87442 36.9618C9.13514 37.0143 9.40383 37.013 9.66403 36.958C9.92465 36.905 10.1717 36.7994 10.3901 36.6477C10.6086 36.4959 10.7937 36.3012 10.9343 36.0755L15.994 28.0183C16.3464 27.4105 16.794 26.8403 17.3176 26.3353C18.8578 24.8497 19.2792 23.9402 19.6867 23.0606C19.8307 22.7497 19.9798 22.4281 20.1734 22.0964C20.825 20.9805 18.8004 19.3287 18.5675 19.1441C18.5023 19.0923 18.4418 19.075 18.3647 19.0861C18.0607 19.1297 17.6646 19.565 17.5204 19.7691C17.464 19.849 17.3797 19.9048 17.2841 19.9256C17.1885 19.9465 17.0886 19.9307 17.004 19.8816L16.6954 19.7014C16.5822 19.6354 16.4536 19.6005 16.3226 19.6002ZM21.7012 26.3022H20.4365C20.3329 26.3022 20.2336 26.261 20.1603 26.1878C20.0871 26.1145 20.0459 26.0152 20.0459 25.9116C20.0459 25.808 20.0871 25.7086 20.1603 25.6353C20.2336 25.5621 20.3329 25.5209 20.4365 25.5209H21.7012C21.8048 25.5209 21.9042 25.5621 21.9774 25.6353C22.0507 25.7086 22.0918 25.808 22.0918 25.9116C22.0918 26.0152 22.0507 26.1145 21.9774 26.1878C21.9042 26.261 21.8048 26.3022 21.7012 26.3022ZM26.602 24.8459C26.5576 24.8459 26.5126 24.8384 26.4686 24.8223C26.0395 24.6669 25.6196 24.4871 25.2111 24.2837C24.5968 23.9767 24.5406 23.9405 24.5104 23.9211C24.2461 23.7505 24.0177 23.5296 23.8384 23.2711C23.7791 23.1861 23.7561 23.081 23.7743 22.979C23.7925 22.877 23.8504 22.7864 23.9354 22.7272C24.0204 22.6679 24.1255 22.6449 24.2275 22.6631C24.3295 22.6813 24.4201 22.7392 24.4793 22.8242C24.6004 22.9993 24.7547 23.1489 24.9336 23.2644C24.9478 23.273 25.0439 23.3269 25.5604 23.585C25.9422 23.775 26.3346 23.943 26.7356 24.0881C26.8329 24.1236 26.9122 24.1962 26.956 24.2901C26.9999 24.3839 27.0047 24.4914 26.9693 24.5887C26.9419 24.6641 26.8919 24.7292 26.8262 24.7752C26.7605 24.8212 26.6822 24.8459 26.602 24.8459Z" fill="black"/>
<path d="M18.5604 27.968C18.4123 27.9683 18.2658 27.9366 18.131 27.8752C17.9961 27.8138 17.8762 27.724 17.7792 27.612L17.2887 27.0459C17.2551 27.0072 17.2295 26.9622 17.2133 26.9135C17.1971 26.8649 17.1906 26.8135 17.1943 26.7623C17.1979 26.7112 17.2116 26.6612 17.2346 26.6154C17.2575 26.5695 17.2893 26.5286 17.3281 26.495C17.3668 26.4614 17.4118 26.4358 17.4605 26.4196C17.5092 26.4034 17.5605 26.3969 17.6117 26.4006C17.6629 26.4042 17.7128 26.4179 17.7587 26.4409C17.8045 26.4639 17.8454 26.4956 17.879 26.5344L18.3695 27.1003C18.4133 27.1507 18.4753 27.1817 18.5419 27.1864C18.6085 27.1912 18.6743 27.1693 18.7248 27.1256L19.8454 26.1542C19.8958 26.1104 19.9268 26.0484 19.9316 25.9818C19.9364 25.9152 19.9145 25.8494 19.8709 25.7989L19.122 24.935C19.057 24.8563 19.0254 24.7554 19.0339 24.6537C19.0423 24.5521 19.0902 24.4578 19.1673 24.3909C19.2444 24.3241 19.3445 24.2901 19.4463 24.2961C19.5482 24.3021 19.6436 24.3477 19.7123 24.4231L20.4612 25.2872C20.6403 25.4944 20.73 25.7642 20.7105 26.0374C20.691 26.3106 20.5639 26.5649 20.3571 26.7445L19.2364 27.7161C19.0488 27.8788 18.8087 27.9683 18.5604 27.968ZM33.0195 34.1653H29.377C29.2734 34.1653 29.174 34.1242 29.1008 34.0509C29.0275 33.9776 28.9864 33.8783 28.9864 33.7747C28.9864 33.6711 29.0275 33.5717 29.1008 33.4985C29.174 33.4252 29.2734 33.3841 29.377 33.3841H33.0195C33.1231 33.3841 33.2224 33.4252 33.2957 33.4985C33.3689 33.5717 33.4101 33.6711 33.4101 33.7747C33.4101 33.8783 33.3689 33.9776 33.2957 34.0509C33.2224 34.1242 33.1231 34.1653 33.0195 34.1653ZM26.691 40H15.3906C14.7389 40 14.2087 39.4697 14.2087 38.8181C14.2087 38.1664 14.739 37.6361 15.3906 37.6361H26.691C27.3428 37.6361 27.8729 38.1664 27.8729 38.8181C27.8729 39.4697 27.3428 40 26.691 40ZM15.3906 38.4173C15.2843 38.4175 15.1825 38.4597 15.1074 38.5349C15.0323 38.61 14.99 38.7119 14.9899 38.8181C14.9901 38.9243 15.0323 39.0262 15.1074 39.1013C15.1825 39.1764 15.2844 39.2186 15.3906 39.2188H26.691C26.7973 39.2186 26.8991 39.1764 26.9742 39.1013C27.0493 39.0262 27.0915 38.9243 27.0917 38.8181C27.0916 38.7119 27.0494 38.61 26.9742 38.5349C26.8991 38.4597 26.7973 38.4175 26.691 38.4173H15.3906ZM20.1382 36.8878H15.1378C14.4628 36.8878 13.9137 36.3388 13.9137 35.6638C13.9137 34.9888 14.4628 34.4397 15.1378 34.4397H20.1382C20.8131 34.4397 21.3621 34.9888 21.3621 35.6638C21.3621 36.3388 20.8131 36.8878 20.1382 36.8878ZM15.1378 35.2209C14.8935 35.2209 14.6949 35.4195 14.6949 35.6638C14.6949 35.908 14.8935 36.1066 15.1378 36.1066H20.1382C20.3824 36.1066 20.5809 35.908 20.5809 35.6638C20.5809 35.4195 20.3823 35.2209 20.1382 35.2209H15.1378Z" fill="black"/>
<path d="M20.2959 35.1491C20.2205 35.149 20.1467 35.1271 20.0835 35.086C20.0203 35.045 19.9703 34.9865 19.9395 34.9176C19.9088 34.8488 19.8987 34.7725 19.9103 34.698C19.922 34.6235 19.955 34.554 20.0053 34.4978C20.0236 34.4776 20.0337 34.4513 20.0336 34.4241C20.0336 33.79 19.5178 33.2742 18.8837 33.2742H16.3928C15.7587 33.2742 15.243 33.79 15.243 34.4241C15.243 34.4497 15.2509 34.4728 15.2669 34.4927C15.2989 34.5327 15.3227 34.5787 15.3369 34.628C15.3511 34.6773 15.3555 34.7289 15.3498 34.7798C15.3441 34.8308 15.3284 34.8801 15.3037 34.9251C15.2789 34.97 15.2455 35.0096 15.2055 35.0416C15.1654 35.0736 15.1194 35.0974 15.0701 35.1116C15.0208 35.1259 14.9693 35.1302 14.9183 35.1245C14.8673 35.1188 14.818 35.1032 14.7731 35.0784C14.7281 35.0536 14.6886 35.0202 14.6565 34.9802C14.5306 34.8221 14.4619 34.6261 14.4617 34.4241C14.4617 33.3592 15.328 32.493 16.3928 32.493H18.8837C19.9486 32.493 20.8148 33.3592 20.8148 34.4241C20.8148 34.6439 20.7339 34.8553 20.5872 35.0192C20.5505 35.0601 20.5056 35.0928 20.4554 35.1152C20.4052 35.1376 20.3509 35.1491 20.2959 35.1491ZM19.5412 38.3962H15.7348C15.2589 38.3962 14.8272 38.1241 14.6348 37.7028C14.5176 37.4465 14.4584 37.1674 14.4615 36.8855C14.463 36.709 14.5183 36.5372 14.62 36.393C14.6494 36.351 14.6869 36.3152 14.7301 36.2876C14.7734 36.2601 14.8217 36.2414 14.8722 36.2325C14.9227 36.2236 14.9745 36.2248 15.0246 36.2359C15.0747 36.247 15.122 36.2679 15.164 36.2973C15.206 36.3268 15.2418 36.3642 15.2694 36.4075C15.2969 36.4508 15.3157 36.4991 15.3245 36.5496C15.3334 36.6001 15.3323 36.6519 15.3211 36.7019C15.31 36.752 15.2891 36.7994 15.2597 36.8414C15.2489 36.8563 15.2431 36.8741 15.243 36.8925C15.241 37.0601 15.2761 37.226 15.3458 37.3784C15.4112 37.522 15.564 37.615 15.735 37.615H19.5414C19.7123 37.615 19.8651 37.5222 19.9306 37.3784C20.0003 37.226 20.0354 37.0601 20.0334 36.8925C20.0332 36.8734 20.0269 36.8548 20.0153 36.8395C19.9574 36.7559 19.9343 36.6529 19.9511 36.5526C19.9679 36.4522 20.0231 36.3624 20.1051 36.3021C20.1871 36.2419 20.2894 36.216 20.3901 36.2299C20.4909 36.2439 20.5823 36.2966 20.6448 36.3769C20.7538 36.5242 20.8132 36.7022 20.8147 36.8855C20.8179 37.1674 20.7588 37.4465 20.6414 37.7028C20.4489 38.1242 20.0172 38.3962 19.5412 38.3962ZM26.9439 36.8878H21.9434C21.2684 36.8878 20.7194 36.3388 20.7194 35.6638C20.7194 34.9888 21.2684 34.4397 21.9434 34.4397H26.9439C27.6189 34.4397 28.1679 34.9888 28.1679 35.6638C28.1679 36.3388 27.6189 36.8878 26.9439 36.8878ZM21.9434 35.2209C21.6992 35.2209 21.5006 35.4195 21.5006 35.6638C21.5006 35.908 21.6992 36.1066 21.9434 36.1066H26.9439C27.1881 36.1066 27.3867 35.908 27.3867 35.6638C27.3867 35.4195 27.1881 35.2209 26.9439 35.2209H21.9434Z" fill="black"/>
<path d="M27.1015 35.1491C27.0261 35.149 26.9524 35.1271 26.8891 35.086C26.8259 35.045 26.7759 34.9865 26.7452 34.9176C26.7144 34.8488 26.7043 34.7725 26.716 34.698C26.7276 34.6235 26.7606 34.554 26.8109 34.4978C26.8292 34.4776 26.8393 34.4513 26.8392 34.4241C26.8392 33.79 26.3234 33.2742 25.6893 33.2742H23.1984C22.5643 33.2742 22.0486 33.79 22.0486 34.4241C22.0486 34.4461 22.0547 34.4663 22.0664 34.4844C22.1232 34.571 22.1434 34.6766 22.1223 34.7781C22.1013 34.8795 22.0408 34.9685 21.9542 35.0253C21.8676 35.0822 21.7619 35.1023 21.6605 35.0813C21.559 35.0602 21.4701 34.9997 21.4132 34.9131C21.3178 34.7679 21.267 34.5979 21.2672 34.4241C21.2672 33.3592 22.1334 32.493 23.1982 32.493H25.6892C26.754 32.493 27.6203 33.3592 27.6203 34.4241C27.6203 34.6439 27.5393 34.8553 27.3926 35.0192C27.356 35.0601 27.3111 35.0928 27.2609 35.1152C27.2108 35.1376 27.1565 35.1491 27.1015 35.1491ZM26.3468 38.3963H22.5404C22.0645 38.3963 21.6326 38.1241 21.4403 37.7028C21.323 37.4464 21.2639 37.1672 21.267 36.8853C21.2692 36.6661 21.3538 36.4558 21.5039 36.2961C21.5753 36.2231 21.6724 36.1809 21.7745 36.1786C21.8765 36.1763 21.9755 36.214 22.0501 36.2838C22.1247 36.3535 22.169 36.4496 22.1737 36.5516C22.1783 36.6536 22.1428 36.7534 22.0748 36.8295C22.0582 36.8463 22.0487 36.8689 22.0484 36.8925C22.0464 37.0601 22.0815 37.226 22.1512 37.3784C22.2167 37.522 22.3697 37.615 22.5406 37.615H26.347C26.5179 37.615 26.6707 37.5222 26.7362 37.3784C26.8059 37.226 26.841 37.06 26.839 36.8923C26.8387 36.8703 26.8304 36.8492 26.8156 36.8328C26.7484 36.7543 26.7151 36.6524 26.7229 36.5494C26.7307 36.4464 26.779 36.3507 26.8572 36.2832C26.9354 36.2157 27.0371 36.1819 27.1402 36.1892C27.2432 36.1966 27.3392 36.2444 27.407 36.3223C27.5425 36.4788 27.6181 36.6783 27.6203 36.8853C27.6234 37.1672 27.5643 37.4463 27.447 37.7027C27.2545 38.1242 26.8228 38.3963 26.3468 38.3963ZM23.5411 31.7656H18.5406C17.8656 31.7656 17.3165 31.2166 17.3165 30.5416C17.3165 29.8667 17.8656 29.3177 18.5406 29.3177H23.5411C24.2161 29.3177 24.7651 29.8667 24.7651 30.5416C24.7651 31.2166 24.2161 31.7656 23.5411 31.7656ZM18.5406 30.0989C18.2964 30.0989 18.0978 30.2975 18.0978 30.5416C18.0978 30.7856 18.2964 30.9844 18.5406 30.9844H23.5411C23.7853 30.9844 23.9839 30.7858 23.9839 30.5416C23.9839 30.2973 23.7853 30.0989 23.5411 30.0989H18.5406Z" fill="black"/>
<path d="M23.7163 30.0059C23.6428 30.0058 23.5707 29.9849 23.5085 29.9457C23.4463 29.9064 23.3964 29.8504 23.3646 29.7841C23.3327 29.7178 23.3203 29.6438 23.3286 29.5708C23.3369 29.4977 23.3657 29.4284 23.4116 29.3709C23.4274 29.3514 23.436 29.3271 23.4359 29.302C23.4359 28.668 22.9201 28.1522 22.286 28.1522H19.7952C19.1612 28.1522 18.6454 28.668 18.6454 29.302C18.6454 29.3259 18.6524 29.3477 18.6662 29.3666C18.724 29.4504 18.7468 29.5536 18.7296 29.654C18.7125 29.7544 18.6569 29.8442 18.5746 29.9041C18.4923 29.9641 18.3898 29.9896 18.2889 29.9752C18.1881 29.9607 18.0969 29.9074 18.0348 29.8267C17.9235 29.6745 17.8637 29.4907 17.8641 29.3022C17.8641 28.2373 18.7304 27.3711 19.7952 27.3711H22.2862C23.351 27.3711 24.2173 28.2373 24.2173 29.3022C24.2171 29.5049 24.148 29.7015 24.0213 29.8598C23.9847 29.9055 23.9383 29.9424 23.8855 29.9677C23.8327 29.993 23.7749 30.006 23.7163 30.0059ZM22.944 33.2742H19.1376C18.6616 33.2742 18.2299 33.002 18.0376 32.5808C17.9203 32.3245 17.8612 32.0454 17.8643 31.7636C17.8665 31.5471 17.9491 31.3391 18.0959 31.18C18.1669 31.1078 18.2633 31.066 18.3646 31.0634C18.4659 31.0608 18.5642 31.0977 18.6389 31.1662C18.7135 31.2348 18.7586 31.3296 18.7647 31.4307C18.7708 31.5319 18.7374 31.6315 18.6715 31.7084C18.6553 31.7252 18.646 31.7474 18.6455 31.7706C18.6436 31.9381 18.6787 32.104 18.7484 32.2564C18.8138 32.4 18.9666 32.493 19.1376 32.493H22.944C23.1149 32.493 23.2677 32.4002 23.3332 32.2564C23.4028 32.104 23.438 31.9381 23.436 31.7706C23.4358 31.7504 23.4288 31.7307 23.416 31.715C23.3519 31.6336 23.3227 31.5301 23.3349 31.4272C23.3471 31.3244 23.3996 31.2305 23.481 31.1664C23.5624 31.1023 23.6659 31.0731 23.7688 31.0853C23.8717 31.0975 23.9655 31.15 24.0296 31.2314C24.1499 31.3828 24.216 31.5701 24.2174 31.7634C24.2207 32.0453 24.1615 32.3245 24.0441 32.5808C23.8516 33.002 23.4199 33.2742 22.944 33.2742Z" fill="black"/>
<path d="M12.1875 4.50781C11.4844 4.38281 10.9375 3.83594 10.7969 3.14844C10.7969 3.11719 10.7344 3.11719 10.7344 3.14844C10.5938 3.83594 10.0469 4.38281 9.34375 4.50781C9.3125 4.50781 9.3125 4.55469 9.34375 4.57031C10.0469 4.69531 10.5938 5.24219 10.7344 5.92969C10.7344 5.96094 10.7969 5.96094 10.7969 5.92969C10.9375 5.24219 11.4844 4.69531 12.1875 4.57031C12.2188 4.55469 12.2188 4.50781 12.1875 4.50781Z" fill="#F5C84C"/>
<path d="M11.7946 22.0945C11.2857 22.0041 10.8899 21.6083 10.7882 21.1106C10.7882 21.088 10.7429 21.088 10.7429 21.1106C10.6412 21.6083 10.2452 22.0041 9.73647 22.0945C9.71382 22.0945 9.71382 22.1284 9.73647 22.1398C10.2454 22.2303 10.6412 22.6261 10.7429 23.1238C10.7429 23.1464 10.7882 23.1464 10.7882 23.1238C10.8899 22.6261 11.2859 22.2303 11.7946 22.1398C11.8173 22.1284 11.8173 22.0945 11.7946 22.0945Z" fill="#FC657E"/>
<path d="M32.4844 20.7031H32.125V20.3437C32.125 20.0781 31.9062 19.8438 31.625 19.8438C31.3437 19.8438 31.125 20.0625 31.125 20.3437V20.7031H30.7656C30.5 20.7031 30.2656 20.9219 30.2656 21.2031C30.2656 21.4844 30.4844 21.7031 30.7656 21.7031H31.125V22.0625C31.125 22.3281 31.3437 22.5625 31.625 22.5625C31.9062 22.5625 32.125 22.3437 32.125 22.0625V21.7031H32.4844C32.75 21.7031 32.9844 21.4844 32.9844 21.2031C32.9844 20.9219 32.7656 20.7031 32.4844 20.7031Z" fill="#70D6F9"/>
<path d="M14.5313 1.0625C14.8247 1.0625 15.0625 0.824651 15.0625 0.53125C15.0625 0.237849 14.8247 0 14.5313 0C14.2378 0 14 0.237849 14 0.53125C14 0.824651 14.2378 1.0625 14.5313 1.0625Z" fill="#87D147"/>
<path d="M34.6875 25.125C34.9809 25.125 35.2188 24.8872 35.2188 24.5937C35.2188 24.3003 34.9809 24.0625 34.6875 24.0625C34.3941 24.0625 34.1562 24.3003 34.1562 24.5937C34.1562 24.8872 34.3941 25.125 34.6875 25.125Z" fill="#F5C84C"/>
</svg>
