<svg width="50" height="50" viewBox="0 0 50 50" fill="none" xmlns="http://www.w3.org/2000/svg">
<path fill-rule="evenodd" clip-rule="evenodd" d="M30.0742 39.2283L30.8075 39.6313C31.4193 39.9683 32.1954 39.743 32.5309 39.1314C32.8679 38.5196 32.6394 37.7484 32.031 37.4065C32.6411 37.7484 33.4188 37.5166 33.7559 36.9066C33.9614 36.5317 33.9549 36.1008 33.7806 35.7424L33.9712 35.6634L25.3747 28.8213C22.9229 27.1687 21.2144 29.2981 19.529 28.3493L17.296 27.32C16.9194 27.1457 16.4705 27.3101 16.2929 27.685L13.8955 32.7875C13.805 32.9782 13.7967 33.1755 13.8708 33.3729C13.9431 33.5702 14.0779 33.7149 14.2704 33.8004C15.0662 34.1605 16.2863 34.7097 16.5379 34.8067C17.3009 35.1027 17.0493 36.2965 17.4686 36.8425C18.1115 37.6811 18.2167 38.2928 18.7644 38.6068L26.751 43.1945C27.3577 43.5431 28.1388 43.3064 28.4759 42.6946C28.8129 42.0829 28.5861 41.3084 27.9776 40.968L28.8491 41.4531C29.4609 41.7919 30.2369 41.5633 30.5741 40.9517C30.9111 40.3399 30.6826 39.5704 30.0742 39.2283Z" fill="#F6DCCD"/>
<path fill-rule="evenodd" clip-rule="evenodd" d="M25.6309 29.0252L25.3745 28.8213C22.9227 27.1687 21.2142 29.2981 19.5288 28.3493L17.2957 27.32C16.9192 27.1457 16.4702 27.3101 16.2927 27.685L15.7632 28.813C16.2894 28.5483 16.9175 28.7095 17.6148 29.1288C20.9544 31.1299 22.1022 28.9611 24.7216 29.8869C24.8268 29.7881 24.9304 29.6878 25.0307 29.5859C25.2228 29.3906 25.4231 29.2036 25.6309 29.0252ZM25.7132 42.5977L26.7507 43.1945C27.3427 43.5349 28.1007 43.3178 28.451 42.7374L26.287 41.5058L25.7132 42.5977ZM31.5917 37.1614L32.0307 37.4065C32.6128 37.732 33.3495 37.5364 33.708 36.9838L29.6003 34.6488C29.4608 34.5704 29.2958 34.5507 29.1416 34.5938C28.9875 34.637 28.8568 34.7396 28.7782 34.879C28.6998 35.0186 28.68 35.1836 28.7232 35.3378C28.7663 35.4919 28.8689 35.6227 29.0084 35.7013C29.8799 36.1995 31.6148 37.1729 31.5917 37.1614ZM29.6464 38.9932L30.8073 39.6313C31.3895 39.9519 32.1196 39.7628 32.4797 39.2169L27.4216 36.3426C27.1305 36.1781 26.7639 36.2817 26.5995 36.5711C26.4366 36.8622 26.5386 37.2305 26.8297 37.3932L29.6464 38.9932ZM25.7395 39.6411C25.8299 39.7759 25.945 39.8088 26.0897 39.8911L28.0613 41.0158L28.8489 41.4531C29.4359 41.7771 30.1759 41.5815 30.5311 41.024L26.514 38.7482C26.2246 38.5854 25.8562 38.6874 25.6934 38.9784C25.6348 39.0811 25.608 39.1988 25.6162 39.3167C25.6244 39.4346 25.6673 39.5475 25.7395 39.6411Z" fill="#F1CBBC"/>
<path fill-rule="evenodd" clip-rule="evenodd" d="M15.4246 25.2547L11.7067 33.6672C11.5275 34.075 11.7116 34.5535 12.1195 34.7343L13.7391 35.4496C14.1453 35.6289 14.6255 35.4431 14.8047 35.037L18.5242 26.6244C18.7034 26.2167 18.5176 25.7365 18.1114 25.5573L16.4917 24.842C16.0857 24.6611 15.6055 24.8469 15.4246 25.2547Z" fill="#D1D1D6"/>
<path fill-rule="evenodd" clip-rule="evenodd" d="M14.1418 34.7442C13.9625 35.1504 13.4857 35.3362 13.0796 35.1586L13.7389 35.4496C14.1451 35.6289 14.6253 35.443 14.8045 35.037C16.0443 32.2333 17.2842 29.428 18.524 26.6244C18.6917 26.2429 18.5405 25.7973 18.1869 25.5951C16.8385 28.6453 15.4902 31.6939 14.1418 34.7442Z" fill="#B1B1B5"/>
<path fill-rule="evenodd" clip-rule="evenodd" d="M24.4226 39.9897C24.8156 39.5539 25.4734 39.4223 26.0127 39.7102C26.1834 39.8014 26.3317 39.9294 26.4468 40.0851C26.7445 40.4912 26.7855 41.0355 26.5488 41.4795L25.7759 42.9249C25.4372 43.5596 24.6397 43.8013 24.0066 43.4625C23.4968 43.1896 23.2403 42.6207 23.3357 42.0797C22.9608 42.6025 22.239 42.7817 21.6568 42.471C21.1569 42.2029 20.9021 41.6538 20.981 41.1226C20.639 41.759 19.8481 42.0057 19.2084 41.6636C18.5737 41.3249 18.3336 40.5273 18.6723 39.8943L18.9157 39.4388C18.5178 39.7989 17.9176 39.8911 17.4194 39.6246C16.7863 39.2859 16.5446 38.4884 16.8833 37.8553L17.6891 36.3474C18.0294 35.7127 18.8253 35.4726 19.4584 35.8114C20.0684 36.1369 20.3151 36.8867 20.0322 37.5067C20.4302 37.1416 21.0336 37.0479 21.5335 37.316C22.0729 37.6037 22.3277 38.2236 22.183 38.7926C22.576 38.3568 23.2338 38.2253 23.7731 38.513C24.3125 38.8008 24.5673 39.4208 24.4226 39.9897Z" fill="#D6B4A8"/>
<path fill-rule="evenodd" clip-rule="evenodd" d="M18.9156 39.4388C18.5176 39.7989 17.9174 39.8911 17.4192 39.6246C17.3119 39.5671 17.2133 39.4945 17.1265 39.4092C17.5261 39.4273 17.707 39.1115 17.8895 38.791L19.2592 36.3804C19.3694 36.1862 19.3776 35.9298 19.2922 35.7374C19.3497 35.7571 19.4039 35.7817 19.4582 35.8113C20.0682 36.1369 20.3149 36.8867 20.0321 37.5067L18.9156 39.4388ZM20.9809 41.1226C20.6471 41.7459 19.8577 42.0106 19.2082 41.6636C19.1449 41.6295 19.0845 41.5905 19.0273 41.5468C19.2575 41.5123 19.4911 41.3644 19.5552 41.2411L21.3673 37.7319C21.3837 37.6974 21.4364 37.4689 21.3361 37.2305C21.4034 37.2518 21.4692 37.2814 21.5333 37.316C22.0727 37.6037 22.3275 38.2236 22.1845 38.791L20.9809 41.1226ZM25.8646 39.6427C25.9156 39.6624 25.9632 39.6855 26.0125 39.7102C26.1833 39.8014 26.3316 39.9294 26.4467 40.0851C26.7443 40.4912 26.7854 41.0355 26.5486 41.4795L25.7758 42.9249C25.4371 43.5596 24.6395 43.8012 24.0065 43.4625C23.9982 43.4576 23.9917 43.4543 23.9851 43.4494C24.1199 43.4001 24.2054 43.3261 24.2449 43.2504L25.858 40.1262C25.9222 40.0028 25.9336 39.8088 25.8646 39.6427ZM23.3356 42.0797C22.9607 42.6025 22.2388 42.7817 21.6567 42.471C21.614 42.4483 21.5728 42.4231 21.5333 42.3954C21.7554 42.2983 21.9428 42.1322 22.0727 41.884L23.5757 38.9718C23.6825 38.7662 23.6595 38.5887 23.5707 38.4259C23.6398 38.4489 23.7072 38.4785 23.7729 38.513C24.3123 38.8008 24.5672 39.4208 24.4224 39.9897L23.3356 42.0797Z" fill="#CCA393"/>
<path fill-rule="evenodd" clip-rule="evenodd" d="M28.8638 32.679L33.2543 35.1817C33.4827 35.3113 33.6663 35.5075 33.7804 35.7441L36.2585 34.7097C36.4411 34.6339 36.5868 34.4895 36.6642 34.3075C36.7417 34.1256 36.7447 33.9205 36.6728 33.7363L34.6058 28.4003C34.5237 28.1915 34.3724 28.0419 34.1619 27.9646C33.9514 27.8857 33.7393 27.9005 33.542 28.0074L32.0588 28.7999C30.2878 29.7208 28.5843 26.6212 25.3778 28.8213C24.9618 29.1058 24.5704 29.4478 24.2153 29.8063C23.3256 30.7057 22.2388 31.5082 21.0104 32.2251C20.9919 32.2361 20.976 32.2509 20.9635 32.2685C20.951 32.286 20.9424 32.306 20.9381 32.3271C20.9337 32.3483 20.9341 32.3702 20.9392 32.3913C20.9443 32.4123 20.9541 32.4319 20.9677 32.4488C23.5114 35.7227 26.6061 31.3914 28.8638 32.679Z" fill="#D6B4A8"/>
<path fill-rule="evenodd" clip-rule="evenodd" d="M32.2695 34.6192L33.2545 35.1816C33.4829 35.3113 33.6665 35.5074 33.7806 35.744L36.2587 34.7097C36.6385 34.5518 36.8227 34.1194 36.6747 33.7363L36.0679 32.1724C36.0958 32.669 35.9807 33.1065 35.4677 33.3153L32.2695 34.6192ZM21.3115 32.8433C23.7862 35.3461 26.7066 31.4489 28.864 32.6789C25.4487 30.3653 24.1776 33.4139 21.3115 32.8433Z" fill="#CCA393"/>
<path fill-rule="evenodd" clip-rule="evenodd" d="M36.1024 25.8516L39.4273 34.4285C39.5885 34.8429 39.3812 35.3132 38.9669 35.4743L37.3159 36.1139C36.8999 36.2751 36.4296 36.068 36.2685 35.6519L32.9437 27.0767C32.7825 26.6606 32.9913 26.1903 33.4057 26.0292L35.0566 25.3895C35.471 25.2284 35.9429 25.4373 36.1024 25.8516Z" fill="#D1D1D6"/>
<path fill-rule="evenodd" clip-rule="evenodd" d="M33.2707 26.0966C32.9485 26.2972 32.8021 26.7083 32.9436 27.0767L36.2684 35.6519C36.4296 36.0679 36.8999 36.2751 37.3143 36.1139L37.9276 35.8771L37.9292 35.8755C37.5149 36.0367 37.0446 35.8295 36.8834 35.4151C35.6798 32.3089 34.4745 29.2027 33.2707 26.0966Z" fill="#B1B1B5"/>
<path fill-rule="evenodd" clip-rule="evenodd" d="M25.1563 25.6324C23.0811 24.4131 19.263 21.6159 19.2121 18.8243C19.1555 15.7161 22.6485 14.3071 25.2767 16.979C27.9043 14.3071 31.3971 15.7154 31.3412 18.8235C31.2903 21.6151 27.4723 24.4131 25.397 25.6324C25.3606 25.6542 25.3191 25.6657 25.2767 25.6657C25.2343 25.6657 25.1927 25.6542 25.1563 25.6324Z" fill="#FE646F"/>
<path fill-rule="evenodd" clip-rule="evenodd" d="M25.1562 25.6323C25.1061 25.603 25.0546 25.5722 25.0022 25.5406C27.1061 24.277 30.7423 21.5478 30.7917 18.8235C30.8254 16.9617 29.5854 15.7104 28.0216 15.58C29.834 15.4316 31.3784 16.749 31.3411 18.8235C31.2903 21.6151 27.4722 24.4131 25.3969 25.6323C25.3606 25.6541 25.319 25.6656 25.2766 25.6656C25.2342 25.6656 25.1926 25.6541 25.1562 25.6323ZM21.9829 15.58C23.0817 15.4804 24.3289 15.9875 25.2766 16.979C25.1822 17.0629 25.0906 17.1501 25.0022 17.2404C24.1283 16.3521 22.8848 15.6537 21.9829 15.58Z" fill="#FD4755"/>
<path fill-rule="evenodd" clip-rule="evenodd" d="M20.6694 12.665H29.8778C30.1358 12.665 30.3571 12.5542 30.5107 12.3473C30.6643 12.1404 30.7077 11.8955 30.6329 11.6494C29.9389 9.3474 27.8024 7.67053 25.274 7.67053C22.7455 7.67053 20.6084 9.3474 19.9144 11.6494C19.8402 11.8955 19.8829 12.1404 20.0365 12.3473C20.1901 12.5542 20.4121 12.665 20.6694 12.665Z" fill="#8AC9FE"/>
<path fill-rule="evenodd" clip-rule="evenodd" d="M29.8777 12.665C30.1357 12.665 30.357 12.5542 30.5106 12.3473C30.6643 12.1404 30.7076 11.8955 30.6328 11.6494C29.9388 9.3474 27.8023 7.67053 25.2739 7.67053C25.006 7.67053 24.7427 7.68965 24.4854 7.72573C26.6612 8.03298 28.4353 9.59102 29.0557 11.6494C29.1305 11.8955 29.0879 12.1404 28.9343 12.3473C28.7806 12.5542 28.5587 12.665 28.3013 12.665H29.8777Z" fill="#60B7FF"/>
<path fill-rule="evenodd" clip-rule="evenodd" d="M25.2741 7.20697C26.8329 7.20697 28.1039 5.93589 28.1039 4.37717C28.1039 2.81854 26.8329 1.54736 25.2741 1.54736C23.7154 1.54736 22.4443 2.81854 22.4443 4.37717C22.4443 5.93589 23.7154 7.20697 25.2741 7.20697Z" fill="#F6DCCD"/>
<path fill-rule="evenodd" clip-rule="evenodd" d="M25.274 1.54736C26.8367 1.54736 28.1038 2.81452 28.1038 4.37717C28.1038 5.9405 26.8367 7.20697 25.274 7.20697C25.1401 7.20697 25.0081 7.19785 24.8794 7.18011C26.2556 6.98766 27.3153 5.80658 27.3153 4.37717C27.3153 2.94854 26.2556 1.76668 24.8794 1.57501C25.0101 1.55679 25.142 1.54756 25.274 1.54736Z" fill="#F1CBBC"/>
<path fill-rule="evenodd" clip-rule="evenodd" d="M37.395 48.608H46.6034C46.8614 48.608 47.0827 48.4971 47.2363 48.2903C47.3899 48.0834 47.4333 47.8385 47.3585 47.5923C46.6644 45.2904 44.528 43.6135 41.9995 43.6135C39.4711 43.6135 37.334 45.2904 36.64 47.5923C36.5658 47.8385 36.6085 48.0834 36.7621 48.2903C36.9157 48.4971 37.1377 48.608 37.395 48.608Z" fill="#8AC9FE"/>
<path fill-rule="evenodd" clip-rule="evenodd" d="M46.6033 48.608C46.8613 48.608 47.0826 48.4971 47.2362 48.2903C47.3899 48.0834 47.4332 47.8385 47.3584 47.5923C46.6644 45.2904 44.5279 43.6135 41.9995 43.6135C41.7316 43.6135 41.4683 43.6325 41.2109 43.6687C43.3868 43.976 45.1608 45.534 45.7813 47.5923C45.8561 47.8385 45.8135 48.0834 45.6599 48.2903C45.5062 48.4971 45.2843 48.608 45.0269 48.608H46.6033Z" fill="#60B7FF"/>
<path fill-rule="evenodd" clip-rule="evenodd" d="M41.9992 43.15C43.558 43.15 44.829 41.8789 44.829 40.3202C44.829 38.7614 43.558 37.4904 41.9992 37.4904C40.4405 37.4904 39.1694 38.7614 39.1694 40.3202C39.1694 41.8789 40.4405 43.15 41.9992 43.15Z" fill="#F6DCCD"/>
<path fill-rule="evenodd" clip-rule="evenodd" d="M41.9996 37.4904C43.5622 37.4904 44.8294 38.7575 44.8294 40.3202C44.8294 41.8834 43.5622 43.15 41.9996 43.15C41.8657 43.15 41.7337 43.1407 41.605 43.123C42.9812 42.9307 44.0409 41.7495 44.0409 40.3202C44.0409 38.8914 42.9812 37.7097 41.605 37.5179C41.7357 37.4997 41.8676 37.4905 41.9996 37.4904Z" fill="#F1CBBC"/>
<path fill-rule="evenodd" clip-rule="evenodd" d="M3.39657 48.2627H12.6049C12.8629 48.2627 13.0842 48.1517 13.2378 47.945C13.3915 47.7381 13.4348 47.4932 13.3599 47.247C12.666 44.9451 10.5295 43.2682 8.00108 43.2682C5.47265 43.2682 3.33549 44.9451 2.64147 47.247C2.56726 47.4932 2.61 47.7381 2.76363 47.945C2.91726 48.1517 3.13912 48.2627 3.39657 48.2627Z" fill="#8AC9FE"/>
<path fill-rule="evenodd" clip-rule="evenodd" d="M12.6048 48.2627C12.8628 48.2627 13.0841 48.1517 13.2377 47.945C13.3913 47.7381 13.4347 47.4932 13.3598 47.247C12.6658 44.9451 10.5294 43.2682 8.00093 43.2682C7.73299 43.2682 7.46976 43.2872 7.2124 43.3234C9.38819 43.6306 11.1623 45.1887 11.7827 47.247C11.8576 47.4932 11.8149 47.7381 11.6612 47.945C11.5076 48.1517 11.2857 48.2627 11.0283 48.2627H12.6048Z" fill="#60B7FF"/>
<path fill-rule="evenodd" clip-rule="evenodd" d="M8.00119 42.8046C9.55982 42.8046 10.831 41.5336 10.831 39.9748C10.831 38.4161 9.55982 37.145 8.00119 37.145C6.44246 37.145 5.17139 38.4161 5.17139 39.9748C5.17139 41.5336 6.44246 42.8046 8.00119 42.8046Z" fill="#F6DCCD"/>
<path fill-rule="evenodd" clip-rule="evenodd" d="M8.00105 37.145C9.5636 37.145 10.8309 38.4122 10.8309 39.9748C10.8309 41.5381 9.5636 42.8046 8.00105 42.8046C7.86703 42.8046 7.73507 42.7954 7.60645 42.7777C8.98262 42.5853 10.0423 41.4041 10.0423 39.9748C10.0423 38.5461 8.98262 37.3643 7.60645 37.1726C7.7372 37.1544 7.86904 37.1452 8.00105 37.145Z" fill="#F1CBBC"/>
<path fill-rule="evenodd" clip-rule="evenodd" d="M15.5712 35.1656C15.555 35.202 15.5389 35.2385 15.5229 35.275C15.1705 36.0783 14.2261 36.4447 13.4224 36.0877L11.8051 35.3745C11.0036 35.023 10.6368 34.0746 10.9883 33.273L10.9893 33.2709L14.7074 24.8603L14.7085 24.8578C15.0655 24.0576 16.0076 23.6948 16.8079 24.0457L16.8105 24.0469L18.4293 24.7639C19.2261 25.1159 19.5968 26.0604 19.24 26.8635L19.0888 27.2057L19.8568 27.5601C19.876 27.5689 19.8947 27.5785 19.9131 27.5889C20.2513 27.7793 20.5938 27.7622 20.9478 27.7059C21.2863 27.652 21.6338 27.5578 21.9961 27.4783C23.003 27.2576 24.0984 27.1377 25.3635 27.8224C27.0543 26.8375 28.3812 27.0977 29.5267 27.5184C29.9417 27.6708 30.3281 27.8488 30.6987 27.9779C31.0441 28.0983 31.366 28.1976 31.6927 28.0293L32.3605 27.6721L32.2101 27.2842L32.209 27.2814C31.8947 26.4618 32.3028 25.5385 33.1214 25.2229L34.7713 24.5812L34.773 24.5805C35.5865 24.2663 36.5119 24.6705 36.8324 25.4901L36.8332 25.4923L40.1567 34.0657L40.1578 34.0684C40.4723 34.8887 40.0618 35.8125 39.2493 36.1264L37.5985 36.7685L37.5949 36.7699C36.7753 37.0842 35.852 36.676 35.5365 35.8573L35.511 35.7915L34.691 36.1336C34.7082 36.5071 34.6212 36.8781 34.4397 37.205C34.2176 37.6092 33.8656 37.9265 33.4405 38.1056C33.5182 38.5589 33.4399 39.0251 33.2186 39.4282L33.2179 39.4295C32.8587 40.0814 32.1937 40.4617 31.5 40.4917C31.4711 40.7592 31.3892 41.0184 31.2593 41.254C30.8743 41.949 30.1379 42.3366 29.391 42.3146C29.3554 42.5525 29.2779 42.7822 29.1621 42.9929C28.6176 43.9852 27.3426 44.3616 26.3609 43.797L26.1392 43.6696C25.5083 44.3325 24.4836 44.5265 23.6361 44.0756L23.6351 44.075C23.2851 43.8886 22.9958 43.6057 22.8017 43.2599C22.3089 43.3894 21.7683 43.342 21.2866 43.0856L21.282 43.0831C20.9796 42.92 20.7221 42.6848 20.5324 42.3983C19.9957 42.5919 19.3829 42.5672 18.8397 42.2772C18.1469 41.9083 17.747 41.198 17.7345 40.4625C17.4953 40.428 17.2638 40.3519 17.0507 40.2378C16.0335 39.6959 15.647 38.4227 16.1927 37.4065L16.5677 36.7047C16.4848 36.4543 16.4346 36.1677 16.3793 35.8865C16.3596 35.7865 16.3388 35.6878 16.3092 35.5955C16.2929 35.5446 16.304 35.4792 16.2534 35.4595C16.1518 35.4202 15.895 35.3088 15.5712 35.1656ZM18.4546 28.6407L16.205 33.7313C16.4972 33.8607 16.7272 33.9609 16.8201 33.9969L16.8213 33.9974C17.324 34.193 17.6165 34.5741 17.7843 35.0605L17.791 35.0804C18.3969 34.7303 19.1662 34.6894 19.8277 35.0413L19.8299 35.0425C20.3422 35.3172 20.6943 35.7796 20.8469 36.301C21.2143 36.2881 21.5786 36.3725 21.9029 36.5457C22.3077 36.7623 22.6296 37.1066 22.8186 37.525C23.2718 37.4491 23.7374 37.5255 24.1426 37.7423C24.5471 37.9586 24.8686 38.3029 25.0567 38.7213C25.5098 38.6455 25.9753 38.7217 26.3806 38.9379L26.3933 38.9449C26.6541 39.0897 26.8808 39.2828 27.0618 39.522L27.0879 39.476L29.2289 40.69C29.462 40.8179 29.7567 40.7278 29.8866 40.4949C30.0148 40.2586 29.9198 39.9634 29.6851 39.8304C29.6547 39.8131 29.6255 39.7939 29.5976 39.7728L26.4453 37.9991C26.0681 37.7869 25.9342 37.3082 26.1464 36.931C26.3587 36.5537 26.8373 36.4198 27.2145 36.6321L31.1837 38.8653L31.1895 38.8686C31.4221 38.9941 31.715 38.9057 31.8437 38.673C31.9719 38.4385 31.8797 38.1445 31.6471 38.0128L31.6456 38.012C30.6352 37.4472 29.6217 36.8791 28.6176 36.3049C28.2418 36.09 28.1112 35.6105 28.3261 35.2347C28.541 34.8589 29.0205 34.7283 29.3963 34.9432C30.3965 35.5152 31.406 36.0809 32.4125 36.6435C32.6442 36.773 32.9379 36.6814 33.065 36.4496C33.0656 36.4486 33.0661 36.4476 33.0667 36.4466C33.1443 36.3068 33.1395 36.1445 33.0737 36.0106C33.0295 35.9159 32.9565 35.8376 32.8652 35.7868L32.8629 35.7854L28.4744 33.2827C28.0931 33.0653 27.6744 33.1226 27.2371 33.2398C26.6121 33.4076 25.9587 33.7179 25.2954 33.9654C24.3106 34.3327 23.3062 34.5559 22.3355 34.2838C21.6582 34.0939 20.983 33.672 20.3469 32.8541C20.3352 32.8391 20.324 32.8236 20.3135 32.8077C20.1664 32.5872 20.1158 32.3434 20.1709 32.0862C20.2276 31.8218 20.3881 31.6019 20.6143 31.4699C21.7795 30.7891 22.8127 30.0303 23.6569 29.1772L23.6573 29.1768C23.737 29.0964 23.8184 29.0167 23.9014 28.9379C23.1186 28.7664 22.4264 28.9899 21.7831 29.1371C20.8689 29.3461 20.0194 29.436 19.1732 28.9723L18.4546 28.6407ZM32.9322 29.1452L32.4279 29.4149L32.42 29.4191C31.5021 29.8968 30.5894 29.6385 29.5687 29.2215C28.5828 28.8187 27.4261 28.2895 25.8195 29.3893L25.8193 29.3894C25.4434 29.6467 25.0908 29.9587 24.7719 30.2805C24.0054 31.055 23.1008 31.7625 22.0888 32.4076C23.1961 33.2791 24.4071 32.6387 25.5467 32.1791C26.8695 31.6456 28.1471 31.2905 29.2513 31.9199L29.2514 31.92L33.6376 34.4215C33.7796 34.5017 33.9117 34.5982 34.0313 34.7091L34.9435 34.3286L32.9322 29.1452ZM26.9442 42.3229L27.1427 42.437C27.3697 42.5677 27.6609 42.4678 27.7869 42.2383C27.9157 42.0035 27.8272 41.7071 27.5944 41.5747L27.5922 41.5735C27.5602 41.5555 27.5295 41.5353 27.5003 41.5131L27.3799 41.4449C27.3427 41.5572 27.2958 41.666 27.2396 41.7701L26.9442 42.3229ZM19.33 37.0764C19.3756 36.9571 19.3763 36.8253 19.332 36.7055C19.2877 36.5857 19.2013 36.4861 19.0891 36.4252C18.8345 36.2911 18.5164 36.3862 18.3812 36.6392L17.5762 38.1457L17.5754 38.1471C17.4393 38.4008 17.5347 38.7185 17.7885 38.8534L17.7898 38.8542C17.8707 38.8972 17.9613 38.9183 18.0529 38.9153C18.1444 38.9123 18.2335 38.8854 18.3113 38.8372L19.33 37.0764ZM19.6003 39.7416L19.3658 40.1831C19.365 40.1847 19.3641 40.1862 19.3634 40.1878C19.2273 40.4398 19.3238 40.7579 19.5771 40.8927L19.5784 40.8933C19.834 41.0299 20.1496 40.9292 20.2883 40.6766L21.4369 38.4512C21.4485 38.347 21.4288 38.2416 21.3802 38.1487C21.3317 38.0558 21.2565 37.9795 21.1643 37.9295C21.0825 37.8861 20.9908 37.865 20.8983 37.8684C20.8058 37.8718 20.7159 37.8995 20.6376 37.9488L19.6003 39.7416ZM21.7515 41.2618C21.7556 41.3529 21.7832 41.4415 21.8316 41.5188C21.88 41.5962 21.9476 41.6597 22.0279 41.7031C22.2476 41.8176 22.5148 41.7602 22.6702 41.5783L23.6735 39.65C23.6972 39.442 23.5971 39.2294 23.4028 39.1255C23.2115 39.0232 22.9829 39.0532 22.8243 39.183L21.7515 41.2618ZM24.0991 42.2308C24.1003 42.417 24.1985 42.5975 24.3735 42.691C24.6282 42.8262 24.9472 42.7311 25.0827 42.4777L25.8563 41.0305L25.8576 41.0281C25.9528 40.8516 25.931 40.6341 25.8118 40.4697C25.765 40.4076 25.7055 40.3583 25.6361 40.3188C25.5443 40.2722 25.4409 40.2534 25.3385 40.2649C25.2362 40.2763 25.1395 40.3175 25.0602 40.3832L24.0991 42.2308ZM35.3714 26.0612L35.3708 26.0598C35.365 26.0471 35.3515 26.0387 35.3385 26.0437L33.6893 26.6852L33.6857 26.6866C33.673 26.6915 33.6688 26.7067 33.6736 26.7195L36.9992 35.2903L37.0002 35.2931C37.0051 35.3059 37.0202 35.3101 37.0331 35.3054L38.6806 34.6645L38.6823 34.6638C38.695 34.6589 38.6981 34.6431 38.6932 34.6302L35.3714 26.0612ZM34.8338 27.9151C34.4331 27.9151 34.1067 27.5887 34.1067 27.1921C34.1067 26.7914 34.4331 26.465 34.8338 26.465C35.2345 26.465 35.5567 26.7914 35.5567 27.1921C35.5567 27.5887 35.2345 27.9151 34.8338 27.9151ZM16.1411 25.4968L12.4241 33.905C12.4195 33.9176 12.4228 33.9326 12.435 33.9378L12.4365 33.9385L14.056 34.6528L14.0591 34.6541C14.0693 34.6586 14.0818 34.6553 14.0862 34.6451C14.0865 34.6444 14.0868 34.6437 14.0872 34.643L17.8053 26.2293C17.8057 26.2285 17.8061 26.2276 17.8065 26.2268C17.8087 26.2216 17.8088 26.2157 17.8068 26.2105C17.8047 26.2052 17.8006 26.201 17.7954 26.1987L17.7947 26.1984C17.7947 26.1984 16.1777 25.4822 16.1758 25.4815C16.1692 25.4793 16.1619 25.4796 16.1555 25.4824C16.1491 25.4853 16.144 25.4904 16.1411 25.4968ZM16.6611 25.9271C17.0614 25.9435 17.3668 26.282 17.3502 26.6823C17.3296 27.0826 16.9912 27.3921 16.5909 27.3755C16.1948 27.3549 15.8853 27.0165 15.9018 26.6162C15.9225 26.216 16.2608 25.9065 16.6611 25.9271ZM10.5876 42.7124C12.7515 43.6316 14.3252 45.6688 14.5849 48.0988C14.5966 48.2082 14.5851 48.3189 14.5512 48.4235C14.5174 48.5282 14.4618 48.6246 14.3883 48.7064C14.3147 48.7882 14.2248 48.8537 14.1243 48.8985C14.0238 48.9433 13.9151 48.9664 13.805 48.9665H2.19592C2.08586 48.9665 1.97702 48.9433 1.8765 48.8985C1.77597 48.8537 1.68601 48.7882 1.61246 48.7063C1.5389 48.6245 1.48341 48.528 1.44958 48.4233C1.41575 48.3186 1.40435 48.2079 1.41611 48.0984C1.67709 45.6684 3.25131 43.6313 5.41464 42.7123C4.707 42.0316 4.26562 41.0758 4.26562 40.0203C4.26562 37.9628 5.94298 36.2839 8.00053 36.2839C10.0598 36.2839 11.7369 37.9629 11.7369 40.0203C11.7369 41.0758 11.2955 42.0317 10.5876 42.7124ZM8.00053 43.7568C5.70023 43.7568 3.75866 45.2942 3.147 47.3979L12.8544 47.3979C12.2439 45.2941 10.302 43.7568 8.00053 43.7568ZM8.00053 42.1881C9.19533 42.1881 10.1683 41.2139 10.1683 40.0203C10.1683 38.8267 9.19533 37.8526 8.00053 37.8526C6.807 37.8526 5.83425 38.8268 5.83425 40.0203C5.83425 41.2138 6.807 42.1881 8.00053 42.1881ZM44.5867 43.0596C46.7506 43.9787 48.3244 46.016 48.584 48.4461C48.5957 48.5555 48.5843 48.6661 48.5504 48.7708C48.5166 48.8755 48.4611 48.972 48.3875 49.0538C48.314 49.1356 48.224 49.2011 48.1235 49.2459C48.023 49.2906 47.9142 49.3138 47.8042 49.3137H36.195C36.085 49.3137 35.9762 49.2905 35.8756 49.2457C35.7751 49.2009 35.6852 49.1354 35.6116 49.0535C35.5381 48.9717 35.4826 48.8752 35.4487 48.7705C35.4149 48.6658 35.4034 48.5551 35.4151 48.4457C35.6761 46.0156 37.2503 43.9784 39.4138 43.0595C38.7061 42.3788 38.2647 41.4229 38.2647 40.3676C38.2647 38.31 39.9421 36.6311 41.9995 36.6311C44.059 36.6311 45.736 38.3101 45.736 40.3676C45.736 41.423 45.2946 42.3789 44.5867 43.0596ZM41.9995 44.1039C39.6993 44.1039 37.7577 45.6414 37.1461 47.7451H46.8536C46.243 45.6414 44.3011 44.1039 41.9995 44.1039ZM41.9995 42.5353C43.1944 42.5353 44.1674 41.5612 44.1674 40.3676C44.1674 39.1738 43.1944 38.1997 41.9995 38.1997C40.806 38.1997 39.8334 39.174 39.8334 40.3676C39.8334 41.5611 40.806 42.5353 41.9995 42.5353ZM27.8613 7.11481C30.0252 8.03393 31.599 10.0712 31.8586 12.5013C31.8703 12.6107 31.8589 12.7213 31.825 12.826C31.7912 12.9307 31.7357 13.0271 31.6621 13.109C31.5886 13.1908 31.4986 13.2563 31.3981 13.3011C31.2976 13.3458 31.1888 13.369 31.0788 13.3689H19.4696C19.3596 13.3689 19.2508 13.3457 19.1503 13.3009C19.0497 13.2561 18.9598 13.1906 18.8862 13.1087C18.8127 13.0269 18.7572 12.9304 18.7233 12.8257C18.6895 12.721 18.678 12.6103 18.6897 12.5009C18.9507 10.0708 20.5249 8.03363 22.6884 7.11461C21.9807 6.43402 21.5393 5.47814 21.5393 4.42265C21.5393 2.3652 23.2167 0.686279 25.2742 0.686279C27.3336 0.686279 29.0106 2.3653 29.0106 4.42265C29.0106 5.47814 28.5693 6.43412 27.8613 7.11481ZM25.2742 8.15912C22.9739 8.15912 21.0323 9.69657 20.4207 11.8003H30.1282C29.5176 9.69657 27.5757 8.15912 25.2742 8.15912ZM25.2742 6.5905C26.469 6.5905 27.442 5.61638 27.442 4.42265C27.442 3.22902 26.469 2.25491 25.2742 2.25491C24.0806 2.25491 23.108 3.22912 23.108 4.42265C23.108 5.61628 24.0806 6.5905 25.2742 6.5905ZM24.7532 26.2292C23.4519 25.4639 21.4984 24.1011 20.1293 22.5065C19.1267 21.3386 18.4462 20.0393 18.4228 18.7577V18.7575C18.3877 16.8148 19.4866 15.4187 20.9803 14.9099C22.2443 14.4793 23.8346 14.683 25.2732 15.841C26.7115 14.6845 28.302 14.4806 29.5665 14.9107C31.0611 15.4192 32.1607 16.8147 32.1256 18.7575V18.7577C32.1022 20.0393 31.4216 21.3386 30.419 22.5065C29.0499 24.1011 27.0965 25.4639 25.7954 26.229C25.466 26.4251 25.0826 26.4252 24.7532 26.2292ZM25.2742 24.7127C26.4512 23.9932 28.0713 22.8329 29.2288 21.4847C29.9735 20.6174 30.5397 19.681 30.5572 18.7291C30.5783 17.5636 29.9579 16.7008 29.0613 16.3958C28.1009 16.0691 26.8877 16.3752 25.832 17.4483C25.759 17.5226 25.6719 17.5815 25.5759 17.6217C25.4799 17.662 25.3768 17.6827 25.2727 17.6827C25.1686 17.6826 25.0655 17.6619 24.9695 17.6216C24.8735 17.5813 24.7865 17.5223 24.7136 17.448C23.6581 16.3742 22.4457 16.0678 21.4861 16.3947C20.5898 16.7 19.9701 17.5634 19.9911 18.7291C20.0086 19.681 20.5749 20.6174 21.3195 21.4847C22.477 22.8329 24.0971 23.9932 25.2742 24.7127ZM6.46209 34.1026C6.53035 34.299 6.51782 34.5146 6.42724 34.7018C6.33667 34.889 6.17546 35.0326 5.97905 35.1011C5.57023 35.2432 5.12278 35.0269 4.98062 34.6179C4.21621 32.4209 3.80062 30.061 3.80062 27.6049C3.80062 18.7729 9.17209 11.1855 16.8238 7.93461C17.2222 7.7654 17.6831 7.95138 17.8523 8.34981C17.9335 8.54127 17.9354 8.75715 17.8576 8.95002C17.7797 9.14288 17.6285 9.29694 17.4371 9.37834C10.347 12.3907 5.36925 19.4211 5.36925 27.6049C5.36925 29.8805 5.75396 32.067 6.46209 34.1026ZM32.8209 45.8595C33.0127 45.779 33.2286 45.7779 33.4211 45.8565C33.6137 45.935 33.7672 46.0868 33.8479 46.2785C33.9284 46.4703 33.9296 46.6862 33.851 46.8787C33.7725 47.0713 33.6207 47.2248 33.429 47.3055C30.8856 48.3751 28.0925 48.9665 25.1623 48.9665C22.2435 48.9665 19.4606 48.3796 16.9253 47.3179C16.7335 47.2375 16.5815 47.0843 16.5026 46.8918C16.4237 46.6994 16.4245 46.4835 16.5047 46.2916C16.5852 46.0998 16.7385 45.9478 16.931 45.8689C17.1234 45.7901 17.3393 45.7908 17.5312 45.8711C19.88 46.8546 22.4582 47.3979 25.1623 47.3979C27.8769 47.3979 30.4646 46.8504 32.8209 45.8595ZM32.5924 9.25589C32.1913 9.09304 31.9978 8.6353 32.1605 8.23422C32.2388 8.04153 32.3904 7.88781 32.582 7.80684C32.7736 7.72586 32.9895 7.72425 33.1823 7.80236C41.003 10.9761 46.5239 18.6509 46.5239 27.6049C46.5239 30.1404 46.081 32.5733 45.2688 34.8306C45.1982 35.0263 45.0529 35.1859 44.8648 35.2745C44.6766 35.3631 44.461 35.3734 44.2652 35.303C44.0696 35.2325 43.9099 35.0872 43.8213 34.8991C43.7327 34.7109 43.7225 34.4952 43.7928 34.2995C44.5453 32.2081 44.9552 29.954 44.9552 27.6049C44.9552 19.3079 39.8392 12.1967 32.5924 9.25589Z" fill="black"/>
</svg>
