<svg width="50" height="50" viewBox="0 0 50 50" fill="none" xmlns="http://www.w3.org/2000/svg">
<g clip-path="url(#clip0_120_723)">
<mask id="mask0_120_723" style="mask-type:luminance" maskUnits="userSpaceOnUse" x="0" y="0" width="50" height="50">
<path d="M0 0.000152588H49.9998V50H0V0.000152588Z" fill="white"/>
</mask>
<g mask="url(#mask0_120_723)">
<path d="M7.7648 9.40771C7.61951 9.53366 7.48955 9.67627 7.3776 9.83261C7.22565 10.0447 6.90397 10.0447 6.75202 9.83261C6.64006 9.67627 6.5101 9.53366 6.36481 9.40771C5.45602 8.61816 4.07517 8.62441 3.17312 9.42157C2.11453 10.357 2.07713 11.9752 3.06091 12.959L6.49284 16.3909C6.56795 16.466 6.65712 16.5256 6.75526 16.5662C6.8534 16.6069 6.95858 16.6278 7.06481 16.6278C7.17103 16.6278 7.27622 16.6069 7.37436 16.5662C7.47249 16.5256 7.56167 16.466 7.63678 16.3909L11.0688 12.959C12.0525 11.9752 12.0151 10.357 10.9566 9.42157C10.0544 8.62441 8.67359 8.61816 7.7648 9.40771Z" fill="#D83131"/>
<path d="M43.3571 33.9583C43.2118 34.0843 43.0818 34.2269 42.9698 34.3832C42.818 34.5953 42.4963 34.5953 42.3443 34.3832C42.2324 34.2269 42.1024 34.0843 41.9571 33.9583C41.0483 33.1688 39.6675 33.175 38.7653 33.9722C37.7068 34.9076 37.6694 36.5258 38.6531 37.5095L42.0851 40.9415C42.1602 41.0166 42.2494 41.0762 42.3475 41.1169C42.4457 41.1575 42.5508 41.1785 42.6571 41.1785C42.7633 41.1785 42.8685 41.1575 42.9666 41.1169C43.0647 41.0762 43.1539 41.0166 43.229 40.9415L46.661 37.5095C47.6447 36.5258 47.6073 34.9076 46.5488 33.9722C45.6468 33.175 44.2659 33.1688 43.3571 33.9583Z" fill="#D83131"/>
<path d="M10.9564 9.42157C10.1974 8.75068 9.09999 8.64238 8.22949 9.09462C8.4024 9.18356 8.56376 9.29336 8.70995 9.42157C9.76845 10.357 9.80595 11.9752 8.82216 12.959L5.94141 15.8397L6.49277 16.3909C6.56786 16.466 6.65703 16.5256 6.75517 16.5663C6.85331 16.607 6.95851 16.6279 7.06474 16.6279C7.17098 16.6279 7.27617 16.607 7.37431 16.5663C7.47246 16.5256 7.56162 16.466 7.63671 16.3909L11.0686 12.959C12.0524 11.9752 12.0149 10.357 10.9564 9.42157Z" fill="#C41926"/>
<path d="M46.5486 33.9722C45.7895 33.3013 44.6923 33.193 43.8217 33.6453C43.9947 33.7341 44.1561 33.844 44.3022 33.9722C45.3607 34.9077 45.3982 36.5258 44.4144 37.5096L41.5337 40.3904L42.085 40.9415C42.2367 41.0932 42.4424 41.1785 42.657 41.1785C42.8715 41.1785 43.0773 41.0932 43.229 40.9415L46.6608 37.5096C47.6447 36.5258 47.6072 34.9077 46.5486 33.9722Z" fill="#C41926"/>
<path d="M26.6043 10.4374C24.8162 10.4374 23.3667 8.98865 23.3667 7.20165V6.37958H33.6291V10.4374H26.6043Z" fill="#EBAE9D"/>
<path d="M18.5115 4.0569C18.5599 5.8193 20.0511 7.20162 21.8153 7.20162H30.276C29.991 7.69314 29.8412 8.25133 29.8418 8.81949C29.8418 9.72935 30.2181 10.5509 30.8231 11.1388L37.2253 17.5368C37.8142 18.1466 38.6398 18.5265 39.5546 18.5265H48.458C48.905 18.5265 49.2674 18.1643 49.2674 17.7176V8.0105C49.2674 7.56383 48.905 7.20162 48.458 7.20162H47.3709C46.5123 7.20172 45.6889 6.86085 45.0816 6.25397L40.977 2.15183C40.066 1.24155 38.8308 0.730265 37.543 0.730352H21.7478C19.9296 0.730352 18.4613 2.2283 18.5115 4.0569Z" fill="#FFCDBE"/>
<path d="M23.386 39.5583C25.1741 39.5583 26.6236 41.007 26.6236 42.794V43.6161H16.3613V39.5583H23.386Z" fill="#EBAE9D"/>
<path d="M31.479 45.9387C31.4306 44.1763 29.9394 42.794 28.1752 42.794H19.7144C19.9995 42.3025 20.1493 41.7443 20.1487 41.1761C20.1487 40.2663 19.7724 39.4447 19.1675 38.8568L12.7652 32.4588C12.1763 31.849 11.3507 31.4691 10.4359 31.4691H1.53252C1.08555 31.4691 0.723145 31.8313 0.723145 32.278V41.9851C0.723145 42.4318 1.08555 42.794 1.53252 42.794H2.61962C3.47822 42.794 4.30175 43.1348 4.90897 43.7416L9.01345 47.8438C9.92445 48.754 11.1596 49.2653 12.4474 49.2653H28.2426C30.0609 49.2653 31.5292 47.7673 31.479 45.9387Z" fill="#FFCDBE"/>
<path d="M48.458 7.20162H47.3709C46.5123 7.20164 45.6889 6.86079 45.0815 6.25397L40.977 2.15183C40.066 1.24155 38.8308 0.73023 37.543 0.730253H35.2969C36.5847 0.73023 37.8199 1.24155 38.7309 2.15183L42.8354 6.25397C43.4428 6.86079 44.2662 7.20164 45.1248 7.20162H46.2119C46.6589 7.20162 47.0213 7.56383 47.0213 8.0105V17.7176C47.0213 18.1643 46.6589 18.5265 46.2119 18.5265H48.458C48.9049 18.5265 49.2673 18.1643 49.2673 17.7176V8.0105C49.2673 7.56383 48.9049 7.20162 48.458 7.20162Z" fill="#EBAE9D"/>
<path d="M31.4791 45.9387C31.4306 44.1763 29.9394 42.794 28.1753 42.794H25.9292C27.6934 42.794 29.1846 44.1763 29.233 45.9387C29.2832 47.7673 27.8149 49.2653 25.9966 49.2653H28.2427C30.061 49.2653 31.5293 47.7673 31.4791 45.9387Z" fill="#EBAE9D"/>
</g>
</g>
<defs>
<clipPath id="clip0_120_723">
<rect width="50" height="50" fill="white"/>
</clipPath>
</defs>
</svg>
