<svg width="41" height="40" viewBox="0 0 41 40" fill="none" xmlns="http://www.w3.org/2000/svg">
<g clip-path="url(#clip0_69_1632)">
<path d="M36.9017 38.9909L34.1078 32.1459C34.0299 31.9549 33.9847 31.7521 33.9739 31.5461C33.915 30.4416 33.6295 26.5847 32.4326 23.9972C32.3155 23.7455 32.2573 23.4705 32.2625 23.193C32.2912 21.7083 32.1379 16.7991 28.9212 15.8609C26.2915 15.0939 24.3453 14.7053 23.3959 13.6467C22.9933 13.1978 23.0086 12.4994 23.4284 12.0664C23.8825 11.5995 24.2183 11.0309 24.4078 10.4078C24.5423 9.96312 24.877 9.60828 25.3769 9.44515C26.0567 9.22312 26.5503 8.58187 26.5503 7.82562C26.5503 7.42062 26.4084 7.04922 26.1723 6.75687C26.0797 6.64386 26.0287 6.5025 26.0278 6.3564V3.59922C26.0278 2.42359 25.1848 1.38547 24.0206 1.22265C23.6815 1.1744 23.336 1.20253 23.0092 1.305C22.7111 1.39859 22.3894 1.32468 22.1719 1.10047C21.7479 0.663746 21.1567 0.390778 20.5036 0.390778H19.3058C16.9876 0.390778 15.0909 2.2875 15.0909 4.60578V6.22312C15.0909 6.38859 15.0208 6.54297 14.9078 6.66406C14.613 6.97891 14.4492 7.39418 14.4497 7.82547C14.4497 8.5814 14.9437 9.22453 15.6258 9.44593C16.1215 9.60687 16.4581 9.965 16.5922 10.4077C16.7817 11.0307 17.1175 11.5994 17.5715 12.0662C17.9914 12.4992 18.0069 13.1977 17.6042 13.6466C16.6547 14.7052 14.7084 15.0939 12.0789 15.8608C8.86232 16.7989 8.70888 21.7081 8.73763 23.1928C8.74265 23.4703 8.68446 23.7453 8.56748 23.997C7.37076 26.5845 7.08513 30.4416 7.02623 31.5459C7.01543 31.752 6.97016 31.9547 6.89232 32.1458L4.09842 38.9908C3.97795 39.2861 4.19513 39.6092 4.51404 39.6092H7.83404C8.00888 39.6092 8.16779 39.5077 8.24123 39.3491L11.0364 33.3175C11.0979 33.1847 11.1464 33.0464 11.1812 32.9042L12.909 25.8602C12.9662 25.6272 13.3054 25.6511 13.3292 25.8898C13.8572 31.1841 12.9459 37.2914 12.645 39.0875C12.6342 39.1518 12.6376 39.2176 12.6549 39.2804C12.6723 39.3432 12.7031 39.4015 12.7452 39.4512C12.7874 39.5009 12.8399 39.5407 12.8991 39.568C12.9582 39.5953 13.0226 39.6094 13.0878 39.6092H27.9122C27.9773 39.6094 28.0417 39.5953 28.1009 39.568C28.1601 39.5407 28.2126 39.5009 28.2547 39.4512C28.2969 39.4015 28.3277 39.3432 28.345 39.2804C28.3623 39.2176 28.3657 39.1518 28.355 39.0875C28.0542 37.2914 27.1428 31.1841 27.6709 25.8898C27.6947 25.6511 28.0339 25.6272 28.0911 25.8602L29.8189 32.9042C29.8537 33.0462 29.9023 33.1847 29.9637 33.3175L32.7589 39.3491C32.7949 39.4267 32.8523 39.4925 32.9245 39.5386C32.9966 39.5847 33.0805 39.6092 33.1661 39.6092H36.4861C36.8051 39.6094 37.0223 39.2861 36.9017 38.9909Z" fill="#F9D0B4"/>
<path d="M36.9018 38.9909L34.1079 32.1459C34.03 31.9549 33.9848 31.7521 33.974 31.5461C33.915 30.4416 33.6296 26.5847 32.4327 23.9972C32.3156 23.7455 32.2574 23.4705 32.2625 23.193C32.2846 22.053 32.1977 18.8958 30.7008 17.0656C29.3804 17.2655 29.2221 18.2814 27.6172 18.2814C25.8375 18.2814 25.8375 17.0314 24.0577 17.0314C22.2779 17.0314 22.2779 18.2814 20.4982 18.2814C18.7185 18.2814 18.7185 17.0314 16.9386 17.0314C15.1591 17.0314 15.1591 18.2814 13.3796 18.2814C11.776 18.2814 11.6169 17.2666 10.2988 17.0659C8.80223 18.8961 8.71536 22.053 8.73739 23.1928C8.7424 23.4703 8.68422 23.7453 8.56723 23.997C7.37052 26.5845 7.08489 30.4416 7.02598 31.5459C7.01518 31.752 6.96992 31.9547 6.89208 32.1458L4.09817 38.9908C3.9777 39.2861 4.19489 39.6092 4.5138 39.6092H7.8338C8.00864 39.6092 8.16755 39.5077 8.24098 39.3491L11.0361 33.3175C11.0977 33.1847 11.1461 33.0464 11.181 32.9042L12.9088 25.8602C12.966 25.6272 13.3052 25.6511 13.329 25.8898C13.8569 31.1841 12.9457 37.2914 12.6447 39.0875C12.634 39.1518 12.6374 39.2176 12.6547 39.2804C12.672 39.3432 12.7028 39.4015 12.745 39.4512C12.7872 39.5009 12.8397 39.5407 12.8988 39.568C12.958 39.5953 13.0224 39.6094 13.0875 39.6092H27.9119C27.9771 39.6094 28.0415 39.5953 28.1007 39.568C28.1598 39.5407 28.2123 39.5009 28.2545 39.4512C28.2966 39.4015 28.3275 39.3432 28.3448 39.2804C28.3621 39.2176 28.3655 39.1518 28.3547 39.0875C28.054 37.2914 27.1425 31.1841 27.6707 25.8898C27.6944 25.6511 28.0336 25.6272 28.0908 25.8602L29.8186 32.9042C29.8535 33.0463 29.9021 33.1847 29.9635 33.3175L32.7586 39.3491C32.7946 39.4267 32.8521 39.4925 32.9242 39.5386C32.9964 39.5847 33.0802 39.6092 33.1658 39.6092H36.4858C36.8052 39.6094 37.0224 39.2861 36.9018 38.9909ZM12.7188 3.26562H12.3594V2.90625C12.3594 2.64063 12.1407 2.40625 11.8594 2.40625C11.5782 2.40625 11.3594 2.625 11.3594 2.90625V3.26562H11C10.7344 3.26562 10.5 3.48438 10.5 3.76563C10.5 4.04688 10.7188 4.26562 11 4.26562H11.3594V4.625C11.3594 4.89063 11.5782 5.125 11.8594 5.125C12.1407 5.125 12.3594 4.90625 12.3594 4.625V4.26562H12.7188C12.9844 4.26562 13.2188 4.04688 13.2188 3.76563C13.2188 3.48438 13 3.26562 12.7188 3.26562Z" fill="#70D6F9"/>
<path d="M37.0312 22.7891C36.3281 22.6641 35.7812 22.1172 35.6406 21.4297C35.6406 21.3984 35.5781 21.3984 35.5781 21.4297C35.4375 22.1172 34.8906 22.6641 34.1875 22.7891C34.1563 22.7891 34.1563 22.8359 34.1875 22.8516C34.8906 22.9766 35.4375 23.5234 35.5781 24.2109C35.5781 24.2422 35.6406 24.2422 35.6406 24.2109C35.7812 23.5234 36.3281 22.9766 37.0312 22.8516C37.0625 22.8359 37.0625 22.7891 37.0312 22.7891Z" fill="#F5C84C"/>
<path d="M8.28949 17.1752C7.83527 17.0944 7.48199 16.7412 7.39121 16.297C7.39121 16.2769 7.3509 16.2769 7.3509 16.297C7.26012 16.7411 6.90684 17.0944 6.45262 17.1752C6.43246 17.1752 6.43246 17.2055 6.45262 17.2155C6.90684 17.2962 7.26012 17.6495 7.3509 18.0936C7.3509 18.1137 7.39121 18.1137 7.39121 18.0936C7.48199 17.6495 7.83527 17.2962 8.28949 17.2155C8.30965 17.2055 8.30965 17.1752 8.28949 17.1752Z" fill="#FC657E"/>
<path d="M35.625 26.3281C35.4841 26.3281 35.349 26.3841 35.2494 26.4837C35.1497 26.5834 35.0938 26.7185 35.0938 26.8594C35.0938 27.0003 35.1497 27.1354 35.2494 27.235C35.349 27.3347 35.4841 27.3906 35.625 27.3906C35.7659 27.3906 35.901 27.3347 36.0007 27.235C36.1003 27.1354 36.1563 27.0003 36.1563 26.8594C36.1563 26.7185 36.1003 26.5834 36.0007 26.4837C35.901 26.3841 35.7659 26.3281 35.625 26.3281Z" fill="#87D147"/>
<path d="M14.2188 0C14.0779 0 13.9427 0.0559708 13.8431 0.1556C13.7435 0.255228 13.6875 0.390354 13.6875 0.53125C13.6875 0.672146 13.7435 0.807272 13.8431 0.9069C13.9427 1.00653 14.0779 1.0625 14.2188 1.0625C14.3596 1.0625 14.4948 1.00653 14.5944 0.9069C14.694 0.807272 14.75 0.672146 14.75 0.53125C14.75 0.390354 14.694 0.255228 14.5944 0.1556C14.4948 0.0559708 14.3596 0 14.2188 0Z" fill="#F5C84C"/>
<path d="M37.2636 38.8433L34.4697 31.9983C34.4083 31.8476 34.3726 31.6877 34.3642 31.5252C34.3036 30.3894 34.0109 26.4781 32.7875 23.8331C32.695 23.6352 32.6491 23.4187 32.6533 23.2003C32.6692 22.3803 32.6294 20.772 32.1848 19.2145C31.6044 17.1812 30.5433 15.9267 29.0309 15.4858C28.5967 15.3591 28.1811 15.2428 27.7855 15.132C25.8225 14.5825 24.4042 14.1853 23.687 13.3856C23.4237 13.0922 23.4337 12.6222 23.7092 12.338C24.206 11.8259 24.5737 11.203 24.782 10.5206C24.8839 10.1839 25.1383 9.93375 25.4983 9.81609C25.9184 9.6795 26.2844 9.41321 26.5436 9.0555C26.8029 8.69779 26.942 8.26709 26.9411 7.82531C26.9411 7.34875 26.7761 6.88203 26.4764 6.51125C26.4398 6.46776 26.4194 6.41294 26.4186 6.35609V3.59922C26.4186 2.21062 25.4109 1.02266 24.0748 0.835625C23.6784 0.779197 23.2744 0.81219 22.8923 0.932187C22.7319 0.982656 22.5633 0.942656 22.4522 0.828125C21.9339 0.294219 21.2417 0 20.5036 0H19.3058C16.7662 0 14.7002 2.06609 14.7002 4.60547V6.22297C14.7002 6.30188 14.6512 6.36609 14.622 6.39734C14.2597 6.78449 14.0583 7.29506 14.0589 7.82531C14.0578 8.26773 14.1973 8.69905 14.4572 9.05707C14.7171 9.41509 15.084 9.68132 15.505 9.81734C15.8627 9.93344 16.1159 10.1831 16.218 10.5205C16.4262 11.2029 16.794 11.8259 17.2908 12.338C17.5662 12.622 17.5762 13.092 17.3131 13.3856C16.5958 14.1853 15.1775 14.5825 13.2145 15.132C12.7987 15.2477 12.3836 15.3656 11.9691 15.4858C10.4567 15.9269 9.39562 17.1814 8.81515 19.2145C8.37062 20.772 8.33078 22.3803 8.34671 23.2002C8.35088 23.4186 8.30496 23.635 8.21249 23.833C6.98906 26.4781 6.6964 30.3894 6.63578 31.5252C6.6273 31.6876 6.59165 31.8475 6.53031 31.9981L3.7364 38.8431C3.63062 39.1025 3.66078 39.3961 3.81703 39.6286C3.97328 39.8611 4.23374 39.9998 4.51374 39.9998H7.8339C7.99398 39.9995 8.15064 39.9536 8.28555 39.8674C8.42045 39.7812 8.52801 39.6584 8.59562 39.5133L11.3906 33.4819C11.4625 33.3267 11.5197 33.1637 11.5605 32.9975L13.0281 27.0138C13.3425 31.9923 12.5319 37.398 12.2597 39.023C12.2396 39.1432 12.246 39.2664 12.2784 39.3839C12.3108 39.5014 12.3684 39.6105 12.4472 39.7035C12.5261 39.7965 12.6242 39.8712 12.7348 39.9224C12.8455 39.9736 12.9659 40.0001 13.0878 40H27.9122C28.0341 40.0002 28.1546 39.9738 28.2653 39.9226C28.376 39.8714 28.4742 39.7967 28.553 39.7037C28.6318 39.6107 28.6894 39.5016 28.7218 39.384C28.7541 39.2664 28.7605 39.1432 28.7403 39.023C28.4681 37.398 27.6573 31.9923 27.9719 27.0138L29.4397 32.9975C29.4806 33.1641 29.5374 33.3263 29.6095 33.4819L32.4047 39.5134C32.4723 39.6586 32.5798 39.7814 32.7147 39.8676C32.8496 39.9538 33.0063 39.9997 33.1664 40H36.4866C36.6243 40.0001 36.7599 39.9662 36.8814 39.9015C37.003 39.8368 37.1067 39.7431 37.1835 39.6288C37.2603 39.5145 37.3077 39.3831 37.3217 39.2461C37.3357 39.1091 37.3157 38.9707 37.2636 38.8433ZM36.5345 39.193C36.5294 39.2011 36.5223 39.2077 36.5138 39.2123C36.5053 39.2168 36.4958 39.219 36.4862 39.2188H33.1661C33.155 39.2187 33.1441 39.2155 33.1348 39.2096C33.1254 39.2036 33.118 39.1951 33.1133 39.185L30.3183 33.1534C30.2674 33.0435 30.2272 32.929 30.1983 32.8114L28.4705 25.7672C28.4027 25.4908 28.1661 25.3069 27.8864 25.3069C27.8714 25.3069 27.8562 25.3073 27.8409 25.3086C27.5417 25.3297 27.3119 25.5528 27.2822 25.8512C26.7487 31.1994 27.6736 37.3841 27.9697 39.1522C27.971 39.1605 27.9704 39.1689 27.9681 39.177C27.9658 39.1851 27.9618 39.1925 27.9563 39.1988C27.9508 39.2052 27.944 39.2102 27.9364 39.2137C27.9287 39.2171 27.9204 39.2188 27.912 39.2188H13.0878C13.0794 39.2188 13.0711 39.2171 13.0635 39.2137C13.0558 39.2102 13.049 39.2052 13.0435 39.1988C13.038 39.1925 13.034 39.1851 13.0317 39.177C13.0294 39.1689 13.0289 39.1605 13.0302 39.1522C13.3262 37.3841 14.2511 31.1994 13.7177 25.8512C13.688 25.553 13.4581 25.3298 13.1589 25.3086C12.8587 25.285 12.6008 25.4761 12.5294 25.7672L10.8016 32.8114C10.7726 32.929 10.7324 33.0435 10.6816 33.1534L7.8864 39.185C7.8817 39.195 7.87424 39.2036 7.86489 39.2095C7.85554 39.2155 7.84468 39.2187 7.83359 39.2188H4.51374C4.50414 39.2191 4.49463 39.2168 4.48616 39.2123C4.47768 39.2078 4.47055 39.2011 4.46546 39.193C4.45985 39.1852 4.45638 39.176 4.4554 39.1665C4.45441 39.1569 4.45594 39.1472 4.45984 39.1384L7.25374 32.2934C7.3482 32.062 7.40313 31.8163 7.41624 31.5667C7.47484 30.4661 7.75687 26.6795 8.92187 24.1609C9.06425 23.8557 9.13481 23.5219 9.12812 23.1852C9.10078 21.7722 9.24046 17.0953 12.1881 16.2356C12.6194 16.1098 13.0323 15.9942 13.4253 15.8842C15.5155 15.2991 17.0256 14.8762 17.8948 13.9072C18.4353 13.3045 18.4164 12.3763 17.8519 11.7941C17.4417 11.3715 17.138 10.8574 16.9659 10.2942C16.7902 9.71344 16.3456 9.26875 15.7464 9.07422C15.4826 8.98886 15.2526 8.82191 15.0898 8.59745C14.9269 8.37299 14.8396 8.10262 14.8403 7.82531C14.8403 7.49234 14.9658 7.17438 15.1934 6.93031C15.3792 6.73125 15.4816 6.48 15.4816 6.22297V4.60578C15.4816 2.49703 17.197 0.781562 19.3059 0.781562H20.5037C21.0289 0.781562 21.5219 0.991406 21.8917 1.3725C22.2095 1.70016 22.6828 1.81703 23.1264 1.67781C23.398 1.59266 23.6851 1.56933 23.9669 1.60953C24.9194 1.74281 25.6375 2.59812 25.6375 3.59922V6.35625C25.6375 6.58813 25.7195 6.8175 25.8686 7.00219C26.0579 7.23469 26.1608 7.52562 26.1598 7.82547C26.1605 8.10238 26.0733 8.37237 25.9109 8.59663C25.7484 8.82089 25.5191 8.98788 25.2558 9.07359C24.6547 9.26984 24.2094 9.71484 24.0341 10.2945C23.862 10.8577 23.5583 11.3718 23.1481 11.7944C22.5836 12.3766 22.5647 13.3048 23.1053 13.9075C23.9745 14.8766 25.4847 15.2994 27.5748 15.8845C27.968 15.9945 28.3808 16.1102 28.8122 16.2359C31.7597 17.0956 31.8995 21.7725 31.872 23.1855C31.8654 23.5222 31.9359 23.856 32.0783 24.1613C33.2433 26.68 33.5252 30.4666 33.5839 31.567C33.597 31.8167 33.652 32.0623 33.7464 32.2937L36.5401 39.1386C36.5441 39.1474 36.5456 39.157 36.5446 39.1665C36.5436 39.1761 36.5401 39.1852 36.5345 39.193Z" fill="black"/>
<path d="M30.9838 17.0094C30.9642 16.9077 30.9052 16.8179 30.8195 16.7597C30.7339 16.7015 30.6286 16.6796 30.5269 16.6989C29.915 16.8158 29.5208 17.0925 29.1728 17.3367C28.7494 17.6339 28.3836 17.8906 27.6171 17.8906C26.8507 17.8906 26.485 17.6339 26.0617 17.3366C25.5972 17.0103 25.0708 16.6406 24.0575 16.6406C23.0442 16.6406 22.5177 17.0103 22.0532 17.3366C21.6299 17.6339 21.2644 17.8906 20.4978 17.8906C19.7313 17.8906 19.3658 17.6339 18.9425 17.3366C18.478 17.0103 17.9516 16.6406 16.9383 16.6406C15.925 16.6406 15.3986 17.0103 14.9342 17.3366C14.5111 17.6339 14.1455 17.8906 13.3793 17.8906C12.6128 17.8906 12.2472 17.6339 11.8238 17.3367C11.4902 17.1025 11.1121 16.837 10.5403 16.7133C10.4391 16.6914 10.3333 16.7106 10.2462 16.7667C10.1591 16.8228 10.0979 16.9112 10.076 17.0125C10.0541 17.1138 10.0733 17.2196 10.1294 17.3067C10.1855 17.3937 10.2739 17.455 10.3752 17.4769C10.7925 17.5672 11.0625 17.7567 11.375 17.9761C11.8396 18.3022 12.3661 18.6719 13.3793 18.6719C14.3925 18.6719 14.9189 18.3022 15.3833 17.9759C15.8064 17.6786 16.1721 17.4219 16.9383 17.4219C17.7047 17.4219 18.0702 17.6786 18.4935 17.9759C18.958 18.3022 19.4844 18.6719 20.4978 18.6719C21.5113 18.6719 22.0377 18.3022 22.5022 17.9759C22.9255 17.6786 23.291 17.4219 24.0575 17.4219C24.8239 17.4219 25.1894 17.6786 25.6127 17.9759C26.0772 18.3022 26.6036 18.6719 27.6171 18.6719C28.6305 18.6719 29.1571 18.3023 29.6216 17.9761C29.9461 17.7483 30.2264 17.5517 30.6733 17.4662C30.7237 17.4567 30.7717 17.4372 30.8146 17.4091C30.8575 17.3809 30.8944 17.3446 30.9232 17.3021C30.952 17.2597 30.9722 17.212 30.9826 17.1618C30.993 17.1116 30.9934 17.0598 30.9838 17.0094Z" fill="black"/>
<path d="M22.6204 24.5703L20.7814 21.9688C20.7495 21.9237 20.7074 21.887 20.6584 21.8617C20.6094 21.8363 20.5551 21.8231 20.5 21.8231C20.4448 21.8231 20.3905 21.8363 20.3415 21.8617C20.2926 21.887 20.2504 21.9237 20.2186 21.9688L18.3795 24.5703C17.1637 26.2903 18.3937 28.6661 20.5 28.6661C22.6062 28.6661 23.8362 26.2903 22.6204 24.5703Z" fill="#9BE5F9"/>
<path d="M22.9394 24.345L21.1004 21.7434C20.9629 21.5487 20.7385 21.4327 20.5 21.4327C20.2616 21.4327 20.0372 21.5489 19.8997 21.7434L18.0607 24.345C17.4136 25.2603 17.3318 26.4475 17.8472 27.443C18.3627 28.4384 19.3791 29.0569 20.5002 29.0569C21.6213 29.0569 22.6377 28.4384 23.1532 27.443C23.6686 26.4475 23.5864 25.2603 22.9394 24.345ZM22.4593 27.0836C22.0729 27.8298 21.3405 28.2753 20.5 28.2753C19.6596 28.2753 18.9274 27.8297 18.5408 27.0836C18.1544 26.3373 18.2135 25.482 18.6985 24.7958L20.5 22.2475L22.3014 24.7958C22.7866 25.482 22.8455 26.3373 22.4593 27.0836Z" fill="black"/>
</g>
<defs>
<clipPath id="clip0_69_1632">
<rect width="40" height="40" fill="white" transform="translate(0.5)"/>
</clipPath>
</defs>
</svg>
