<svg width="41" height="40" viewBox="0 0 41 40" fill="none" xmlns="http://www.w3.org/2000/svg">
<g clip-path="url(#clip0_70_1836)">
<path d="M38.9815 0.609772H2.04754C1.5266 0.609772 1.10059 1.0361 1.10059 1.55665V27.601C1.10059 28.122 1.52691 28.548 2.04746 28.548H38.9814C39.5023 28.548 39.9287 28.122 39.9287 27.601V1.55704C39.9287 1.0361 39.5024 0.609772 38.9815 0.609772Z" fill="#EDEBED"/>
<path d="M3.44441 27.699V1.45907C3.44441 1.08954 3.6577 0.768131 3.96684 0.609772H2.04762C1.52668 0.609772 1.10059 1.0361 1.10059 1.55665V27.601C1.10059 28.122 1.52699 28.548 2.04762 28.548H3.96684C3.6577 28.3896 3.44441 28.0683 3.44441 27.699Z" fill="#E0D9D5"/>
<path d="M38.9815 0.609772H2.04754C1.5266 0.609772 1.10059 1.0361 1.10059 1.55704V4.89352H39.9287V1.55704C39.9287 1.0361 39.5024 0.609772 38.9815 0.609772Z" fill="#71AAE2"/>
<path d="M3.96684 0.609772H2.04762C1.52668 0.609772 1.10059 1.0361 1.10059 1.55665V4.89321H3.44434V1.45907C3.44434 1.08954 3.6577 0.768131 3.96684 0.609772Z" fill="#6397D6"/>
<path d="M17.7381 7.61899H4.72092C4.15905 7.61899 3.70374 8.07461 3.70374 8.63649V24.6047C4.01928 23.2653 5.23811 22.7636 5.23811 22.7636L9.58295 21.0793L11.2273 23.1088L12.8715 21.0793L17.2208 22.7636C17.2208 22.7636 18.4394 23.2653 18.7553 24.6047V8.63649C18.7553 8.07461 18.3 7.61899 17.7381 7.61899Z" fill="#71AAE2"/>
<path d="M6.04749 7.61899H4.72092C4.15905 7.61899 3.70374 8.07461 3.70374 8.63649V24.6047C4.01928 23.2653 5.23811 22.7636 5.23811 22.7636L6.04749 22.4498V7.61899Z" fill="#6397D6"/>
<path d="M11.2715 19.8758C10.6184 19.8758 10.0468 19.6664 9.58301 19.3177V21.0214L11.2273 23.3316L12.8715 21.0214V19.3241C12.4129 19.6723 11.8626 19.8758 11.2715 19.8758Z" fill="#F4BDA4"/>
<path d="M11.5825 19.8566C11.4803 19.8691 11.3765 19.8758 11.2715 19.8758C10.6184 19.8758 10.0468 19.6662 9.58301 19.3177V21.0214L11.2273 23.3313L11.5825 22.8327V19.8566Z" fill="#EFA78B"/>
<path d="M18.7553 24.8584V24.4485C18.4394 23.1091 17.2209 22.6074 17.2209 22.6074L12.8715 20.9231L11.2273 22.9526L9.58295 20.9231L5.23811 22.6074C5.23811 22.6074 4.01928 23.1091 3.70374 24.4485V24.8584C3.70374 25.4202 4.15905 25.8759 4.72092 25.8759H17.7381C18.3 25.8759 18.7553 25.4202 18.7553 24.8584Z" fill="#FC5F61"/>
<path d="M6.04749 22.2938L5.23811 22.6074C5.23811 22.6074 4.01928 23.1091 3.70374 24.4485V24.8584C3.70374 25.4202 4.15905 25.8759 4.72092 25.8759H6.04749V22.2938ZM13.2124 23.9953L14.4419 21.5314L12.8715 20.9228L11.2273 22.9526L12.8304 24.0909C12.8609 24.1125 12.8957 24.1273 12.9325 24.1342C12.9692 24.1411 13.0071 24.14 13.0433 24.131C13.0796 24.1219 13.1135 24.1051 13.1427 24.0817C13.1719 24.0583 13.1957 24.0288 13.2124 23.9953Z" fill="#EF4D55"/>
<path d="M9.24426 23.9953L8.01465 21.5314L9.58543 20.9228L11.2294 22.9526L9.6266 24.0909C9.59607 24.1125 9.56122 24.1273 9.52444 24.1343C9.48765 24.1412 9.4498 24.1401 9.41349 24.131C9.37717 24.1219 9.34324 24.1051 9.31403 24.0817C9.28482 24.0583 9.26102 24.0288 9.24426 23.9953Z" fill="#EF4D55"/>
<path d="M12.8642 22.6358L13.9219 21.3299L12.8715 20.9231L11.2272 22.9526L12.8304 24.0912C12.8609 24.1128 12.8957 24.1276 12.9325 24.1345C12.9693 24.1414 13.0071 24.1403 13.0434 24.1312C13.0797 24.1221 13.1136 24.1053 13.1428 24.0818C13.172 24.0584 13.1957 24.0289 13.2124 23.9954L13.4382 23.5428L12.9398 23.1887C12.8972 23.1584 12.8613 23.1197 12.8342 23.075C12.8071 23.0302 12.7895 22.9804 12.7824 22.9286C12.7753 22.8768 12.7789 22.8241 12.793 22.7737C12.8071 22.7234 12.8313 22.6764 12.8642 22.6358ZM9.78677 21.3794L9.91489 21.3299L9.58536 20.9229L8.01489 21.5314L9.24419 23.9954C9.26095 24.0289 9.28476 24.0583 9.31397 24.0817C9.34318 24.1051 9.3771 24.1219 9.41342 24.131C9.44974 24.1401 9.48758 24.1412 9.52437 24.1342C9.56115 24.1273 9.596 24.1125 9.62653 24.0909L10.3986 23.5424L9.58263 21.907C9.55883 21.8594 9.54524 21.8073 9.54273 21.7541C9.54023 21.7009 9.54886 21.6477 9.56807 21.5981C9.58729 21.5484 9.61667 21.5033 9.65433 21.4656C9.69199 21.428 9.7371 21.3986 9.78677 21.3794Z" fill="#E03F4F"/>
<path d="M14.5723 15.0131C14.4924 15.0563 14.4031 15.079 14.3123 15.0791C14.2379 15.0791 14.1652 15.0711 14.095 15.0562V17.1476C14.095 17.171 14.0938 17.1939 14.0932 17.2171C14.8543 17.3324 15.4503 16.7825 15.4503 16.1072C15.4503 15.5808 15.0896 15.133 14.5723 15.0131ZM8.3641 15.0787H8.00371C7.93889 15.0785 7.8743 15.0711 7.81113 15.0565C7.36527 15.2112 7.00879 15.6125 7.00879 16.1069C7.00879 16.7816 7.60363 17.3324 8.36598 17.217C8.36535 17.1939 8.3641 17.1707 8.3641 17.1475V15.0787Z" fill="#F4BDA4"/>
<path d="M14.9257 15.1594C14.8167 15.0915 14.6973 15.0421 14.5723 15.0131C14.4924 15.0562 14.4031 15.0787 14.3123 15.0787C14.2379 15.0787 14.1652 15.0708 14.095 15.0559V17.1475C14.095 17.1707 14.0938 17.1939 14.0932 17.217C14.4096 17.265 14.6971 17.1979 14.9257 17.0545V15.1594ZM8.3641 17.0547C8.04301 16.8534 7.83949 16.5015 7.83949 16.1069C7.83949 15.7211 8.05707 15.3924 8.3641 15.1932V15.0787H8.00371C7.93889 15.0785 7.8743 15.0711 7.81113 15.0565C7.36527 15.2112 7.00879 15.6125 7.00879 16.1069C7.00879 16.7816 7.60363 17.3324 8.36598 17.217C8.36535 17.1939 8.3641 17.1707 8.3641 17.1475V17.0547Z" fill="#EFA78B"/>
<path d="M13.3213 14.0268C13.3213 13.9706 13.2457 13.9511 13.2191 14.0009C12.8764 14.6423 12.2004 15.0788 11.4223 15.0788H8.30334V17.1475C8.30334 18.6551 9.48436 20.032 11.2712 20.032C12.8618 20.032 14.1557 18.7381 14.1557 17.1475V15.0559C13.6805 14.9549 13.3213 14.5309 13.3213 14.0268Z" fill="#F9CBB4"/>
<path d="M10.1332 17.1475V15.0787H8.30334V17.1475C8.30334 18.6551 9.48436 20.032 11.2712 20.032C11.58 20.032 11.8773 19.9829 12.1565 19.8926C10.9098 19.5065 10.1332 18.3701 10.1332 17.1475Z" fill="#F4BDA4"/>
<path d="M13.9684 11.2817C13.6927 11.3031 13.4401 11.1298 13.387 10.8584C13.2976 10.4016 13.0714 9.94812 12.1879 9.94812H9.12211C7.99696 9.94812 7.08508 10.8603 7.08508 11.9855V14.2823C7.08508 14.7559 7.46899 15.1398 7.9429 15.1398H11.4223C12.2004 15.1398 12.8764 14.7034 13.2191 14.0619C13.2457 14.0121 13.3213 14.0316 13.3213 14.0878C13.3213 14.6664 13.7947 15.1398 14.3733 15.1398C14.6766 15.1398 14.9248 14.8916 14.9248 14.5883V12.1942C14.9248 11.6446 14.4451 11.2451 13.9684 11.2817Z" fill="#935D38"/>
<path d="M8.91125 14.3567V11.9614C8.91125 11.0254 9.51704 10.2313 10.3578 9.94812H9.12211C7.99696 9.94812 7.08508 10.8603 7.08508 11.9855V14.2823C7.08508 14.7559 7.46899 15.1398 7.9429 15.1398H9.37415C9.09836 14.9874 8.91125 14.6939 8.91125 14.3567Z" fill="#7F4D2A"/>
<path d="M4.70659 7.00931C3.82245 7.00931 3.10315 7.7286 3.10315 8.61267V24.8345C3.10315 25.7187 3.82245 26.438 4.70659 26.438H17.7235C18.6075 26.438 19.3268 25.7187 19.3268 24.8346V8.61274C19.3268 7.7286 18.6075 7.00931 17.7235 7.00931H4.70659ZM18.155 24.8346C18.1548 24.949 18.1093 25.0586 18.0284 25.1394C17.9475 25.2203 17.8379 25.2657 17.7235 25.2659H4.70659C4.5922 25.2658 4.48252 25.2204 4.4016 25.1395C4.32069 25.0587 4.27517 24.949 4.27502 24.8346V24.4971C4.53143 23.5443 5.37971 23.1549 5.44385 23.1268L7.7144 22.2467L8.70557 24.2331V24.2334C8.93627 24.6955 9.52713 24.8462 9.95135 24.545L11.2139 23.6484L12.4764 24.5447C12.9003 24.8459 13.491 24.696 13.7224 24.2334V24.2331L14.7136 22.2467L16.9863 23.1268C17.0412 23.1513 17.8996 23.5507 18.155 24.4974V24.8346ZM7.69643 16.5024C7.69614 16.5021 7.69583 16.502 7.69549 16.5018C7.49065 16.3254 7.40799 15.9705 7.69635 15.7248L7.69643 16.5024ZM14.0046 11.8451H14.0049C14.1463 11.8353 14.3321 11.9687 14.3321 12.1753V14.4773C14.0739 14.4583 13.8972 14.2429 13.8972 14.0119C13.8972 13.3487 13.0061 13.1238 12.6921 13.7094C12.5681 13.9423 12.3831 14.137 12.1569 14.2728C11.9306 14.4085 11.6717 14.4802 11.4079 14.48H7.92096C7.77565 14.48 7.64752 14.3613 7.64752 14.2066V11.9659C7.64752 11.1634 8.30034 10.5102 9.10299 10.5102H12.1751C12.7162 10.5102 12.7519 10.6943 12.802 10.9491C12.9106 11.5042 13.4276 11.8905 14.0046 11.8451ZM14.7334 15.6897C14.9882 15.9055 14.9764 16.3001 14.7334 16.5024V15.6897ZM8.86823 17.1393V15.6522H11.4079C12.0424 15.6522 12.6353 15.4236 13.0907 15.0431C13.2213 15.2041 13.381 15.3391 13.5615 15.441C13.5615 17.2607 13.56 17.1991 13.56 17.1991C13.5504 17.5687 13.4519 17.9305 13.2729 18.254C13.0939 18.5775 12.8396 18.8532 12.5316 19.0577C11.0189 20.0671 8.86823 19.0405 8.86823 17.1393ZM12.844 23.3685L12.061 22.8125C12.4385 22.3462 12.2377 22.5943 13.0434 21.5998L13.6159 21.8217L12.844 23.3685ZM9.58362 23.3685L8.81174 21.8217L9.38245 21.6003L10.3651 22.8134L9.58362 23.3685ZM12.271 20.4648V20.6916L11.2139 21.9965L10.1546 20.6888V20.4544C10.8024 20.6516 11.5669 20.6799 12.271 20.4648ZM18.155 8.61267V22.4912C17.7794 22.1896 17.4578 22.0532 17.4296 22.042C17.4257 22.0401 17.4221 22.0388 17.4181 22.037L14.6394 20.961H14.6391L13.4428 20.4977V19.8401C14.0715 19.3302 14.5189 18.6059 14.6736 17.7795C16.1378 17.5128 16.5776 15.6928 15.471 14.7812C15.4918 14.6952 15.504 14.6057 15.504 14.5135V12.1752C15.504 11.2888 14.745 10.6281 13.9418 10.6748C13.7031 9.57189 12.8523 9.33837 12.1754 9.33837H9.10323C7.65424 9.33837 6.47565 10.5173 6.47565 11.9659V14.2066C6.47557 14.5028 6.56704 14.7917 6.73752 15.0339C5.89276 16.0291 6.46166 17.5431 7.75526 17.7795C7.90293 18.5901 8.33891 19.3198 8.98268 19.834V20.4981L5.01174 22.0374C5.00784 22.0389 5.00409 22.0401 5.00041 22.042C4.97206 22.0535 4.65073 22.1896 4.27502 22.4912V8.61267C4.27517 8.49832 4.32064 8.38868 4.40148 8.3078C4.48232 8.22692 4.59192 8.18139 4.70627 8.18118H17.7235C17.8378 8.18137 17.9475 8.22689 18.0284 8.30776C18.1093 8.38864 18.1548 8.49828 18.155 8.61267ZM24.6514 9.2072H34.1215C34.4453 9.2072 34.7074 8.94501 34.7074 8.62126C34.7074 8.29743 34.4453 8.03532 34.1215 8.03532H24.6514C24.5744 8.03529 24.4982 8.05043 24.4271 8.07986C24.356 8.1093 24.2914 8.15246 24.237 8.20687C24.1825 8.26129 24.1394 8.32589 24.11 8.397C24.0805 8.4681 24.0654 8.54431 24.0654 8.62126C24.0654 8.94501 24.3275 9.2072 24.6514 9.2072ZM24.6514 11.8753H34.1215C34.1985 11.8753 34.2747 11.8602 34.3458 11.8307C34.4169 11.8012 34.4815 11.758 34.5359 11.7036C34.5904 11.6492 34.6335 11.5845 34.6629 11.5134C34.6924 11.4423 34.7075 11.366 34.7074 11.2891C34.7074 11.1337 34.6457 10.9846 34.5358 10.8748C34.4259 10.7649 34.2769 10.7031 34.1215 10.7031H24.6514C24.4959 10.7031 24.3469 10.7649 24.237 10.8748C24.1271 10.9846 24.0654 11.1337 24.0654 11.2891C24.0654 11.366 24.0805 11.4423 24.1099 11.5134C24.1394 11.5845 24.1825 11.6492 24.2369 11.7036C24.2913 11.758 24.3559 11.8012 24.427 11.8307C24.4982 11.8602 24.5744 11.8753 24.6514 11.8753ZM22.0491 13.9572C22.0491 14.1126 22.1108 14.2616 22.2207 14.3715C22.3306 14.4814 22.4796 14.5431 22.635 14.5431H25.5721C25.7275 14.5431 25.8765 14.4814 25.9864 14.3715C26.0963 14.2616 26.158 14.1126 26.158 13.9572C26.158 13.8802 26.1429 13.804 26.1135 13.7329C26.084 13.6617 26.0409 13.5971 25.9865 13.5427C25.9321 13.4882 25.8675 13.445 25.7964 13.4156C25.7252 13.3861 25.649 13.3709 25.5721 13.3709H22.635C22.5581 13.3709 22.4818 13.3861 22.4107 13.4156C22.3396 13.445 22.275 13.4882 22.2206 13.5427C22.1662 13.5971 22.123 13.6617 22.0936 13.7329C22.0642 13.804 22.049 13.8802 22.0491 13.9572ZM22.635 17.2109H25.5721C25.8958 17.2109 26.158 16.9488 26.158 16.625C26.158 16.3012 25.8958 16.0391 25.5721 16.0391H22.635C22.3113 16.0391 22.0491 16.3013 22.0491 16.625C22.0491 16.9488 22.3113 17.2109 22.635 17.2109ZM22.635 19.8789H25.5721C25.8958 19.8789 26.158 19.6167 26.158 19.293C26.158 19.1376 26.0963 18.9885 25.9864 18.8787C25.8765 18.7688 25.7275 18.707 25.5721 18.707H22.635C22.4796 18.707 22.3306 18.7688 22.2207 18.8787C22.1108 18.9885 22.0491 19.1376 22.0491 19.293C22.0491 19.6167 22.3113 19.8789 22.635 19.8789ZM22.635 22.5467H25.5721C25.8958 22.5467 26.158 22.2845 26.158 21.9608C26.158 21.8054 26.0963 21.6564 25.9864 21.5465C25.8765 21.4366 25.7275 21.3749 25.5721 21.3749H22.635C22.4796 21.3749 22.3306 21.4366 22.2207 21.5465C22.1108 21.6564 22.0491 21.8054 22.0491 21.9608C22.0491 22.2845 22.3113 22.5467 22.635 22.5467ZM22.635 25.2149H25.5721C25.7275 25.2149 25.8765 25.1531 25.9864 25.0432C26.0963 24.9334 26.158 24.7843 26.158 24.6289C26.158 24.3051 25.8958 24.043 25.5721 24.043H22.635C22.5581 24.0429 22.4819 24.0581 22.4108 24.0875C22.3397 24.117 22.275 24.1601 22.2206 24.2145C22.1662 24.2689 22.1231 24.3335 22.0936 24.4047C22.0642 24.4758 22.0491 24.552 22.0491 24.6289C22.0491 24.7843 22.1108 24.9334 22.2207 25.0432C22.3306 25.1531 22.4796 25.2149 22.635 25.2149ZM36.4628 13.3709H28.1594C28.0824 13.3709 28.0062 13.3861 27.9351 13.4156C27.864 13.445 27.7994 13.4882 27.745 13.5427C27.6906 13.5971 27.6474 13.6617 27.618 13.7329C27.5885 13.804 27.5734 13.8802 27.5735 13.9572C27.5735 14.1126 27.6352 14.2616 27.7451 14.3715C27.855 14.4814 28.004 14.5431 28.1594 14.5431H36.4629C36.6167 14.5406 36.7633 14.4778 36.8712 14.3681C36.9791 14.2585 37.0395 14.1108 37.0395 13.957C37.0395 13.8032 36.9791 13.6556 36.8712 13.546C36.7633 13.4363 36.6167 13.3735 36.4629 13.3709H36.4628ZM36.4628 16.0391H28.1594C27.8356 16.0391 27.5735 16.3013 27.5735 16.625C27.5735 16.9488 27.8356 17.2109 28.1594 17.2109H36.4629C36.7867 17.2109 37.0489 16.9488 37.0489 16.625C37.0489 16.3012 36.7864 16.0391 36.4629 16.0391H36.4628ZM36.4628 18.707H28.1594C28.004 18.707 27.855 18.7688 27.7451 18.8787C27.6352 18.9885 27.5735 19.1376 27.5735 19.293C27.5735 19.6167 27.8356 19.8789 28.1594 19.8789H36.4629C36.7867 19.8789 37.0489 19.6167 37.0489 19.293C37.0489 18.9695 36.7864 18.707 36.4629 18.707H36.4628ZM36.4628 21.3749H28.1594C28.004 21.3749 27.855 21.4366 27.7451 21.5465C27.6352 21.6564 27.5735 21.8054 27.5735 21.9608C27.5735 22.2845 27.8356 22.5467 28.1594 22.5467H36.4629C36.7867 22.5467 37.0489 22.2845 37.0489 21.9608C37.0489 21.6373 36.7864 21.3749 36.4629 21.3749H36.4628ZM36.4628 24.043H28.1594C28.0824 24.0429 28.0062 24.0581 27.9351 24.0875C27.864 24.117 27.7994 24.1601 27.745 24.2145C27.6906 24.2689 27.6474 24.3335 27.618 24.4047C27.5886 24.4758 27.5734 24.552 27.5735 24.6289C27.5735 24.7843 27.6352 24.9334 27.7451 25.0432C27.855 25.1531 28.004 25.2149 28.1594 25.2149H36.4629C36.6183 25.2149 36.7673 25.1531 36.8772 25.0432C36.9871 24.9334 37.0489 24.7843 37.0489 24.6289C37.0489 24.4735 36.9871 24.3245 36.8772 24.2146C36.7673 24.1047 36.6183 24.043 36.4629 24.043H36.4628Z" fill="black"/>
<path d="M39.9141 16.9153C39.8371 16.9153 39.7609 16.9304 39.6898 16.9599C39.6187 16.9893 39.5541 17.0324 39.4997 17.0869C39.4453 17.1413 39.4021 17.2059 39.3727 17.277C39.3432 17.3481 39.3281 17.4243 39.3281 17.5013V27.5772C39.3281 27.7728 39.1627 27.9382 38.9671 27.9382H21.8672C21.7118 27.9382 21.5627 27.9999 21.4529 28.1098C21.343 28.2197 21.2812 28.3687 21.2812 28.5241C21.2812 28.848 21.5434 29.1101 21.8672 29.1101H38.9668C39.8121 29.1101 40.5 28.4226 40.5 27.5773V17.5012C40.5 17.3458 40.4383 17.1967 40.3284 17.0869C40.2185 16.977 40.0695 16.9152 39.9141 16.9152V16.9153ZM38.9671 0H2.03281C1.18758 0 0.5 0.6875 0.5 1.5332V27.5772C0.5 28.4225 1.1875 29.1104 2.03289 29.1104H19.1328C19.2866 29.1079 19.4332 29.045 19.5411 28.9354C19.649 28.8257 19.7094 28.6781 19.7094 28.5243C19.7094 28.3705 19.649 28.2228 19.5411 28.1132C19.4332 28.0036 19.2866 27.9407 19.1328 27.9382H2.03289C1.83727 27.9382 1.67188 27.7731 1.67188 27.5773V5.45555H39.3281V14.7665C39.3281 14.9219 39.3899 15.0709 39.4997 15.1808C39.6096 15.2907 39.7587 15.3524 39.9141 15.3524C40.0695 15.3524 40.2185 15.2907 40.3284 15.1808C40.4383 15.0709 40.5 14.9219 40.5 14.7665V1.5332C40.5 0.687578 39.8125 0 38.9671 0ZM1.67188 4.28344V1.5332C1.67188 1.33727 1.83727 1.17188 2.03289 1.17188H38.9672C39.1628 1.17188 39.3282 1.33727 39.3282 1.5332V4.28344H1.67188Z" fill="black"/>
</g>
<defs>
<clipPath id="clip0_70_1836">
<rect width="40" height="40" fill="white" transform="translate(0.5)"/>
</clipPath>
</defs>
</svg>
