<svg width="50" height="50" viewBox="0 0 50 50" fill="none" xmlns="http://www.w3.org/2000/svg">
<g clip-path="url(#clip0_120_804)">
<path d="M20.8228 47.2438C20.8228 48.6658 21.975 49.8189 23.3968 49.8189H26.8288C28.2503 49.8189 29.4029 48.6658 29.4029 47.2438V42.0936H20.8228V47.2438Z" fill="#EBEBEB"/>
<path d="M16.7797 32.7861C16.0292 32.3022 15.3219 31.7544 14.6657 31.1486C14.1056 33.3034 11.9885 34.6697 9.79544 34.2924C7.60172 33.9153 6.06244 31.9206 6.25314 29.7023C6.44372 27.4837 8.301 25.7813 10.5268 25.7846C10.658 25.7846 10.7841 25.8118 10.9094 25.8232C10.0961 23.911 9.67699 21.8541 9.67725 19.776H8.585L7.99222 22.5971C7.9632 22.7356 7.90044 22.8647 7.80952 22.973C7.7186 23.0813 7.60234 23.1654 7.47107 23.2179C7.3398 23.2705 7.1976 23.2897 7.0571 23.274C6.9166 23.2583 6.78216 23.2081 6.66573 23.1278L4.29494 21.4927L1.72091 24.0678L3.35113 26.4393C3.43139 26.5557 3.48162 26.6902 3.49734 26.8308C3.51306 26.9713 3.49378 27.1136 3.44122 27.2449C3.38891 27.3763 3.3049 27.4926 3.19669 27.5836C3.08849 27.6746 2.95945 27.7374 2.82109 27.7663L0.00488281 28.3596V31.7931L2.82452 32.3862C2.96281 32.4154 3.09176 32.4783 3.19997 32.5692C3.30817 32.6602 3.39229 32.7764 3.44487 32.9077C3.49724 33.039 3.51639 33.1812 3.5006 33.3218C3.4848 33.4623 3.43457 33.5967 3.35435 33.7131L1.72091 36.0851L4.29494 38.6602L6.66573 37.0289C6.78218 36.9486 6.91667 36.8982 7.05724 36.8825C7.19782 36.8667 7.34011 36.8859 7.47147 36.9384C7.60283 36.9909 7.71917 37.0751 7.81016 37.1834C7.90114 37.2918 7.96394 37.421 7.99297 37.5595L8.585 40.377H12.017L12.6091 37.5555C12.638 37.4169 12.7008 37.2877 12.7918 37.1793C12.8828 37.0709 12.9992 36.9867 13.1306 36.9343C13.262 36.8816 13.4043 36.8624 13.5449 36.8782C13.6854 36.894 13.8199 36.9443 13.9363 37.0248L16.3071 38.6602L19.0005 35.9656C18.8607 35.3143 18.5923 34.6976 18.2109 34.1516C17.8295 33.6056 17.3429 33.1413 16.7797 32.7861Z" fill="#C9DFFF"/>
<path d="M40.5572 19.7761C40.5564 12.3681 35.2997 6.00272 28.028 4.60455C20.7564 3.20637 13.5156 7.16785 10.7698 14.0479C8.02404 20.9277 10.5452 28.7893 16.7796 32.7861C17.4826 33.2221 18.0644 33.8284 18.4712 34.5488C18.878 35.2693 19.0967 36.0808 19.107 36.9082V40.377C19.107 41.799 20.2591 42.9521 21.681 42.9521H28.5451C29.9665 42.9521 31.1191 41.799 31.1191 40.377V36.9794C31.1298 36.1324 31.3531 35.3016 31.7683 34.5634C32.1836 33.8251 32.7776 33.2031 33.4958 32.7543C35.6636 31.3542 37.4459 29.4326 38.6795 27.1653C39.9131 24.8981 40.5586 22.3575 40.5572 19.7761Z" fill="#FFB41F"/>
<path d="M45.8706 10.6953L48.5683 8.67124L45.4794 4.55086L42.7818 6.57479C42.5103 6.77829 42.1845 6.89671 41.8458 6.91506C41.507 6.93341 41.1704 6.85088 40.8785 6.6779C40.5866 6.50492 40.3525 6.24929 40.2058 5.94331C40.059 5.63732 40.0062 5.2947 40.0539 4.95869L40.5302 1.62039L35.4337 0.891846L34.9575 4.22983C34.9098 4.56606 34.7634 4.88056 34.5369 5.1335C34.3103 5.38643 34.0139 5.56641 33.685 5.65064C33.3562 5.73508 33.0098 5.72001 32.6896 5.60736C32.3693 5.49471 32.0897 5.28953 31.8861 5.01781L29.8633 2.31899L25.7451 5.40923L27.7673 8.10794C28.1835 8.66373 28.224 9.41481 27.8704 10.012C27.5168 10.6092 26.8386 10.9345 26.1519 10.8369L22.815 10.3604L22.0864 15.4591L25.4241 15.9355C25.7602 15.9834 26.0745 16.13 26.3273 16.3566C26.5801 16.5833 26.76 16.8799 26.8443 17.2089C26.9285 17.5379 26.9133 17.8845 26.8006 18.2049C26.6879 18.5252 26.4827 18.8049 26.211 19.0086L23.5142 21.0325L26.6031 25.1526L29.2999 23.1294C29.5715 22.9257 29.8973 22.8071 30.2362 22.7886C30.5751 22.7701 30.9119 22.8526 31.204 23.0255C31.496 23.1986 31.7301 23.4543 31.8769 23.7605C32.0236 24.0666 32.0764 24.4094 32.0285 24.7455L31.548 28.083L36.6445 28.8119L37.125 25.4729C37.1729 25.1367 37.3195 24.8224 37.5461 24.5696C37.7726 24.3168 38.0691 24.137 38.3979 24.0528C39.0703 23.88 39.7803 24.1304 40.1965 24.6856L42.2199 27.3836L46.3382 24.2935L44.3143 21.5955C44.1105 21.3239 43.9919 20.9979 43.9733 20.6589C43.9548 20.3198 44.0372 19.9828 44.2102 19.6906C44.3831 19.3984 44.6389 19.1641 44.945 19.0173C45.2511 18.8706 45.5938 18.8179 45.9298 18.8661L49.2667 19.343L49.9952 14.2443L46.6583 13.7675C46.3224 13.7195 46.0083 13.5729 45.7556 13.3463C45.503 13.1197 45.3232 12.8233 45.2389 12.4945C45.1546 12.1657 45.1696 11.8193 45.282 11.4991C45.3945 11.1788 45.5993 10.8991 45.8706 10.6953ZM36.0412 20.8599C32.7239 20.8599 30.0352 18.17 30.0352 14.8513C30.0352 11.533 32.7239 8.8427 36.0412 8.8427C39.3585 8.8427 42.0473 11.533 42.0473 14.8513C42.0473 18.17 39.3585 20.8599 36.0412 20.8599Z" fill="#1CC8EB"/>
<path d="M20.8228 44.6687H29.4029V46.3854H20.8228V44.6687Z" fill="#9E9E9E"/>
<path d="M24.2549 37.8018H25.971V40.3769H24.2549V37.8018ZM25.971 36.0851H24.2549C24.2542 33.8154 22.8553 31.781 20.7371 30.9688C16.5145 29.3169 13.581 25.4275 13.1528 20.9119C12.7247 16.3962 14.8742 12.0242 18.711 9.6076L19.6214 11.0599C16.3317 13.1307 14.488 16.8785 14.855 20.7501C15.2216 24.6211 17.7361 27.9557 21.3563 29.3714C24.1373 30.4356 25.9731 33.1064 25.971 36.0851ZM42.2732 31.7932H46.5633C46.7908 31.7932 47.009 31.8837 47.17 32.0446C47.3309 32.2056 47.4213 32.4239 47.4213 32.6516C47.4213 32.8792 47.3309 33.0976 47.17 33.2586C47.009 33.4195 46.7908 33.51 46.5633 33.51H42.2732C42.0456 33.51 41.8274 33.4195 41.6665 33.2586C41.5056 33.0976 41.4152 32.8792 41.4152 32.6516C41.4152 32.4239 41.5056 32.2056 41.6665 32.0446C41.8274 31.8837 42.0456 31.7932 42.2732 31.7932ZM40.5572 36.9438C40.6293 36.8571 40.7177 36.7856 40.8175 36.7332C40.9172 36.6807 41.0263 36.6485 41.1385 36.6383C41.2507 36.628 41.3638 36.64 41.4714 36.6735C41.579 36.707 41.6789 36.7614 41.7655 36.8336L45.5955 40.0261C45.6821 40.0982 45.7536 40.1867 45.806 40.2865C45.8584 40.3862 45.8907 40.4954 45.9009 40.6076C45.9111 40.7199 45.8992 40.8331 45.8657 40.9407C45.8322 41.0483 45.7778 41.1483 45.7057 41.2349C45.4019 41.599 44.8611 41.6485 44.4969 41.3451L40.667 38.1526C40.5804 38.0804 40.5089 37.9919 40.4566 37.8921C40.4042 37.7923 40.372 37.6832 40.3618 37.5709C40.3516 37.4587 40.3636 37.3455 40.3971 37.2379C40.4306 37.1303 40.485 37.0303 40.5572 36.9438ZM37.1251 38.6602C37.599 38.6602 37.9831 39.0441 37.9831 39.5185V43.8104C37.9831 44.038 37.8927 44.2564 37.7318 44.4174C37.5709 44.5783 37.3527 44.6688 37.1251 44.6688C36.8976 44.6688 36.6793 44.5783 36.5184 44.4174C36.3575 44.2564 36.2671 44.038 36.2671 43.8104V39.5185C36.2671 39.0441 36.6514 38.6602 37.1251 38.6602ZM0.855362 14.4423L6.05448 13.1429C6.16378 13.1155 6.27739 13.11 6.38883 13.1266C6.50028 13.1431 6.60736 13.1815 6.70397 13.2395C6.80058 13.2975 6.88483 13.374 6.95189 13.4645C7.01895 13.5551 7.06752 13.658 7.09482 13.7674C7.12213 13.8767 7.12763 13.9904 7.11101 14.1019C7.09439 14.2133 7.05597 14.3204 6.99795 14.4171C6.93993 14.5137 6.86345 14.5979 6.77287 14.6649C6.6823 14.732 6.57941 14.7805 6.47008 14.8077L1.27096 16.1071C1.16166 16.1344 1.04804 16.14 0.93659 16.1234C0.825143 16.1068 0.718055 16.0684 0.621443 16.0104C0.524831 15.9524 0.440589 15.8759 0.373531 15.7854C0.306472 15.6948 0.257911 15.5919 0.230622 15.4825C0.20333 15.3732 0.197843 15.2595 0.214473 15.148C0.231103 15.0366 0.269524 14.9295 0.327542 14.8329C0.38556 14.7363 0.462037 14.6521 0.552602 14.585C0.643168 14.518 0.746047 14.4695 0.855362 14.4423ZM1.94632 5.18411C2.22153 4.79859 2.75736 4.70975 3.14282 4.98507L7.75206 8.27906C7.84644 8.34341 7.92701 8.42597 7.98906 8.52189C8.05111 8.61781 8.09339 8.72517 8.1134 8.83766C8.13342 8.95015 8.13077 9.0655 8.10562 9.17696C8.08046 9.28841 8.03331 9.39371 7.96693 9.48668C7.90055 9.57966 7.81627 9.65843 7.71904 9.71838C7.62181 9.77833 7.5136 9.81824 7.40074 9.83578C7.28789 9.85332 7.17267 9.84813 7.06184 9.82052C6.95102 9.79291 6.84682 9.74343 6.75537 9.67499L2.14613 6.38132C2.05442 6.31586 1.97649 6.23297 1.91681 6.13737C1.85712 6.04178 1.81685 5.93535 1.7983 5.82418C1.77974 5.71301 1.78326 5.59927 1.80866 5.48946C1.83406 5.37966 1.88084 5.27582 1.94632 5.18411ZM9.63068 0.0327125C9.73983 0.00479997 9.85341 -0.00132729 9.96494 0.0146806C10.0765 0.0306885 10.1837 0.068518 10.2806 0.126009C10.3775 0.183499 10.4622 0.259524 10.5297 0.349743C10.5973 0.439961 10.6464 0.542604 10.6742 0.651811L12.0042 5.85514C12.0334 5.96478 12.0407 6.07914 12.0255 6.19161C12.0103 6.30408 11.973 6.41241 11.9157 6.51035C11.8583 6.60829 11.7822 6.69389 11.6916 6.76219C11.601 6.83049 11.4977 6.88014 11.3878 6.90826C11.2779 6.93639 11.1636 6.94243 11.0513 6.92604C10.9391 6.90965 10.8312 6.87116 10.7339 6.81278C10.6366 6.75441 10.5518 6.67731 10.4845 6.58596C10.4172 6.49461 10.3687 6.39081 10.3418 6.28057L9.01184 1.07724C8.95544 0.85663 8.98896 0.622644 9.10502 0.426758C9.22107 0.230871 9.41016 0.0891286 9.63068 0.0327125Z" fill="#FFAA00"/>
</g>
<defs>
<clipPath id="clip0_120_804">
<rect width="50" height="50" fill="white"/>
</clipPath>
</defs>
</svg>
