<svg width="41" height="40" viewBox="0 0 41 40" fill="none" xmlns="http://www.w3.org/2000/svg">
<path d="M10.3294 20.6281C9.34396 20.6615 8.39041 20.9854 7.58862 21.5593C6.78682 22.1331 6.17258 22.9312 5.82313 23.8531L5.5 35H34.875V20.625L10.3294 20.6281Z" fill="#F9CB52"/>
<path d="M7.07304 21.9913C7.03277 23.4386 7.28306 24.8793 7.80912 26.2282C8.33517 27.5772 9.12631 28.807 10.1358 29.8449C11.1452 30.8829 12.3525 31.7079 13.6863 32.2713C15.0201 32.8347 16.4533 33.125 17.9012 33.125H34.8749V20.625L10.3293 20.6281C9.11374 20.6692 7.95534 21.1541 7.07304 21.9913Z" fill="#FFD986"/>
<path d="M9.875 26.875V28.75C9.87498 29.481 10.1017 30.194 10.524 30.7908C10.9462 31.3875 11.5431 31.8386 12.2325 32.0819L19.7863 34.75C20.2589 34.9162 20.7565 35.0007 21.2575 35C22.1409 34.9999 23.004 34.7352 23.7355 34.2399C24.4669 33.7446 25.0332 33.0415 25.3612 32.2212L26.3969 29.6331L23.7181 26.7581L9.875 26.875Z" fill="#E9353F"/>
<path d="M12.2325 30.2069L19.7863 32.875C20.862 33.2546 22.0429 33.2037 23.0819 32.7327C24.121 32.2618 24.9377 31.4073 25.3612 30.3481L25.8719 29.0719L23.7175 26.7594L9.875 26.875C9.87498 27.606 10.1017 28.319 10.524 28.9158C10.9462 29.5125 11.5431 29.9636 12.2325 30.2069Z" fill="#FF4B50"/>
<path d="M33.6694 18.125H31.75C30.2269 18.1244 28.7561 18.6801 27.6137 19.6875L26.75 24.375V28.125H34.25" fill="#3BB4E6"/>
<path d="M28.0001 21.875H28.9376C29.1428 21.875 29.346 21.9154 29.5355 21.9939C29.7251 22.0725 29.8974 22.1876 30.0425 22.3326C30.1875 22.4777 30.3026 22.65 30.3812 22.8396C30.4597 23.0291 30.5001 23.2323 30.5001 23.4375C30.5001 23.6427 30.4597 23.8459 30.3812 24.0354C30.3026 24.225 30.1875 24.3973 30.0425 24.5424C29.8974 24.6874 29.7251 24.8025 29.5355 24.8811C29.346 24.9596 29.1428 25 28.9376 25H26.9751" fill="#D08C76"/>
<path d="M33 30L23 29.4444C22.6624 29.4261 22.3446 29.2792 22.1121 29.0338C21.8796 28.7883 21.75 28.4631 21.75 28.125C21.75 27.7935 21.8817 27.4755 22.1161 27.2411C22.3505 27.0067 22.6685 26.875 23 26.875H27.375L33 25.75" fill="#62C1EA"/>
<path d="M14.25 27.5C13.428 27.9111 12.5216 28.1251 11.6025 28.125H8.625L11.1963 16.8125C11.3535 16.1202 11.7414 15.5019 12.2963 15.059C12.8512 14.6161 13.5401 14.3749 14.25 14.375L14.7281 13.4194C14.9601 12.955 15.3169 12.5645 15.7585 12.2917C16.2001 12.0189 16.709 11.8746 17.2281 11.875C17.7327 11.875 18.2259 12.0244 18.6456 12.3044L20.875 13.79" fill="#795348"/>
<path d="M11.8212 18.0625L9.9924 26.1081C9.93751 26.3499 9.93776 26.6008 9.99311 26.8425C10.0485 27.0841 10.1575 27.3102 10.3122 27.5039C10.4668 27.6976 10.6631 27.8541 10.8865 27.9616C11.1098 28.0691 11.3545 28.125 11.6024 28.125C12.5215 28.1251 13.4279 27.9111 14.2499 27.5L20.568 14.4206L19.3318 13.5962C18.962 13.3397 18.5332 13.181 18.0855 13.135C17.5289 13.0881 16.971 13.2092 16.4839 13.4826C15.9968 13.756 15.6029 14.1692 15.353 14.6687L14.8749 15.625C14.165 15.6249 13.4761 15.8661 12.9212 16.309C12.3663 16.7519 11.9784 17.3702 11.8212 18.0625Z" fill="#916657"/>
<path d="M21.9175 27.5H14.25L15.9194 17.4831C15.9768 17.1385 16.1546 16.8255 16.4211 16.5997C16.6877 16.3739 17.0257 16.25 17.375 16.25H22.54C23.257 16.25 23.967 16.3912 24.6295 16.6656C25.2919 16.94 25.8938 17.3422 26.4008 17.8492C26.9078 18.3562 27.31 18.9581 27.5844 19.6205C27.8588 20.283 28 20.993 28 21.71C28.0002 22.7798 27.704 23.8287 27.1443 24.7404C26.5847 25.6521 25.7834 26.391 24.8294 26.875" fill="#D08C76"/>
<path d="M22.5407 16.25H17.4257C17.2954 16.4307 17.2078 16.6386 17.1695 16.8581L15.9739 24.0337C15.9151 24.3834 15.9334 24.7416 16.0273 25.0834C16.1213 25.4253 16.2887 25.7425 16.5178 26.013C16.747 26.2835 17.0324 26.5008 17.3541 26.6497C17.6759 26.7985 18.0262 26.8754 18.3807 26.875H22.6051C22.9793 26.8751 23.3524 26.8355 23.7182 26.7569L23.8132 26.7362C24.9699 26.5026 26.0134 25.8842 26.7737 24.9817C27.534 24.0792 27.9663 22.9458 28.0001 21.7663V21.71C28.0002 20.993 27.859 20.283 27.5847 19.6206C27.3104 18.9582 26.9083 18.3563 26.4013 17.8492C25.8944 17.3422 25.2925 16.94 24.6301 16.6656C23.9677 16.3912 23.2577 16.25 22.5407 16.25Z" fill="#F2B89E"/>
<path d="M6.125 35L5.54125 13.4125L2.95937 13.3881L2.375 35H6.125Z" fill="#795348"/>
<path d="M4.20875 13.4L3.625 35H6.125L5.54188 13.4125L4.20875 13.4Z" fill="#916657"/>
<path d="M39.875 35H1.75V38.75H39.875" fill="#93ADD1"/>
<path d="M4.25 13.75C5.63071 13.75 6.75 12.6307 6.75 11.25C6.75 9.86929 5.63071 8.75 4.25 8.75C2.86929 8.75 1.75 9.86929 1.75 11.25C1.75 12.6307 2.86929 13.75 4.25 13.75Z" fill="#A37763"/>
<path d="M19.25 16.25L19.5425 15.0794C19.6375 14.6997 19.8567 14.3627 20.1651 14.1219C20.4736 13.881 20.8537 13.7501 21.245 13.75C21.7105 13.75 22.1568 13.9349 22.486 14.264C22.8151 14.5932 23 15.0395 23 15.505V16.2694" fill="#D08C76"/>
<path d="M33 35V20.625C33 19.2989 33.5268 18.0271 34.4645 17.0895C35.4021 16.1518 36.6739 15.625 38 15.625H39.875V35H33Z" fill="#FF4B50"/>
<path d="M18 26.25V25C18.1658 25 18.3247 24.9342 18.4419 24.8169C18.5592 24.6997 18.625 24.5408 18.625 24.375C18.625 24.2092 18.5592 24.0503 18.4419 23.9331C18.3247 23.8158 18.1658 23.75 18 23.75V22.5C18.4973 22.5 18.9742 22.6975 19.3258 23.0492C19.6775 23.4008 19.875 23.8777 19.875 24.375C19.875 24.8723 19.6775 25.3492 19.3258 25.7008C18.9742 26.0525 18.4973 26.25 18 26.25ZM18.625 21.25V20C18.7908 20 18.9497 19.9342 19.0669 19.8169C19.1842 19.6997 19.25 19.5408 19.25 19.375C19.25 19.2092 19.1842 19.0503 19.0669 18.9331C18.9497 18.8158 18.7908 18.75 18.625 18.75V17.5C19.1223 17.5 19.5992 17.6975 19.9508 18.0492C20.3025 18.4008 20.5 18.8777 20.5 19.375C20.5 19.8723 20.3025 20.3492 19.9508 20.7008C19.5992 21.0525 19.1223 21.25 18.625 21.25ZM23.625 20.625H24.875V23.75H23.625V20.625Z" fill="#D08C76"/>
<path d="M24.875 11.875H21.75C21.6322 11.875 21.5168 11.8418 21.4171 11.7791C21.3174 11.7165 21.2375 11.6269 21.1864 11.5207C21.1354 11.4146 21.1154 11.2962 21.1288 11.1792C21.1421 11.0622 21.1883 10.9513 21.2619 10.8594L22.9494 8.75H21.125V7.5H24.25C24.3678 7.49996 24.4831 7.53319 24.5829 7.59586C24.6826 7.65854 24.7625 7.74811 24.8135 7.85426C24.8646 7.96041 24.8845 8.07881 24.8712 8.19582C24.8579 8.31283 24.8117 8.42369 24.7381 8.51562L23.0506 10.625H24.875V11.875ZM31.125 5.625H25.5C25.3688 5.625 25.241 5.58373 25.1345 5.50703C25.0281 5.43033 24.9485 5.32209 24.9071 5.19764C24.8656 5.0732 24.8643 4.93886 24.9034 4.81365C24.9425 4.68844 25.0201 4.57871 25.125 4.5L28.625 1.875H25.5V0.625H30.5C30.6312 0.625 30.759 0.666273 30.8654 0.742974C30.9718 0.819674 31.0514 0.927913 31.0929 1.05236C31.1344 1.1768 31.1357 1.31114 31.0966 1.43635C31.0574 1.56156 30.9799 1.67129 30.875 1.75L27.375 4.375H31.125V5.625Z" fill="#3BB4E6"/>
<path d="M5.5 36.875H39.875V35H3.625C3.625 35.4973 3.82254 35.9742 4.17417 36.3258C4.52581 36.6775 5.00272 36.875 5.5 36.875Z" fill="#A3B8DB"/>
<path d="M4.24992 8.75C3.73986 8.74997 3.24214 8.90686 2.82429 9.19938C2.4885 9.68013 2.33268 10.2638 2.38415 10.8479C2.43563 11.4321 2.69111 11.9794 3.10581 12.3941C3.5205 12.8087 4.06793 13.0641 4.65209 13.1154C5.23625 13.1668 5.81985 13.0109 6.30054 12.675C6.56192 12.3005 6.71556 11.8615 6.74475 11.4058C6.77395 10.9501 6.67756 10.4951 6.4661 10.0903C6.25464 9.68558 5.93619 9.34659 5.54544 9.11026C5.15468 8.87393 4.70658 8.74933 4.24992 8.75Z" fill="#BF9275"/>
<path d="M34.875 21.25V35H39.875V16.25C38.5489 16.25 37.2771 16.7768 36.3395 17.7145C35.4018 18.6521 34.875 19.9239 34.875 21.25Z" fill="#FF797B"/>
<path d="M23 26.875C22.6685 26.875 22.3505 27.0067 22.1161 27.2411C21.8817 27.4755 21.75 27.7935 21.75 28.125C21.75 28.4631 21.8796 28.7883 22.1121 29.0338C22.3446 29.2792 22.6624 29.4261 23 29.4444L27.375 29.6875V26.875H23ZM28.9375 21.875H28.6131C28.5885 22.7469 28.3658 23.6019 27.9619 24.375H28.9375C29.2977 24.3751 29.6469 24.2507 29.9259 24.0229C30.2049 23.7951 30.3967 23.4779 30.4688 23.125C30.3967 22.7721 30.2049 22.4549 29.9259 22.2271C29.6469 21.9993 29.2977 21.8749 28.9375 21.875Z" fill="#F2B89E"/>
<path d="M38 16.25H39.875V15H38C37.0755 15.0005 36.1654 15.2289 35.3502 15.665C34.535 16.101 33.8399 16.7313 33.3262 17.5H31.75C30.3517 17.5013 28.9871 17.9295 27.8388 18.7275C27.3993 17.9491 26.7941 17.2768 26.0659 16.7584C25.3377 16.2399 24.5044 15.888 23.625 15.7275V15.505C23.6243 14.874 23.3734 14.269 22.9272 13.8228C22.481 13.3766 21.876 13.1257 21.245 13.125C21.1719 13.125 21.1012 13.1369 21.0288 13.1431L18.9906 11.7837C18.4683 11.4351 17.8542 11.2493 17.2262 11.25C16.591 11.2479 15.9679 11.4238 15.4275 11.7577C14.8871 12.0917 14.4511 12.5703 14.1688 13.1394L13.8531 13.7706C13.0726 13.8501 12.3369 14.1734 11.7505 14.6946C11.1641 15.2159 10.7567 15.9085 10.5863 16.6744L9.8175 20.0562C8.50631 20.2133 7.29323 20.83 6.39375 21.7969L6.17438 13.6931C6.68696 13.2925 7.06174 12.7419 7.24643 12.1181C7.43112 11.4943 7.41652 10.8284 7.20466 10.2133C6.9928 9.59816 6.59424 9.0645 6.06458 8.68674C5.53493 8.30897 4.90057 8.10593 4.25 8.10593C3.59943 8.10593 2.96507 8.30897 2.43542 8.68674C1.90576 9.0645 1.5072 9.59816 1.29534 10.2133C1.08348 10.8284 1.06888 11.4943 1.25357 12.1181C1.43826 12.7419 1.81304 13.2925 2.32563 13.6931L1.76625 34.375H1.75C1.58424 34.375 1.42527 34.4408 1.30806 34.5581C1.19085 34.6753 1.125 34.8342 1.125 35V38.75C1.125 38.9158 1.19085 39.0747 1.30806 39.1919C1.42527 39.3092 1.58424 39.375 1.75 39.375H39.875V38.125H2.375V35.625H39.875V34.375H33.625V20.625C33.6263 19.4651 34.0877 18.3531 34.9079 17.5329C35.7281 16.7127 36.8401 16.2513 38 16.25ZM32.375 29.3394L28 29.0962V27.3875L32.375 26.5125V29.3394ZM21.2575 34.375C20.827 34.375 20.3997 34.3019 19.9937 34.1587L12.4375 31.4925C11.871 31.2912 11.3806 30.9196 11.0337 30.4286C10.6868 29.9375 10.5004 29.3512 10.5 28.75H11.6025C12.5612 28.7464 13.5075 28.5331 14.375 28.125H21.125C21.125 28.6224 21.3155 29.101 21.6574 29.4624C21.9992 29.8237 22.4665 30.0405 22.9631 30.0681L25.4931 30.2087L24.7812 31.9894C24.5015 32.695 24.0157 33.2999 23.3872 33.7255C22.7586 34.151 22.0165 34.3773 21.2575 34.375ZM26.75 27.5V29.0269L23.0331 28.82C22.8554 28.8102 22.6881 28.7328 22.5657 28.6035C22.4433 28.4743 22.3751 28.303 22.375 28.125C22.375 27.9592 22.4408 27.8003 22.5581 27.6831C22.6753 27.5658 22.8342 27.5 23 27.5H26.75ZM31.75 18.75H32.7031C32.4873 19.3516 32.3763 19.9858 32.375 20.625V25.2375L27.3125 26.25H26.7313C26.9293 26.054 27.1143 25.8452 27.285 25.625H28.9375C29.5177 25.625 30.0741 25.3945 30.4843 24.9843C30.8945 24.5741 31.125 24.0177 31.125 23.4375C31.125 22.8573 30.8945 22.3009 30.4843 21.8907C30.0741 21.4805 29.5177 21.25 28.9375 21.25H28.6019C28.5703 20.7915 28.4864 20.3382 28.3519 19.8987C29.3286 19.1547 30.5222 18.7512 31.75 18.75ZM28.5706 22.5H28.9375C29.1861 22.5 29.4246 22.5988 29.6004 22.7746C29.7762 22.9504 29.875 23.1889 29.875 23.4375C29.875 23.6861 29.7762 23.9246 29.6004 24.1004C29.4246 24.2762 29.1861 24.375 28.9375 24.375H28.0444C28.3144 23.7805 28.4919 23.1482 28.5706 22.5ZM27.375 21.7094C27.3766 22.6413 27.1247 23.5562 26.6464 24.356C26.168 25.1558 25.4812 25.8105 24.6594 26.25H23C22.7378 26.2508 22.4787 26.3069 22.2396 26.4146C22.0006 26.5223 21.7869 26.6792 21.6125 26.875H14.9875L16.535 17.5862C16.5678 17.3873 16.6703 17.2065 16.8242 17.0762C16.9781 16.9458 17.1733 16.8745 17.375 16.875H22.5406C23.8223 16.8765 25.0511 17.3863 25.9574 18.2926C26.8637 19.1989 27.3735 20.4277 27.375 21.7094ZM22.375 15.505V15.625H20.0506L20.1488 15.2312C20.2156 14.9637 20.378 14.7299 20.6054 14.5738C20.8327 14.4177 21.1092 14.3501 21.3829 14.3838C21.6566 14.4175 21.9085 14.55 22.0913 14.7565C22.274 14.963 22.3749 15.2292 22.375 15.505ZM11.8056 16.9512C11.9294 16.396 12.2393 15.8997 12.6839 15.5448C13.1285 15.1899 13.6811 14.9976 14.25 15C14.3661 15.0001 14.48 14.9677 14.5788 14.9067C14.6776 14.8456 14.7575 14.7583 14.8094 14.6544L15.2869 13.6987C15.4658 13.3376 15.7423 13.0339 16.0851 12.822C16.4279 12.6101 16.8232 12.4985 17.2262 12.5C17.6076 12.4995 17.9805 12.6124 18.2975 12.8244L19.6637 13.7356C19.3074 14.0509 19.0543 14.4663 18.9375 14.9275L18.7625 15.625H17.375C16.8775 15.6239 16.3959 15.7999 16.0163 16.1214C15.6367 16.443 15.3839 16.8891 15.3031 17.38L13.6875 27.0625C13.0286 27.3479 12.3187 27.4967 11.6006 27.5H9.40812L11.8056 16.9512ZM9.51875 21.37L8.015 27.9862C7.99415 28.0778 7.99421 28.1729 8.01516 28.2645C8.03612 28.356 8.07744 28.4417 8.13605 28.515C8.19466 28.5884 8.26905 28.6477 8.3537 28.6883C8.43835 28.729 8.53108 28.7501 8.625 28.75H9.25C9.25093 29.61 9.51806 30.4486 10.0147 31.1507C10.5113 31.8528 11.2131 32.384 12.0238 32.6712L16.8513 34.375H6.73375L6.4525 23.9775C6.71603 23.3282 7.13239 22.7521 7.66621 22.2981C8.20003 21.8442 8.83554 21.5258 9.51875 21.37ZM4.25 9.375C4.62084 9.375 4.98335 9.48496 5.29169 9.69099C5.60004 9.89702 5.84036 10.1899 5.98227 10.5325C6.12419 10.8751 6.16132 11.2521 6.08897 11.6158C6.01663 11.9795 5.83805 12.3136 5.57583 12.5758C5.3136 12.838 4.97951 13.0166 4.61579 13.089C4.25208 13.1613 3.87508 13.1242 3.53247 12.9823C3.18986 12.8404 2.89702 12.6 2.69099 12.2917C2.48497 11.9833 2.375 11.6208 2.375 11.25C2.375 10.7527 2.57254 10.2758 2.92418 9.92417C3.27581 9.57254 3.75272 9.375 4.25 9.375ZM3.5625 14.2925C3.78788 14.3455 4.01848 14.3732 4.25 14.375C4.48152 14.3732 4.71212 14.3455 4.9375 14.2925L5.4825 34.375H3.0175L3.5625 14.2925ZM24.5775 34.375C25.1779 33.8515 25.6455 33.1931 25.9419 32.4537L26.8106 30.2819L32.3731 30.5912V34.375H24.5775Z" fill="black"/>
<path d="M18 22.5V23.75C18.1658 23.75 18.3247 23.8158 18.4419 23.9331C18.5592 24.0503 18.625 24.2092 18.625 24.375C18.625 24.5408 18.5592 24.6997 18.4419 24.8169C18.3247 24.9342 18.1658 25 18 25V26.25C18.4973 26.25 18.9742 26.0525 19.3258 25.7008C19.6775 25.3492 19.875 24.8723 19.875 24.375C19.875 23.8777 19.6775 23.4008 19.3258 23.0492C18.9742 22.6975 18.4973 22.5 18 22.5ZM18.625 17.5V18.75C18.7908 18.75 18.9497 18.8158 19.0669 18.9331C19.1842 19.0503 19.25 19.2092 19.25 19.375C19.25 19.5408 19.1842 19.6997 19.0669 19.8169C18.9497 19.9342 18.7908 20 18.625 20V21.25C19.1223 21.25 19.5992 21.0525 19.9508 20.7008C20.3025 20.3492 20.5 19.8723 20.5 19.375C20.5 18.8777 20.3025 18.4008 19.9508 18.0492C19.5992 17.6975 19.1223 17.5 18.625 17.5ZM23.625 20.625H24.875V23.75H23.625V20.625ZM21.2619 10.8594C21.1883 10.9513 21.1421 11.0622 21.1288 11.1792C21.1154 11.2962 21.1354 11.4146 21.1865 11.5207C21.2375 11.6269 21.3174 11.7165 21.4171 11.7791C21.5168 11.8418 21.6322 11.875 21.75 11.875H24.875V10.625H23.0506L24.7381 8.51562C24.8117 8.42369 24.8579 8.31283 24.8712 8.19582C24.8846 8.07881 24.8646 7.96041 24.8135 7.85426C24.7625 7.74811 24.6826 7.65854 24.5829 7.59586C24.4832 7.53319 24.3678 7.49996 24.25 7.5H21.125V8.75H22.9494L21.2619 10.8594ZM25.5 5.625H31.125V4.375H27.375L30.875 1.75C30.9799 1.67129 31.0575 1.56156 31.0966 1.43635C31.1357 1.31114 31.1344 1.1768 31.0929 1.05236C31.0514 0.927913 30.9719 0.819674 30.8654 0.742974C30.759 0.666273 30.6312 0.625 30.5 0.625H25.5V1.875H28.625L25.125 4.5C25.0201 4.57871 24.9425 4.68844 24.9034 4.81365C24.8643 4.93886 24.8656 5.0732 24.9071 5.19764C24.9486 5.32209 25.0281 5.43033 25.1346 5.50703C25.241 5.58373 25.3688 5.625 25.5 5.625Z" fill="black"/>
</svg>
