<svg width="155" height="150" viewBox="0 0 155 150" fill="none" xmlns="http://www.w3.org/2000/svg">
<g clip-path="url(#clip0_128_286)">
<rect width="155" height="150" rx="75" fill="url(#paint0_linear_128_286)"/>
<path d="M83.1131 24.85C81.0464 16.1 90.846 9.38546 100.938 13.995C124.705 24.85 110.913 41.1 102.388 39.35C93.8634 37.6 85.1798 33.6 83.1131 24.85Z" fill="url(#paint1_linear_128_286)"/>
<path d="M88.8664 79.9998C77.7668 85.1603 76.1476 84.8838 51.6663 65.4998C14.7247 36.2498 49.5997 9.49982 87.058 23.7498C127.616 40.9998 114.029 68.3033 88.8664 79.9998Z" fill="url(#paint2_linear_128_286)"/>
<path d="M89.9004 100.5C86.1117 108.5 81.2891 112.5 77.5004 112.5C73.7117 112.5 68.8891 108.5 65.1004 100.5V90.5C65.1004 90.5 63.4145 90.55 62.2587 90.5C50.1734 90 46.1351 71.1865 48.0318 52.369C49.4206 38.588 61.4837 57.5 81.117 44.25C80.342 58.75 86.8004 57.25 89.642 55.5C102.559 49.75 102.817 73.25 90.0507 71.429C90.0538 71.679 90.0037 81.3693 89.9004 100.5Z" fill="url(#paint3_linear_128_286)"/>
<path d="M65.1001 90.4995C69.7501 90.1661 75.5426 87.6495 82.4777 82.9495C80.3524 90.0318 74.5599 94.2151 65.1001 95.4995V90.4995Z" fill="#FF9768"/>
<path d="M60.8281 103.409C60.8281 103.409 61.6077 98.2 63.4357 97.754C65.2637 97.308 75.9473 97.254 75.9566 99.254C75.9566 99.621 76.3245 103.554 77.5428 103.554C78.7611 103.554 79.0742 99.619 79.0762 99.254C79.086 97.254 89.7077 97.331 91.5971 97.754C93.4866 98.177 94.197 103.415 94.197 103.415C94.197 103.415 122.097 116.129 125.033 121.556C127.559 126.222 129.453 137.056 130.717 154.056H24.2832C25.5463 137.056 27.4407 126.222 29.9665 121.556C32.9028 116.131 60.8281 103.409 60.8281 103.409Z" fill="url(#paint4_linear_128_286)"/>
<path d="M75.4331 137.5C75.4331 137.104 75.5543 136.718 75.7814 136.389C76.0085 136.06 76.3313 135.804 76.7089 135.652C77.0865 135.501 77.5021 135.461 77.903 135.538C78.3039 135.616 78.6721 135.806 78.9611 136.086C79.2502 136.365 79.447 136.722 79.5267 137.11C79.6065 137.498 79.5655 137.9 79.4091 138.265C79.2527 138.631 78.9878 138.943 78.6479 139.163C78.3081 139.383 77.9085 139.5 77.4998 139.5C76.9517 139.5 76.426 139.289 76.0384 138.914C75.6508 138.539 75.4331 138.03 75.4331 137.5ZM75.4331 127.5C75.4331 127.104 75.5543 126.718 75.7814 126.389C76.0085 126.06 76.3313 125.804 76.7089 125.652C77.0865 125.501 77.5021 125.461 77.903 125.538C78.3039 125.616 78.6721 125.806 78.9611 126.086C79.2502 126.365 79.447 126.722 79.5267 127.11C79.6065 127.498 79.5655 127.9 79.4091 128.265C79.2527 128.631 78.9878 128.943 78.6479 129.163C78.3081 129.383 77.9085 129.5 77.4998 129.5C76.9517 129.5 76.426 129.289 76.0384 128.914C75.6508 128.539 75.4331 128.03 75.4331 127.5ZM75.4331 117.5C75.4331 117.104 75.5543 116.718 75.7814 116.389C76.0085 116.06 76.3313 115.804 76.7089 115.652C77.0865 115.501 77.5021 115.461 77.903 115.538C78.3039 115.616 78.6721 115.806 78.9611 116.086C79.2502 116.365 79.447 116.722 79.5267 117.11C79.6065 117.498 79.5655 117.9 79.4091 118.265C79.2527 118.631 78.9878 118.943 78.6479 119.163C78.3081 119.383 77.9085 119.5 77.4998 119.5C76.9517 119.5 76.426 119.289 76.0384 118.914C75.6508 118.539 75.4331 118.03 75.4331 117.5Z" fill="#664F4D"/>
<path d="M82.9715 39.7139C74.7048 59.7139 79.3548 69.4639 85.8132 81.2139C92.2715 92.9639 84.2632 103.964 84.2632 103.964C84.2632 103.964 93.5632 98.2139 93.5632 85.4639C93.5632 72.7139 84.2632 64.7139 92.0132 54.2139C99.7632 43.7139 91.2382 19.7139 82.9715 39.7139Z" fill="url(#paint5_linear_128_286)"/>
</g>
<defs>
<linearGradient id="paint0_linear_128_286" x1="77.5" y1="0" x2="77.5" y2="150" gradientUnits="userSpaceOnUse">
<stop stop-color="#806A6A"/>
<stop offset="1" stop-color="#665654"/>
</linearGradient>
<linearGradient id="paint1_linear_128_286" x1="98.509" y1="12.4976" x2="98.509" y2="39.4804" gradientUnits="userSpaceOnUse">
<stop stop-color="#1D0024"/>
<stop offset="1" stop-color="#100014"/>
</linearGradient>
<linearGradient id="paint2_linear_128_286" x1="74.3708" y1="19.8035" x2="74.3708" y2="82.8417" gradientUnits="userSpaceOnUse">
<stop stop-color="#1D0024"/>
<stop offset="1" stop-color="#100014"/>
</linearGradient>
<linearGradient id="paint3_linear_128_286" x1="73.5323" y1="44.25" x2="73.5323" y2="112.5" gradientUnits="userSpaceOnUse">
<stop stop-color="#F7B186"/>
<stop offset="1" stop-color="#FFC299"/>
</linearGradient>
<linearGradient id="paint4_linear_128_286" x1="77.4999" y1="154.056" x2="77.4999" y2="97.5002" gradientUnits="userSpaceOnUse">
<stop stop-color="#FCF2EB"/>
<stop offset="1" stop-color="#FFF9F5"/>
</linearGradient>
<linearGradient id="paint5_linear_128_286" x1="86.7959" y1="32" x2="86.7959" y2="103.964" gradientUnits="userSpaceOnUse">
<stop stop-color="#1D0024"/>
<stop offset="1" stop-color="#100014"/>
</linearGradient>
<clipPath id="clip0_128_286">
<rect width="155" height="150" rx="75" fill="white"/>
</clipPath>
</defs>
</svg>
