<svg width="300" height="225" viewBox="0 0 300 225" fill="none" xmlns="http://www.w3.org/2000/svg">
<path d="M300 197.727H0V197.878H300V197.727Z" fill="#EBEBEB"/>
<path d="M69.1982 203.476H54.2762V203.627H69.1982V203.476Z" fill="#EBEBEB"/>
<path d="M107.898 201.839H91.398V201.99H107.898V201.839Z" fill="#EBEBEB"/>
<path d="M63.4681 209.086H28.6021V209.237H63.4681V209.086Z" fill="#EBEBEB"/>
<path d="M269.94 208.072H256.98V208.223H269.94V208.072Z" fill="#EBEBEB"/>
<path d="M145.632 203.005H128.874V203.156H145.632V203.005Z" fill="#EBEBEB"/>
<path d="M222.534 205.523H180.402V205.674H222.534V205.523Z" fill="#EBEBEB"/>
<path d="M142.2 170.791H26.3461C25.4385 170.79 24.5686 170.426 23.9274 169.779C23.2862 169.133 22.9261 168.256 22.9261 167.343V3.41824C22.934 2.50995 23.2976 1.64147 23.938 1.00145C24.5783 0.361427 25.4437 0.00155596 26.3461 0H142.2C143.109 0 143.98 0.363317 144.623 1.01002C145.265 1.65673 145.626 2.53385 145.626 3.44844V167.343C145.626 168.257 145.265 169.135 144.623 169.781C143.98 170.428 143.109 170.791 142.2 170.791ZM26.3461 0.120786C25.4783 0.122386 24.6466 0.4705 24.0335 1.08872C23.4204 1.70694 23.0761 2.54475 23.0761 3.41824V167.343C23.0761 168.216 23.4204 169.054 24.0335 169.672C24.6466 170.291 25.4783 170.639 26.3461 170.64H142.2C143.068 170.639 143.901 170.291 144.515 169.673C145.129 169.055 145.475 168.217 145.476 167.343V3.41824C145.475 2.54419 145.129 1.7064 144.515 1.08835C143.901 0.470304 143.068 0.122383 142.2 0.120786H26.3461Z" fill="#EBEBEB"/>
<path d="M271.986 170.791H156.126C155.218 170.79 154.347 170.426 153.705 169.779C153.063 169.133 152.702 168.257 152.7 167.343V3.41824C152.709 2.5094 153.074 1.64092 153.716 1.00107C154.357 0.361215 155.223 0.00153899 156.126 0H271.986C272.887 0.00314315 273.751 0.363716 274.39 1.00357C275.029 1.64342 275.392 2.51099 275.4 3.41824V167.343C275.4 168.255 275.041 169.131 274.401 169.777C273.761 170.423 272.892 170.788 271.986 170.791ZM156.126 0.120786C155.258 0.122383 154.425 0.470304 153.811 1.08835C153.197 1.7064 152.852 2.54419 152.85 3.41824V167.343C152.852 168.217 153.197 169.055 153.811 169.673C154.425 170.291 155.258 170.639 156.126 170.64H271.986C272.854 170.639 273.687 170.291 274.301 169.673C274.915 169.055 275.26 168.217 275.262 167.343V3.41824C275.26 2.54419 274.915 1.7064 274.301 1.08835C273.687 0.470304 272.854 0.122383 271.986 0.120786H156.126Z" fill="#EBEBEB"/>
<path d="M192.612 5.80981H19.1099C16.2601 5.80981 13.9499 8.13515 13.9499 11.0036V118.557C13.9499 121.426 16.2601 123.751 19.1099 123.751H192.612C195.462 123.751 197.772 121.426 197.772 118.557V11.0036C197.772 8.13515 195.462 5.80981 192.612 5.80981Z" fill="#EBEBEB"/>
<path d="M197.772 11.7767H13.9499V106.847H197.772V11.7767Z" fill="#FAFAFA"/>
<path d="M138.762 47.795C138.765 46.6187 139.231 45.4915 140.057 44.6597C140.884 43.828 142.003 43.3593 143.172 43.3561H280.572C281.741 43.3593 282.861 43.828 283.687 44.6597C284.513 45.4915 284.979 46.6187 284.982 47.795V62.0839H138.762V47.795Z" fill="#E6E6E6"/>
<path d="M174.426 56.0809C176.269 56.0809 177.762 54.5775 177.762 52.723C177.762 50.8685 176.269 49.3652 174.426 49.3652C172.584 49.3652 171.09 50.8685 171.09 52.723C171.09 54.5775 172.584 56.0809 174.426 56.0809Z" fill="white"/>
<path d="M162.606 56.0809C164.448 56.0809 165.942 54.5775 165.942 52.723C165.942 50.8685 164.448 49.3652 162.606 49.3652C160.764 49.3652 159.27 50.8685 159.27 52.723C159.27 54.5775 160.764 56.0809 162.606 56.0809Z" fill="white"/>
<path d="M150.792 56.0809C152.635 56.0809 154.128 54.5775 154.128 52.723C154.128 50.8685 152.635 49.3652 150.792 49.3652C148.95 49.3652 147.456 50.8685 147.456 52.723C147.456 54.5775 148.95 56.0809 150.792 56.0809Z" fill="white"/>
<path d="M280.554 139.025H143.154C141.985 139.021 140.865 138.553 140.039 137.721C139.213 136.889 138.747 135.762 138.744 134.586V62.1141H284.964V134.586C284.961 135.762 284.495 136.889 283.669 137.721C282.842 138.553 281.723 139.021 280.554 139.025Z" fill="#F5F5F5"/>
<path d="M119.13 72.5138C119.133 71.3376 119.599 70.2104 120.425 69.3786C121.251 68.5468 122.371 68.0781 123.54 68.075H260.94C262.108 68.0781 263.228 68.5468 264.055 69.3786C264.881 70.2104 265.347 71.3376 265.35 72.5138V86.8028H119.13V72.5138Z" fill="#F0F0F0"/>
<path d="M154.788 80.7996C156.631 80.7996 158.124 79.2963 158.124 77.4418C158.124 75.5873 156.631 74.0839 154.788 74.0839C152.946 74.0839 151.452 75.5873 151.452 77.4418C151.452 79.2963 152.946 80.7996 154.788 80.7996Z" fill="#E6E6E6"/>
<path d="M142.968 80.7996C144.811 80.7996 146.304 79.2963 146.304 77.4418C146.304 75.5873 144.811 74.0839 142.968 74.0839C141.126 74.0839 139.632 75.5873 139.632 77.4418C139.632 79.2963 141.126 80.7996 142.968 80.7996Z" fill="#E6E6E6"/>
<path d="M131.154 80.7996C132.996 80.7996 134.49 79.2963 134.49 77.4418C134.49 75.5873 132.996 74.0839 131.154 74.0839C129.311 74.0839 127.818 75.5873 127.818 77.4418C127.818 79.2963 129.311 80.7996 131.154 80.7996Z" fill="#E6E6E6"/>
<path d="M260.916 163.743H123.516C122.347 163.74 121.227 163.272 120.401 162.44C119.575 161.608 119.109 160.481 119.106 159.305V86.833H265.326V159.305C265.323 160.481 264.857 161.608 264.031 162.44C263.204 163.272 262.085 163.74 260.916 163.743Z" fill="#FAFAFA"/>
<path d="M99.492 97.2325C99.4952 96.0562 99.9608 94.929 100.787 94.0973C101.614 93.2655 102.733 92.7968 103.902 92.7936H241.302C242.471 92.7968 243.59 93.2655 244.417 94.0973C245.243 94.929 245.709 96.0562 245.712 97.2325V111.521H99.492V97.2325Z" fill="#FAFAFA"/>
<path d="M135.15 105.519C136.992 105.519 138.486 104.015 138.486 102.161C138.486 100.306 136.992 98.8029 135.15 98.8029C133.308 98.8029 131.814 100.306 131.814 102.161C131.814 104.015 133.308 105.519 135.15 105.519Z" fill="#F0F0F0"/>
<path d="M123.33 105.519C125.172 105.519 126.666 104.015 126.666 102.161C126.666 100.306 125.172 98.8029 123.33 98.8029C121.487 98.8029 119.994 100.306 119.994 102.161C119.994 104.015 121.487 105.519 123.33 105.519Z" fill="#F0F0F0"/>
<path d="M111.516 105.519C113.358 105.519 114.852 104.015 114.852 102.161C114.852 100.306 113.358 98.8029 111.516 98.8029C109.674 98.8029 108.18 100.306 108.18 102.161C108.18 104.015 109.674 105.519 111.516 105.519Z" fill="#F0F0F0"/>
<path d="M241.278 188.462H103.878C102.709 188.459 101.59 187.99 100.763 187.159C99.9369 186.327 99.4712 185.2 99.468 184.023V111.552H245.688V184.023C245.685 185.2 245.219 186.327 244.393 187.159C243.567 187.99 242.447 188.459 241.278 188.462Z" fill="#E6E6E6"/>
<path d="M150 225C214.249 225 266.334 221.939 266.334 218.163C266.334 214.388 214.249 211.327 150 211.327C85.7505 211.327 33.666 214.388 33.666 218.163C33.666 221.939 85.7505 225 150 225Z" fill="#F5F5F5"/>
<path d="M114.696 16.6079H109.398V17.2118H114.696V16.6079Z" fill="#AD4C4C"/>
<path d="M103.104 16.6079H90.1021V17.2118H103.104V16.6079Z" fill="#AD4C4C"/>
<path d="M54.1982 18.7217H245.802C247.712 18.7217 249.543 19.4853 250.893 20.8444C252.244 22.2035 253.002 24.0468 253.002 25.9689V192.484H46.9982V25.9689C46.9982 24.0468 47.7568 22.2035 49.1071 20.8444C50.4573 19.4853 52.2887 18.7217 54.1982 18.7217Z" fill="#AD4C4C"/>
<path opacity="0.8" d="M252.996 29.5925H46.9982V189.67H252.996V29.5925Z" fill="white"/>
<path opacity="0.4" d="M252.996 29.5925H46.9982V64.7834H252.996V29.5925Z" fill="#AD4C4C"/>
<path opacity="0.4" d="M248.748 32.9564H240.15V41.6107H248.748V32.9564Z" fill="#AD4C4C"/>
<path opacity="0.4" d="M235.992 32.9564H227.394V41.6107H235.992V32.9564Z" fill="#AD4C4C"/>
<path opacity="0.4" d="M223.236 32.9564H214.638V41.6107H223.236V32.9564Z" fill="#AD4C4C"/>
<path opacity="0.4" d="M85.974 183.896H77.376V184.766H85.974V183.896Z" fill="#AD4C4C"/>
<path opacity="0.4" d="M73.2183 183.896H64.6203V184.766H73.2183V183.896Z" fill="#AD4C4C"/>
<path opacity="0.4" d="M60.4622 183.896H51.8642V184.766H60.4622V183.896Z" fill="#AD4C4C"/>
<path d="M129.414 49.6429H126.792L126.426 50.887H124.068L126.876 43.356H129.402L132.21 50.887H129.81L129.414 49.6429ZM128.934 48.0183L128.112 45.2946L127.29 48.0063L128.934 48.0183Z" fill="white"/>
<path d="M132.816 43.356H134.916V45.965C135.112 45.7529 135.352 45.5861 135.618 45.4758C135.896 45.3625 136.194 45.3051 136.494 45.3067C136.802 45.2995 137.109 45.3601 137.392 45.4842C137.675 45.6083 137.927 45.793 138.132 46.0254C138.598 46.6051 138.83 47.3407 138.78 48.0848C138.791 48.6231 138.691 49.1578 138.486 49.655C138.318 50.0691 138.032 50.4241 137.664 50.6756C137.318 50.8978 136.916 51.0132 136.506 51.0078C136.158 51.0117 135.814 50.9309 135.504 50.7723C135.212 50.5935 134.959 50.3573 134.76 50.0778V50.887H132.816V43.356ZM134.898 48.1452C134.869 48.5056 134.962 48.8654 135.162 49.1658C135.242 49.2656 135.344 49.3457 135.459 49.4001C135.574 49.4545 135.701 49.4818 135.828 49.4799C135.945 49.4771 136.06 49.4473 136.164 49.3929C136.268 49.3385 136.358 49.2608 136.428 49.1658C136.624 48.8551 136.713 48.4877 136.68 48.121C136.705 47.7862 136.618 47.4526 136.434 47.1729C136.363 47.0798 136.273 47.0042 136.169 46.9518C136.065 46.8995 135.95 46.8718 135.834 46.8709C135.703 46.8661 135.572 46.892 135.452 46.9465C135.333 47.001 135.227 47.0826 135.144 47.1849C134.952 47.4657 134.865 47.8059 134.898 48.1452Z" fill="white"/>
<path d="M139.518 48.1754C139.507 47.7921 139.576 47.4108 139.721 47.056C139.866 46.7013 140.083 46.3811 140.358 46.116C140.663 45.8358 141.02 45.6191 141.408 45.4781C141.796 45.3372 142.208 45.2748 142.62 45.2947C143.074 45.2626 143.529 45.3314 143.953 45.4963C144.377 45.6613 144.76 45.9182 145.074 46.2489C145.535 46.8104 145.773 47.5231 145.745 48.2507C145.716 48.9783 145.422 49.6697 144.918 50.1925C144.607 50.4722 144.243 50.6872 143.849 50.825C143.454 50.9628 143.037 51.0209 142.62 50.9958C141.861 51.0301 141.113 50.795 140.508 50.3314C140.19 50.0727 139.935 49.7437 139.763 49.3698C139.591 48.9959 139.508 48.5872 139.518 48.1754ZM141.6 48.1754C141.572 48.5591 141.676 48.9408 141.894 49.2564C141.985 49.3636 142.099 49.4496 142.226 49.5086C142.353 49.5676 142.492 49.5981 142.632 49.5981C142.772 49.5981 142.911 49.5676 143.038 49.5086C143.166 49.4496 143.279 49.3636 143.37 49.2564C143.59 48.9324 143.691 48.542 143.658 48.1512C143.694 47.7835 143.603 47.4147 143.4 47.1064C143.314 46.9983 143.204 46.9112 143.079 46.8516C142.955 46.792 142.818 46.7614 142.68 46.7622C142.537 46.7584 142.394 46.7881 142.264 46.8488C142.134 46.9096 142.02 46.9998 141.93 47.1125C141.701 47.415 141.584 47.789 141.6 48.1694V48.1754Z" fill="white"/>
<path d="M152.454 50.887H150.516V50.0053C150.281 50.3219 149.983 50.5853 149.64 50.7783C149.302 50.9432 148.929 51.022 148.554 51.0078C148.307 51.022 148.059 50.9836 147.828 50.8952C147.596 50.8067 147.386 50.6702 147.21 50.4945C146.852 50.0473 146.678 49.4787 146.724 48.9061V45.4335H148.8V48.4532C148.775 48.7112 148.841 48.9698 148.986 49.1839C149.054 49.2578 149.136 49.3156 149.229 49.3532C149.321 49.3908 149.421 49.4072 149.52 49.4014C149.636 49.4028 149.75 49.3774 149.854 49.3271C149.958 49.2768 150.049 49.203 150.12 49.1115C150.313 48.8041 150.398 48.4403 150.36 48.0787V45.4577H152.436L152.454 50.887Z" fill="white"/>
<path d="M156.222 43.356V45.4335H157.362V46.9615H156.222V48.9182C156.207 49.0763 156.23 49.2356 156.288 49.3832C156.326 49.4418 156.379 49.4886 156.441 49.5185C156.504 49.5484 156.573 49.5601 156.642 49.5523C156.862 49.5406 157.078 49.4958 157.284 49.4195L157.44 50.8629C156.968 50.9716 156.485 51.0283 156 51.032C155.61 51.0568 155.219 50.9885 154.86 50.8327C154.614 50.7013 154.421 50.4877 154.314 50.2287C154.173 49.803 154.114 49.3541 154.14 48.9061V46.9856H153.372V45.4577H154.14V44.4552L156.222 43.356Z" fill="white"/>
<path d="M166.842 43.3561H169.146V47.8433C169.15 48.2726 169.081 48.6994 168.942 49.1055C168.807 49.4946 168.585 49.8476 168.294 50.1382C168.032 50.4024 167.717 50.6081 167.37 50.7421C166.848 50.9175 166.3 51.0013 165.75 50.9897C165.349 50.9888 164.948 50.9626 164.55 50.9112C164.177 50.8774 163.813 50.775 163.476 50.6093C163.17 50.4474 162.899 50.2256 162.678 49.957C162.456 49.7073 162.288 49.413 162.186 49.0934C162.055 48.6811 161.985 48.2519 161.976 47.8191V43.3319H164.28V47.9278C164.27 48.1023 164.295 48.277 164.353 48.4418C164.41 48.6066 164.5 48.7583 164.616 48.8881C164.742 49.0067 164.89 49.0983 165.052 49.1575C165.214 49.2167 165.386 49.2421 165.558 49.2323C165.729 49.2439 165.9 49.2198 166.061 49.1616C166.222 49.1034 166.37 49.0123 166.494 48.8941C166.613 48.7647 166.705 48.6123 166.764 48.4462C166.822 48.2801 166.847 48.1038 166.836 47.9278L166.842 43.3561Z" fill="white"/>
<path d="M170.172 49.3712L172.236 49.1779C172.294 49.387 172.419 49.5714 172.59 49.7033C172.769 49.817 172.978 49.8739 173.19 49.8664C173.42 49.882 173.649 49.8181 173.838 49.6852C173.893 49.6492 173.938 49.6 173.97 49.542C174.001 49.484 174.018 49.4191 174.018 49.3531C174.017 49.2781 173.994 49.2051 173.953 49.1429C173.911 49.0807 173.853 49.0321 173.784 49.0028C173.494 48.8992 173.195 48.8264 172.89 48.7854C172.381 48.7113 171.879 48.5941 171.39 48.4351C171.108 48.3252 170.862 48.1367 170.682 47.8916C170.487 47.6399 170.383 47.3289 170.388 47.0098C170.383 46.6748 170.493 46.3482 170.7 46.0858C170.925 45.8088 171.222 45.5999 171.558 45.4819C172.033 45.3386 172.527 45.2733 173.022 45.2886C173.505 45.2715 173.987 45.3224 174.456 45.4396C174.746 45.5297 175.009 45.6893 175.224 45.9046C175.452 46.1475 175.628 46.4354 175.74 46.7501L173.766 46.9434C173.731 46.7883 173.641 46.6512 173.514 46.5569C173.335 46.4425 173.126 46.3856 172.914 46.3938C172.735 46.3792 172.556 46.4238 172.404 46.5206C172.355 46.5553 172.314 46.6013 172.286 46.6549C172.258 46.7084 172.243 46.768 172.242 46.8286C172.242 46.8937 172.262 46.9572 172.298 47.0111C172.334 47.0649 172.386 47.1065 172.446 47.1306C172.733 47.2303 173.031 47.2912 173.334 47.3118C173.861 47.352 174.379 47.4638 174.876 47.6439C175.187 47.7647 175.456 47.9747 175.65 48.2479C175.823 48.4998 175.915 48.7991 175.914 49.1055C175.91 49.4323 175.812 49.751 175.632 50.0234C175.412 50.3456 175.1 50.5938 174.738 50.7361C174.206 50.9312 173.642 51.0195 173.076 50.9958C172.347 51.0549 171.615 50.9085 170.964 50.573C170.555 50.2912 170.271 49.8601 170.172 49.3712Z" fill="white"/>
<path d="M89.5081 132.937C106.077 132.937 119.508 119.417 119.508 102.74C119.508 86.0632 106.077 72.5438 89.5081 72.5438C72.9396 72.5438 59.5081 86.0632 59.5081 102.74C59.5081 119.417 72.9396 132.937 89.5081 132.937Z" fill="#AD4C4C"/>
<path d="M109.606 122.968C120.705 111.796 120.705 93.6822 109.606 82.5101C98.5063 71.3379 80.5105 71.3379 69.411 82.5101C58.3115 93.6822 58.3115 111.796 69.411 122.968C80.5105 134.14 98.5063 134.14 109.606 122.968Z" fill="white"/>
<mask id="mask0_65_89" style="mask-type:luminance" maskUnits="userSpaceOnUse" x="61" y="74" width="57" height="58">
<path d="M109.606 122.968C120.705 111.796 120.705 93.6821 109.606 82.5099C98.5063 71.3378 80.5105 71.3378 69.411 82.5099C58.3115 93.6821 58.3115 111.796 69.411 122.968C80.5105 134.14 98.5063 134.14 109.606 122.968Z" fill="white"/>
</mask>
<g mask="url(#mask0_65_89)">
<path d="M90.9601 108.707L93.3601 103.682C93.3601 103.682 105.888 107.668 107.76 108.592C107.712 105.44 109.308 99.5335 109.482 96.2964C109.956 95.8435 111.102 94.702 111.696 94.7443C113.496 98.9718 113.106 113.466 109.566 113.726C103.908 114.088 90.9601 108.707 90.9601 108.707Z" fill="#B55B52"/>
<path d="M89.4003 107.922C90.8463 111.334 102.72 114.372 102.72 114.372L105.12 107.028C105.12 107.028 100.596 103.574 95.8983 102.457C91.0923 101.303 87.8043 104.178 89.4003 107.922Z" fill="#AD4C4C"/>
<path opacity="0.2" d="M89.6102 108.321C91.0202 110.465 96.2642 112.409 99.6782 113.49C97.4042 109.045 94.3382 106.593 89.6102 108.321Z" fill="black"/>
<path d="M109.47 96.9367L107.556 94.4667L111.096 92.4797C111.793 93.5402 112.151 94.7899 112.122 96.061L109.47 96.9367Z" fill="#B55B52"/>
<path d="M107.034 91.0484L110.484 90.4868L111.096 92.4797L107.556 94.4666L107.034 91.0484Z" fill="#B55B52"/>
<path d="M96.1862 102.704C96.1862 102.704 101.022 114.42 97.2302 136.252H78.3302C78.1082 133.064 79.7222 117.531 76.3022 102.505C78.5745 102.059 80.8735 101.765 83.1842 101.623C86.1038 101.454 89.0307 101.454 91.9502 101.623C95.0102 101.907 96.1862 102.704 96.1862 102.704Z" fill="#AD4C4C"/>
<path opacity="0.2" d="M80.8681 106.207C81.2761 108.683 80.6461 114.595 78.4681 121.426C78.3601 115.573 77.7417 109.741 76.6201 103.997C78.0001 103.827 80.4841 103.876 80.8681 106.207Z" fill="black"/>
<path d="M84.1262 93.3734C84.7262 96.2119 85.1102 99.7328 83.1842 101.623C83.1842 101.623 84.3842 104.504 89.6282 104.504C94.4282 104.504 91.9502 101.623 91.9502 101.623C88.7882 100.868 88.8542 96.9547 89.3522 94.7443L84.1262 93.3734Z" fill="#B55B52"/>
<path d="M89.8741 104.274L91.0141 105.543C91.0526 105.586 91.0794 105.639 91.092 105.696C91.1046 105.753 91.1026 105.813 91.0861 105.869L90.7201 106.986C90.6995 107.047 90.661 107.101 90.6096 107.14C90.5582 107.178 90.4963 107.201 90.4321 107.203L89.2321 107.264C89.1741 107.267 89.1163 107.255 89.0646 107.229C89.0128 107.202 88.9691 107.162 88.9381 107.113L88.2001 106.032C88.1567 105.973 88.1333 105.902 88.1333 105.829C88.1333 105.757 88.1567 105.686 88.2001 105.627L89.4001 104.274C89.463 104.211 89.5483 104.176 89.6371 104.176C89.7259 104.176 89.8111 104.211 89.8741 104.274Z" fill="white"/>
<path d="M89.628 103.996C89.0462 104.977 88.7239 106.092 88.6921 107.234C88.6921 107.234 82.092 104.902 82.29 101.484C82.29 101.484 83.208 100.929 83.79 100.476C83.79 100.476 84.066 102.632 89.628 103.996Z" fill="#263238"/>
<path d="M89.6283 103.997C90.2512 104.915 90.7082 105.938 90.9783 107.016C90.9783 107.016 93.9063 104.987 92.9283 101.611C92.3785 101.389 91.8129 101.21 91.2363 101.074C91.2363 101.074 91.6803 103.272 89.6283 103.997Z" fill="#263238"/>
<path d="M90.1621 107.028C90.1621 107.028 92.0401 120.919 92.0821 123.334C92.0566 125.621 91.6988 127.892 91.0201 130.074C91.0201 130.074 89.7301 127.616 89.5081 123.232C89.2861 118.847 89.5561 109.486 89.4601 107.022L90.1621 107.028Z" fill="white"/>
<path opacity="0.2" d="M89.3521 94.7504C88.9658 96.2867 89.0115 97.901 89.4841 99.4127C88.9958 99.3367 88.5209 99.1903 88.0741 98.9779C86.2741 98.1324 85.3681 96.8098 84.4141 94.847C84.3301 94.3397 84.2341 93.8505 84.1321 93.3734L89.3521 94.7504Z" fill="black"/>
<path d="M94.326 92.7574C94.1126 93.181 93.8168 93.5571 93.456 93.8631C93.0952 94.1692 92.6769 94.3991 92.226 94.539C91.026 94.8953 90.372 93.7901 90.672 92.6125C90.948 91.5496 91.872 90.088 93.132 90.239C93.4025 90.2802 93.6588 90.3874 93.8786 90.5513C94.0984 90.7152 94.2749 90.9309 94.3928 91.1794C94.5106 91.4279 94.5661 91.7017 94.5545 91.9768C94.5428 92.2519 94.4644 92.5199 94.326 92.7574Z" fill="#B55B52"/>
<path opacity="0.2" d="M94.326 92.7574C94.1126 93.181 93.8168 93.5571 93.456 93.8631C93.0952 94.1692 92.6769 94.3991 92.226 94.539C91.026 94.8953 90.372 93.7901 90.672 92.6125C90.948 91.5496 91.872 90.088 93.132 90.239C93.4025 90.2802 93.6588 90.3874 93.8786 90.5513C94.0984 90.7152 94.2749 90.9309 94.3928 91.1794C94.5106 91.4279 94.5661 91.7017 94.5545 91.9768C94.5428 92.2519 94.4644 92.5199 94.326 92.7574Z" fill="black"/>
<path d="M90.8463 90.2995C92.0463 91.4047 94.2363 85.3412 91.7823 83.6563C89.3283 81.9713 88.4703 84.2602 88.5123 85.6553C88.5543 87.0503 89.0343 88.6628 90.8463 90.2995Z" fill="#263238"/>
<path d="M82.6501 89.2787C83.2141 93.1197 83.3521 95.3965 85.4341 97.2506C88.5601 100.035 93.0781 97.9451 93.6481 94.0317C94.1641 90.5047 93.1561 84.8097 89.3221 83.5233C88.4825 83.2361 87.5831 83.1739 86.7124 83.3429C85.8417 83.5119 85.0297 83.9062 84.3564 84.487C83.6831 85.0678 83.1717 85.8151 82.8725 86.6553C82.5733 87.4955 82.4966 88.3997 82.6501 89.2787Z" fill="#B55B52"/>
<path d="M82.4101 92.54C83.0701 92.9688 83.9761 94.1283 85.3381 92.0749C85.3381 91.5435 84.0001 90.6497 83.8981 89.3935C83.7781 87.932 83.4601 86.3738 82.2841 85.8605C79.6021 84.6526 79.1101 86.9717 79.3741 88.3608C79.6381 89.7498 80.3641 91.1932 82.4101 92.54Z" fill="#263238"/>
<path d="M82.0502 87.2134C88.3802 86.2229 92.1182 86.0055 94.0202 83.62C95.9222 81.2345 93.0002 78.2813 89.8202 77.9431C89.5922 79.1871 86.3702 82.4604 81.4202 83.8797C81.1446 83.956 80.8967 84.1105 80.7061 84.3249C80.5154 84.5392 80.3902 84.8043 80.3453 85.0883C80.3003 85.3724 80.3376 85.6635 80.4527 85.9269C80.5678 86.1902 80.7557 86.4146 80.9942 86.5732C81.6002 86.9658 82.0502 87.2134 82.0502 87.2134Z" fill="#263238"/>
<path d="M81.3122 93.6513C81.8888 94.4398 82.7513 94.9672 83.7122 95.1189C84.9662 95.3121 85.4162 94.1344 84.9122 93.0111C84.4622 91.9965 83.2682 90.68 82.0802 91.0001C80.8922 91.3201 80.6102 92.679 81.3122 93.6513Z" fill="#B55B52"/>
<path d="M88.476 89.9855C88.476 90.2995 88.692 90.5471 88.89 90.529C89.088 90.5109 89.232 90.2512 89.208 89.9251C89.184 89.599 88.998 89.3695 88.794 89.3816C88.59 89.3936 88.452 89.6473 88.476 89.9855Z" fill="#263238"/>
<path d="M91.9563 89.7258C91.9863 90.0398 92.1723 90.2814 92.3703 90.2693C92.5683 90.2572 92.7123 89.9915 92.6883 89.6654C92.6643 89.3392 92.4723 89.1037 92.2743 89.1218C92.0763 89.1399 91.9323 89.4117 91.9563 89.7258Z" fill="#263238"/>
<path d="M90.8642 89.9854C91.3144 90.9219 91.8876 91.7933 92.5682 92.5763C92.3704 92.7438 92.138 92.8649 91.8879 92.9307C91.6377 92.9966 91.3762 93.0054 91.1222 92.9567L90.8642 89.9854Z" fill="#A02724"/>
<path d="M90.3001 93.8567C90.3117 93.856 90.3231 93.8528 90.3334 93.8475C90.3438 93.8421 90.3529 93.8347 90.3602 93.8256C90.3675 93.8165 90.3729 93.806 90.376 93.7947C90.3791 93.7834 90.3798 93.7716 90.3781 93.7601C90.3774 93.7481 90.3743 93.7365 90.369 93.7258C90.3638 93.7151 90.3565 93.7056 90.3476 93.6977C90.3387 93.6898 90.3283 93.6838 90.3171 93.68C90.3058 93.6762 90.294 93.6747 90.2821 93.6755C89.8959 93.7083 89.5074 93.6494 89.1479 93.5036C88.7884 93.3578 88.4679 93.1292 88.2121 92.836C88.205 92.8265 88.1962 92.8185 88.186 92.8124C88.1758 92.8064 88.1646 92.8024 88.1529 92.8007C88.1412 92.799 88.1293 92.7997 88.1178 92.8026C88.1064 92.8056 88.0956 92.8108 88.0861 92.8179C88.0767 92.8251 88.0687 92.834 88.0627 92.8442C88.0567 92.8545 88.0527 92.8658 88.051 92.8776C88.0494 92.8894 88.05 92.9014 88.053 92.9129C88.0559 92.9244 88.061 92.9352 88.0681 92.9447C88.3404 93.2656 88.6852 93.516 89.0737 93.6747C89.4621 93.8334 89.8827 93.8958 90.3001 93.8567Z" fill="#263238"/>
<path d="M87.3302 88.8863C87.3578 88.8856 87.3849 88.8781 87.409 88.8645C87.433 88.8508 87.4534 88.8313 87.4682 88.8078C87.5825 88.6101 87.7426 88.4432 87.9348 88.3212C88.127 88.1992 88.3457 88.1258 88.5722 88.1072C88.5961 88.1081 88.6198 88.104 88.6421 88.0952C88.6643 88.0863 88.6844 88.073 88.7013 88.056C88.7182 88.039 88.7314 88.0187 88.7402 87.9964C88.7489 87.974 88.753 87.9501 88.7522 87.926C88.7522 87.8764 88.7326 87.8288 88.6977 87.7937C88.6628 87.7586 88.6155 87.7388 88.5662 87.7388C88.2797 87.7555 88.0017 87.8431 87.7568 87.9937C87.5119 88.1444 87.3077 88.3534 87.1622 88.6025C87.1492 88.6229 87.1404 88.6459 87.1363 88.6699C87.1323 88.6939 87.1331 88.7184 87.1387 88.7421C87.1443 88.7658 87.1546 88.7881 87.1689 88.8077C87.1833 88.8272 87.2014 88.8437 87.2222 88.8561C87.2373 88.8681 87.2546 88.877 87.2732 88.8822C87.2917 88.8874 87.3111 88.8888 87.3302 88.8863Z" fill="#263238"/>
<path d="M93.4141 88.3608L93.4861 88.3306C93.5068 88.3172 93.5246 88.2997 93.5383 88.2792C93.552 88.2587 93.5614 88.2355 93.5659 88.2112C93.5704 88.1869 93.5699 88.1619 93.5644 88.1377C93.559 88.1136 93.5486 88.0909 93.5341 88.0709C93.3787 87.8233 93.1672 87.6165 92.9168 87.4674C92.6664 87.3183 92.3845 87.2312 92.0941 87.2133C92.07 87.2133 92.046 87.2182 92.0238 87.2277C92.0016 87.2371 91.9814 87.251 91.9646 87.2685C91.9479 87.286 91.9347 87.3067 91.926 87.3293C91.9174 87.352 91.9133 87.3762 91.9141 87.4005C91.9157 87.4491 91.9359 87.4952 91.9707 87.529C92.0054 87.5628 92.0518 87.5817 92.1001 87.5817C92.3302 87.5989 92.553 87.6708 92.7502 87.7915C92.9473 87.9123 93.1132 88.0784 93.2341 88.2762C93.2545 88.3046 93.2817 88.3272 93.3132 88.342C93.3447 88.3568 93.3794 88.3633 93.4141 88.3608Z" fill="#263238"/>
<path d="M74.1301 107.656L78.9901 110.531C78.9901 110.531 72.8581 122.61 73.5241 124.494C74.4301 127.03 75.8041 132.605 77.4121 135.365C77.2561 135.969 76.3561 137.436 75.8281 137.708C71.9641 135.099 67.7341 126.553 67.7461 124.113C67.8001 118.575 74.1301 107.656 74.1301 107.656Z" fill="#B55B52"/>
<path d="M76.3022 102.505C72.6662 103.036 68.7962 115.791 68.7962 115.791L77.4002 118.551C78.9339 115.655 80.2632 112.655 81.3782 109.571C82.9742 104.86 80.2022 101.931 76.3022 102.505Z" fill="#AD4C4C"/>
</g>
<path d="M210.492 183.86C227.061 183.86 240.492 170.341 240.492 153.664C240.492 136.987 227.061 123.467 210.492 123.467C193.924 123.467 180.492 136.987 180.492 153.664C180.492 170.341 193.924 183.86 210.492 183.86Z" fill="#AD4C4C"/>
<path d="M210.492 182.272C226.189 182.272 238.914 169.464 238.914 153.664C238.914 137.864 226.189 125.056 210.492 125.056C194.795 125.056 182.07 137.864 182.07 153.664C182.07 169.464 194.795 182.272 210.492 182.272Z" fill="white"/>
<mask id="mask1_65_89" style="mask-type:luminance" maskUnits="userSpaceOnUse" x="182" y="125" width="57" height="58">
<path d="M210.492 182.272C226.189 182.272 238.914 169.464 238.914 153.664C238.914 137.864 226.189 125.056 210.492 125.056C194.795 125.056 182.07 137.864 182.07 153.664C182.07 169.464 194.795 182.272 210.492 182.272Z" fill="white"/>
</mask>
<g mask="url(#mask1_65_89)">
<path d="M209.184 131.922C204.918 131.536 202.26 138.143 203.148 148.228C208.548 151.314 214.734 148.228 219.684 150.711C224.262 143.663 223.044 127.767 209.184 131.922Z" fill="#263238"/>
<path d="M202.524 161.116C201.911 163.407 201.048 165.623 199.95 167.723C199.359 168.872 198.621 169.938 197.754 170.894C197.5 171.169 197.226 171.423 196.932 171.655C196.473 172.054 195.923 172.334 195.33 172.47C194.874 172.564 194.403 172.543 193.956 172.41C193.56 172.288 193.193 172.082 192.882 171.806C192.491 171.451 192.173 171.022 191.946 170.544C191.65 169.902 191.43 169.227 191.292 168.533C191.163 167.934 191.067 167.33 191.004 166.721C190.872 165.513 190.812 164.39 190.794 163.242C190.761 160.973 190.864 158.704 191.1 156.448L193.308 156.49C193.5 158.664 193.722 160.863 194.004 163.001C194.154 164.069 194.322 165.132 194.538 166.147C194.646 166.648 194.772 167.143 194.904 167.596C195.013 167.988 195.168 168.366 195.366 168.72C195.432 168.828 195.516 168.889 195.414 168.774C195.311 168.684 195.191 168.617 195.06 168.575C194.88 168.519 194.689 168.506 194.502 168.539C194.232 168.587 194.214 168.665 194.322 168.539C194.449 168.409 194.567 168.272 194.676 168.128C195.224 167.375 195.688 166.565 196.062 165.712C196.5 164.781 196.888 163.828 197.226 162.856C197.586 161.883 197.922 160.838 198.216 159.896L202.524 161.116Z" fill="#FFB573"/>
<path d="M199.56 155.3C197.76 155.765 196.5 163.218 196.5 163.218L203.382 167.929C203.382 167.929 206.214 159.093 204.828 157.1C203.442 155.107 202.2 154.606 199.56 155.3Z" fill="#263238"/>
<path opacity="0.2" d="M199.722 156.967L198.336 164.48L201.126 166.383L199.722 156.967Z" fill="black"/>
<path d="M193.404 157.112L194.316 152.48L190.656 153.549C190.656 153.549 190.296 156.756 191.772 157.813L193.404 157.112Z" fill="#FFB573"/>
<path d="M193.951 150.445L190.927 151.707L190.657 153.549L194.317 152.48L193.951 150.445Z" fill="#FFB573"/>
<path d="M199.56 155.3C199.56 155.3 197.478 156.043 201.648 181.831H219.378C219.084 174.584 219.072 170.085 222.522 155.173C220.039 154.66 217.523 154.327 214.992 154.177C212.312 153.984 209.621 153.984 206.94 154.177C203.484 154.497 199.56 155.3 199.56 155.3Z" fill="#263238"/>
<path opacity="0.2" d="M221.064 161.08C219.456 161.479 217.968 163.248 218.148 166.515C218.249 167.994 218.762 169.413 219.63 170.61C219.912 168.11 220.386 165.205 221.142 161.497L221.064 161.08Z" fill="black"/>
<path d="M207.876 159.896C207.876 159.896 210.78 162.312 210.78 164.867C213.18 163.085 216.45 158.223 216.78 155.137C216.792 155.012 216.778 154.886 216.74 154.767C216.701 154.647 216.639 154.536 216.558 154.442C216.476 154.347 216.376 154.27 216.263 154.215C216.151 154.16 216.029 154.129 215.904 154.123C215.687 154.108 215.47 154.08 215.256 154.038C215.166 154.019 215.072 154.021 214.983 154.044C214.893 154.067 214.81 154.11 214.74 154.171L207.876 159.896Z" fill="#FAFAFA"/>
<path d="M207.876 159.896C207.085 160.486 206.42 161.23 205.92 162.084C205.42 162.938 205.095 163.884 204.966 164.867C202.518 163.055 203.532 157.481 204.894 154.847C205.001 154.642 205.157 154.466 205.347 154.336C205.538 154.205 205.757 154.124 205.986 154.099C206.34 154.056 206.616 154.008 206.796 153.972C206.829 153.965 206.862 153.965 206.895 153.971C206.927 153.978 206.958 153.992 206.985 154.011C207.012 154.03 207.035 154.055 207.052 154.083C207.069 154.112 207.08 154.144 207.084 154.177L207.876 159.896Z" fill="#FAFAFA"/>
<path d="M214.2 145.052C213.696 147.661 213.186 152.438 214.998 154.177C213.034 156.547 210.613 158.492 207.882 159.896C204.282 157.004 206.946 154.177 206.946 154.177C209.838 153.483 209.76 151.327 209.256 149.297L214.2 145.052Z" fill="#FFB573"/>
<path opacity="0.2" d="M212.178 146.785L209.256 149.297C209.379 149.769 209.461 150.249 209.502 150.735C210.606 150.578 212.34 149.629 212.58 148.422C212.584 147.851 212.446 147.288 212.178 146.785Z" fill="black"/>
<path d="M218.538 140.86C217.338 145.052 216.924 146.851 214.308 148.561C210.378 151.121 205.524 148.724 205.452 144.255C205.386 140.232 207.36 134.054 211.866 133.287C212.859 133.114 213.879 133.198 214.83 133.533C215.782 133.868 216.632 134.442 217.3 135.201C217.969 135.96 218.433 136.878 218.65 137.869C218.867 138.859 218.828 139.889 218.538 140.86Z" fill="#FFB573"/>
<path d="M215.34 136.953C216.072 141.138 216.354 142.757 217.824 143.838C219.294 144.919 220.662 139.955 219.576 138.046C218.49 136.138 215.34 136.953 215.34 136.953Z" fill="#263238"/>
<path d="M208.428 133.028C207.546 134.078 209.358 136.277 211.116 136.995C211.008 136.765 210.93 136.521 210.882 136.271C212.152 137.144 213.579 137.76 215.082 138.082C214.913 137.866 214.8 137.611 214.752 137.34C214.752 137.134 219.084 140.021 219.714 137.944C220.344 135.866 218.196 133.148 214.914 132.279C212.118 131.572 209.514 131.729 208.428 133.028Z" fill="#263238"/>
<path d="M211.554 140.486C211.482 140.83 211.236 141.09 211.008 141.017C210.78 140.945 210.666 140.649 210.744 140.299C210.822 139.949 211.062 139.695 211.29 139.767C211.518 139.84 211.632 140.112 211.554 140.486Z" fill="#263238"/>
<path d="M207.672 139.616C207.594 139.961 207.348 140.22 207.126 140.148C206.904 140.075 206.778 139.779 206.856 139.429C206.934 139.079 207.174 138.825 207.402 138.898C207.63 138.97 207.744 139.266 207.672 139.616Z" fill="#263238"/>
<path d="M207.498 138.94L206.724 138.511C206.724 138.511 207 139.254 207.498 138.94Z" fill="#263238"/>
<path d="M208.728 140.504C208.249 141.224 207.673 141.874 207.018 142.437C207.168 142.606 207.353 142.74 207.561 142.828C207.769 142.915 207.993 142.955 208.218 142.944L208.728 140.504Z" fill="#ED893E"/>
<path d="M209.766 144.72C209.593 144.706 209.42 144.682 209.25 144.647C209.223 144.64 209.201 144.623 209.186 144.599C209.172 144.576 209.167 144.547 209.172 144.52C209.175 144.507 209.18 144.494 209.188 144.482C209.196 144.471 209.207 144.461 209.218 144.454C209.23 144.446 209.243 144.442 209.257 144.439C209.271 144.437 209.285 144.438 209.298 144.442C209.723 144.546 210.167 144.548 210.593 144.449C211.019 144.349 211.416 144.15 211.752 143.868C211.772 143.848 211.799 143.838 211.827 143.838C211.855 143.838 211.882 143.848 211.902 143.868C211.92 143.888 211.93 143.914 211.93 143.94C211.93 143.967 211.92 143.993 211.902 144.013C211.61 144.267 211.271 144.46 210.904 144.581C210.538 144.703 210.151 144.75 209.766 144.72Z" fill="#263238"/>
<path d="M218.814 145.046C218.344 145.741 217.619 146.221 216.798 146.38C215.706 146.586 215.256 145.577 215.646 144.569C215.994 143.681 216.978 142.509 218.046 142.757C218.279 142.814 218.493 142.93 218.669 143.093C218.846 143.256 218.978 143.461 219.055 143.689C219.131 143.917 219.149 144.161 219.107 144.398C219.065 144.636 218.965 144.858 218.814 145.046Z" fill="#FFB573"/>
<path d="M213.462 139.725C213.419 139.72 213.378 139.701 213.347 139.67C213.315 139.64 213.295 139.6 213.288 139.556C213.185 139.232 213.017 138.933 212.794 138.677C212.571 138.422 212.298 138.215 211.992 138.07C211.964 138.062 211.937 138.047 211.915 138.027C211.892 138.007 211.874 137.982 211.862 137.955C211.85 137.927 211.843 137.897 211.843 137.867C211.844 137.837 211.85 137.807 211.863 137.78C211.875 137.752 211.893 137.728 211.916 137.708C211.939 137.688 211.965 137.674 211.994 137.665C212.023 137.657 212.053 137.655 212.083 137.659C212.113 137.663 212.141 137.674 212.166 137.69C212.534 137.865 212.861 138.117 213.124 138.429C213.387 138.742 213.58 139.107 213.69 139.502C213.699 139.555 213.687 139.61 213.657 139.655C213.627 139.7 213.581 139.732 213.528 139.743L213.462 139.725Z" fill="#263238"/>
<path d="M206.904 136.844C206.868 136.845 206.832 136.837 206.799 136.82C206.767 136.803 206.739 136.778 206.718 136.748C206.689 136.701 206.678 136.645 206.69 136.59C206.701 136.536 206.733 136.489 206.778 136.458C207.049 136.27 207.36 136.15 207.685 136.108C208.011 136.066 208.342 136.103 208.65 136.216C208.676 136.227 208.7 136.242 208.719 136.262C208.739 136.282 208.754 136.306 208.764 136.332C208.774 136.358 208.779 136.386 208.778 136.414C208.777 136.441 208.77 136.469 208.758 136.494C208.747 136.519 208.732 136.541 208.712 136.559C208.693 136.578 208.67 136.592 208.645 136.602C208.62 136.611 208.593 136.616 208.566 136.615C208.539 136.614 208.513 136.608 208.488 136.597C208.242 136.513 207.98 136.489 207.723 136.526C207.465 136.562 207.22 136.659 207.006 136.808C206.976 136.829 206.941 136.841 206.904 136.844Z" fill="#263238"/>
<path d="M211.38 139.81L210.612 139.381C210.612 139.381 210.888 140.112 211.38 139.81Z" fill="#263238"/>
<path d="M219.648 180.786L220.098 182.381C220.164 182.507 220.014 182.634 219.81 182.634H201.558C201.396 182.634 201.264 182.55 201.258 182.453L201.096 180.853C201.096 180.744 201.222 180.647 201.396 180.647H219.36C219.416 180.643 219.472 180.653 219.523 180.678C219.573 180.702 219.617 180.74 219.648 180.786Z" fill="#AD4C4C"/>
<path opacity="0.2" d="M219.648 180.786L220.098 182.381C220.164 182.507 220.014 182.634 219.81 182.634H201.558C201.396 182.634 201.264 182.55 201.258 182.453L201.096 180.853C201.096 180.744 201.222 180.647 201.396 180.647H219.36C219.416 180.643 219.472 180.653 219.523 180.678C219.573 180.702 219.617 180.74 219.648 180.786Z" fill="black"/>
<path d="M217.201 182.803H217.681C217.777 182.803 217.849 182.755 217.843 182.695L217.615 180.617C217.615 180.557 217.525 180.508 217.429 180.508H216.949C216.853 180.508 216.781 180.557 216.787 180.617L217.015 182.695C216.997 182.755 217.081 182.803 217.201 182.803Z" fill="#AD4C4C"/>
<path opacity="0.4" d="M217.201 182.803H217.681C217.777 182.803 217.849 182.755 217.843 182.695L217.615 180.617C217.615 180.557 217.525 180.508 217.429 180.508H216.949C216.853 180.508 216.781 180.557 216.787 180.617L217.015 182.695C216.997 182.755 217.081 182.803 217.201 182.803Z" fill="black"/>
<path d="M202.908 182.803H203.388C203.484 182.803 203.562 182.755 203.556 182.695L203.328 180.617C203.328 180.557 203.238 180.508 203.142 180.508H202.662C202.566 180.508 202.494 180.557 202.5 180.617L202.722 182.695C202.728 182.755 202.8 182.803 202.908 182.803Z" fill="#AD4C4C"/>
<path opacity="0.4" d="M202.908 182.803H203.388C203.484 182.803 203.562 182.755 203.556 182.695L203.328 180.617C203.328 180.557 203.238 180.508 203.142 180.508H202.662C202.566 180.508 202.494 180.557 202.5 180.617L202.722 182.695C202.728 182.755 202.8 182.803 202.908 182.803Z" fill="black"/>
<path d="M210.001 182.803H210.481C210.577 182.803 210.649 182.755 210.643 182.695L210.421 180.617C210.421 180.557 210.331 180.508 210.235 180.508H209.755C209.659 180.508 209.581 180.557 209.587 180.617L209.815 182.695C209.833 182.755 209.917 182.803 210.001 182.803Z" fill="#AD4C4C"/>
<path opacity="0.4" d="M210.001 182.803H210.481C210.577 182.803 210.649 182.755 210.643 182.695L210.421 180.617C210.421 180.557 210.331 180.508 210.235 180.508H209.755C209.659 180.508 209.581 180.557 209.587 180.617L209.815 182.695C209.833 182.755 209.917 182.803 210.001 182.803Z" fill="black"/>
<path d="M224.592 160.47C224.79 161.98 224.946 163.49 225.126 165L225.582 169.535C225.744 171.045 225.858 172.555 225.99 174.071L226.2 176.347L226.248 176.915C226.248 176.976 226.248 177.211 226.278 177.374C226.287 177.549 226.287 177.725 226.278 177.9C226.206 178.548 226.001 179.175 225.678 179.742C225.157 180.615 224.468 181.375 223.65 181.976C222.964 182.495 222.238 182.958 221.478 183.359C220.058 184.094 218.583 184.718 217.068 185.225C214.134 186.216 211.124 186.963 208.068 187.46L207.576 185.292C208.974 184.827 210.402 184.35 211.776 183.818C213.15 183.287 214.542 182.761 215.868 182.151C217.175 181.575 218.442 180.911 219.66 180.164C220.219 179.819 220.75 179.431 221.25 179.005C221.64 178.686 221.964 178.295 222.204 177.851C222.256 177.754 222.287 177.647 222.294 177.537L222.192 176.819L221.874 174.56C221.664 173.056 221.43 171.54 221.274 170.042L220.704 165.519C220.542 164.003 220.35 162.499 220.212 160.983L224.592 160.47Z" fill="#FFB573"/>
<path d="M222.522 155.174C224.322 155.717 226.434 161.877 226.434 161.877L220.2 168.321C220.2 168.321 217.008 161.678 217.758 159.389C218.55 156.979 220.494 154.558 222.522 155.174Z" fill="#263238"/>
</g>
<path d="M207.894 99.8537H129.114C128.423 99.8537 127.761 99.5775 127.273 99.086C126.784 98.5945 126.51 97.9278 126.51 97.2326C126.51 96.8887 126.577 96.5482 126.708 96.2305C126.839 95.9129 127.031 95.6243 127.273 95.3814C127.515 95.1385 127.802 94.946 128.118 94.8149C128.434 94.6839 128.772 94.6168 129.114 94.6176H207.894C208.583 94.6176 209.244 94.8931 209.731 95.3835C210.218 95.874 210.492 96.5391 210.492 97.2326C210.493 97.5766 210.426 97.9173 210.296 98.2352C210.166 98.5532 209.975 98.8422 209.733 99.0856C209.492 99.3291 209.205 99.5223 208.89 99.6541C208.574 99.7859 208.236 99.8537 207.894 99.8537Z" fill="white"/>
<path d="M189.6 110.863H129.114C128.772 110.864 128.434 110.797 128.118 110.666C127.802 110.535 127.515 110.342 127.273 110.099C127.031 109.856 126.839 109.568 126.708 109.25C126.577 108.933 126.51 108.592 126.51 108.248C126.51 107.553 126.784 106.886 127.273 106.395C127.761 105.903 128.423 105.627 129.114 105.627H189.6C190.291 105.627 190.953 105.903 191.441 106.395C191.93 106.886 192.204 107.553 192.204 108.248C192.204 108.592 192.137 108.933 192.006 109.25C191.875 109.568 191.683 109.856 191.441 110.099C191.199 110.342 190.912 110.535 190.596 110.666C190.28 110.797 189.942 110.864 189.6 110.863Z" fill="white"/>
<path d="M140.832 150.777H170.886C171.577 150.777 172.239 150.501 172.727 150.009C173.216 149.518 173.49 148.851 173.49 148.156C173.49 147.812 173.423 147.471 173.292 147.154C173.161 146.836 172.969 146.548 172.727 146.305C172.485 146.062 172.198 145.869 171.882 145.738C171.566 145.607 171.228 145.54 170.886 145.541H140.832C140.143 145.541 139.482 145.816 138.995 146.307C138.508 146.797 138.234 147.462 138.234 148.156C138.233 148.5 138.3 148.84 138.43 149.158C138.56 149.476 138.752 149.765 138.993 150.009C139.234 150.252 139.521 150.445 139.836 150.577C140.152 150.709 140.49 150.777 140.832 150.777Z" fill="white"/>
<path d="M107.436 150.777H128.172C128.514 150.777 128.852 150.709 129.168 150.577C129.483 150.445 129.77 150.252 130.011 150.009C130.252 149.765 130.444 149.476 130.574 149.158C130.704 148.84 130.771 148.5 130.77 148.156C130.77 147.462 130.496 146.797 130.009 146.307C129.522 145.816 128.861 145.541 128.172 145.541H107.436C106.747 145.541 106.086 145.816 105.599 146.307C105.112 146.797 104.838 147.462 104.838 148.156C104.837 148.5 104.904 148.84 105.034 149.158C105.164 149.476 105.355 149.765 105.597 150.009C105.838 150.252 106.125 150.445 106.44 150.577C106.756 150.709 107.094 150.777 107.436 150.777Z" fill="white"/>
<path d="M92.1061 161.787H170.886C171.228 161.787 171.566 161.72 171.882 161.589C172.198 161.458 172.485 161.266 172.727 161.023C172.969 160.78 173.161 160.491 173.292 160.174C173.423 159.856 173.49 159.516 173.49 159.172C173.49 158.476 173.216 157.81 172.727 157.318C172.239 156.827 171.577 156.551 170.886 156.551H92.1061C91.7644 156.551 91.4261 156.618 91.1105 156.75C90.7949 156.882 90.5082 157.075 90.2669 157.319C90.0256 157.562 89.8343 157.851 89.7041 158.169C89.5739 158.487 89.5073 158.828 89.5081 159.172C89.5081 159.865 89.7818 160.53 90.269 161.021C90.7562 161.511 91.417 161.787 92.1061 161.787Z" fill="white"/>
<path d="M59.8981 24.1571C59.8981 24.6554 59.7512 25.1426 59.476 25.5568C59.2008 25.9711 58.8097 26.2939 58.3522 26.4843C57.8946 26.6748 57.3913 26.7243 56.9057 26.6266C56.4202 26.5289 55.9744 26.2885 55.6248 25.9357C55.2751 25.5829 55.0373 25.1336 54.9414 24.6447C54.8456 24.1557 54.896 23.6492 55.0863 23.1891C55.2765 22.7291 55.5982 22.3362 56.0104 22.0602C56.4226 21.7842 56.907 21.6375 57.4021 21.6387C58.0646 21.6403 58.6995 21.9063 59.1674 22.3784C59.6353 22.8505 59.8981 23.4902 59.8981 24.1571Z" fill="white"/>
<path d="M65.904 26.6754C67.2858 26.6754 68.406 25.5479 68.406 24.1571C68.406 22.7662 67.2858 21.6387 65.904 21.6387C64.5222 21.6387 63.402 22.7662 63.402 24.1571C63.402 25.5479 64.5222 26.6754 65.904 26.6754Z" fill="white"/>
<path d="M74.4062 26.6754C75.7881 26.6754 76.9082 25.5479 76.9082 24.1571C76.9082 22.7662 75.7881 21.6387 74.4062 21.6387C73.0244 21.6387 71.9042 22.7662 71.9042 24.1571C71.9042 25.5479 73.0244 26.6754 74.4062 26.6754Z" fill="white"/>
</svg>
