<svg width="500" height="333" viewBox="0 0 500 333" fill="none" xmlns="http://www.w3.org/2000/svg">
<path d="M481.687 139.147C491.414 62.6506 404.62 18.648 355.854 20.7392C327.854 21.9314 303.094 36.8098 278.667 52.3742C234.667 80.4128 198 82.0645 164.667 64.7418C134.16 48.8977 96.0002 54.1325 67.2335 74.0059C52.6668 84.0958 39.6668 98.7545 32.1868 117.482C22.7868 141.039 31.1468 168.225 35.5935 192.028C37.7668 203.676 39.8135 216.337 36.6668 227.992C27.3335 262.624 13.3335 265.954 15.3335 283.27L17.3335 300.586H478.667C478.667 300.586 489.333 280.799 483.333 250.283C480.547 236.117 473.393 225.96 466.154 214.985C462.453 209.357 459.034 203.203 457.613 196.17C453.573 176.19 467.66 174.439 475.3 161.865C479.194 155.438 480.7 146.886 481.687 139.147Z" fill="#CDDBEC"/>
<path opacity="0.7" d="M481.687 139.147C491.414 62.6506 404.62 18.648 355.854 20.7392C327.854 21.9314 303.094 36.8098 278.667 52.3742C234.667 80.4128 198 82.0645 164.667 64.7418C134.16 48.8977 96.0002 54.1325 67.2335 74.0059C52.6668 84.0958 39.6668 98.7545 32.1868 117.482C22.7868 141.039 31.1468 168.225 35.5935 192.028C37.7668 203.676 39.8135 216.337 36.6668 227.992C27.3335 262.624 13.3335 265.954 15.3335 283.27L17.3335 300.586H478.667C478.667 300.586 489.333 280.799 483.333 250.283C480.547 236.117 473.393 225.96 466.154 214.985C462.453 209.357 459.034 203.203 457.613 196.17C453.573 176.19 467.66 174.439 475.3 161.865C479.194 155.438 480.7 146.886 481.687 139.147Z" fill="white"/>
<g opacity="0.3">
<path d="M207.513 165.834V299.7H262.847V165.834H207.513ZM258.847 283.716H211.513V257.742H258.847V283.716ZM258.847 243.756H211.513V217.782H258.847V243.756ZM258.847 203.796H211.513V177.822H258.847V203.796Z" fill="black" stroke="black" stroke-linecap="round" stroke-linejoin="round"/>
<path d="M257.94 146.813H246.973V165.987H257.94V146.813Z" stroke="black" stroke-linecap="round" stroke-linejoin="round"/>
<path d="M255.386 150.789H246.973V161.119H255.386V150.789Z" stroke="black" stroke-linecap="round" stroke-linejoin="round"/>
<path d="M254.68 141.565H250.227V146.74H254.68V141.565Z" stroke="black" stroke-linecap="round" stroke-linejoin="round"/>
<path d="M243.066 158.508H227.066V166.28H243.066V158.508Z" stroke="black" stroke-linecap="round" stroke-linejoin="round"/>
<path d="M225.733 153.4H218.847V168.272H225.733V153.4Z" stroke="black" stroke-linecap="round" stroke-linejoin="round"/>
<path d="M217.067 156.284H211.513V168.278H217.067V156.284Z" stroke="black" stroke-linecap="round" stroke-linejoin="round"/>
</g>
<g opacity="0.3">
<path d="M455.333 22.644H275.333V153.846H455.333V22.644Z" stroke="black" stroke-linecap="round" stroke-linejoin="round"/>
<path d="M359.333 27.306H282V149.184H359.333V27.306Z" stroke="black" stroke-linecap="round" stroke-linejoin="round"/>
<path d="M448.667 27.306H370.667V149.184H448.667V27.306Z" stroke="black" stroke-linecap="round" stroke-linejoin="round"/>
<path d="M364.667 23.976V152.514" stroke="black" stroke-linecap="round" stroke-linejoin="round"/>
<path d="M362.24 107.126C362.096 107.126 361.953 107.098 361.82 107.042C361.687 106.987 361.566 106.906 361.465 106.804C361.363 106.702 361.283 106.581 361.228 106.447C361.174 106.314 361.146 106.171 361.147 106.027V92.907C361.147 92.6173 361.262 92.3395 361.467 92.1347C361.672 91.9298 361.95 91.8148 362.24 91.8148C362.53 91.8148 362.808 91.9298 363.013 92.1347C363.218 92.3395 363.334 92.6173 363.334 92.907V106.027C363.335 106.171 363.307 106.314 363.252 106.447C363.198 106.581 363.117 106.702 363.016 106.804C362.914 106.906 362.793 106.987 362.66 107.042C362.527 107.098 362.384 107.126 362.24 107.126Z" fill="black" stroke="black" stroke-linecap="round" stroke-linejoin="round"/>
<path d="M367.56 107.126C367.416 107.126 367.273 107.098 367.14 107.042C367.007 106.987 366.886 106.906 366.785 106.804C366.683 106.702 366.603 106.58 366.548 106.447C366.494 106.314 366.466 106.171 366.467 106.027V92.907C366.467 92.6173 366.582 92.3395 366.787 92.1346C366.992 91.9298 367.27 91.8147 367.56 91.8147C367.705 91.8138 367.848 91.8414 367.982 91.8958C368.115 91.9502 368.237 92.0304 368.34 92.1319C368.443 92.2333 368.524 92.3539 368.581 92.4869C368.637 92.6199 368.666 92.7626 368.667 92.907V106.027C368.667 106.172 368.638 106.315 368.582 106.449C368.527 106.583 368.445 106.704 368.342 106.807C368.239 106.909 368.117 106.989 367.983 107.044C367.849 107.099 367.705 107.127 367.56 107.126Z" fill="black" stroke="black" stroke-linecap="round" stroke-linejoin="round"/>
</g>
<g opacity="0.3">
<path d="M208.133 22.644H28.1333V153.846H208.133V22.644Z" stroke="black" stroke-linecap="round" stroke-linejoin="round"/>
<path d="M112.133 27.306H34.7998V149.184H112.133V27.306Z" stroke="black" stroke-linecap="round" stroke-linejoin="round"/>
<path d="M201.467 27.306H123.467V149.184H201.467V27.306Z" stroke="black" stroke-linecap="round" stroke-linejoin="round"/>
<path d="M117.467 23.976V152.514" stroke="black" stroke-linecap="round" stroke-linejoin="round"/>
<path d="M115.04 107.126C114.748 107.126 114.468 107.01 114.262 106.804C114.056 106.598 113.94 106.319 113.94 106.027V92.907C113.942 92.6167 114.058 92.3389 114.264 92.1343C114.471 91.9296 114.749 91.8148 115.04 91.8148C115.329 91.8165 115.606 91.9321 115.811 92.1366C116.016 92.3411 116.132 92.6179 116.133 92.907V106.027C116.133 106.317 116.018 106.596 115.813 106.802C115.609 107.008 115.331 107.124 115.04 107.126Z" fill="black" stroke="black" stroke-linecap="round" stroke-linejoin="round"/>
<path d="M120.353 107.126C120.063 107.124 119.784 107.008 119.58 106.802C119.375 106.596 119.26 106.317 119.26 106.027V92.907C119.262 92.6179 119.377 92.3411 119.582 92.1366C119.787 91.9321 120.064 91.8165 120.353 91.8148C120.643 91.8148 120.921 91.9298 121.126 92.1347C121.331 92.3395 121.446 92.6173 121.446 92.907V106.027C121.447 106.171 121.42 106.314 121.365 106.447C121.311 106.581 121.23 106.702 121.129 106.804C121.027 106.906 120.906 106.987 120.773 107.042C120.64 107.098 120.497 107.126 120.353 107.126Z" fill="black" stroke="black" stroke-linecap="round" stroke-linejoin="round"/>
</g>
<path d="M316.287 286.906L319.2 290.11L328.533 296.223C328.88 296.952 329.077 297.742 329.113 298.548V299.287C329.105 299.634 328.96 299.965 328.711 300.207C328.462 300.45 328.128 300.586 327.78 300.586H301.253C301.14 300.587 301.031 300.547 300.945 300.474C300.859 300.4 300.803 300.298 300.787 300.186C300.494 298.392 300.321 296.581 300.267 294.765C300.267 292.441 301.72 284.868 301.72 284.868L315.413 284.289L316.287 286.906Z" fill="white" stroke="#263238" stroke-linecap="round" stroke-linejoin="round"/>
<path d="M300.787 300.186C300.803 300.298 300.859 300.4 300.945 300.474C301.031 300.547 301.14 300.587 301.253 300.586H327.807C328.154 300.586 328.489 300.45 328.738 300.207C328.987 299.965 329.131 299.635 329.14 299.287V298.548C329.146 298.428 329.146 298.308 329.14 298.188H300.513C300.613 299.034 300.72 299.76 300.787 300.186Z" fill="white" stroke="#263238" stroke-linecap="round" stroke-linejoin="round"/>
<path d="M272 284.662L271.54 288.325C271.54 288.325 267.067 297.149 266.727 298.068C266.54 298.897 266.54 299.757 266.727 300.586H286.34C286.34 300.586 287.14 296.004 286.113 293.486C285.087 290.969 285.387 286.746 285.387 286.746L284.847 284.662C284.847 284.662 274.887 283.396 272 284.662Z" fill="white" stroke="#263238" stroke-linecap="round" stroke-linejoin="round"/>
<path d="M266.747 300.586H286.36C286.495 299.752 286.584 298.912 286.627 298.068H266.747C266.56 298.897 266.56 299.757 266.747 300.586Z" fill="white" stroke="#263238" stroke-linecap="round" stroke-linejoin="round"/>
<path d="M320.367 179.82C320.367 179.82 316.58 239.194 317.16 249.963C317.74 260.732 316.287 286.926 316.287 286.926C316.287 286.926 311.333 287.779 309.88 288.378C308.427 288.977 301.08 289.544 301.08 289.544C300.678 287.035 300.407 284.508 300.267 281.971C300.293 279.247 300.486 276.527 300.847 273.826C301.14 272.081 296.18 196.696 296.18 196.696L293.267 198.155L285.693 283.403L285.4 289.224L276.667 288.072L270.987 289.324C270.987 289.324 269.967 281.378 270.26 279.633C270.553 277.889 272.007 269.444 272.007 269.444L269.38 179.534C269.38 179.534 306.967 181.259 320.367 179.82Z" fill="#263238" stroke="#263238" stroke-linecap="round" stroke-linejoin="round"/>
<path d="M331.213 117.662L334.613 138.681L333.213 141.079L323 133.673L320.793 121.065L331.213 117.662Z" fill="#B5B5B5" stroke="#263238" stroke-linecap="round" stroke-linejoin="round"/>
<path d="M321.767 123.816L331.54 122.078V119.807L322.793 121.465L321.767 123.816Z" fill="#263238" stroke="#263238" stroke-linecap="round" stroke-linejoin="round"/>
<path d="M293.546 76.237C293.546 76.237 292.946 84.229 292.946 85.6409C292.946 87.0528 281.726 89.244 276.32 93.4464C273.28 95.8107 269.506 100.852 269.506 103.856C269.506 106.86 271.113 146.886 271.113 146.886L268.22 181.818C268.22 181.818 281.466 185.341 291.88 186.34C302.293 187.339 322.113 181.532 322.113 181.532C322.113 181.532 320.593 149.464 320.593 147.266C320.593 145.068 320.193 139.274 320.193 139.274L321.993 122.464L322.793 121.458L335.02 119.061C335.02 119.061 331.766 107.739 326.4 99.4471C322.4 93.24 310.173 89.2373 308.973 88.8377L307.773 88.4381L307.373 84.2357C307.373 84.2357 296.553 80.0399 293.546 76.237Z" fill="#961919" stroke="#263238" stroke-linecap="round" stroke-linejoin="round"/>
<path d="M307.773 88.4448L307.373 84.2423C307.373 84.2423 296.553 80.0398 293.547 76.2503C293.547 76.2503 292.947 84.2423 292.947 85.6542C292.947 86.207 291.213 86.8797 288.787 87.7521C291.313 91.3219 297.647 100.24 299.56 102.471C301.387 104.791 302.996 107.275 304.367 109.89L311.58 89.8101C310.247 89.2972 309.267 88.9776 308.973 88.8777L307.773 88.4448Z" fill="#B5B5B5" stroke="#263238" stroke-linecap="round" stroke-linejoin="round"/>
<path d="M307.727 87.9919L307.373 84.2423C307.373 84.2423 296.553 80.0398 293.547 76.2503C293.547 76.2503 293.453 77.4757 293.347 79.0542C294.12 80.6659 298.773 89.9965 302.713 89.8367C304.526 89.7081 306.264 89.0683 307.727 87.9919Z" fill="#263238" stroke="#263238" stroke-linecap="round" stroke-linejoin="round"/>
<path d="M318.786 125.468C318.786 125.468 331.613 135.278 333.613 136.876C335.613 138.475 335.42 141.079 334.013 143.483C332.606 145.887 326.013 148.485 323.8 146.686C321.586 144.888 316.586 135.078 316 133.866C315.413 132.654 313.393 127.466 313.393 127.466L318.786 125.468Z" fill="#B5B5B5" stroke="#263238" stroke-linecap="round" stroke-linejoin="round"/>
<path d="M317.787 121.665C317.787 121.665 313.58 119.467 311.18 118.868C308.78 118.268 306 123.876 306 123.876L318.62 123.676L317.787 121.665Z" fill="white" stroke="#263238" stroke-linecap="round" stroke-linejoin="round"/>
<path d="M299.36 121.465L289.54 145.081H311.98L321.993 121.265L299.36 121.465Z" fill="#263238" stroke="#263238" stroke-linecap="round" stroke-linejoin="round"/>
<path d="M282.326 136.077C282.326 136.077 291.546 129.47 292.746 129.071C293.946 128.671 297.153 127.872 297.153 127.872L295.753 130.676L302.36 130.876C302.36 130.876 303.566 130.676 303.366 132.674C303.166 134.672 299.76 135.078 299.76 135.078C299.76 135.078 298.153 141.279 295.333 141.858C292.513 142.437 282.906 141.858 282.906 141.858C282.906 141.858 264.28 153.846 261.873 150.469C259.466 147.093 261.473 118.248 261.473 118.248L274.893 121.245L274.493 136.657L282.326 136.077Z" fill="#B5B5B5" stroke="#263238" stroke-linecap="round" stroke-linejoin="round"/>
<path d="M261.38 122.251L274.82 124.342V123.297L261.553 119.634L261.38 122.251Z" fill="#263238" stroke="#263238" stroke-linecap="round" stroke-linejoin="round"/>
<path d="M274.513 136.677L266.3 136.877" stroke="#263238" stroke-linecap="round" stroke-linejoin="round"/>
<path d="M303.367 132.674C303.567 130.676 302.36 130.876 302.36 130.876L295.753 130.676L297.153 127.872C297.153 127.872 293.947 128.671 292.747 129.071C291.547 129.47 282.327 136.077 282.327 136.077C282.327 136.077 280.573 138.362 282.327 142.264L282.927 141.878C282.927 141.878 292.547 142.484 295.353 141.878C298.16 141.272 299.76 135.078 299.76 135.078C299.76 135.078 303.167 134.679 303.367 132.674Z" fill="white" stroke="#263238" stroke-linecap="round" stroke-linejoin="round"/>
<path d="M281.127 91.4484C281.127 91.4484 272.113 92.2476 266.5 96.8497C264.86 98.1817 257.687 118.668 257.687 118.668L275.92 123.27L277.32 116.264" fill="#961919"/>
<path d="M281.127 91.4484C281.127 91.4484 272.113 92.2476 266.5 96.8497C264.86 98.1817 257.687 118.668 257.687 118.668L275.92 123.27L277.32 116.264" stroke="#263238" stroke-linecap="round" stroke-linejoin="round"/>
<path d="M292 64.5154C292 64.5154 289.5 60.7658 288.5 64.5154C287.5 68.265 288.5 69.8434 289.993 70.8291C291.487 71.8148 291.993 71.7682 291.993 71.7682C291.993 71.7682 292.247 76.7698 293.993 80.0199C295.74 83.27 299.753 87.0195 303.507 87.2726C307.26 87.5257 309.767 84.7685 311.013 83.0169C312.26 81.2653 316.273 71.5151 316.273 66.7665C316.273 62.0179 315.773 53.2667 313.267 50.5161C310.76 47.7655 302.513 45.288 296.507 47.7655C290.5 50.243 291.247 62.0179 292 64.5154Z" fill="#B5B5B5" stroke="#263238" stroke-linecap="round" stroke-linejoin="round"/>
<path d="M308.413 65.9872C308.413 65.9872 309.38 71.9812 309.22 73.2533C309.06 74.5254 307.44 75.1914 305.827 75.1914C304.692 75.0949 303.616 74.6427 302.753 73.8993" stroke="#263238" stroke-linecap="round" stroke-linejoin="round"/>
<path d="M302.106 77.7688C303.057 78.425 304.185 78.7765 305.34 78.7765C306.495 78.7765 307.623 78.425 308.573 77.7688" stroke="#263238" stroke-linecap="round" stroke-linejoin="round"/>
<path d="M303.887 65.6685C302.955 65.1517 301.918 64.8537 300.854 64.7971C299.79 64.7405 298.728 64.9268 297.747 65.3418" stroke="#263238" stroke-width="2" stroke-linecap="round" stroke-linejoin="round"/>
<path d="M309.38 65.8281C309.38 65.8281 311.967 64.2147 314.227 65.9881" stroke="#263238" stroke-width="2" stroke-linecap="round" stroke-linejoin="round"/>
<path d="M299.526 69.2176C299.526 69.2176 301.786 70.3509 303.24 69.0576" stroke="#263238" stroke-linecap="round" stroke-linejoin="round"/>
<path d="M310.353 69.2173C310.353 69.2173 311.966 70.3507 313.42 69.884" stroke="#263238" stroke-linecap="round" stroke-linejoin="round"/>
<path d="M371.98 294.732H374.647L374.647 44.9816H371.98L371.98 294.732Z" fill="white" stroke="#263238" stroke-linecap="round" stroke-linejoin="round"/>
<path d="M358.333 296.363H388.54V294.632H358.333V296.363Z" fill="white" stroke="#263238" stroke-linecap="round" stroke-linejoin="round"/>
<path d="M357.88 298.448C357.879 298.024 358.004 297.608 358.239 297.255C358.474 296.901 358.809 296.625 359.201 296.462C359.593 296.299 360.025 296.255 360.442 296.337C360.859 296.419 361.242 296.623 361.543 296.923C361.843 297.222 362.049 297.604 362.132 298.02C362.215 298.437 362.173 298.868 362.011 299.26C361.849 299.653 361.574 299.988 361.22 300.224C360.867 300.46 360.452 300.586 360.027 300.586C359.459 300.586 358.914 300.361 358.511 299.96C358.109 299.559 357.882 299.016 357.88 298.448Z" fill="#263238" stroke="#263238" stroke-linecap="round" stroke-linejoin="round"/>
<path d="M384.547 298.448C384.547 298.025 384.672 297.612 384.908 297.26C385.143 296.909 385.477 296.635 385.868 296.473C386.259 296.311 386.689 296.269 387.104 296.351C387.519 296.434 387.901 296.637 388.2 296.936C388.499 297.235 388.703 297.616 388.786 298.031C388.868 298.446 388.826 298.875 388.664 299.266C388.502 299.657 388.228 299.991 387.876 300.225C387.524 300.46 387.11 300.586 386.687 300.586C386.406 300.586 386.128 300.53 385.868 300.423C385.608 300.316 385.372 300.158 385.174 299.96C384.975 299.761 384.817 299.525 384.71 299.266C384.602 299.007 384.547 298.729 384.547 298.448Z" fill="#263238" stroke="#263238" stroke-linecap="round" stroke-linejoin="round"/>
<path d="M397.76 45.5078V46.1738C397.761 46.7279 397.653 47.2769 397.441 47.7891C397.229 48.3014 396.918 48.7669 396.527 49.1591C396.135 49.5512 395.669 49.8624 395.157 50.0746C394.644 50.2869 394.095 50.3962 393.54 50.3962H392.667C391.546 50.3962 390.471 49.9513 389.678 49.1595C388.885 48.3676 388.44 47.2936 388.44 46.1738V45.5078H357.773V46.62C357.774 47.1738 357.666 47.7224 357.454 48.2343C357.242 48.7462 356.931 49.2113 356.539 49.6029C356.147 49.9946 355.682 50.3051 355.169 50.5166C354.657 50.7282 354.108 50.8366 353.554 50.8358C352.999 50.8366 352.45 50.7282 351.938 50.5166C351.425 50.3051 350.96 49.9946 350.568 49.6029C350.176 49.2113 349.865 48.7462 349.653 48.2343C349.441 47.7224 349.333 47.1738 349.334 46.62V45.954" stroke="#263238" stroke-width="3" stroke-linecap="round" stroke-linejoin="round"/>
<path d="M352.947 87.4125V181.205" stroke="#263238" stroke-width="2" stroke-linecap="round" stroke-linejoin="round"/>
<path d="M350.533 49.2174C351.085 48.6958 351.813 48.399 352.572 48.3855C353.332 48.3719 354.07 48.6425 354.64 49.1441C356.053 50.3962 357.867 51.9879 358.987 52.967C361.047 54.7652 362.08 55.5377 362.08 55.5377H343.807L350.533 49.2174Z" fill="white" stroke="#263238" stroke-linecap="round" stroke-linejoin="round"/>
<path d="M358.853 81.5051H347.013C346.158 81.5051 345.337 81.1655 344.732 80.5609C344.127 79.9564 343.787 79.1365 343.787 78.2816V55.5377H362.08V78.2816C362.08 78.7049 361.997 79.1241 361.834 79.5152C361.672 79.9063 361.435 80.2616 361.135 80.5609C360.835 80.8603 360.48 81.0977 360.088 81.2597C359.697 81.4217 359.277 81.5051 358.853 81.5051Z" fill="white" stroke="#263238" stroke-linecap="round" stroke-linejoin="round"/>
<path d="M357.98 80.2663H347.867C347.443 80.2663 347.024 80.1829 346.632 80.0209C346.241 79.8589 345.885 79.6215 345.585 79.3222C345.286 79.0228 345.048 78.6675 344.886 78.2764C344.724 77.8853 344.64 77.4662 344.64 77.0429V66.9263H361.2V77.0429C361.2 77.8966 360.861 78.7155 360.257 79.3198C359.654 79.9241 358.835 80.2645 357.98 80.2663Z" fill="#8B0000" stroke="#263238" stroke-linecap="round" stroke-linejoin="round"/>
<path d="M351.767 87.246H354.1V81.585H351.767V87.246Z" fill="#8B0000" stroke="#263238" stroke-linecap="round" stroke-linejoin="round"/>
<path d="M345.8 78.3349H359.974V57.4158H345.8V78.3349Z" fill="white" stroke="#263238" stroke-linecap="round" stroke-linejoin="round"/>
<path d="M351.94 50.5227C351.167 50.2041 350.506 49.6629 350.042 48.9678C349.578 48.2728 349.331 47.4555 349.334 46.62V45.954" fill="white"/>
<path d="M351.94 50.5227C351.167 50.2041 350.506 49.6629 350.042 48.9678C349.578 48.2728 349.331 47.4555 349.334 46.62V45.954" stroke="#263238" stroke-width="3" stroke-linecap="round" stroke-linejoin="round"/>
<path d="M426.347 234.765H331.014V276.836H426.347V234.765Z" fill="white" stroke="#263238" stroke-linecap="round" stroke-linejoin="round"/>
<path d="M354.567 263.516C353.387 263.516 352.256 263.048 351.423 262.215C350.589 261.382 350.12 260.252 350.12 259.074V237.762C350.12 236.584 350.589 235.454 351.423 234.621C352.256 233.788 353.387 233.32 354.567 233.32C355.746 233.32 356.877 233.788 357.711 234.621C358.545 235.454 359.013 236.584 359.013 237.762V259.074C359.013 260.252 358.545 261.382 357.711 262.215C356.877 263.048 355.746 263.516 354.567 263.516Z" fill="#263238" stroke="#263238" stroke-linecap="round" stroke-linejoin="round"/>
<path d="M356.787 191.695L342.567 237.316" stroke="#263238" stroke-width="8" stroke-linecap="round" stroke-linejoin="round"/>
<path d="M437.667 117.549H398.094C397.352 117.546 396.622 117.728 395.968 118.076C395.314 118.425 394.757 118.93 394.347 119.547C388.867 127.872 368.307 159.174 368.794 161.172C369.347 163.503 361.014 232.101 361.014 232.101H428L452.474 163.203C453.246 161.241 453.34 159.078 452.74 157.056L442 120.752C441.723 119.822 441.15 119.006 440.369 118.428C439.587 117.85 438.639 117.542 437.667 117.549Z" fill="#263238" stroke="#263238" stroke-linecap="round" stroke-linejoin="round"/>
<path d="M435 117.549H395.427C394.685 117.546 393.955 117.728 393.301 118.076C392.647 118.425 392.09 118.93 391.68 119.547C386.2 127.872 365.64 159.174 366.127 161.172C366.68 163.503 358.347 232.101 358.347 232.101H425.333L449.807 163.203C450.579 161.241 450.673 159.078 450.073 157.056L439.333 120.752C439.056 119.822 438.483 119.006 437.702 118.428C436.92 117.85 435.972 117.542 435 117.549Z" fill="#BDBDBD" stroke="#263238" stroke-linecap="round" stroke-linejoin="round"/>
<path d="M426.347 234.765H356.014L387.167 218.748L426.347 234.765Z" fill="#263238" stroke="#263238" stroke-linecap="round" stroke-linejoin="round"/>
<path d="M362.527 163.769L351.68 171.608C351.68 171.608 332.12 173.16 327.68 173.16C324.403 173.091 321.136 172.795 317.9 172.274C317.9 172.274 312.787 169.384 309.68 168.718C306.573 168.052 302.567 169.61 301.233 170.496C299.9 171.382 297.013 171.608 296.787 172.94C296.56 174.272 299.013 174.712 299.9 174.712C301.182 174.518 302.446 174.222 303.68 173.826C303.68 173.826 301.453 175.158 301.68 176.27C301.907 177.382 309.013 181.152 310.12 181.152C311.227 181.152 315.9 180.266 315.9 180.266C315.9 180.266 332.567 180.486 338.567 180.486H355.68L368.347 173.999L362.527 163.769Z" fill="white" stroke="#263238" stroke-linecap="round" stroke-linejoin="round"/>
<path d="M340.927 176.856C338.642 176.898 336.373 176.472 334.26 175.604C333.453 175.245 332.707 174.898 332 174.565C327.94 172.66 326.047 171.182 319.54 172.707C319.18 172.787 318.813 172.707 317.927 172.274C317.6 172.108 317.087 171.881 317.447 171.795C324.407 170.17 328.407 171.408 332.567 173.36C333.267 173.686 334 174.026 334.793 174.379C339.98 176.656 346.733 174.805 346.793 174.785C346.878 174.761 346.966 174.753 347.054 174.763C347.141 174.773 347.226 174.8 347.302 174.843C347.379 174.886 347.447 174.943 347.501 175.012C347.556 175.081 347.596 175.16 347.62 175.245C347.644 175.329 347.651 175.418 347.641 175.506C347.631 175.593 347.603 175.678 347.56 175.755C347.516 175.832 347.458 175.899 347.388 175.953C347.318 176.008 347.239 176.047 347.153 176.07C345.118 176.589 343.027 176.853 340.927 176.856Z" fill="#263238"/>
<path d="M345.867 173.027C346.651 174.422 347.028 176.01 346.953 177.609H349.8C349.8 177.609 349.613 174.419 348.92 173.247L345.867 173.027Z" fill="white" stroke="#263238" stroke-linecap="round" stroke-linejoin="round"/>
<path d="M427.46 180.04C427.46 180.04 436.127 179.154 436.127 178.042C436.127 176.93 436.793 157.622 435.68 155.178C434.567 152.734 426.793 150.516 411.9 151.182C408.12 151.348 401.233 150.07 401.233 150.07C401.233 150.07 395.953 151.708 392.62 151.708C389.287 151.708 383.287 150.416 375.507 154.612C372.053 156.51 366.127 161.172 366.127 161.172L359.927 165.648L365.333 175.551L376.793 170.409C376.793 170.409 374.793 176.97 374.9 181.658C374.973 184.988 378.187 189.051 378.32 193.826C378.593 203.676 375.827 214.592 375.827 214.592C383.273 216.508 390.326 219.711 396.667 224.056C400.327 226.58 408.06 229.084 408.293 229.197C408.527 229.31 418.62 227.073 419.253 226.067C422.587 220.706 422.807 215.444 421.253 209.31L417.433 197.176L420.767 182.038L427.46 180.04Z" fill="#8B0000" stroke="#263238" stroke-linecap="round" stroke-linejoin="round"/>
<path d="M304.113 173.406L307.18 171.768C307.399 171.646 307.646 171.581 307.897 171.581C308.148 171.581 308.394 171.646 308.613 171.768C310.713 173.007 316.753 176.65 316.567 177.569C316.347 178.674 315.013 179.34 315.013 179.34L309.207 181.338L301.48 176.676C301.48 176.676 299.447 175.624 304.113 173.406Z" fill="white" stroke="#263238" stroke-linecap="round" stroke-linejoin="round"/>
<path d="M309.793 172.98C309.793 172.98 306.253 176.517 303.053 177.203" stroke="#263238" stroke-linecap="round" stroke-linejoin="round"/>
<path d="M312.667 174.579C312.667 174.579 309.333 178.228 305.807 178.914" stroke="#263238" stroke-linecap="round" stroke-linejoin="round"/>
<path d="M314.367 175.824C314.367 175.824 313.447 178.108 309.107 180.486" stroke="#263238" stroke-linecap="round" stroke-linejoin="round"/>
<path d="M359.787 180.266H310.673C309.631 180.266 308.787 181.11 308.787 182.151V191.701C308.787 192.742 309.631 193.586 310.673 193.586H359.787C360.829 193.586 361.673 192.742 361.673 191.701V182.151C361.673 181.11 360.829 180.266 359.787 180.266Z" fill="#BDBDBD" stroke="#263238" stroke-linecap="round" stroke-linejoin="round"/>
<path d="M359.787 180.266H324.46C323.418 180.266 322.573 181.11 322.573 182.151V191.701C322.573 192.742 323.418 193.586 324.46 193.586H359.787C360.829 193.586 361.673 192.742 361.673 191.701V182.151C361.673 181.11 360.829 180.266 359.787 180.266Z" fill="#263238" stroke="#263238" stroke-linecap="round" stroke-linejoin="round"/>
<path d="M303.707 218.748L302.04 218.242C301.579 218.103 301.092 218.077 300.619 218.165C300.146 218.253 299.7 218.453 299.32 218.748L253.653 254.412C253.16 254.796 252.799 255.324 252.621 255.923C252.443 256.521 252.457 257.161 252.66 257.751C252.864 258.342 253.247 258.854 253.756 259.217C254.265 259.579 254.875 259.774 255.5 259.773H343.333L387.153 218.781L303.707 218.748Z" fill="#BDBDBD" stroke="#263238" stroke-linecap="round" stroke-linejoin="round"/>
<path d="M383.514 203.503C378.707 200.706 367.1 198.508 367.1 198.508C367.1 198.508 333.1 189.104 328.467 189.304C323.834 189.504 286.434 223.11 285.834 223.303C285.234 223.496 283.434 224.302 283.434 224.302C283.434 224.302 280.027 224.502 273.02 219.7C266.014 214.898 261.814 209.504 259.614 211.708C257.414 213.913 259.414 224.509 263.614 232.707C267.814 240.905 274.22 245.501 275.227 245.9C276.234 246.3 286.034 238.907 287.834 237.502C289.634 236.097 303.047 227.905 309.834 224.708C316.62 221.512 327.467 213.12 329.067 211.502C329.894 210.658 330.764 209.858 331.674 209.104C331.674 209.104 355.087 217.702 361.894 218.301C362.874 218.388 363.954 218.548 365.087 218.748H387.167L384.054 221.658C385.282 221.654 386.508 221.533 387.714 221.298C395.52 219.7 388.32 206.307 383.514 203.503Z" fill="white" stroke="#263238" stroke-linecap="round" stroke-linejoin="round"/>
<path d="M383.514 203.503C378.707 200.706 367.1 198.508 367.1 198.508C367.1 198.508 333.1 189.104 328.467 189.304C325.62 189.43 310.207 202.337 298.72 212.208C303.027 213.54 309.914 216.723 312.187 223.49C318.894 219.76 327.64 212.927 329.067 211.502C329.894 210.658 330.764 209.858 331.674 209.104C331.674 209.104 355.087 217.702 361.894 218.301C362.874 218.388 363.954 218.548 365.087 218.748H387.167L384.054 221.658C385.282 221.654 386.508 221.533 387.714 221.298C395.52 219.7 388.32 206.307 383.514 203.503Z" fill="#263238" stroke="#263238" stroke-linecap="round" stroke-linejoin="round"/>
<path d="M277.333 237.875C274.24 235.551 269.08 225.221 269.08 225.221C269.08 225.221 270.367 221.891 270.367 219.807C270.333 218.929 270.134 218.066 269.78 217.263C264.707 213.267 261.48 209.85 259.647 211.681C257.44 213.879 259.447 224.482 263.647 232.68C267.847 240.879 274.253 245.474 275.26 245.874C275.8 246.094 278.9 244.042 281.927 241.878C280.484 240.446 278.949 239.109 277.333 237.875Z" fill="#263238" stroke="#263238" stroke-linecap="round" stroke-linejoin="round"/>
<path d="M263.614 232.7C267.3 239.887 272.674 244.302 274.62 245.554C273.92 244.222 272.854 242.224 271.42 239.7C267.707 232.936 264.818 225.752 262.814 218.301C261.114 211.815 260.147 211.415 259.774 211.568C259.716 211.607 259.662 211.652 259.614 211.701C257.407 213.899 259.414 224.502 263.614 232.7Z" fill="white" stroke="#263238" stroke-linecap="round" stroke-linejoin="round"/>
<path d="M420.054 205.561C417.967 203.749 410.594 202.391 407.067 201.918C397.24 198.681 383.58 195.311 379.107 192.707C371.9 188.505 364.1 190.509 360.894 194.106C357.687 197.702 342.08 216.503 336.474 223.503C333.21 227.619 329.446 231.313 325.267 234.499C325.267 234.499 318.26 232.7 313.854 229.497C309.447 226.293 303.854 220.699 301.247 223.703C298.64 226.706 307.247 241.298 309.247 244.895C311.247 248.491 315.747 256.656 317.247 256.883C321.047 257.482 330.054 246.487 333.46 244.682C336.867 242.877 345.88 234.299 355.087 229.104C363.354 224.442 372.507 213.906 372.507 213.906C374.584 215.712 376.815 217.335 379.174 218.754H387.174C386.287 219.567 406.067 228.525 410.667 228.438C416.72 229.53 421.234 224.815 422.287 221.665C423.607 217.815 424.894 209.75 420.054 205.561Z" fill="white" stroke="#263238" stroke-linecap="round" stroke-linejoin="round"/>
<path d="M301.247 223.703C298.64 226.7 307.247 241.298 309.247 244.895C311.247 248.491 315.747 256.656 317.247 256.883C319.134 257.183 322.314 254.612 325.447 251.735L312.907 235.025C313.427 234.123 313.857 233.173 314.194 232.188C314.346 231.74 314.394 231.263 314.332 230.794C314.271 230.326 314.103 229.877 313.84 229.484C309.454 226.3 303.847 220.699 301.247 223.703Z" fill="#263238" stroke="#263238" stroke-linecap="round" stroke-linejoin="round"/>
<path d="M422.313 221.685C423.607 217.815 424.893 209.75 420.053 205.561C417.967 203.749 410.593 202.391 407.067 201.918C397.24 198.681 383.58 195.311 379.107 192.707C371.9 188.505 364.1 190.509 360.893 194.106C358.227 197.096 347.02 210.563 340.08 219.054C343.5 218.714 351.413 219.121 354.567 229.404L355.087 229.097C363.353 224.435 372.507 213.899 372.507 213.899C374.584 215.706 376.814 217.328 379.173 218.748H387.173C386.287 219.567 406.067 228.525 410.667 228.438C416.747 229.55 421.26 224.835 422.313 221.685Z" fill="#263238" stroke="#263238" stroke-linecap="round" stroke-linejoin="round"/>
<path d="M372.507 213.899C374.787 210.852 376.732 207.567 378.307 204.102" stroke="#858585" stroke-linecap="round" stroke-linejoin="round"/>
<path d="M319.86 255.897C319.46 252.694 309.253 234.698 305.647 228.098C303.087 223.436 301.54 223.869 300.853 224.535C299.86 228.764 307.393 241.558 309.253 244.895C311.253 248.498 315.753 256.656 317.253 256.883C318.183 256.918 319.099 256.654 319.867 256.13C319.87 256.053 319.868 255.975 319.86 255.897Z" fill="white" stroke="#263238" stroke-linecap="round" stroke-linejoin="round"/>
<path d="M343.334 259.74C342.708 259.741 342.099 259.546 341.589 259.184C341.08 258.821 340.697 258.309 340.494 257.718C340.29 257.128 340.277 256.488 340.455 255.889C340.633 255.291 340.994 254.763 341.487 254.379L387.154 218.748C387.533 218.453 387.977 218.253 388.449 218.165C388.921 218.077 389.407 218.103 389.867 218.242L426.2 229.231C426.578 229.345 426.929 229.532 427.234 229.782C427.539 230.031 427.791 230.339 427.977 230.686C428.163 231.033 428.279 231.414 428.318 231.805C428.357 232.197 428.318 232.593 428.204 232.97C428.089 233.347 427.902 233.698 427.652 234.002C427.402 234.307 427.094 234.559 426.747 234.745C426.399 234.931 426.018 235.047 425.626 235.086C425.234 235.124 424.838 235.086 424.46 234.971L389.634 224.442L345.194 259.121C344.661 259.53 344.006 259.748 343.334 259.74Z" fill="#263238" stroke="#263238" stroke-linecap="round" stroke-linejoin="round"/>
<path d="M439.9 191.695L425.68 237.316" stroke="#263238" stroke-width="8" stroke-linecap="round" stroke-linejoin="round"/>
<path d="M426.347 234.765H382.567V276.836H426.347V234.765Z" fill="white" stroke="#263238" stroke-linecap="round" stroke-linejoin="round"/>
<path d="M384.723 294.631C385.706 290.452 383.112 286.269 378.929 285.287C374.746 284.305 370.558 286.897 369.576 291.076C368.593 295.254 371.187 299.438 375.37 300.419C379.553 301.401 383.741 298.809 384.723 294.631Z" fill="#263238" stroke="#263238" stroke-linecap="round" stroke-linejoin="round"/>
<path d="M381.714 292.82C381.714 293.728 381.444 294.615 380.939 295.37C380.435 296.124 379.717 296.712 378.878 297.06C378.039 297.407 377.115 297.498 376.224 297.321C375.333 297.144 374.515 296.707 373.872 296.065C373.23 295.423 372.792 294.606 372.615 293.715C372.438 292.825 372.529 291.903 372.877 291.064C373.224 290.226 373.813 289.509 374.568 289.005C375.324 288.501 376.212 288.231 377.12 288.231C378.338 288.231 379.507 288.715 380.368 289.575C381.23 290.436 381.714 291.603 381.714 292.82Z" fill="white" stroke="#263238" stroke-linecap="round" stroke-linejoin="round"/>
<path d="M369.247 281.019V285.607H377.12V292.82H380.073L385.327 285.607V281.019H369.247Z" fill="white" stroke="#263238" stroke-linecap="round" stroke-linejoin="round"/>
<path d="M455.848 294.674C456.892 290.511 454.359 286.29 450.191 285.247C446.023 284.204 441.798 286.734 440.754 290.898C439.71 295.062 442.243 299.283 446.411 300.326C450.579 301.368 454.804 298.838 455.848 294.674Z" fill="#263238" stroke="#263238" stroke-linecap="round" stroke-linejoin="round"/>
<path d="M452.92 292.82C452.92 293.728 452.651 294.615 452.146 295.37C451.641 296.124 450.924 296.712 450.085 297.06C449.245 297.407 448.322 297.498 447.431 297.321C446.54 297.144 445.721 296.707 445.079 296.065C444.436 295.423 443.999 294.606 443.822 293.715C443.644 292.825 443.735 291.903 444.083 291.064C444.431 290.226 445.019 289.509 445.775 289.005C446.53 288.501 447.418 288.231 448.327 288.231C449.544 288.233 450.712 288.717 451.573 289.577C452.434 290.438 452.918 291.604 452.92 292.82Z" fill="white" stroke="#263238" stroke-linecap="round" stroke-linejoin="round"/>
<path d="M440.454 281.019V285.607H448.327V292.82H451.28L456.527 285.607V281.019H440.454Z" fill="white" stroke="#263238" stroke-linecap="round" stroke-linejoin="round"/>
<path d="M407.97 294.693C409.006 290.527 406.465 286.311 402.295 285.276C398.125 284.241 393.905 286.779 392.869 290.945C391.833 295.111 394.374 299.327 398.544 300.362C402.714 301.397 406.934 298.859 407.97 294.693Z" fill="#263238" stroke="#263238" stroke-linecap="round" stroke-linejoin="round"/>
<path d="M405.013 292.82C405.013 293.728 404.744 294.615 404.239 295.37C403.734 296.124 403.017 296.712 402.178 297.06C401.338 297.407 400.415 297.498 399.524 297.321C398.633 297.144 397.814 296.707 397.172 296.065C396.53 295.423 396.092 294.606 395.915 293.715C395.738 292.825 395.829 291.903 396.176 291.064C396.524 290.226 397.113 289.509 397.868 289.005C398.623 288.501 399.512 288.231 400.42 288.231C401.638 288.233 402.805 288.717 403.666 289.577C404.527 290.438 405.012 291.604 405.013 292.82Z" fill="white" stroke="#263238" stroke-linecap="round" stroke-linejoin="round"/>
<path d="M392.547 281.019V285.607H400.42V292.82H403.374L408.62 285.607V281.019H392.547Z" fill="white" stroke="#263238" stroke-linecap="round" stroke-linejoin="round"/>
<path d="M310.886 294.621C311.869 290.442 309.275 286.259 305.092 285.277C300.909 284.295 296.721 286.887 295.739 291.066C294.756 295.245 297.35 299.428 301.533 300.41C305.716 301.391 309.904 298.8 310.886 294.621Z" fill="#263238" stroke="#263238" stroke-linecap="round" stroke-linejoin="round"/>
<path d="M307.887 292.82C307.887 293.728 307.617 294.615 307.113 295.37C306.608 296.124 305.891 296.712 305.051 297.06C304.212 297.407 303.288 297.498 302.397 297.321C301.506 297.144 300.688 296.707 300.046 296.065C299.403 295.423 298.966 294.606 298.788 293.715C298.611 292.825 298.702 291.903 299.05 291.064C299.397 290.226 299.986 289.509 300.742 289.005C301.497 288.501 302.385 288.231 303.294 288.231C304.511 288.233 305.679 288.717 306.54 289.577C307.401 290.438 307.885 291.604 307.887 292.82Z" fill="white" stroke="#263238" stroke-linecap="round" stroke-linejoin="round"/>
<path d="M295.414 281.019V285.607H303.294V292.82H306.247L311.494 285.607V281.019H295.414Z" fill="white" stroke="#263238" stroke-linecap="round" stroke-linejoin="round"/>
<path d="M461.233 275.944H367.9V281.718H461.233V275.944Z" fill="white" stroke="#263238" stroke-linecap="round" stroke-linejoin="round"/>
<path d="M458.567 275.944H365.233V281.718H458.567V275.944Z" fill="white" stroke="#263238" stroke-linecap="round" stroke-linejoin="round"/>
<path d="M432.787 275.944H367.9V281.718H432.787V275.944Z" fill="white" stroke="#263238" stroke-linecap="round" stroke-linejoin="round"/>
<path d="M384.787 275.944H291.454V281.718H384.787V275.944Z" fill="white" stroke="#263238" stroke-linecap="round" stroke-linejoin="round"/>
<path d="M380.787 275.944H287.454V281.718H380.787V275.944Z" fill="white" stroke="#263238" stroke-linecap="round" stroke-linejoin="round"/>
<path d="M438.014 180.266H402.9C401.858 180.266 401.014 181.11 401.014 182.151V191.701C401.014 192.742 401.858 193.586 402.9 193.586H438.014C439.056 193.586 439.9 192.742 439.9 191.701V182.151C439.9 181.11 439.056 180.266 438.014 180.266Z" fill="#BDBDBD" stroke="#263238" stroke-linecap="round" stroke-linejoin="round"/>
<path d="M444.68 180.266H413.034C411.992 180.266 411.147 181.11 411.147 182.151V191.701C411.147 192.742 411.992 193.586 413.034 193.586H444.68C445.722 193.586 446.567 192.742 446.567 191.701V182.151C446.567 181.11 445.722 180.266 444.68 180.266Z" fill="#263238" stroke="#263238" stroke-linecap="round" stroke-linejoin="round"/>
<path d="M421.014 156.51L420.127 170.942C420.127 170.942 403.46 174.938 402.347 176.044C401.234 177.149 393.234 187.366 392.794 188.032C392.354 188.698 394.127 191.362 395.014 192.028C395.9 192.694 398.347 194.692 399.68 194.026C401.014 193.36 404.127 192.028 404.127 191.362C404.127 190.696 402.127 190.256 402.127 190.256L407.9 180.04H433.9C433.9 180.04 436.347 178.934 436.347 176.49C436.347 174.046 436.087 166.72 436.087 166.72L436.194 160.06" fill="#961919"/>
<path d="M421.014 156.51L420.127 170.942C420.127 170.942 403.46 174.938 402.347 176.044C401.234 177.149 393.234 187.366 392.794 188.032C392.354 188.698 394.127 191.362 395.014 192.028C395.9 192.694 398.347 194.692 399.68 194.026C401.014 193.36 404.127 192.028 404.127 191.362C404.127 190.696 402.127 190.256 402.127 190.256L407.9 180.04H433.9C433.9 180.04 436.347 178.934 436.347 176.49C436.347 174.046 436.087 166.72 436.087 166.72L436.194 160.06" stroke="#263238" stroke-linecap="round" stroke-linejoin="round"/>
<path d="M433.9 180.04C433.9 180.04 436.347 178.934 436.347 176.49C436.347 174.805 436.674 170.343 436.347 168.278C429.9 164.735 423.454 167.073 420.267 168.578L420.12 170.942C420.12 170.942 403.454 174.938 402.347 176.044C401.24 177.149 393.234 187.366 392.787 188.032C392.34 188.698 394.12 191.362 395.014 192.028C395.907 192.694 398.347 194.692 399.68 194.026C401.014 193.36 404.12 192.028 404.12 191.362C404.12 190.696 402.12 190.256 402.12 190.256L407.9 180.04H433.9Z" fill="white" stroke="#263238" stroke-linecap="round" stroke-linejoin="round"/>
<path d="M393.9 188.924L396.127 192.474" stroke="#263238" stroke-linecap="round" stroke-linejoin="round"/>
<path d="M396.347 189.81L399.68 194.026" stroke="#263238" stroke-linecap="round" stroke-linejoin="round"/>
<path d="M402.12 190.256L400.567 192.474" stroke="#263238" stroke-linecap="round" stroke-linejoin="round"/>
<path d="M406.874 120.992H426.667C427.09 120.992 427.509 121.08 427.896 121.252C428.284 121.423 428.63 121.674 428.914 121.988C429.198 122.302 429.413 122.672 429.545 123.074C429.677 123.476 429.723 123.901 429.68 124.322L427.634 144.462C427.559 145.2 427.215 145.885 426.668 146.387C426.122 146.889 425.409 147.173 424.667 147.186H403.8C403.363 147.186 402.932 147.092 402.535 146.91C402.138 146.728 401.785 146.463 401.5 146.132C401.215 145.801 401.005 145.413 400.884 144.994C400.764 144.575 400.735 144.134 400.8 143.703L403.88 123.563C403.99 122.848 404.352 122.196 404.901 121.725C405.45 121.253 406.15 120.993 406.874 120.992Z" fill="white" stroke="#263238" stroke-linecap="round" stroke-linejoin="round"/>
<path d="M393.127 118.009C393.127 118.009 391.04 121.132 391.04 123.39C391.04 125.648 391.707 128.425 391.04 130.336C390.373 132.248 387.393 132.767 388.087 133.979C388.666 134.883 389.368 135.701 390.173 136.41C390.173 136.41 391.56 144.569 392.427 145.268C393.293 145.967 400.073 145.095 400.073 145.095L397.467 151.182C397.467 151.182 391.56 160.732 391.733 168.718C393.212 167.722 394.607 166.608 395.907 165.388C398.167 163.31 411.72 152.734 413.287 152.194C414.853 151.655 416.76 150.11 413.113 136.21C409.467 122.311 402.16 116.77 398.86 115.897C395.56 115.025 393.127 118.009 393.127 118.009Z" fill="white" stroke="#263238" stroke-linecap="round" stroke-linejoin="round"/>
<path d="M391.934 137.962C391.934 137.962 394.08 138.854 396.947 137.069" stroke="#263238" stroke-linecap="round" stroke-linejoin="round"/>
<path d="M395.854 129.384C395.854 130.05 395.62 130.649 395.274 130.663C394.927 130.676 394.607 130.123 394.607 129.43C394.607 128.738 394.84 128.172 395.187 128.158C395.534 128.145 395.827 128.691 395.854 129.384Z" fill="#263238"/>
<path d="M393.153 126.328C393.153 126.328 395.3 124.328 397.453 126.328" stroke="#263238" stroke-linecap="round" stroke-linejoin="round"/>
<path d="M430.08 144.229C430.08 144.229 430.327 146.706 426.853 145.714C424.927 145.161 424.853 142.384 425.14 140.04C425.213 139.86 425.293 139.687 425.373 139.527C427.04 136.197 430.707 128.784 426.707 120.992C422.707 113.2 415.007 106.866 409.007 107.226C405.006 107.538 401.073 108.435 397.333 109.89C397.333 109.89 389.333 109.557 388.667 113.553C388.32 115.644 389.527 117.283 390.753 118.368C391.561 119.096 392.62 119.483 393.707 119.447C395.052 119.457 396.392 119.604 397.707 119.887C397.707 119.887 398.373 124.842 398.473 125.175C399.64 129.497 402.4 132.361 405.66 134.985C406.151 135.622 406.544 136.33 406.827 137.083C408.567 141.532 404.107 147.226 403.607 151.928C403.107 156.63 408.067 154.898 408.813 158.115C409.56 161.332 405.593 161.578 405.593 161.578C405.593 161.578 406.827 166.034 411.54 163.809C415.167 162.091 415.7 157.289 414.96 153.473C415.977 153.433 416.988 153.297 417.98 153.067C422.193 156.71 426.127 154.599 429.127 152.674C432.553 150.416 430.08 144.229 430.08 144.229Z" fill="#263238" stroke="#263238" stroke-linecap="round" stroke-linejoin="round"/>
<path d="M126.9 44.975H124.233V294.725H126.9V44.975Z" fill="white" stroke="#263238" stroke-linecap="round" stroke-linejoin="round"/>
<path d="M140.553 294.632H110.347V296.363H140.553V294.632Z" fill="white" stroke="#263238" stroke-linecap="round" stroke-linejoin="round"/>
<path d="M141 298.448C141 298.025 140.875 297.612 140.64 297.26C140.404 296.909 140.07 296.635 139.679 296.473C139.288 296.311 138.858 296.269 138.443 296.351C138.028 296.434 137.646 296.637 137.347 296.936C137.048 297.235 136.844 297.616 136.761 298.031C136.679 298.446 136.721 298.875 136.883 299.266C137.045 299.657 137.319 299.991 137.671 300.225C138.023 300.46 138.437 300.586 138.86 300.586C139.428 300.586 139.972 300.361 140.373 299.96C140.775 299.559 141 299.015 141 298.448Z" fill="#263238" stroke="#263238" stroke-linecap="round" stroke-linejoin="round"/>
<path d="M114.34 298.448C114.34 298.025 114.215 297.612 113.979 297.26C113.744 296.909 113.41 296.635 113.019 296.473C112.628 296.311 112.198 296.269 111.783 296.351C111.367 296.434 110.986 296.637 110.687 296.936C110.388 297.235 110.184 297.616 110.101 298.031C110.019 298.446 110.061 298.875 110.223 299.266C110.385 299.657 110.659 299.991 111.011 300.225C111.363 300.46 111.777 300.586 112.2 300.586C112.768 300.586 113.312 300.361 113.713 299.96C114.115 299.559 114.34 299.015 114.34 298.448Z" fill="#263238" stroke="#263238" stroke-linecap="round" stroke-linejoin="round"/>
<path d="M101.12 45.5078V46.1738C101.12 47.2913 101.564 48.3633 102.353 49.1548C103.143 49.9462 104.215 50.3927 105.333 50.3962H106.227C106.782 50.3962 107.331 50.2869 107.843 50.0746C108.356 49.8624 108.821 49.5512 109.213 49.1591C109.605 48.7669 109.916 48.3014 110.127 47.7891C110.339 47.2769 110.448 46.7279 110.447 46.1738V45.5078H141.113V46.62C141.113 47.7381 141.558 48.8104 142.349 49.601C143.141 50.3916 144.214 50.8358 145.333 50.8358C145.889 50.8375 146.439 50.7298 146.952 50.5187C147.466 50.3076 147.933 49.9973 148.326 49.6057C148.719 49.214 149.031 48.7487 149.244 48.2364C149.457 47.724 149.567 47.1747 149.567 46.62V45.954" stroke="#263238" stroke-width="3" stroke-linecap="round" stroke-linejoin="round"/>
<path d="M145.933 87.4125V181.205" stroke="#263238" stroke-width="2" stroke-linecap="round" stroke-linejoin="round"/>
<path d="M148.353 49.2174C147.801 48.6958 147.074 48.399 146.314 48.3855C145.554 48.3719 144.817 48.6425 144.247 49.1441C142.827 50.3962 141.02 51.9879 139.893 52.967C137.833 54.7652 136.807 55.5377 136.807 55.5377H155.08L148.353 49.2174Z" fill="white" stroke="#263238" stroke-linecap="round" stroke-linejoin="round"/>
<path d="M136.807 55.5377H155.1V78.2816C155.1 79.1365 154.76 79.9564 154.155 80.5609C153.55 81.1654 152.729 81.5051 151.873 81.5051H140C139.144 81.5051 138.324 81.1654 137.719 80.5609C137.113 79.9564 136.773 79.1365 136.773 78.2816V55.5377H136.807Z" fill="white" stroke="#263238" stroke-linecap="round" stroke-linejoin="round"/>
<path d="M137.673 66.933H154.22V77.0495C154.22 77.4728 154.137 77.892 153.974 78.2831C153.812 78.6742 153.575 79.0295 153.275 79.3288C152.975 79.6282 152.62 79.8656 152.228 80.0276C151.837 80.1896 151.417 80.273 150.993 80.273H140.9C140.044 80.273 139.224 79.9334 138.618 79.3288C138.013 78.7243 137.673 77.9044 137.673 77.0495V66.933Z" fill="#8B0000" stroke="#263238" stroke-linecap="round" stroke-linejoin="round"/>
<path d="M147.12 81.585H144.787V87.246H147.12V81.585Z" fill="#8B0000" stroke="#263238" stroke-linecap="round" stroke-linejoin="round"/>
<path d="M153.086 57.4225H138.913V78.3416H153.086V57.4225Z" fill="white" stroke="#263238" stroke-linecap="round" stroke-linejoin="round"/>
<path d="M146.94 50.5227C147.716 50.2065 148.381 49.6664 148.849 48.9713C149.316 48.2762 149.566 47.4576 149.567 46.62V45.954" fill="white"/>
<path d="M146.94 50.5227C147.716 50.2065 148.381 49.6664 148.849 48.9713C149.316 48.2762 149.566 47.4576 149.567 46.62V45.954" stroke="#263238" stroke-width="3" stroke-linecap="round" stroke-linejoin="round"/>
<path d="M51.5465 276.836H146.88V234.765H51.5465V276.836Z" fill="white" stroke="#263238" stroke-linecap="round" stroke-linejoin="round"/>
<path d="M118.88 259.074C118.88 261.527 120.869 263.516 123.323 263.516C125.777 263.516 127.767 261.527 127.767 259.074V237.769C127.767 235.315 125.777 233.326 123.323 233.326C120.869 233.326 118.88 235.315 118.88 237.769V259.074Z" fill="#263238" stroke="#263238" stroke-linecap="round" stroke-linejoin="round"/>
<path d="M121.1 191.695L135.32 237.316" stroke="#263238" stroke-width="8" stroke-linecap="round" stroke-linejoin="round"/>
<path d="M40.2268 117.549H79.8002C80.5403 117.548 81.2692 117.729 81.9218 118.078C82.5745 118.427 83.1305 118.931 83.5402 119.547C89.0268 127.872 109.58 159.174 109.1 161.172C108.54 163.503 116.874 232.101 116.874 232.101H49.8735L25.4002 163.203C24.6274 161.241 24.5335 159.078 25.1335 157.056L35.9202 120.752C36.1972 119.827 36.7659 119.015 37.5419 118.437C38.3178 117.86 39.2594 117.549 40.2268 117.549Z" fill="#263238" stroke="#263238" stroke-linecap="round" stroke-linejoin="round"/>
<path d="M42.8933 117.549H82.4667C83.2068 117.548 83.9357 117.729 84.5883 118.078C85.241 118.427 85.797 118.931 86.2067 119.547C91.6933 127.872 112.247 159.174 111.767 161.172C111.207 163.503 119.54 232.101 119.54 232.101H52.54L28.0667 163.203C27.2939 161.241 27.2 159.078 27.8 157.056L38.5867 120.752C38.8637 119.827 39.4324 119.015 40.2084 118.437C40.9843 117.86 41.9259 117.549 42.8933 117.549Z" fill="#BDBDBD" stroke="#263238" stroke-linecap="round" stroke-linejoin="round"/>
<path d="M66.4933 120.992H46.6666C46.2431 120.992 45.8242 121.08 45.4371 121.252C45.0499 121.423 44.7031 121.674 44.4191 121.988C44.1351 122.302 43.9202 122.672 43.7883 123.074C43.6563 123.476 43.6104 123.901 43.6533 124.322L45.6999 144.462C45.7761 145.21 46.128 145.904 46.6874 146.407C47.2468 146.911 47.9737 147.188 48.7266 147.186H69.5666C70.0033 147.186 70.4349 147.092 70.8319 146.91C71.2289 146.728 71.5818 146.463 71.8667 146.132C72.1515 145.801 72.3615 145.413 72.4823 144.994C72.6031 144.575 72.6319 144.134 72.5666 143.703L69.4933 123.563C69.3833 122.847 69.0203 122.194 68.4699 121.722C67.9196 121.251 67.2183 120.992 66.4933 120.992Z" fill="white" stroke="#263238" stroke-linecap="round" stroke-linejoin="round"/>
<path d="M51.54 234.765H121.873L90.72 218.748L51.54 234.765Z" fill="#263238" stroke="#263238" stroke-linecap="round" stroke-linejoin="round"/>
<path d="M76.6668 150.07C76.6668 150.07 91.5535 151.628 94.8868 151.628C98.2201 151.628 101.553 151.182 104.22 154.066C106.887 156.95 111.767 161.172 111.767 161.172L126.207 171.608C126.207 171.608 145.767 173.16 150.207 173.16C153.488 173.091 156.76 172.795 160 172.274C160 172.274 165.113 169.384 168.22 168.718C171.327 168.052 175.333 169.61 176.667 170.496C178 171.382 180.887 171.608 181.113 172.94C181.34 174.272 178.887 174.712 178 174.712C176.718 174.518 175.454 174.222 174.22 173.826C174.22 173.826 176.447 175.158 176.22 176.27C175.993 177.382 168.887 181.152 167.78 181.152C166.673 181.152 162 180.266 162 180.266C162 180.266 145.333 180.486 139.333 180.486H122.207L102.667 170.496C102.667 170.496 104 187.812 104 188.698C104 189.584 107.333 199.354 107.333 199.354C107.333 199.354 78.0001 212.008 77.1135 212.454C76.2268 212.9 71.3335 217.116 71.3335 217.116C71.3335 217.116 65.1135 205.574 64.0001 202.91C62.8868 200.246 57.1135 182.038 57.1135 182.038L50.4468 180.04C50.4468 180.04 41.7801 179.154 41.7801 178.042C41.7801 176.93 41.1135 157.622 42.2201 155.178C43.3268 152.734 51.1135 150.516 66.0001 151.182C69.7668 151.348 76.6668 150.07 76.6668 150.07Z" fill="white" stroke="#263238" stroke-linecap="round" stroke-linejoin="round"/>
<path d="M160.513 171.881C160.423 171.754 160.291 171.662 160.14 171.622C153.18 169.997 150.14 171.408 146.02 173.36C145.32 173.686 144.587 174.026 143.787 174.379C138.613 176.657 131.847 174.805 131.787 174.785C131.702 174.761 131.614 174.755 131.527 174.765C131.44 174.776 131.355 174.803 131.279 174.846C131.124 174.933 131.011 175.077 130.963 175.248C130.915 175.418 130.937 175.601 131.024 175.755C131.111 175.909 131.256 176.023 131.427 176.07C133.457 176.587 135.544 176.851 137.64 176.856C139.924 176.895 142.192 176.469 144.307 175.604C145.113 175.245 145.853 174.898 146.567 174.565C150.287 172.814 152.86 171.622 158.28 172.607C159.047 172.441 159.795 172.198 160.513 171.881Z" fill="#263238"/>
<path d="M132.667 173.027C131.879 174.421 131.5 176.009 131.573 177.609H128.733C128.733 177.609 128.92 174.419 129.607 173.247L132.667 173.027Z" fill="white" stroke="#263238" stroke-linecap="round" stroke-linejoin="round"/>
<path d="M50.4331 180.04C50.4331 180.04 41.7665 179.154 41.7665 178.042C41.7665 176.93 41.0998 157.622 42.2065 155.178C43.3131 152.734 51.0998 150.516 65.9865 151.182C69.7665 151.348 76.6531 150.07 76.6531 150.07C76.6531 150.07 91.5398 151.628 94.8731 151.628C98.2064 151.628 101.54 151.182 104.206 154.066C106.873 156.95 111.766 161.172 111.766 161.172L117.96 165.648L112.546 175.551L102.666 170.496C102.666 170.496 104 187.812 104 188.698C104 189.584 107.333 199.354 107.333 199.354C107.333 199.354 77.9998 212.008 77.1131 212.454C76.2264 212.9 71.3331 217.116 71.3331 217.116C71.3331 217.116 65.1131 205.574 63.9998 202.91C62.8865 200.246 57.1131 182.038 57.1131 182.038L50.4331 180.04Z" fill="#8B0000" stroke="#263238" stroke-linecap="round" stroke-linejoin="round"/>
<path d="M79.1266 116.35C79.7933 117.869 80.6866 121.585 81.2733 123.15C82.3799 126.114 81.3533 126.733 82.1666 129.584C82.1666 129.584 86.8333 132.627 86.1066 133.52C85.3799 134.412 83.9599 136.743 83.9599 136.743C83.9599 136.743 83.9599 146.733 83.2399 147.293C82.5199 147.852 77.5133 147.293 77.5133 147.293L78.7666 151.229C78.7666 151.229 84.1399 154.985 83.9599 160.712C83.7799 166.44 73.2133 162.857 69.2933 160.533C65.3733 158.208 62.3066 151.948 62.3066 151.948C62.4867 150.463 62.5469 148.967 62.4866 147.472C62.3066 146.22 60.1599 141.751 60.1599 141.751C60.1599 141.751 53.1599 133.866 52.4466 129.204C51.7333 124.542 55.3333 119.214 61.2199 115.817C67.1066 112.421 77.3333 114.385 79.1266 116.35Z" fill="white" stroke="#263238" stroke-linecap="round" stroke-linejoin="round"/>
<path d="M77.8268 111.349C79.8268 112.094 81.3135 113.233 80.9135 114.918C80.7051 115.782 80.2297 116.558 79.5548 117.137C78.8799 117.716 78.0397 118.067 77.1535 118.142C77.1535 118.142 66.2335 119.214 66.2335 120.646C66.2335 122.078 70.5335 124.755 69.8135 125.834C69.2267 126.532 68.3937 126.978 67.4868 127.079C67.4868 127.079 68.7401 130.836 67.1268 131.375C65.5135 131.915 65.5201 130.836 64.4601 130.123C63.4001 129.41 59.9868 130.303 59.9868 134.059C59.9868 137.815 64.6535 138.888 64.6535 138.888L61.0735 142.644C61.0735 142.644 56.0001 137.636 52.8068 134.772C49.6135 131.908 47.2535 125.115 50.4801 118.854C53.7068 112.594 65.8735 110.27 69.4601 110.09C72.2994 110.046 75.1263 110.472 77.8268 111.349Z" fill="#263238" stroke="#263238" stroke-linecap="round" stroke-linejoin="round"/>
<path d="M82.8869 138.708C82.8869 138.708 80.7335 139.6 77.8735 137.815" stroke="#263238" stroke-linecap="round" stroke-linejoin="round"/>
<path d="M77.5201 129.517C77.6468 130.183 78.0201 130.702 78.3601 130.643C78.7001 130.583 78.8801 129.977 78.7534 129.311C78.6268 128.645 78.2601 128.125 77.9201 128.192C77.5801 128.258 77.4001 128.838 77.5201 129.517Z" fill="#263238"/>
<path d="M79.4799 125.655C79.4799 125.655 77.3332 123.655 75.1865 125.655" stroke="#263238" stroke-linecap="round" stroke-linejoin="round"/>
<path d="M83.24 147.293C83.24 147.293 77.9066 146.58 76.26 146.04C74.6133 145.501 69.6333 143.896 69.6333 143.896L77.8733 148.904L77.5133 147.293C77.5133 147.293 82 148.192 83.24 147.293Z" fill="#263238" stroke="#263238" stroke-linecap="round" stroke-linejoin="round"/>
<path d="M174.667 173.659L172.2 172.234C171.814 172.007 171.374 171.887 170.927 171.887C170.479 171.887 170.039 172.007 169.653 172.234C167.2 173.693 162.093 176.856 162.26 177.702C162.468 178.389 162.931 178.97 163.553 179.327C163.702 179.42 163.861 179.496 164.027 179.554L167.6 180.852C167.945 180.978 168.314 181.026 168.681 180.994C169.047 180.962 169.402 180.85 169.72 180.666L177.147 176.37C177.147 176.37 178.6 175.038 176.4 174.306C175.809 174.127 175.23 173.911 174.667 173.659Z" fill="white" stroke="#263238" stroke-linecap="round" stroke-linejoin="round"/>
<path d="M168.033 173.406C168.033 173.406 171.58 176.943 174.78 177.629" stroke="#263238" stroke-linecap="round" stroke-linejoin="round"/>
<path d="M165.18 175.005C165.18 175.005 168.513 178.655 172.033 179.34" stroke="#263238" stroke-linecap="round" stroke-linejoin="round"/>
<path d="M163.467 176.264C163.467 176.264 164.38 178.541 168.72 180.926" stroke="#263238" stroke-linecap="round" stroke-linejoin="round"/>
<path d="M118.1 193.58H167.213C168.255 193.58 169.1 192.736 169.1 191.695V182.144C169.1 181.103 168.255 180.26 167.213 180.26H118.1C117.058 180.26 116.213 181.103 116.213 182.144V191.695C116.213 192.736 117.058 193.58 118.1 193.58Z" fill="#BDBDBD" stroke="#263238" stroke-linecap="round" stroke-linejoin="round"/>
<path d="M118.1 193.58H153.427C154.469 193.58 155.313 192.736 155.313 191.695V182.144C155.313 181.103 154.469 180.26 153.427 180.26H118.1C117.058 180.26 116.213 181.103 116.213 182.144V191.695C116.213 192.736 117.058 193.58 118.1 193.58Z" fill="#263238" stroke="#263238" stroke-linecap="round" stroke-linejoin="round"/>
<path d="M174.18 218.748L175.854 218.242C176.313 218.103 176.8 218.077 177.272 218.165C177.744 218.253 178.188 218.453 178.567 218.748L224.234 254.379C224.727 254.763 225.088 255.291 225.266 255.889C225.444 256.488 225.43 257.128 225.227 257.718C225.023 258.309 224.64 258.821 224.131 259.184C223.622 259.546 223.012 259.741 222.387 259.74H134.54L90.7202 218.748H174.18Z" fill="#BDBDBD" stroke="#263238" stroke-linecap="round" stroke-linejoin="round"/>
<path d="M94.3734 203.503C99.18 200.706 110.787 198.508 110.787 198.508C110.787 198.508 144.787 189.104 149.42 189.304C154.053 189.504 191.453 223.103 192.053 223.303C192.653 223.503 194.46 224.302 194.46 224.302C194.46 224.302 197.86 224.502 204.867 219.7C211.873 214.898 216.073 209.504 218.273 211.708C220.473 213.913 218.473 224.509 214.273 232.707C210.073 240.906 203.667 245.494 202.667 245.894C201.667 246.293 191.853 238.901 190.053 237.496C188.253 236.09 174.84 227.899 168.053 224.702C161.267 221.505 150.42 213.12 148.82 211.502C147.22 209.883 146.22 209.104 146.22 209.104C146.22 209.104 122.8 217.702 116 218.302C115.02 218.388 113.94 218.548 112.807 218.748H90.72L93.8334 221.658C92.6048 221.653 91.3794 221.533 90.1734 221.299C82.3667 219.7 89.5734 206.307 94.3734 203.503Z" fill="#263238" stroke="#263238" stroke-linecap="round" stroke-linejoin="round"/>
<path d="M189.894 237.382C191.227 235.657 192.967 233.313 193.454 232.72C194.26 231.721 193.454 227.918 193.854 225.521C193.915 225.051 194.153 224.622 194.52 224.322C195.199 224.295 195.871 224.181 196.52 223.982C196.712 224.016 196.901 224.063 197.087 224.122L197.187 223.776C199.933 222.791 202.527 221.426 204.894 219.72C211.9 214.925 216.1 209.524 218.3 211.728C220.5 213.932 218.5 224.529 214.3 232.727C210.1 240.925 203.667 245.494 202.667 245.894C201.667 246.293 191.854 238.901 190.054 237.496L189.894 237.382Z" fill="white" stroke="#263238" stroke-linecap="round" stroke-linejoin="round"/>
<path d="M214.273 232.7C210.587 239.887 205.22 244.302 203.267 245.554C203.973 244.222 205.033 242.224 206.467 239.7C210.179 232.936 213.069 225.752 215.073 218.302C216.773 211.815 217.74 211.415 218.12 211.568L218.273 211.701C220.48 213.899 218.473 224.502 214.273 232.7Z" fill="#263238" stroke="#263238" stroke-linecap="round" stroke-linejoin="round"/>
<path d="M68.7402 212.234C68.7402 212.188 68.7402 212.148 68.7402 212.101C69.1402 207.705 91.5602 196.903 98.7402 192.707C105.92 188.511 113.754 190.509 116.954 194.106C120.154 197.702 135.767 216.503 141.374 223.503C144.637 227.619 148.402 231.313 152.58 234.499C152.58 234.499 159.587 232.7 163.994 229.497C168.4 226.293 173.994 220.699 176.6 223.703C179.207 226.706 170.6 241.298 168.6 244.895C166.6 248.491 162.1 256.656 160.6 256.883C156.8 257.482 147.794 246.487 144.387 244.682C140.98 242.877 132 234.299 122.8 229.104C114.534 224.442 105.387 213.906 105.387 213.906C103.309 215.711 101.078 217.333 98.7202 218.754H90.7202L93.5069 221.365C93.0002 221.558 92.4869 221.745 91.9736 221.905C88.5935 222.97 86.2469 223.343 82.8869 224.122C75.3802 225.867 68.1469 219.913 68.7402 212.234Z" fill="#263238" stroke="#263238" stroke-linecap="round" stroke-linejoin="round"/>
<path d="M105.387 213.899C103.103 210.852 101.156 207.568 99.5801 204.102L105.387 213.899Z" fill="white"/>
<path d="M105.387 213.899C103.103 210.852 101.156 207.568 99.5801 204.102" stroke="#263238" stroke-linecap="round" stroke-linejoin="round"/>
<path d="M176.667 223.703C179.273 226.7 170.667 241.298 168.667 244.895C166.667 248.491 162.167 256.656 160.667 256.883C157.767 257.342 151.833 251.042 147.667 247.232C147.356 245.669 147.287 244.068 147.46 242.484C148.06 237.482 152.66 234.492 152.66 234.492C152.66 234.492 159.667 232.694 164.073 229.49C168.48 226.287 174.04 220.699 176.667 223.703Z" fill="white" stroke="#263238" stroke-linecap="round" stroke-linejoin="round"/>
<path d="M158 255.897C158.4 252.694 168.607 234.698 172.213 228.098C174.773 223.436 176.327 223.869 177.007 224.535C178 228.764 170.467 241.558 168.607 244.895C166.607 248.498 162.107 256.656 160.607 256.883C159.681 256.92 158.768 256.661 158 256.144C157.994 256.062 157.994 255.979 158 255.897Z" fill="#263238" stroke="#263238" stroke-linecap="round" stroke-linejoin="round"/>
<path d="M134.54 259.74C135.165 259.741 135.775 259.546 136.284 259.184C136.793 258.821 137.176 258.309 137.38 257.718C137.583 257.128 137.597 256.488 137.419 255.889C137.241 255.291 136.88 254.763 136.387 254.379L90.7198 218.748C90.3409 218.453 89.8968 218.253 89.4248 218.165C88.9527 218.077 88.4664 218.103 88.0065 218.242L51.6732 229.231C50.9111 229.461 50.2719 229.985 49.8962 230.686C49.5205 231.387 49.4391 232.209 49.6698 232.97C49.9006 233.731 50.4246 234.37 51.1266 234.745C51.8286 235.121 52.6511 235.202 53.4132 234.971L88.2532 224.442L132.667 259.107C133.202 259.523 133.862 259.746 134.54 259.74Z" fill="#263238" stroke="#263238" stroke-linecap="round" stroke-linejoin="round"/>
<path d="M37.9868 191.695L52.2068 237.316" stroke="#263238" stroke-width="8" stroke-linecap="round" stroke-linejoin="round"/>
<path d="M106.27 298.312C109.308 295.277 109.308 290.356 106.27 287.321C103.232 284.285 98.3057 284.285 95.2674 287.321C92.2291 290.356 92.2291 295.277 95.2674 298.312C98.3057 301.348 103.232 301.348 106.27 298.312Z" fill="#263238" stroke="#263238" stroke-linecap="round" stroke-linejoin="round"/>
<path d="M96.1733 292.82C96.1733 293.728 96.4427 294.615 96.9475 295.37C97.4522 296.124 98.1696 296.712 99.0089 297.06C99.8482 297.407 100.772 297.498 101.663 297.321C102.554 297.144 103.372 296.707 104.015 296.065C104.657 295.423 105.095 294.606 105.272 293.715C105.449 292.825 105.358 291.903 105.01 291.064C104.663 290.226 104.074 289.509 103.319 289.005C102.563 288.501 101.675 288.231 100.767 288.231C99.5484 288.231 98.3801 288.715 97.5187 289.575C96.6573 290.436 96.1733 291.603 96.1733 292.82Z" fill="white" stroke="#263238" stroke-linecap="round" stroke-linejoin="round"/>
<path d="M108.64 281.019V285.607H100.767V292.82H97.8134L92.5601 285.607V281.019H108.64Z" fill="white" stroke="#263238" stroke-linecap="round" stroke-linejoin="round"/>
<path d="M36.7479 295.794C38.3922 291.829 36.5071 287.282 32.5374 285.639C28.5677 283.997 24.0166 285.88 22.3723 289.846C20.728 293.811 22.6131 298.358 26.5828 300.001C30.5525 301.643 35.1036 299.76 36.7479 295.794Z" fill="#263238" stroke="#263238" stroke-linecap="round" stroke-linejoin="round"/>
<path d="M24.9668 292.82C24.9668 293.728 25.2362 294.615 25.7409 295.37C26.2456 296.124 26.963 296.712 27.8023 297.06C28.6417 297.407 29.5652 297.498 30.4562 297.321C31.3473 297.144 32.1657 296.707 32.8081 296.065C33.4505 295.423 33.888 294.606 34.0652 293.715C34.2424 292.825 34.1515 291.903 33.8038 291.064C33.4562 290.226 32.8674 289.509 32.112 289.005C31.3567 288.501 30.4686 288.231 29.5601 288.231C28.3424 288.233 27.1751 288.717 26.3141 289.577C25.4531 290.438 24.9686 291.604 24.9668 292.82Z" fill="white" stroke="#263238" stroke-linecap="round" stroke-linejoin="round"/>
<path d="M37.4399 281.019V285.607H29.5599V292.82H26.6065L21.3599 285.607V281.019H37.4399Z" fill="white" stroke="#263238" stroke-linecap="round" stroke-linejoin="round"/>
<path d="M83.4982 297.725C86.222 294.406 85.7362 289.508 82.4131 286.787C79.09 284.066 74.1879 284.552 71.4641 287.871C68.7403 291.191 69.2262 296.088 72.5493 298.809C75.8724 301.531 80.7744 301.045 83.4982 297.725Z" fill="#263238" stroke="#263238" stroke-linecap="round" stroke-linejoin="round"/>
<path d="M72.8735 292.82C72.8735 293.728 73.1429 294.615 73.6477 295.37C74.1524 296.124 74.8698 296.712 75.7091 297.06C76.5484 297.407 77.472 297.498 78.363 297.321C79.254 297.144 80.0725 296.707 80.7148 296.065C81.3572 295.423 81.7947 294.606 81.9719 293.715C82.1492 292.825 82.0582 291.903 81.7106 291.064C81.3629 290.226 80.7742 289.509 80.0188 289.005C79.2634 288.501 78.3753 288.231 77.4669 288.231C76.2492 288.233 75.0819 288.717 74.2208 289.577C73.3598 290.438 72.8753 291.604 72.8735 292.82Z" fill="white" stroke="#263238" stroke-linecap="round" stroke-linejoin="round"/>
<path d="M85.3466 281.019V285.607H77.4666V292.82H74.5133L69.2666 285.607V281.019H85.3466Z" fill="white" stroke="#263238" stroke-linecap="round" stroke-linejoin="round"/>
<path d="M181.779 295.817C183.435 291.857 181.563 287.305 177.598 285.65C173.634 283.996 169.077 285.865 167.421 289.826C165.765 293.787 167.636 298.339 171.601 299.994C175.566 301.648 180.123 299.778 181.779 295.817Z" fill="#263238" stroke="#263238" stroke-linecap="round" stroke-linejoin="round"/>
<path d="M170 292.82C169.999 293.73 170.268 294.619 170.772 295.376C171.277 296.132 171.996 296.723 172.837 297.071C173.677 297.42 174.603 297.511 175.496 297.334C176.389 297.157 177.209 296.719 177.853 296.076C178.496 295.433 178.935 294.614 179.112 293.722C179.289 292.83 179.198 291.905 178.849 291.065C178.5 290.225 177.909 289.508 177.151 289.003C176.394 288.499 175.504 288.23 174.593 288.231C173.376 288.233 172.208 288.717 171.347 289.577C170.486 290.438 170.002 291.604 170 292.82Z" fill="white" stroke="#263238" stroke-linecap="round" stroke-linejoin="round"/>
<path d="M182.474 281.019V285.607H174.594V292.82H171.64L166.394 285.607V281.019H182.474Z" fill="white" stroke="#263238" stroke-linecap="round" stroke-linejoin="round"/>
<path d="M16.6535 281.718H109.987V275.944H16.6535V281.718Z" fill="white" stroke="#263238" stroke-linecap="round" stroke-linejoin="round"/>
<path d="M19.32 281.718H112.653V275.944H19.32V281.718Z" fill="white" stroke="#263238" stroke-linecap="round" stroke-linejoin="round"/>
<path d="M51.5398 276.836H95.3198V234.765H51.5398L51.5398 276.836Z" fill="white" stroke="#263238" stroke-linecap="round" stroke-linejoin="round"/>
<path d="M45.1002 281.718H109.987V275.944H45.1002V281.718Z" fill="white" stroke="#263238" stroke-linecap="round" stroke-linejoin="round"/>
<path d="M93.0934 281.718H186.427V275.944H93.0934V281.718Z" fill="white" stroke="#263238" stroke-linecap="round" stroke-linejoin="round"/>
<path d="M97.0934 281.718H190.427V275.944H97.0934V281.718Z" fill="white" stroke="#263238" stroke-linecap="round" stroke-linejoin="round"/>
<path d="M39.8735 193.58H74.9869C76.0288 193.58 76.8735 192.736 76.8735 191.695V182.144C76.8735 181.103 76.0288 180.26 74.9869 180.26H39.8735C38.8316 180.26 37.9869 181.103 37.9869 182.144V191.695C37.9869 192.736 38.8316 193.58 39.8735 193.58Z" fill="#BDBDBD" stroke="#263238" stroke-linecap="round" stroke-linejoin="round"/>
<path d="M33.2069 193.58H64.8536C65.8955 193.58 66.7402 192.736 66.7402 191.695V182.144C66.7402 181.103 65.8955 180.26 64.8536 180.26H33.2069C32.1649 180.26 31.3202 181.103 31.3202 182.144V191.695C31.3202 192.736 32.1649 193.58 33.2069 193.58Z" fill="#263238" stroke="#263238" stroke-linecap="round" stroke-linejoin="round"/>
<path d="M56.8732 156.51L57.7666 170.942C57.7666 170.942 74.4332 174.938 75.5399 176.044C76.6466 177.149 84.6532 187.366 85.0999 188.032C85.5466 188.698 83.7666 191.362 82.8732 192.028C81.9799 192.694 79.5399 194.692 78.2066 194.026C76.8732 193.36 73.7666 192.028 73.7666 191.362C73.7666 190.696 75.7666 190.256 75.7666 190.256L69.9999 180.04H43.9999C43.9999 180.04 41.5532 178.934 41.5532 176.49C41.5532 174.046 41.8132 166.72 41.8132 166.72L42.2066 155.178" fill="#8B0000"/>
<path d="M56.8732 156.51L57.7666 170.942C57.7666 170.942 74.4332 174.938 75.5399 176.044C76.6466 177.149 84.6532 187.366 85.0999 188.032C85.5466 188.698 83.7666 191.362 82.8732 192.028C81.9799 192.694 79.5399 194.692 78.2066 194.026C76.8732 193.36 73.7666 192.028 73.7666 191.362C73.7666 190.696 75.7666 190.256 75.7666 190.256L69.9999 180.04H43.9999C43.9999 180.04 41.5532 178.934 41.5532 176.49C41.5532 174.046 41.8132 166.72 41.8132 166.72L42.2066 155.178" stroke="#263238" stroke-linecap="round" stroke-linejoin="round"/>
<path d="M44.0001 180.04C44.0001 180.04 41.5534 178.934 41.5534 176.49C41.5534 174.805 41.2267 170.343 41.5534 168.278C48.0001 164.735 54.4467 167.073 57.6334 168.578L57.7801 170.942C57.7801 170.942 74.4467 174.938 75.5534 176.044C76.6601 177.149 84.6667 187.366 85.1134 188.032C85.5601 188.698 83.7801 191.362 82.8867 192.028C81.9934 192.694 79.5534 194.692 78.2201 194.026C76.8867 193.36 73.7801 192.028 73.7801 191.362C73.7801 190.696 75.7801 190.256 75.7801 190.256L70.0001 180.04H44.0001Z" fill="white" stroke="#263238" stroke-linecap="round" stroke-linejoin="round"/>
<path d="M57.7668 170.942C57.7668 170.942 51.3068 168.332 44.9468 169.657" stroke="#263238" stroke-linecap="round" stroke-linejoin="round"/>
<path d="M83.9866 188.924L81.7666 192.474" stroke="#263238" stroke-linecap="round" stroke-linejoin="round"/>
<path d="M81.5399 189.81L78.2065 194.026" stroke="#263238" stroke-linecap="round" stroke-linejoin="round"/>
<path d="M75.7666 190.256L77.3199 192.474" stroke="#263238" stroke-linecap="round" stroke-linejoin="round"/>
<path d="M460.646 195.258L468.933 274.612" stroke="#263238" stroke-width="2" stroke-miterlimit="10"/>
<path d="M467.6 259.427L463.84 255.464" stroke="#263238" stroke-width="2" stroke-miterlimit="10"/>
<path d="M464.98 256.65C464.973 256.044 464.835 255.446 464.578 254.897C464.32 254.348 463.948 253.86 463.487 253.466C462.52 252.607 457.447 250.469 456.96 252.254C456.44 254.199 461.633 258.015 464.98 256.65Z" fill="#CDDBEC" stroke="#263238" stroke-miterlimit="10"/>
<path d="M464.98 256.65L460.146 253.639" stroke="#263238" stroke-width="0.5" stroke-miterlimit="10"/>
<path d="M468.54 268.451L464.78 264.489" stroke="#263238" stroke-width="2" stroke-miterlimit="10"/>
<path d="M465.927 265.674C465.919 265.067 465.781 264.469 465.522 263.92C465.263 263.371 464.89 262.883 464.427 262.491C463.46 261.631 458.387 259.494 457.907 261.279C457.38 263.223 462.58 267.066 465.927 265.674Z" fill="#CDDBEC" stroke="#263238" stroke-miterlimit="10"/>
<path d="M465.927 265.674L461.093 262.664" stroke="#263238" stroke-width="0.5" stroke-miterlimit="10"/>
<path d="M465.293 237.402L461.54 233.44" stroke="#263238" stroke-width="2" stroke-miterlimit="10"/>
<path d="M462.667 234.625C462.659 234.019 462.522 233.421 462.265 232.872C462.007 232.323 461.635 231.835 461.173 231.442C460.207 230.583 455.127 228.451 454.647 230.236C454.14 232.181 459.333 235.99 462.667 234.625Z" fill="#CDDBEC" stroke="#263238" stroke-miterlimit="10"/>
<path d="M462.68 234.625L457.847 231.622" stroke="#263238" stroke-width="0.5" stroke-miterlimit="10"/>
<path d="M466.24 246.427L462.48 242.464" stroke="#263238" stroke-width="2" stroke-miterlimit="10"/>
<path d="M463.62 243.649C463.614 243.043 463.478 242.445 463.22 241.895C462.962 241.346 462.589 240.859 462.126 240.466C461.16 239.607 456.086 237.476 455.606 239.26C455.08 241.205 460.273 245.015 463.62 243.649Z" fill="#CDDBEC" stroke="#263238" stroke-miterlimit="10"/>
<path d="M463.62 243.649L458.787 240.646" stroke="#263238" stroke-width="0.5" stroke-miterlimit="10"/>
<path d="M463.766 222.744L460.006 218.781" stroke="#263238" stroke-width="2" stroke-miterlimit="10"/>
<path d="M461.147 219.967C461.139 219.36 461.002 218.763 460.744 218.214C460.487 217.664 460.115 217.177 459.653 216.783C458.687 215.924 453.613 213.793 453.127 215.578C452.607 217.516 457.8 221.332 461.147 219.967Z" fill="#CDDBEC" stroke="#263238" stroke-miterlimit="10"/>
<path d="M461.146 219.966L456.313 216.956" stroke="#263238" stroke-width="0.5" stroke-miterlimit="10"/>
<path d="M462.227 208.018L458.467 204.056" stroke="#263238" stroke-width="2" stroke-miterlimit="10"/>
<path d="M459.613 205.241C459.605 204.634 459.467 204.036 459.209 203.487C458.95 202.938 458.576 202.451 458.113 202.058C457.153 201.199 452.073 199.067 451.593 200.852C451.067 202.797 456.267 206.613 459.613 205.241Z" fill="#CDDBEC" stroke="#263238" stroke-miterlimit="10"/>
<path d="M459.613 205.241L454.78 202.238" stroke="#263238" stroke-width="0.5" stroke-miterlimit="10"/>
<path d="M466.967 254.086L469.82 249.43" stroke="#263238" stroke-width="2" stroke-miterlimit="10"/>
<path d="M468.953 250.829C468.835 250.234 468.845 249.621 468.983 249.031C469.121 248.441 469.384 247.887 469.753 247.406C470.52 246.367 475.046 243.23 475.886 244.875C476.8 246.673 472.506 251.475 468.953 250.829Z" fill="#CDDBEC" stroke="#263238" stroke-miterlimit="10"/>
<path d="M468.953 250.829L473.3 246.673" stroke="#263238" stroke-width="0.5" stroke-miterlimit="10"/>
<path d="M464.486 230.336L467.34 225.681" stroke="#263238" stroke-width="2" stroke-miterlimit="10"/>
<path d="M466.473 227.106C466.353 226.511 466.362 225.898 466.501 225.307C466.639 224.717 466.902 224.163 467.273 223.683C468.04 222.644 472.567 219.507 473.407 221.159C474.32 222.924 470 227.725 466.473 227.106Z" fill="#CDDBEC" stroke="#263238" stroke-miterlimit="10"/>
<path d="M466.473 227.079L470.82 222.924" stroke="#263238" stroke-width="0.5" stroke-miterlimit="10"/>
<path d="M463.393 219.9L466.253 215.245" stroke="#263238" stroke-width="2" stroke-miterlimit="10"/>
<path d="M465.38 216.643C465.262 216.048 465.273 215.435 465.412 214.844C465.551 214.254 465.815 213.7 466.186 213.22C466.953 212.181 471.48 209.044 472.32 210.696C473.233 212.487 468.933 217.289 465.38 216.643Z" fill="#CDDBEC" stroke="#263238" stroke-miterlimit="10"/>
<path d="M465.38 216.643L469.733 212.487" stroke="#263238" stroke-width="0.5" stroke-miterlimit="10"/>
<path d="M461.793 204.602L464.653 199.947" stroke="#263238" stroke-width="2" stroke-miterlimit="10"/>
<path d="M463.78 201.345C463.662 200.75 463.673 200.137 463.812 199.546C463.951 198.956 464.215 198.402 464.586 197.922C465.353 196.883 469.88 193.746 470.72 195.391C471.633 197.189 467.333 201.991 463.78 201.345Z" fill="#CDDBEC" stroke="#263238" stroke-miterlimit="10"/>
<path d="M463.78 201.345L468.133 197.189" stroke="#263238" stroke-width="0.5" stroke-miterlimit="10"/>
<path d="M460.573 194.818C460.455 194.223 460.466 193.61 460.605 193.019C460.745 192.429 461.009 191.875 461.38 191.395C462.147 190.356 466.673 187.219 467.513 188.871C468.427 190.662 464.133 195.464 460.573 194.818Z" fill="#CDDBEC" stroke="#263238" stroke-miterlimit="10"/>
<path d="M460.573 194.818L464.927 190.662" stroke="#263238" stroke-width="0.5" stroke-miterlimit="10"/>
<path d="M460.826 194.998C460.22 195.054 459.609 194.979 459.034 194.779C458.459 194.579 457.934 194.259 457.493 193.839C456.54 192.967 453.893 188.145 455.62 187.479C457.506 186.76 461.84 191.535 460.826 194.998Z" fill="#CDDBEC" stroke="#263238" stroke-miterlimit="10"/>
<path d="M460.826 194.998L457.146 190.243" stroke="#263238" stroke-width="0.5" stroke-miterlimit="10"/>
<path d="M482.507 206.187L474.267 285.548" stroke="#263238" stroke-width="2" stroke-miterlimit="10"/>
<path d="M476.087 270.409L473.227 265.754" stroke="#263238" stroke-width="2" stroke-miterlimit="10"/>
<path d="M474.1 267.153C474.218 266.558 474.207 265.944 474.067 265.354C473.928 264.763 473.664 264.209 473.293 263.729C472.526 262.69 468 259.56 467.16 261.205C466.246 262.997 470.54 267.805 474.1 267.153Z" fill="#CDDBEC" stroke="#263238" stroke-miterlimit="10"/>
<path d="M474.1 267.153L469.986 263.217" stroke="#263238" stroke-width="0.5" stroke-miterlimit="10"/>
<path d="M478.373 248.385L475.513 243.736" stroke="#263238" stroke-width="2" stroke-miterlimit="10"/>
<path d="M476.387 245.135C476.504 244.539 476.493 243.924 476.354 243.333C476.215 242.741 475.951 242.186 475.58 241.705C474.813 240.666 470.287 237.536 469.447 239.181C468.533 240.979 472.833 245.754 476.387 245.135Z" fill="#CDDBEC" stroke="#263238" stroke-miterlimit="10"/>
<path d="M476.386 245.135L472.28 241.192" stroke="#263238" stroke-width="0.5" stroke-miterlimit="10"/>
<path d="M477.44 257.409L474.58 252.76" stroke="#263238" stroke-width="2" stroke-miterlimit="10"/>
<path d="M475.447 254.159C475.565 253.564 475.554 252.95 475.414 252.36C475.275 251.77 475.011 251.216 474.64 250.736C473.873 249.69 469.347 246.56 468.507 248.212C467.593 250.003 471.893 254.805 475.447 254.159Z" fill="#CDDBEC" stroke="#263238" stroke-miterlimit="10"/>
<path d="M475.446 254.159L471.34 250.216" stroke="#263238" stroke-width="0.5" stroke-miterlimit="10"/>
<path d="M479.9 233.726L477.04 229.071" stroke="#263238" stroke-width="2" stroke-miterlimit="10"/>
<path d="M477.907 230.469C478.025 229.874 478.014 229.261 477.874 228.67C477.735 228.08 477.471 227.526 477.1 227.046C476.333 226.007 471.807 222.877 470.967 224.522C470.053 226.313 474.353 231.102 477.907 230.469Z" fill="#CDDBEC" stroke="#263238" stroke-miterlimit="10"/>
<path d="M477.906 230.469L473.8 226.533" stroke="#263238" stroke-width="0.5" stroke-miterlimit="10"/>
<path d="M481.426 219.001L478.566 214.345" stroke="#263238" stroke-width="2" stroke-miterlimit="10"/>
<path d="M479.44 215.744C479.563 215.151 479.557 214.539 479.424 213.949C479.29 213.359 479.032 212.803 478.667 212.321C477.9 211.282 473.373 208.152 472.533 209.797C471.587 211.588 475.88 216.397 479.44 215.744Z" fill="#CDDBEC" stroke="#263238" stroke-miterlimit="10"/>
<path d="M479.44 215.744L475.327 211.808" stroke="#263238" stroke-width="0.5" stroke-miterlimit="10"/>
<path d="M476.566 265.055L480.326 261.085" stroke="#263238" stroke-width="2" stroke-miterlimit="10"/>
<path d="M479.187 262.277C479.187 261.668 479.32 261.067 479.576 260.514C479.831 259.961 480.203 259.47 480.667 259.074C481.627 258.208 486.707 256.07 487.187 257.862C487.727 259.82 482.533 263.643 479.187 262.277Z" fill="#CDDBEC" stroke="#263238" stroke-miterlimit="10"/>
<path d="M479.187 262.277L484.3 259.107" stroke="#263238" stroke-width="0.5" stroke-miterlimit="10"/>
<path d="M479.033 241.305L482.793 237.336" stroke="#263238" stroke-width="2" stroke-miterlimit="10"/>
<path d="M481.653 238.528C481.659 237.921 481.795 237.323 482.053 236.774C482.31 236.224 482.683 235.737 483.147 235.344C484.107 234.479 489.187 232.341 489.667 234.132C490.193 236.07 485 239.893 481.653 238.528Z" fill="#CDDBEC" stroke="#263238" stroke-miterlimit="10"/>
<path d="M481.653 238.528L486.767 235.358" stroke="#263238" stroke-width="0.5" stroke-miterlimit="10"/>
<path d="M480.12 230.869L483.873 226.9" stroke="#263238" stroke-width="2" stroke-miterlimit="10"/>
<path d="M482.733 228.092C482.741 227.484 482.878 226.886 483.135 226.336C483.393 225.786 483.765 225.297 484.227 224.902C485.193 224.042 490.267 221.905 490.753 223.689C491.273 225.634 486.08 229.45 482.733 228.092Z" fill="#CDDBEC" stroke="#263238" stroke-miterlimit="10"/>
<path d="M482.733 228.092L487.853 224.922" stroke="#263238" stroke-width="0.5" stroke-miterlimit="10"/>
<path d="M481.707 215.564L485.467 211.602" stroke="#263238" stroke-width="2" stroke-miterlimit="10"/>
<path d="M484.327 212.787C484.332 212.18 484.469 211.582 484.727 211.033C484.984 210.484 485.357 209.996 485.82 209.604C486.78 208.744 491.86 206.607 492.34 208.391C492.867 210.336 487.673 214.152 484.327 212.787Z" fill="#CDDBEC" stroke="#263238" stroke-miterlimit="10"/>
<path d="M484.327 212.787L489.44 209.617" stroke="#263238" stroke-width="0.5" stroke-miterlimit="10"/>
<path d="M482.526 205.741C482.534 205.134 482.672 204.536 482.931 203.987C483.19 203.437 483.563 202.95 484.026 202.557C484.986 201.698 490.06 199.56 490.546 201.345C491.073 203.29 485.88 207.126 482.526 205.741Z" fill="#CDDBEC" stroke="#263238" stroke-miterlimit="10"/>
<path d="M482.526 205.741L487.646 202.571" stroke="#263238" stroke-width="0.5" stroke-miterlimit="10"/>
<path d="M482.74 205.974C482.137 205.902 481.556 205.703 481.037 205.39C480.517 205.076 480.07 204.655 479.726 204.156C478.966 203.103 477.373 197.835 479.2 197.542C481.193 197.229 484.446 202.79 482.74 205.974Z" fill="#CDDBEC" stroke="#263238" stroke-miterlimit="10"/>
<path d="M482.74 205.974L480.12 200.559" stroke="#263238" stroke-width="0.5" stroke-miterlimit="10"/>
<path d="M473.06 173.873V274.225" stroke="#263238" stroke-width="2" stroke-miterlimit="10"/>
<path d="M473.14 259.141L469.813 254.805" stroke="#263238" stroke-width="2" stroke-miterlimit="10"/>
<path d="M470.827 256.104C470.884 255.498 470.811 254.888 470.612 254.313C470.413 253.739 470.093 253.214 469.673 252.774C468.8 251.821 463.973 249.171 463.307 250.896C462.587 252.78 467.333 257.116 470.827 256.104Z" fill="#CDDBEC" stroke="#263238" stroke-miterlimit="10"/>
<path d="M470.826 256.104L466.333 252.607" stroke="#263238" stroke-width="0.5" stroke-miterlimit="10"/>
<path d="M473.14 240.28L469.813 235.944" stroke="#263238" stroke-width="2" stroke-miterlimit="10"/>
<path d="M470.827 237.243C470.886 236.637 470.813 236.026 470.614 235.452C470.415 234.877 470.094 234.352 469.673 233.913C468.8 232.953 463.973 230.303 463.307 232.034C462.587 233.926 467.333 238.255 470.827 237.243Z" fill="#CDDBEC" stroke="#263238" stroke-miterlimit="10"/>
<path d="M470.826 237.243L466.333 233.753" stroke="#263238" stroke-width="0.5" stroke-miterlimit="10"/>
<path d="M473.14 218.135L469.813 213.806" stroke="#263238" stroke-width="2" stroke-miterlimit="10"/>
<path d="M470.827 215.118C470.884 214.513 470.811 213.902 470.612 213.328C470.413 212.753 470.093 212.228 469.673 211.788C468.8 210.836 463.973 208.185 463.307 209.91C462.587 211.788 467.333 216.117 470.827 215.118Z" fill="#CDDBEC" stroke="#263238" stroke-miterlimit="10"/>
<path d="M470.826 215.105L466.333 211.608" stroke="#263238" stroke-width="0.5" stroke-miterlimit="10"/>
<path d="M473.14 203.396L469.813 199.067" stroke="#263238" stroke-width="2" stroke-miterlimit="10"/>
<path d="M470.827 200.366C470.884 199.761 470.811 199.15 470.612 198.576C470.413 198.001 470.093 197.476 469.673 197.036C468.8 196.077 463.973 193.433 463.307 195.158C462.587 197.043 467.333 201.378 470.827 200.366Z" fill="#CDDBEC" stroke="#263238" stroke-miterlimit="10"/>
<path d="M470.826 200.366L466.333 196.87" stroke="#263238" stroke-width="0.5" stroke-miterlimit="10"/>
<path d="M473.14 188.591L469.813 184.262" stroke="#263238" stroke-width="2" stroke-miterlimit="10"/>
<path d="M470.827 185.561C470.884 184.956 470.811 184.345 470.612 183.771C470.413 183.196 470.093 182.671 469.673 182.231C468.8 181.279 463.973 178.628 463.307 180.353C462.587 182.238 467.333 186.573 470.827 185.561Z" fill="#CDDBEC" stroke="#263238" stroke-miterlimit="10"/>
<path d="M470.826 185.561L466.333 182.064" stroke="#263238" stroke-width="0.5" stroke-miterlimit="10"/>
<path d="M473.066 264.895L476.393 260.566" stroke="#263238" stroke-width="2" stroke-miterlimit="10"/>
<path d="M475.38 261.865C475.324 261.259 475.398 260.648 475.598 260.074C475.799 259.499 476.12 258.975 476.54 258.535C477.407 257.575 482.233 254.931 482.9 256.656C483.627 258.541 478.853 262.877 475.38 261.865Z" fill="#CDDBEC" stroke="#263238" stroke-miterlimit="10"/>
<path d="M475.38 261.865L480.14 258.182" stroke="#263238" stroke-width="0.5" stroke-miterlimit="10"/>
<path d="M473.066 234.905L476.393 230.569" stroke="#263238" stroke-width="2" stroke-miterlimit="10"/>
<path d="M475.38 231.868C475.324 231.262 475.399 230.652 475.599 230.077C475.799 229.503 476.12 228.978 476.54 228.538C477.406 227.586 482.233 224.935 482.9 226.66C483.626 228.545 478.853 232.88 475.38 231.868Z" fill="#CDDBEC" stroke="#263238" stroke-miterlimit="10"/>
<path d="M475.38 231.868L480.14 228.185" stroke="#263238" stroke-width="0.5" stroke-miterlimit="10"/>
<path d="M473.066 220.1L476.393 215.764" stroke="#263238" stroke-width="2" stroke-miterlimit="10"/>
<path d="M475.38 217.063C475.323 216.457 475.397 215.846 475.597 215.272C475.797 214.697 476.119 214.172 476.54 213.733C477.407 212.774 482.233 210.123 482.9 211.855C483.627 213.746 478.853 218.075 475.38 217.063Z" fill="#CDDBEC" stroke="#263238" stroke-miterlimit="10"/>
<path d="M475.38 217.063L480.14 213.386" stroke="#263238" stroke-width="0.5" stroke-miterlimit="10"/>
<path d="M473.066 200.533L476.393 196.197" stroke="#263238" stroke-width="2" stroke-miterlimit="10"/>
<path d="M475.38 197.496C475.323 196.89 475.397 196.279 475.597 195.705C475.797 195.13 476.119 194.605 476.54 194.166C477.407 193.207 482.233 190.556 482.9 192.288C483.627 194.179 478.853 198.508 475.38 197.496Z" fill="#CDDBEC" stroke="#263238" stroke-miterlimit="10"/>
<path d="M475.38 197.496L480.14 193.819" stroke="#263238" stroke-width="0.5" stroke-miterlimit="10"/>
<path d="M473.066 185.148L476.393 180.812" stroke="#263238" stroke-width="2" stroke-miterlimit="10"/>
<path d="M475.38 182.118C475.324 181.512 475.398 180.901 475.598 180.327C475.799 179.753 476.12 179.228 476.54 178.788C477.407 177.829 482.233 175.185 482.9 176.91C483.627 178.794 478.853 183.15 475.38 182.118Z" fill="#CDDBEC" stroke="#263238" stroke-miterlimit="10"/>
<path d="M475.38 182.118L480.14 178.435" stroke="#263238" stroke-width="0.5" stroke-miterlimit="10"/>
<path d="M472.866 175.291C472.811 174.686 472.886 174.075 473.086 173.501C473.286 172.926 473.607 172.401 474.026 171.961C474.893 171.009 479.72 168.358 480.387 170.083C481.113 171.968 476.34 176.304 472.866 175.291Z" fill="#CDDBEC" stroke="#263238" stroke-miterlimit="10"/>
<path d="M472.867 175.291L477.627 171.608" stroke="#263238" stroke-width="0.5" stroke-miterlimit="10"/>
<path d="M473.1 175.498C472.492 175.49 471.894 175.352 471.344 175.093C470.794 174.835 470.306 174.462 469.913 173.999C469.053 173.033 466.926 167.959 468.713 167.479C470.666 166.96 474.473 172.154 473.1 175.498Z" fill="#CDDBEC" stroke="#263238" stroke-miterlimit="10"/>
<path d="M473.1 175.498L469.933 170.383" stroke="#263238" stroke-width="0.5" stroke-miterlimit="10"/>
<path d="M477.193 300.253H466.553L465.227 273.413H478.527L477.193 300.253Z" fill="#263238" stroke="#263238" stroke-miterlimit="10"/>
<path d="M14 300.586H493.333" stroke="#263238" stroke-linecap="round" stroke-linejoin="round"/>
</svg>
