<svg width="41" height="40" viewBox="0 0 41 40" fill="none" xmlns="http://www.w3.org/2000/svg">
<g clip-path="url(#clip0_69_1583)">
<path d="M15.6465 1.9296C13.2881 1.9296 11.3762 3.84148 11.3762 6.19984V11.4916H15.6465V13.4941H29.6237V7.67031C29.6237 3.7632 26.4564 0.595932 22.5493 0.595932H18.0592C15.5921 0.595854 15.6465 1.9296 15.6465 1.9296Z" fill="#494A47"/>
<path d="M17.4675 1.92961C17.4675 1.92961 17.4131 0.595856 19.8801 0.595856H18.0591C15.5921 0.595856 15.6465 1.92961 15.6465 1.92961C13.2881 1.92961 11.3762 3.84148 11.3762 6.19984V11.4916H13.1972V6.19984C13.1972 3.84148 15.109 1.92961 17.4675 1.92961Z" fill="#333331"/>
<path d="M9.46216 23.5738V29.7271H12.8169V39.4041H28.1832V29.7271H31.5379V23.5738H9.46216Z" fill="#68C0E0"/>
<path d="M9.46216 23.5738H11.2832V29.7271H9.46216V23.5738ZM12.8169 29.7271H14.6379V39.4041H12.8169V29.7271Z" fill="#3282A1"/>
<path d="M23.6583 24.2237C21.8109 25.698 19.1891 25.698 17.3417 24.2237V18.455H23.6583V24.2237Z" fill="#FFB09E"/>
<path d="M14.0669 15.0202H12.5318C11.4982 15.0202 10.6603 14.1823 10.6603 13.1487C10.6603 12.1151 11.4982 11.2771 12.5318 11.2771H14.0669V15.0202ZM26.9332 15.0202H28.4682C29.5018 15.0202 30.3398 14.1823 30.3398 13.1487C30.3398 12.1151 29.5019 11.2771 28.4682 11.2771H26.9332V15.0202Z" fill="#FFB09E"/>
<path d="M24.4512 7.98694C20.6233 8.31288 15.9753 6.76468 15.9753 6.76468C15.9753 9.77952 13.2369 11.1295 13.2369 11.1295V14.126C13.2369 18.1238 16.4778 21.3647 20.4756 21.3647C24.4734 21.3647 27.7143 18.1238 27.7143 14.126V11.2771C26.0012 11.0128 24.4512 7.98694 24.4512 7.98694Z" fill="#FFCEBF"/>
<path d="M15.058 14.126V11.1295C15.058 11.1295 17.4896 9.9296 17.7692 7.26741C16.6812 6.99976 15.9753 6.76468 15.9753 6.76468C15.9753 9.77952 13.2369 11.1295 13.2369 11.1295V14.126C13.2369 18.1238 16.4778 21.3647 20.4756 21.3647C20.78 21.3647 21.0841 21.3457 21.3861 21.3078C17.8181 20.8601 15.058 17.8155 15.058 14.126Z" fill="#FFB09E"/>
<path d="M5.77879 23.5738L6.16028 14.731L7.58762 14.8855C7.94352 14.9241 8.30211 14.8429 8.6067 14.6548C8.9113 14.4667 9.14452 14.1825 9.2695 13.847L9.48317 13.2734C9.56519 13.0533 9.59804 12.8178 9.5794 12.5837C9.56076 12.3495 9.49109 12.1222 9.37528 11.9178L9.14176 11.5056C8.99345 11.2438 8.77474 11.0288 8.51043 10.885C8.24613 10.7412 7.94682 10.6743 7.64645 10.692L6.22887 10.7755C5.96808 10.7908 5.71494 10.8694 5.4913 11.0044C5.26766 11.1395 5.08024 11.3269 4.9452 11.5505L3.41684 14.082L1.16168 24.4873C0.729886 26.4796 2.24778 28.3616 4.28621 28.3616H9.46215V23.5737H5.77879V23.5738Z" fill="#FFCEBF"/>
<path d="M7.98434 14.8791C8.11883 14.8603 8.2504 14.8245 8.3759 14.7727L7.99074 14.7309L7.98434 14.8791ZM2.99215 24.4873L5.24739 14.082L6.77574 11.5505C6.91077 11.3268 7.09819 11.1394 7.32183 11.0044C7.54547 10.8693 7.79862 10.7907 8.05942 10.7754L8.22848 10.7655C8.04062 10.7055 7.84332 10.6806 7.64645 10.692L6.22887 10.7755C5.96807 10.7908 5.71493 10.8694 5.49128 11.0044C5.26764 11.1395 5.08022 11.3269 4.9452 11.5505L3.41684 14.082L1.16168 24.4873C0.729886 26.4796 2.24778 28.3616 4.28621 28.3616H6.11676C4.07824 28.3616 2.56035 26.4795 2.99215 24.4873Z" fill="#FFB09E"/>
<path d="M35.2212 23.5738L34.8397 14.731L33.4124 14.8855C33.0565 14.9241 32.6979 14.8429 32.3933 14.6548C32.0887 14.4667 31.8555 14.1825 31.7305 13.847L31.5168 13.2734C31.4348 13.0533 31.402 12.8178 31.4206 12.5837C31.4392 12.3495 31.5089 12.1222 31.6247 11.9178L31.8582 11.5056C32.0066 11.2438 32.2253 11.0288 32.4896 10.885C32.7539 10.7412 33.0532 10.6743 33.3536 10.692L34.7711 10.7755C35.0319 10.7908 35.2851 10.8694 35.5087 11.0044C35.7323 11.1395 35.9198 11.3269 36.0548 11.5505L37.5832 14.082L39.8384 24.4874C40.2702 26.4797 38.7523 28.3617 36.7139 28.3617H31.5379V23.5738H35.2212Z" fill="#FFCEBF"/>
<path d="M33.812 26.4591C32.334 26.4591 31.0397 27.2272 30.2926 28.3823C29.5456 27.2272 28.2513 26.4591 26.7733 26.4591C24.4565 26.4591 22.5782 28.3373 22.5782 30.6541C22.5782 34.0485 29.6957 38.8727 30.2925 39.4123C30.8893 38.8728 38.0069 34.0487 38.007 30.6543C38.007 28.3374 36.1289 26.4591 33.812 26.4591Z" fill="#E15F4F"/>
<path d="M24.3992 30.6541C24.3992 28.6498 25.8051 26.975 27.6843 26.5591C27.3852 26.4925 27.0797 26.4589 26.7733 26.459C24.4565 26.459 22.5782 28.3372 22.5782 30.654C22.5782 34.0484 29.6957 38.8727 30.2925 39.4122C30.4025 39.3127 30.7349 39.0671 31.203 38.712C29.133 37.1416 24.3992 33.4225 24.3992 30.6541Z" fill="#CA4336"/>
<path d="M29.971 34.603C29.8578 34.6031 29.7456 34.5809 29.641 34.5376C29.5364 34.4942 29.4414 34.4307 29.3614 34.3505L27.5313 32.5204C27.1946 32.1837 27.1946 31.6378 27.5313 31.3011C27.868 30.9645 28.4139 30.9645 28.7506 31.3011L29.971 32.5215L33.1317 29.3609C33.4684 29.0242 34.0143 29.0242 34.351 29.3609C34.6877 29.6976 34.6877 30.2435 34.351 30.5802L30.5806 34.3505C30.5007 34.4306 30.4057 34.4942 30.301 34.5375C30.1964 34.5809 30.0843 34.6031 29.971 34.603Z" fill="#4EB7A2"/>
<path d="M17.4413 12.5705C17.3314 12.5705 17.2259 12.6141 17.1481 12.6919C17.0704 12.7697 17.0267 12.8751 17.0267 12.9851C17.0267 13.095 17.0704 13.2005 17.1481 13.2782C17.2259 13.356 17.3314 13.3997 17.4413 13.3997C17.5513 13.3997 17.6567 13.356 17.7345 13.2782C17.8122 13.2005 17.8559 13.095 17.8559 12.9851C17.8559 12.8751 17.8122 12.7697 17.7345 12.6919C17.6567 12.6141 17.5513 12.5705 17.4413 12.5705ZM23.5588 12.5705C23.4489 12.5705 23.3434 12.6141 23.2656 12.6919C23.1879 12.7697 23.1442 12.8751 23.1442 12.9851C23.1442 13.095 23.1879 13.2005 23.2656 13.2782C23.3434 13.356 23.4489 13.3997 23.5588 13.3997C23.6688 13.3997 23.7742 13.356 23.852 13.2782C23.9297 13.2005 23.9734 13.095 23.9734 12.9851C23.9734 12.8751 23.9297 12.7697 23.852 12.6919C23.7742 12.6141 23.6688 12.5705 23.5588 12.5705ZM18.7119 11.1007C18.3206 10.8638 17.8718 10.7386 17.4144 10.7386C16.9569 10.7386 16.5082 10.8638 16.1168 11.1007C16.0726 11.1271 16.034 11.1619 16.0033 11.2033C15.9726 11.2446 15.9503 11.2917 15.9379 11.3416C15.9254 11.3916 15.923 11.4435 15.9306 11.4945C15.9383 11.5454 15.956 11.5943 15.9827 11.6384C16.0093 11.6824 16.0444 11.7208 16.086 11.7512C16.1275 11.7817 16.1747 11.8036 16.2247 11.8158C16.2748 11.8279 16.3267 11.8301 16.3776 11.8221C16.4285 11.8141 16.4773 11.7961 16.5212 11.7691C16.7906 11.6061 17.0995 11.5199 17.4144 11.5199C17.7294 11.5199 18.0383 11.6061 18.3077 11.7691C18.3516 11.7957 18.4003 11.8134 18.451 11.8211C18.5017 11.8289 18.5535 11.8266 18.6033 11.8143C18.6531 11.802 18.7 11.7801 18.7414 11.7497C18.7827 11.7193 18.8176 11.681 18.8441 11.6371C18.8977 11.5484 18.9139 11.4421 18.8891 11.3415C18.8643 11.2409 18.8006 11.1543 18.7119 11.1007ZM22.6925 11.7691C22.9619 11.6061 23.2708 11.5199 23.5858 11.5199C23.9007 11.5199 24.2096 11.6061 24.4791 11.7691C24.5229 11.7957 24.5716 11.8134 24.6223 11.8211C24.6731 11.8289 24.7248 11.8266 24.7746 11.8143C24.8244 11.802 24.8714 11.7801 24.9127 11.7497C24.954 11.7193 24.9889 11.681 25.0155 11.6371C25.0691 11.5485 25.0853 11.4422 25.0605 11.3416C25.0358 11.241 24.9721 11.1543 24.8834 11.1007C24.4921 10.8638 24.0433 10.7386 23.5859 10.7386C23.1284 10.7386 22.6796 10.8638 22.2883 11.1007C22.2014 11.1551 22.1394 11.2415 22.1156 11.3413C22.0919 11.441 22.1083 11.5461 22.1614 11.6339C22.2144 11.7216 22.2999 11.785 22.3992 11.8103C22.4986 11.8356 22.6039 11.8208 22.6925 11.7691ZM21.7977 17.8165C21.8419 17.7901 21.8805 17.7552 21.9112 17.7139C21.9419 17.6725 21.9641 17.6255 21.9766 17.5755C21.989 17.5256 21.9915 17.4736 21.9838 17.4227C21.9761 17.3718 21.9584 17.3229 21.9318 17.2788C21.9051 17.2347 21.87 17.1964 21.8285 17.1659C21.7869 17.1355 21.7398 17.1136 21.6897 17.1014C21.6397 17.0893 21.5877 17.0871 21.5368 17.0951C21.486 17.1031 21.4372 17.1211 21.3933 17.148C21.1238 17.3111 20.8149 17.3973 20.5 17.3973C20.1851 17.3973 19.8761 17.3111 19.6067 17.148C19.5181 17.0952 19.4122 17.0795 19.3121 17.1045C19.212 17.1295 19.1258 17.193 19.0724 17.2813C19.019 17.3696 19.0027 17.4754 19.027 17.5757C19.0514 17.676 19.1144 17.7625 19.2023 17.8165C19.5938 18.0533 20.0425 18.1785 20.5 18.1785C20.9575 18.1785 21.4062 18.0533 21.7977 17.8165Z" fill="black"/>
<path d="M40.2202 24.4046L37.9649 13.9992C37.9558 13.9572 37.9398 13.9169 37.9176 13.8801L36.3892 11.3486C36.2215 11.0707 35.9886 10.8377 35.7107 10.6699C35.4328 10.5021 35.1182 10.4045 34.7942 10.3855L33.3765 10.302C32.6186 10.2577 31.8914 10.6544 31.5183 11.313L31.2849 11.7252C31.1407 11.9791 31.0539 12.2615 31.0308 12.5526C31.0076 12.8436 31.0486 13.1362 31.1508 13.4098L31.3645 13.9834C31.5195 14.4004 31.8092 14.7538 32.1878 14.9876C32.5664 15.2213 33.0122 15.3221 33.4545 15.2738L34.4675 15.1641L34.8134 23.1831H24.049V20.8649C26.0979 19.7741 27.5933 17.7763 27.9962 15.4108H28.4682C29.7156 15.4108 30.7304 14.3959 30.7304 13.1486C30.7304 12.4987 30.4546 11.9125 30.0144 11.4995V7.67031C30.0144 3.55406 26.6656 0.205307 22.5493 0.205307H18.0592C16.9581 0.205307 16.1585 0.456791 15.6823 0.952807C15.4835 1.15992 15.3769 1.3739 15.32 1.55031C12.9018 1.71851 10.9856 3.73968 10.9856 6.19984V11.4916C10.9856 11.4941 10.9863 11.4964 10.9863 11.4989C10.5457 11.9119 10.2696 12.4985 10.2696 13.1487C10.2696 14.396 11.2844 15.4109 12.5318 15.4109H12.955C13.3611 17.7952 14.8771 19.8059 16.951 20.8908V23.1831H6.18658L6.53252 15.1641L7.54556 15.2738C7.98786 15.3219 8.43356 15.2212 8.81212 14.9874C9.19067 14.7537 9.48045 14.4003 9.63556 13.9834L9.84923 13.4098C9.95144 13.1362 9.9924 12.8436 9.96924 12.5526C9.94607 12.2615 9.85935 11.9791 9.71517 11.7252L9.48166 11.313C9.10853 10.6544 8.37978 10.2578 7.62345 10.3019L6.20588 10.3854C5.8818 10.4044 5.56723 10.502 5.28932 10.6698C5.01142 10.8376 4.77854 11.0706 4.6108 11.3485L3.08244 13.88C3.06017 13.9168 3.04416 13.9571 3.03509 13.9991L0.77986 24.4046C0.548922 25.4702 0.809 26.568 1.49345 27.4168C2.17791 28.2655 3.1958 28.7523 4.28619 28.7523H9.0715V29.7271C9.0715 29.7784 9.0816 29.8292 9.10124 29.8766C9.12087 29.924 9.14964 29.967 9.18591 30.0033C9.22219 30.0396 9.26525 30.0684 9.31264 30.088C9.36003 30.1076 9.41083 30.1177 9.46213 30.1177H12.4263V39.4041C12.4263 39.5077 12.4674 39.6071 12.5407 39.6804C12.6139 39.7536 12.7133 39.7948 12.8169 39.7948H28.1831C28.2867 39.7948 28.3861 39.7536 28.4594 39.6804C28.5326 39.6071 28.5738 39.5077 28.5738 39.4041V38.5816C28.8691 38.8115 29.1662 39.0392 29.465 39.2646C29.7417 39.4735 29.9603 39.6384 30.0306 39.702C30.1049 39.7693 30.1987 39.8029 30.2925 39.8029C30.3863 39.8029 30.48 39.7693 30.5545 39.702C30.6248 39.6384 30.8432 39.4735 31.1199 39.2648C34.2441 36.9062 38.3976 33.4475 38.3977 30.6543C38.3977 29.8981 38.2126 29.1848 37.887 28.5553C38.5152 28.339 39.0768 27.9498 39.5067 27.4168C40.191 26.568 40.4511 25.4702 40.2202 24.4046ZM28.4682 14.6296H28.0879C28.0988 14.4631 28.1049 14.2953 28.1049 14.126V11.6677H28.4682C29.2848 11.6677 29.9492 12.3321 29.9492 13.1487C29.9492 13.9652 29.2848 14.6296 28.4682 14.6296ZM11.7669 6.19984C11.7669 4.06062 13.5073 2.32023 15.6465 2.32023C15.7563 2.32023 15.8616 2.28382 15.9356 2.20273C16.0087 2.12273 16.0458 2.02562 16.0372 1.91796C16.0407 1.8364 16.1246 0.986401 18.0592 0.986401H22.5493C26.2348 0.986401 29.2331 3.98476 29.2331 7.67015V11.0198C28.9878 10.9313 28.729 10.8862 28.4682 10.8864H27.7512C26.5167 10.6732 25.203 8.59617 24.7987 7.80859C24.7633 7.73964 24.7082 7.68277 24.6404 7.6452C24.5726 7.60763 24.4952 7.59105 24.418 7.59757C24.067 7.6275 23.7085 7.64101 23.3464 7.64093C19.8908 7.64085 16.14 6.40765 16.0986 6.3939C16.0399 6.37436 15.9774 6.36905 15.9162 6.3784C15.855 6.38775 15.797 6.4115 15.7468 6.44769C15.6966 6.48389 15.6557 6.53148 15.6275 6.58657C15.5993 6.64165 15.5846 6.70265 15.5846 6.76453C15.5846 9.49156 13.1663 10.7281 13.0642 10.779C13.0126 10.8045 12.9673 10.8412 12.9317 10.8863H12.5317C12.2634 10.8863 12.0059 10.9335 11.7668 11.0197V6.19984H11.7669ZM12.5318 14.6296C11.7153 14.6296 11.0509 13.9653 11.0509 13.1487C11.0509 12.332 11.7152 11.6677 12.5318 11.6677H12.8463V14.126C12.8463 14.2952 12.8524 14.463 12.8633 14.6296H12.5318ZM13.6275 14.126V11.3594C14.2701 10.9779 16.1024 9.68906 16.3403 7.28742C17.6117 7.66585 21.1133 8.59507 24.2281 8.39523C24.6168 9.08804 25.8549 11.1071 27.3237 11.5837V14.126C27.3237 17.902 24.2517 20.9741 20.4756 20.9741C16.6995 20.9741 13.6275 17.902 13.6275 14.126ZM20.4756 21.7554C21.4606 21.7554 22.4027 21.5677 23.2677 21.2263V24.0312C21.6133 25.2503 19.3868 25.2503 17.7324 24.0312V21.2449C18.6074 21.5831 19.5375 21.7562 20.4756 21.7554ZM4.28619 27.971C3.4333 27.971 2.63705 27.5902 2.10158 26.9263C1.56619 26.2624 1.36267 25.4036 1.54338 24.5701L3.78486 14.2283L5.27955 11.7524C5.3818 11.583 5.52375 11.441 5.69314 11.3388C5.86253 11.2365 6.05428 11.177 6.25181 11.1654L7.66939 11.0819C8.13002 11.0545 8.57447 11.2967 8.80197 11.6981L9.03549 12.1103C9.12338 12.265 9.17626 12.4372 9.19038 12.6146C9.2045 12.792 9.17952 12.9703 9.1172 13.137L8.90353 13.7106C8.8091 13.9648 8.63251 14.1803 8.40176 14.3228C8.17101 14.4652 7.8993 14.5266 7.6297 14.4972L6.20228 14.3427C6.14917 14.3369 6.09545 14.3421 6.04443 14.358C5.99342 14.3738 5.94619 14.3999 5.90568 14.4348C5.86516 14.4696 5.83222 14.5123 5.80889 14.5604C5.78555 14.6084 5.77232 14.6608 5.77002 14.7141L5.38853 23.5569C5.38625 23.6096 5.39466 23.6622 5.41324 23.7115C5.43183 23.7609 5.46021 23.8059 5.49667 23.844C5.53313 23.8821 5.57692 23.9124 5.6254 23.9331C5.67388 23.9538 5.72605 23.9644 5.77877 23.9645H9.0715V27.971H4.28619ZM27.7925 39.0135H13.2075V29.7271C13.2075 29.6758 13.1974 29.625 13.1778 29.5776C13.1581 29.5302 13.1294 29.4872 13.0931 29.4509C13.0568 29.4146 13.0138 29.3858 12.9664 29.3662C12.919 29.3466 12.8682 29.3365 12.8169 29.3365H9.85275V23.9645H16.9511V24.2237C16.9511 24.2824 16.9643 24.3403 16.9898 24.3932C17.0152 24.446 17.0522 24.4925 17.0981 24.5291C18.0605 25.2972 19.2687 25.7202 20.5 25.7202C21.7314 25.7202 22.9396 25.2971 23.902 24.5291C23.9479 24.4925 23.9849 24.446 24.0103 24.3932C24.0358 24.3403 24.049 24.2824 24.049 24.2237V23.9645H31.1473V26.9273C30.8297 27.1553 30.5426 27.4227 30.2927 27.7233C29.4256 26.6783 28.146 26.0684 26.7734 26.0684H26.7733C24.245 26.0684 22.1877 28.1256 22.1877 30.654C22.1876 32.968 25.0381 35.7388 27.7925 37.9624V39.0135ZM30.6491 38.6413C30.5062 38.7491 30.3881 38.8383 30.2925 38.9116C30.1968 38.8382 30.0788 38.7491 29.9358 38.6411C28.2127 37.3402 22.9688 33.3812 22.9689 30.6541C22.969 28.5562 24.6757 26.8496 26.7734 26.8496C28.0652 26.8496 29.2582 27.5019 29.9647 28.5944C30.0001 28.6492 30.0487 28.6942 30.106 28.7254C30.1632 28.7566 30.2274 28.7729 30.2927 28.7729C30.3579 28.7729 30.4221 28.7566 30.4794 28.7254C30.5366 28.6942 30.5852 28.6492 30.6206 28.5945C31.3273 27.502 32.5203 26.8497 33.8121 26.8498C35.9099 26.8498 37.6164 28.5565 37.6164 30.6543C37.6163 33.3815 32.3724 37.3403 30.6491 38.6413ZM38.8985 26.9263C38.5288 27.3862 38.0229 27.7171 37.4535 27.8715C36.6147 26.7765 35.2949 26.0685 33.8121 26.0684C33.1625 26.0683 32.5203 26.207 31.9286 26.4752V23.9643H35.2213C35.274 23.9643 35.3262 23.9536 35.3746 23.9329C35.4231 23.9122 35.4669 23.8819 35.5034 23.8438C35.5398 23.8058 35.5682 23.7607 35.5868 23.7114C35.6054 23.662 35.6138 23.6095 35.6115 23.5568L35.2301 14.714C35.2278 14.6606 35.2145 14.6083 35.1912 14.5602C35.1678 14.5122 35.1349 14.4694 35.0944 14.4346C35.0539 14.3998 35.0067 14.3737 34.9557 14.3578C34.9047 14.3419 34.8509 14.3367 34.7978 14.3424L33.3704 14.4969C33.1008 14.5263 32.8292 14.4649 32.5984 14.3224C32.3677 14.1799 32.1911 13.9645 32.0966 13.7104L31.8829 13.1367C31.8206 12.97 31.7956 12.7917 31.8097 12.6143C31.8238 12.4369 31.8767 12.2647 31.9646 12.11L32.1981 11.6979C32.4254 11.2965 32.8687 11.0542 33.3306 11.0817L34.7482 11.1652C34.9457 11.1767 35.1375 11.2362 35.3069 11.3385C35.4762 11.4408 35.6182 11.5828 35.7204 11.7522L37.2152 14.228L39.4566 24.5698C39.6373 25.4036 39.4339 26.2624 38.8985 26.9263Z" fill="black"/>
<path d="M33.7413 28.7178C33.5767 28.7174 33.4137 28.7496 33.2616 28.8125C33.1095 28.8755 32.9715 28.9681 32.8554 29.0848L29.971 31.9691L29.0267 31.0249C28.5384 30.5366 27.7436 30.5364 27.2551 31.0249C27.0185 31.2616 26.8881 31.5762 26.8881 31.9108C26.8881 32.2454 27.0185 32.5601 27.2551 32.7966L29.0851 34.6267C29.2012 34.7434 29.3392 34.8359 29.4913 34.8989C29.6433 34.9619 29.8064 34.9941 29.971 34.9937C30.3055 34.9937 30.6202 34.8634 30.8568 34.6267L34.6271 30.8565C34.8638 30.6198 34.9941 30.3053 34.9941 29.9706C34.9941 29.6359 34.8638 29.3213 34.6272 29.0848C34.5112 28.9681 34.3731 28.8756 34.221 28.8126C34.069 28.7496 33.9059 28.7174 33.7413 28.7178ZM34.0748 30.304L30.3045 34.0742C30.2608 34.1182 30.2088 34.153 30.1515 34.1767C30.0943 34.2004 30.0329 34.2126 29.971 34.2124C29.909 34.2126 29.8476 34.2005 29.7904 34.1767C29.7331 34.153 29.6811 34.1182 29.6374 34.0743L27.8074 32.2441C27.7183 32.1551 27.6692 32.0367 27.6692 31.9108C27.6692 31.7848 27.7183 31.6665 27.8074 31.5773C27.8512 31.5335 27.9032 31.4988 27.9604 31.4751C28.0176 31.4515 28.079 31.4393 28.1409 31.4394C28.2617 31.4394 28.3824 31.4854 28.4744 31.5773L29.6948 32.7977C29.731 32.834 29.7741 32.8628 29.8215 32.8824C29.8689 32.902 29.9197 32.9121 29.971 32.9121C30.0222 32.9121 30.073 32.902 30.1204 32.8824C30.1678 32.8628 30.2109 32.834 30.2471 32.7977L33.4077 29.6372C33.4969 29.5481 33.6153 29.4991 33.7413 29.4991C33.8674 29.4991 33.9856 29.5481 34.0748 29.6372C34.1187 29.6809 34.1535 29.7328 34.1772 29.7901C34.2009 29.8473 34.2131 29.9087 34.2129 29.9706C34.213 30.0326 34.2009 30.0939 34.1772 30.1511C34.1535 30.2083 34.1187 30.2603 34.0748 30.304Z" fill="black"/>
</g>
<defs>
<clipPath id="clip0_69_1583">
<rect width="40" height="40" fill="white" transform="translate(0.5)"/>
</clipPath>
</defs>
</svg>
