<svg width="50" height="50" viewBox="0 0 50 50" fill="none" xmlns="http://www.w3.org/2000/svg">
<g clip-path="url(#clip0_120_864)">
<path d="M29.4532 39.2647V29.6047H25.0506V32.6378H15.1701C14.1131 32.647 13.2583 33.5018 13.2583 34.5588V39.2739C13.2583 41.8382 15.3355 43.9154 17.8998 43.9154H24.8208C27.3851 43.9062 29.4623 41.829 29.4532 39.2647Z" fill="#1F315F"/>
<path d="M25.0601 44.2095C24.9866 42.454 23.5528 41.0753 21.7972 41.0753H20.9241C19.1686 41.0753 17.7347 42.4632 17.6704 44.2187L25.0601 44.2095Z" fill="#EFCDB1"/>
<path d="M21.3557 41.0293C21.0524 41.0201 20.8134 40.7812 20.8042 40.4779V36.6635C20.8042 36.3602 21.0524 36.1121 21.3557 36.1121C21.659 36.1121 21.9071 36.3602 21.9071 36.6635V40.4779C21.9163 40.7812 21.6774 41.0201 21.3741 41.0293H21.3649H21.3557Z" fill="#414042"/>
<path d="M25.0694 46.7279V44.2095H17.6705V46.7279C17.6613 48.5293 19.1227 49.9907 20.9241 49.9999H21.8065C23.608 49.9907 25.0694 48.5293 25.0694 46.7279Z" fill="#8A5D3B"/>
<path d="M25.0598 37.7113C24.7565 37.7113 24.5083 37.4631 24.5083 37.1598V33.1065C24.5083 32.8032 24.7565 32.5551 25.0598 32.5551C25.3631 32.5551 25.6112 32.8032 25.6112 33.1065V37.1598C25.6112 37.4631 25.3631 37.7113 25.0598 37.7113Z" fill="#192A4F"/>
<path d="M29.4442 29.6048V27.1967C29.4442 26.5993 28.9662 26.1213 28.3688 26.1213H26.1261C25.5287 26.1213 25.0508 26.5993 25.0508 27.1967V29.6048H29.4442Z" fill="#EFCDB1"/>
<path d="M41.3101 26.4798L32.2108 23.2169L30.7219 27.3621L33.5803 28.3824L30.2439 37.693C29.8855 38.6857 30.4002 39.7794 31.3928 40.1379L35.8322 41.7279C38.2494 42.5919 40.9057 41.3419 41.7697 38.9246L44.1042 32.4173C44.9682 30.0092 43.7182 27.3529 41.3101 26.4798Z" fill="#89C45E"/>
<path d="M44.4626 32.2978C42.7898 31.7647 40.9976 32.647 40.4093 34.3014L40.1152 35.1194C39.527 36.7739 40.345 38.5937 41.9718 39.2555L44.4626 32.2978Z" fill="#EFCDB1"/>
<path d="M39.7014 35.0643C39.637 35.0643 39.5727 35.0551 39.5176 35.0276L35.9238 33.7408C35.6389 33.6397 35.4918 33.318 35.5929 33.0331C35.694 32.7481 35.9973 32.6011 36.2823 32.7022H36.2915L39.8852 33.9889C40.1701 34.0809 40.3356 34.3934 40.2345 34.6875C40.1609 34.9173 39.9404 35.0735 39.7014 35.0643Z" fill="#414042"/>
<path d="M46.843 33.1433L44.5912 32.3345L44.4625 32.2977L41.9717 39.2555L42.0912 39.3014L44.343 40.1102C46.0434 40.7168 47.9092 39.8345 48.5158 38.1341L48.8099 37.3161C49.4165 35.6249 48.5342 33.7591 46.843 33.1433Z" fill="#8A5D3B"/>
<path d="M37.8263 30.4595L37.6424 30.4319L33.8281 29.0624C33.5432 28.9613 33.3961 28.6396 33.4972 28.3547C33.5983 28.0698 33.92 27.9227 34.2049 28.0238L38.0193 29.3933C38.3042 29.4944 38.4513 29.7977 38.3502 30.0827V30.0919C38.2674 30.3124 38.0652 30.4595 37.8263 30.4595Z" fill="#75AA4D"/>
<path d="M32.2107 23.2169L29.9405 22.4081C29.3798 22.2059 28.764 22.5 28.5618 23.0515V23.0607L27.8081 25.1654C27.6059 25.7261 27.9 26.3419 28.4515 26.5441H28.4607L30.7217 27.3621L32.2107 23.2169Z" fill="#EFCDB1"/>
<path d="M33.3229 11.7003L27.606 19.4944L31.1538 22.0955L32.946 19.6507L40.9148 25.4963C41.7696 26.1213 42.9644 25.9375 43.5894 25.0827L46.3835 21.2775C47.9001 19.2095 47.4497 16.3051 45.3817 14.7886L39.8027 10.6985C37.7346 9.19113 34.8394 9.6415 33.3229 11.7003Z" fill="#FDC00F"/>
<path d="M39.7934 10.3217C38.81 11.7739 39.1501 13.7408 40.5655 14.7794L41.264 15.2941C42.6795 16.3235 44.6556 16.0661 45.7493 14.6967L39.7934 10.3217Z" fill="#EFCDB1"/>
<path d="M38.3044 19.1452C38.1849 19.1452 38.0746 19.1085 37.9827 19.0441C37.7345 18.8603 37.6794 18.5202 37.8632 18.2721L40.1151 15.193C40.2989 14.9449 40.639 14.8897 40.8871 15.0735C41.1353 15.2574 41.1904 15.5974 41.0066 15.8456L38.7456 18.9246C38.6445 19.0625 38.479 19.1452 38.3044 19.1452Z" fill="#414042"/>
<path d="M41.2732 8.29037L39.8578 10.2205L39.7935 10.3216L45.7493 14.6966L45.8321 14.5955L47.2475 12.6562C48.3137 11.204 47.992 9.16353 46.5398 8.09736L45.8413 7.58265C44.389 6.51647 42.3486 6.82897 41.2824 8.28118C41.2732 8.28118 41.2732 8.29037 41.2732 8.29037Z" fill="#8A5D3B"/>
<path d="M33.2218 19.8253C33.1023 19.8253 32.992 19.7885 32.8909 19.7242C32.6427 19.5404 32.5968 19.2003 32.7806 18.9521L35.1703 15.6801C35.3541 15.4319 35.6942 15.3768 35.9423 15.5606C36.1905 15.7444 36.2457 16.0845 36.0618 16.3327L33.6629 19.6047C33.5618 19.7426 33.3964 19.8253 33.2218 19.8253Z" fill="#E5A60A"/>
<path d="M27.6059 19.4944L26.1813 21.4337C25.832 21.9117 25.9331 22.5826 26.4111 22.9411L28.2217 24.2646C28.6997 24.6139 29.3706 24.5128 29.7291 24.0348L31.1537 22.0955L27.6059 19.4944Z" fill="#EFCDB1"/>
<path d="M14.3612 31.5165L23.3318 27.9136L21.6958 23.8327L18.8741 24.9632L15.1884 15.7904C14.8024 14.8161 13.6995 14.329 12.716 14.715C12.716 14.715 12.7068 14.715 12.7068 14.7242L8.32261 16.4889C5.95129 17.4448 4.80239 20.147 5.74908 22.5183L8.3318 28.9338C9.27849 31.3143 11.9715 32.4724 14.352 31.5165H14.3612Z" fill="#02648E"/>
<path d="M8.13879 29.2739C9.73805 28.557 10.4917 26.7003 9.83915 25.0735L9.50827 24.2647C8.8557 22.6378 7.03585 21.8198 5.39062 22.4081L8.13879 29.2739Z" fill="#EFCDB1"/>
<path d="M10.2254 25C10.0049 25 9.80265 24.8621 9.71993 24.6507C9.60963 24.3658 9.73831 24.0441 10.0232 23.9338L13.5618 22.5091C13.8468 22.3989 14.1685 22.5367 14.2879 22.8216C14.3982 23.1066 14.2604 23.4283 13.9754 23.5386L10.4368 24.9632C10.3725 24.9908 10.299 25 10.2254 25Z" fill="#414042"/>
<path d="M5.80441 30.2114L8.02867 29.3198L8.13897 29.2739L5.3908 22.4081L5.26213 22.454L3.04705 23.3456C1.37426 24.0165 0.565436 25.9191 1.23639 27.5919L1.55808 28.4007C2.22904 30.0735 4.13161 30.8823 5.80441 30.2114Z" fill="#8A5D3B"/>
<path d="M14.6924 27.1967C14.3891 27.2058 14.1318 26.9669 14.1318 26.6636C14.1226 26.4338 14.2696 26.2224 14.481 26.1305L18.2402 24.6231C18.5251 24.5128 18.8468 24.6415 18.9571 24.9264C19.0766 25.2022 18.9479 25.5239 18.6722 25.6342C18.663 25.6342 18.663 25.6342 18.6538 25.6433L14.8946 27.1599C14.8303 27.1875 14.7659 27.1967 14.6924 27.1967Z" fill="#345493"/>
<path d="M23.3318 27.9136L25.5653 27.0128C26.1168 26.7922 26.3833 26.1672 26.1627 25.6158L25.3263 23.5294C25.1057 22.9779 24.4807 22.7114 23.9293 22.9319L21.6958 23.8327L23.3318 27.9136Z" fill="#EFCDB1"/>
<path d="M15.9516 14.2003L21.3101 22.2426L24.9681 19.8069L23.2862 17.2886L31.5215 11.8106C32.3946 11.2224 32.6336 10.0367 32.0453 9.15436L29.4351 5.22973C28.0104 3.09738 25.1336 2.51833 23.0012 3.93378L17.2476 7.7665C15.1152 9.18194 14.5362 12.068 15.9516 14.2003Z" fill="#BE1E2D"/>
<path d="M16.8799 7.65615C17.9093 9.07159 19.867 9.43005 21.3284 8.45578L22.0545 7.97784C23.5159 7.01277 23.9571 5.05505 23.038 3.55688L16.8799 7.65615Z" fill="#EFCDB1"/>
<path d="M24.141 12.4448C23.9571 12.4448 23.7825 12.3529 23.6814 12.1966L21.5674 9.01649C21.3836 8.76833 21.4388 8.42825 21.6777 8.24443C21.9259 8.06061 22.266 8.11575 22.4498 8.35472C22.459 8.37311 22.4774 8.39149 22.4865 8.40987L24.6005 11.5808C24.766 11.8382 24.7016 12.1783 24.4443 12.3529C24.3524 12.408 24.2513 12.4448 24.141 12.4448Z" fill="#414042"/>
<path d="M15.4829 5.55143L16.8064 7.54592L16.88 7.65621L23.038 3.55695L22.9645 3.44665L21.641 1.45217C20.6391 -0.0459959 18.6079 -0.450408 17.1097 0.551431L16.3928 1.02937C14.8947 2.02202 14.4811 4.03489 15.4737 5.54224L15.4829 5.55143Z" fill="#8A5D3B"/>
<path d="M23.0288 17.454C22.845 17.454 22.6704 17.3621 22.5693 17.2058L20.3266 13.8326C20.152 13.5753 20.2255 13.2352 20.4829 13.0698C20.7402 12.8951 21.0803 12.9687 21.2457 13.2168L23.4884 16.59C23.6538 16.8382 23.5895 17.1782 23.3505 17.3437C23.3413 17.3437 23.3413 17.3529 23.3321 17.3529C23.2402 17.4172 23.1391 17.454 23.0288 17.454Z" fill="#AA1729"/>
<path d="M21.3101 22.2425L22.6428 24.2462C22.9645 24.7425 23.6262 24.8804 24.1134 24.5587C24.1226 24.5587 24.1226 24.5495 24.1317 24.5495L26.0067 23.3087C26.5031 22.9778 26.6317 22.3069 26.3009 21.8106L24.9681 19.8069L21.3101 22.2425Z" fill="#EFCDB1"/>
</g>
<defs>
<clipPath id="clip0_120_864">
<rect width="50" height="50" fill="white"/>
</clipPath>
</defs>
</svg>
